<svg xmlns="http://www.w3.org/2000/svg" viewBox="0 0 100 100"><defs><linearGradient y2="61.749" x2="48.72" y1="85.34" x1="84.48" gradientUnits="userSpaceOnUse" id="0"><stop stop-opacity=".374"/><stop offset="1" stop-opacity="0"/></linearGradient></defs><path d="m12.135.003c-6.702 0-12.137 5.435-12.136 12.137v75.72c0 6.702 5.435 12.137 12.136 12.137h75.73c6.702 0 12.136-5.435 12.136-12.137v-75.72c0-6.702-5.435-12.137-12.136-12.137z"/><g fill="#fff"><path d="m-1182.55 382.07l.068-392.5-339.92-194.37-339.43 194.38v80.956l339.42 193.41 204.54-117.5.415 156.13-205.04 118.89-205.59-117.92-134.37 76.73 326.25 188.51 14.559 7.102zm-475.39-354.12l135.47-77.76 136.59 80.6-135.32 77.45z" transform="matrix(.10247 0 0 .10247 206.01 30.987)"/></g><path d="m12.136-.001c-6.702 0-12.137 5.435-12.137 12.137v75.73c0 6.702 5.435 12.137 12.137 12.136h75.73c6.702 0 12.136-5.435 12.136-12.136v-75.73c0-6.702-5.435-12.136-12.136-12.136z" fill="url(#0)"/></svg>