<svg xmlns="http://www.w3.org/2000/svg" viewBox="0 0 283.87097 100"><defs><linearGradient id="0" gradientUnits="userSpaceOnUse" x1="272.72" y1="91.43" x2="210.72" y2="48.859"><stop stop-opacity=".374"/><stop stop-opacity="0" offset="1"/></linearGradient></defs><path d="m12.137.002c-6.702 0-12.137 5.435-12.137 12.138v75.72c0 6.702 5.434 12.138 12.137 12.138h259.6c6.702 0 12.137-5.435 12.137-12.138v-75.72c0-6.702-5.435-12.138-12.137-12.138z" fill="#aab2ab"/><path d="m28.19 25.01c-6.05 6.145-9.07 13.348-9.07 21.606 0 8.261 2.994 15.397 8.977 21.419 5.984 6.02 13.11 9.04 21.377 9.04 8.268 0 15.455-3.039 21.561-9.126 5.797-5.652 8.7-12.758 8.7-21.326 0-8.503-2.948-15.723-8.839-21.652-5.89-5.929-13.03-8.894-21.423-8.894-8.39 0-15.487 2.977-21.284 8.935m188.9-11.977c6.226 0 11.513 2.21 15.865 6.626 4.39 4.371 6.59 9.71 6.59 16.01 0 6.348-2.148 11.619-6.455 15.806-4.532 4.506-9.865 6.761-16 6.761-6.132 0-11.423-2.229-15.861-6.69-4.439-4.465-6.658-9.755-6.658-15.874 0-6.119 2.242-11.458 6.729-16.01 4.297-4.423 9.565-6.629 15.79-6.629m-67.21-.003c6.226 0 11.513 2.21 15.861 6.626 4.397 4.371 6.594 9.71 6.594 16.01 0 6.348-2.148 11.619-6.455 15.806-4.532 4.51-9.865 6.761-16 6.761-6.132 0-11.423-2.229-15.861-6.694-4.442-4.461-6.661-9.752-6.661-15.874 0-6.116 2.242-11.455 6.729-16.01 4.303-4.416 9.568-6.626 15.794-6.626" fill="#f2f2f2"/><path d="m12.137.002c-6.702 0-12.137 5.435-12.137 12.138v75.72c0 6.702 5.434 12.138 12.137 12.138h259.6c6.702 0 12.137-5.435 12.137-12.138v-75.72c0-6.702-5.435-12.138-12.137-12.138z" fill="url(#0)"/><path d="m0 70.22v17.656c0 6.702 5.422 12.13 12.13 12.13h259.59c6.702 0 12.156-5.422 12.156-12.12v-17.656h-196c-7.904 13.04-22.15 21.738-38.438 21.75-16.3.009-30.585-8.703-38.5-21.75h-10.938"/><path d="m75.63 20.17c7.152 7.2 10.729 16.01 10.729 26.442 0 10.429-3.513 19.15-10.545 26.16-7.461 7.384-16.277 11.08-26.452 11.08-10.05 0-18.716-3.661-25.99-10.984-7.277-7.326-10.913-16.07-10.913-26.25 0-10.181 3.635-18.997 10.913-26.445 7.09-7.2 15.755-10.8 25.99-10.8 10.361 0 19.12 3.6 26.27 10.8m-47.44 4.842c-6.05 6.145-9.07 13.348-9.07 21.606 0 8.261 2.994 15.397 8.977 21.419 5.984 6.02 13.11 9.04 21.377 9.04 8.268 0 15.455-3.039 21.561-9.126 5.797-5.652 8.7-12.758 8.7-21.326 0-8.503-2.948-15.723-8.839-21.652-5.89-5.929-13.03-8.894-21.423-8.894-8.39 0-15.487 2.977-21.284 8.935m15.913 17.974c-.926-2.026-2.306-3.039-4.152-3.039-3.261 0-4.89 2.21-4.89 6.626 0 4.419 1.629 6.629 4.89 6.629 2.152 0 3.694-1.074 4.616-3.232l4.519 2.423c-2.155 3.852-5.387 5.781-9.697 5.781-3.323 0-5.987-1.023-7.987-3.077-2-2.052-3-4.877-3-8.481 0-3.545 1.032-6.355 3.094-8.439 2.061-2.084 4.632-3.123 7.71-3.123 4.558 0 7.819 1.806 9.79 5.416zm21.268 0c-.926-2.026-2.281-3.039-4.068-3.039-3.326 0-4.99 2.21-4.99 6.626 0 4.419 1.665 6.629 4.99 6.629 2.158 0 3.668-1.074 4.529-3.232l4.623 2.423c-2.152 3.852-5.377 5.781-9.681 5.781-3.319 0-5.977-1.023-7.977-3.077-1.997-2.052-2.994-4.877-2.994-8.481 0-3.545 1.013-6.355 3.042-8.439 2.026-2.084 4.606-3.123 7.742-3.123 4.548 0 7.806 1.806 9.771 5.416zm151.65-34.919c-7.597 0-14.03 2.668-19.29 8-5.403 5.523-8.103 12.05-8.103 19.603 0 7.548 2.7 14.04 8.103 19.465 5.4 5.429 11.832 8.142 19.29 8.142 7.555 0 14.1-2.739 19.642-8.213 5.213-5.197 7.829-11.665 7.829-19.394 0-7.729-2.658-14.265-7.971-19.603-5.306-5.335-11.806-8-19.5-8m.071 4.968c6.226 0 11.513 2.21 15.865 6.626 4.39 4.371 6.59 9.71 6.59 16.01 0 6.348-2.148 11.619-6.455 15.806-4.532 4.506-9.865 6.761-16 6.761-6.132 0-11.423-2.229-15.861-6.69-4.439-4.465-6.658-9.755-6.658-15.874 0-6.119 2.242-11.458 6.729-16.01 4.297-4.423 9.565-6.629 15.79-6.629m-12.229 18.739c1.097-6.945 5.955-10.658 12.04-10.658 8.761 0 14.09 6.394 14.09 14.923 0 8.323-5.677 14.787-14.229 14.787-5.884 0-11.152-3.645-12.11-10.797h6.913c.203 3.713 2.6 5.02 6.02 5.02 3.9 0 6.432-3.645 6.432-9.216 0-5.845-2.19-8.939-6.294-8.939-3.01 0-5.61 1.1-6.158 4.881l2.01-.01-5.442 5.474-5.439-5.474zm-47.629-2.939c0-.987-.794-1.784-1.774-1.784h-11.219c-.977 0-1.774.797-1.774 1.784v11.29h3.132v13.371h8.503v-13.371h3.132zm-7.381-10.994c2.116 0 3.835 1.729 3.835 3.861 0 2.132-1.719 3.861-3.835 3.861-2.119 0-3.835-1.729-3.835-3.861 0-2.132 1.716-3.861 3.835-3.861m-.039-9.774c-7.597 0-14.03 2.668-19.294 8-5.403 5.519-8.103 12.05-8.103 19.6 0 7.545 2.7 14.04 8.103 19.465 5.4 5.429 11.832 8.142 19.294 8.142 7.555 0 14.1-2.739 19.639-8.216 5.223-5.197 7.832-11.661 7.832-19.394 0-7.732-2.655-14.261-7.968-19.6-5.306-5.335-11.81-8-19.503-8m.071 4.965c6.226 0 11.513 2.21 15.861 6.626 4.397 4.371 6.594 9.71 6.594 16.01 0 6.348-2.148 11.619-6.455 15.806-4.532 4.51-9.865 6.761-16 6.761-6.132 0-11.423-2.229-15.861-6.694-4.442-4.461-6.661-9.752-6.661-15.874 0-6.116 2.242-11.455 6.729-16.01 4.303-4.416 9.568-6.626 15.794-6.626"/><path d="m223.47 77.971l5.858 15.768h-3.577l-1.184-3.513h-5.858l-1.229 3.513h-3.465l5.923-15.768h3.532m.2 9.668l-1.974-5.784h-.045l-2.042 5.784h4.061m-19.61 2.2c.19.371.442.668.755.894.316.229.681.4 1.103.51.429.11.865.165 1.316.165.306 0 .635-.026.987-.074.352-.048.677-.152.987-.3.303-.148.561-.348.761-.606.206-.258.31-.584.31-.984 0-.426-.135-.768-.406-1.035-.268-.268-.626-.484-1.061-.665-.439-.177-.935-.329-1.487-.461-.558-.135-1.123-.284-1.687-.445-.587-.148-1.155-.329-1.713-.539-.552-.213-1.048-.49-1.487-.832-.442-.335-.794-.758-1.065-1.268-.268-.51-.403-1.126-.403-1.845 0-.813.171-1.513.516-2.11.339-.594.794-1.09 1.348-1.49.555-.397 1.181-.69 1.884-.884.7-.19 1.406-.284 2.103-.284.819 0 1.603.09 2.355.277.748.184 1.419.481 2 .894.587.41 1.052.939 1.394 1.581.345.639.516 1.416.516 2.332h-3.342c-.029-.471-.129-.865-.294-1.171-.171-.31-.39-.555-.668-.732-.277-.177-.594-.303-.952-.371-.355-.074-.742-.113-1.165-.113-.277 0-.555.032-.832.087-.277.061-.526.165-.748.31-.226.152-.416.335-.561.555-.145.219-.216.5-.216.839 0 .31.061.561.174.748.119.197.352.371.694.532.342.161.819.326 1.423.487.606.158 1.4.365 2.374.616.297.058.7.165 1.216.323.519.152 1.032.397 1.545.739.513.339.955.794 1.329 1.361.371.568.558 1.29.558 2.174 0 .726-.142 1.394-.419 2.01-.277.619-.69 1.152-1.239 1.6-.552.455-1.229.8-2.039 1.052-.813.252-1.755.374-2.819.374-.865 0-1.7-.106-2.513-.323-.81-.21-1.529-.552-2.152-1.01-.619-.461-1.116-1.042-1.481-1.752-.365-.706-.542-1.545-.526-2.516h3.342c-.003.532.09.981.281 1.348m-55.765-11.868h3.865l3.671 6.229 3.645-6.229h3.839l-5.816 9.716v6.05h-3.452v-6.139l-5.752-9.629m-6.371 0c.745 0 1.426.068 2.042.2.616.132 1.142.348 1.584.648.439.303.777.706 1.019 1.203.242.5.361 1.123.361 1.855 0 .797-.177 1.455-.539 1.987-.355.529-.89.961-1.59 1.297.968.284 1.687.771 2.168 1.471.477.703.719 1.545.719 2.529 0 .794-.158 1.484-.465 2.068-.306.581-.723 1.055-1.245 1.423-.519.368-1.116.642-1.781.819-.668.177-1.352.265-2.058.265h-7.606v-15.768h7.39v.003m-.442 6.374c.616 0 1.119-.148 1.516-.439.397-.297.597-.771.597-1.432 0-.368-.068-.671-.2-.903-.132-.232-.306-.416-.529-.548-.223-.132-.471-.226-.758-.277-.287-.052-.584-.074-.89-.074h-3.226v3.677h3.49zm.2 6.694c.339 0 .661-.032.968-.097.306-.068.581-.177.813-.335.235-.152.419-.361.561-.626.142-.265.21-.603.21-1.016 0-.806-.229-1.387-.684-1.729-.455-.345-1.058-.519-1.803-.519h-3.761v4.326h3.697z" fill="#fff"/></svg>