<svg xmlns="http://www.w3.org/2000/svg" viewBox="0 0 100 100"><defs><linearGradient y2="61.754" x2="48.725" y1="85.34" x1="84.49" gradientUnits="userSpaceOnUse" id="0"><stop stop-opacity=".374"/><stop offset="1" stop-opacity="0"/></linearGradient></defs><path d="m12.137 0c-6.702 0-12.138 5.435-12.137 12.138v75.72c0 6.702 5.435 12.138 12.137 12.138h75.73c6.702 0 12.137-5.435 12.137-12.138v-75.72c0-6.702-5.435-12.138-12.137-12.138z" fill="#558fce"/><g transform="matrix(.2 0 0 .2 0-4)"><g transform="matrix(1.0016 0 0 1.01449-.391 24.592)"><path d="m334.81 84.22v68.969h45.531v-68.969h-45.531" fill="#ebab53"/><path d="m90.25 84.19v68.969h244.56v-68.969z" fill="#398710"/><path d="m380.34 84.19v68.969h29.406v-68.969z" fill="#fff"/></g><path d="m90.91 100c-6.02 0-10.906 4.905-10.906 10.938v68.13c0 6.03 4.882 10.938 10.906 10.938h318.19c6.02 0 10.906-4.905 10.906-10.938v-68.12c0-6.03-4.882-10.938-10.906-10.938h-318.19m9.375 10h299.44c5.67 0 10.281 3.808 10.281 8.5v53c0 4.692-4.612 8.5-10.281 8.5h-299.44c-5.67 0-10.281-3.808-10.281-8.5v-53c0-4.692 4.612-8.5 10.281-8.5" fill="#062958"/></g><g transform="matrix(.2 0 0 .2 0-2)"><g transform="matrix(1.0016 0 0 1.01449-.391 6.377)"><path d="m262.59 215.53v68.969h45.531v-68.969h-45.531" fill="#ebab53"/><path d="m90.25 215.5v68.969h172.34v-68.969z" fill="#35830b"/><path d="m308.13 215.5v68.969h101.63v-68.969z" fill="#fff"/></g><path d="m90.91 215c-6.02 0-10.906 4.905-10.906 10.938v68.13c0 6.03 4.882 10.938 10.906 10.938h318.19c6.02 0 10.906-4.905 10.906-10.938v-68.12c0-6.03-4.882-10.938-10.906-10.938h-318.19m9.375 10h299.44c5.67 0 10.281 3.808 10.281 8.5v53c0 4.692-4.612 8.5-10.281 8.5h-299.44c-5.67 0-10.281-3.808-10.281-8.5v-53c0-4.692 4.612-8.5 10.281-8.5" fill="#062958"/></g><g transform="scale(.2)"><g transform="matrix(1.0016 0 0 1.01495-.391-11.998)"><path d="m225.22 346.81v68.969h98.06v-68.969h-98.06" fill="#ebab53"/><path d="m90.25 346.81v68.969h134.97v-68.969z" fill="#35830b"/><path d="m323.28 346.81v68.969h86.47v-68.969z" fill="#fff"/></g><path d="m90.91 330c-6.02 0-10.906 4.905-10.906 10.938v68.13c0 6.03 4.882 10.938 10.906 10.938h318.19c6.02 0 10.906-4.905 10.906-10.938v-68.12c0-6.03-4.882-10.938-10.906-10.938h-318.19m9.375 10h299.44c5.67 0 10.281 3.808 10.281 8.5v53c0 4.692-4.612 8.5-10.281 8.5h-299.44c-5.67 0-10.281-3.808-10.281-8.5v-53c0-4.692 4.612-8.5 10.281-8.5" fill="#062958"/></g><path d="m12.138 0c-6.702 0-12.138 5.435-12.138 12.138v75.73c0 6.702 5.435 12.138 12.138 12.137h75.73c6.702 0 12.137-5.435 12.137-12.137v-75.73c0-6.702-5.435-12.137-12.137-12.137z" fill="url(#0)"/></svg>