<svg xmlns="http://www.w3.org/2000/svg" viewBox="0 0 100 100"><defs><linearGradient y2="61.754" x2="48.725" y1="85.34" x1="84.49" gradientUnits="userSpaceOnUse" id="0"><stop stop-opacity=".374"/><stop offset="1" stop-opacity="0"/></linearGradient></defs><path d="m12.137 0c-6.702 0-12.138 5.435-12.137 12.138v75.72c0 6.702 5.435 12.138 12.137 12.138h75.73c6.702 0 12.137-5.435 12.138-12.138v-75.72c0-6.702-5.435-12.138-12.138-12.138z" fill="#fff"/><path d="m51.924 10.951c-.06.007-.094.031-.094.075 0 .039.15.353.331.7.71 1.363-.115 2.02-3.612 2.881-2.256.557-5.03 1.432-6.594 2.069-.636.259-.663.254-1.6-.119-3-1.193-6.617-1.312-9.788-.319-2.081.652-3.224 1.34-4.675 2.794-1.107 1.109-1.426 1.546-2.1 2.906-.961 1.939-1.501 3.964-1.744 6.538-.138 1.464-.235 1.905-.419 1.962-.919.287-2.518 1.225-3.313 1.944-4.438 4.02-4.75 11.76-.65 16.15 1.51 1.617 3 2.454 5.212 2.919.231.048.419.182.419.294 0 .334-.902 1.477-1.381 1.75-.245.14-.416.316-.387.4.06.178.903.186 1.506.013.388-.112.421-.085.419.319-.003.532-1.332 3.333-2.063 4.35-.622.866-.669 1.103-.188.956.466-.142 2.01-1.072 2.25-1.356.18-.217.613-.323.613-.15 0 .667.544 4.946.775 6.094.169.839.895 3.272 1.613 5.406.978 2.91 1.28 4.01 1.219 4.388-.091.564.107.654.6.281.504-.381.754-.267 1.494.675.393.501 1.471 1.615 2.387 2.475 1.312 1.231 1.838 1.854 2.469 2.919.441.744 1.345 2.01 2.02 2.813.674.802 1.432 1.837 1.681 2.306.935 1.76 2.703 3 4.888 3.438 1.356.269 7.581.319 8.825.069 1.307-.262 2.299-.942 3.575-2.456.619-.734 1.65-1.73 2.294-2.213.644-.482 1.748-1.458 2.45-2.169 1.425-1.443 1.218-1.423 2.05-.244.151.214.325.394.394.394.068 0 .161-.411.206-.906.145-1.599 1.715-4.148 4.138-6.725 1.868-1.986 3.918-4.682 5.119-6.744.502-.862 1.018-1.707 1.15-1.875.237-.302.244-.301.506.075.399.573 1.29 1.541 1.356 1.475.032-.032-.049-.495-.175-1.031-.303-1.285-.306-3.783-.006-4.5.125-.298.28-.52.344-.487 1.122.571 1.616.74 1.756.6.11-.11.02-.317-.294-.675-.259-.295-.567-.921-.719-1.462-.245-.874-.243-1.03-.025-2.119.32-1.594.536-3.683.537-5.094l.006-1.163 1.081-.244c2.617-.591 4.993-2.52 6.281-5.094 1-2 1.231-3.21 1.138-5.962-.06-1.762-.147-2.444-.412-3.225-.997-2.93-2.711-4.914-5.4-6.25l-1.088-.544-.106-1.6c-.129-1.967-.532-3.569-1.331-5.275-1.725-3.681-4.226-5.956-7.338-6.688-1.446-.34-3.698-.304-5.4.087l-1.413.325-1.206-.731c-1.15-.698-3.439-1.744-5.544-2.531-.713-.267-1.042-.486-1.219-.806-.449-.813-.965-1.324-1.706-1.7-.51-.258-.933-.401-1.112-.381" fill="#fefad5"/><path d="m51.924 10.951c-.06.007-.094.031-.094.075 0 .039.15.353.331.7.71 1.363-.115 2.02-3.612 2.881-2.256.557-5.03 1.432-6.594 2.069-.636.259-.663.254-1.6-.119-3-1.193-6.617-1.312-9.788-.319-2.081.652-3.224 1.34-4.675 2.794-1.107 1.109-1.426 1.546-2.1 2.906-.961 1.939-1.501 3.964-1.744 6.538-.138 1.464-.235 1.905-.419 1.962-.919.287-2.518 1.225-3.313 1.944-4.438 4.02-4.75 11.76-.65 16.15 1.51 1.617 3 2.454 5.212 2.919.231.048.419.182.419.294 0 .334-.902 1.477-1.381 1.75-.245.14-.416.316-.387.4.06.178.903.186 1.506.013.388-.112.421-.085.419.319-.003.532-1.332 3.333-2.063 4.35-.622.866-.669 1.103-.188.956.466-.142 2.01-1.072 2.25-1.356.18-.217.613-.323.613-.15 0 .667.544 4.946.775 6.094.169.839.895 3.272 1.613 5.406.978 2.91 1.28 4.01 1.219 4.388-.091.564.107.654.6.281.504-.381.754-.267 1.494.675.393.501 1.471 1.615 2.387 2.475 1.312 1.231 1.838 1.854 2.469 2.919.441.744 1.345 2.01 2.02 2.813.674.802 1.432 1.837 1.681 2.306.935 1.76 2.703 3 4.888 3.438 1.356.269 7.581.319 8.825.069 1.307-.262 2.299-.942 3.575-2.456.619-.734 1.65-1.73 2.294-2.213.644-.482 1.748-1.458 2.45-2.169 1.425-1.443 1.218-1.423 2.05-.244.151.214.325.394.394.394.068 0 .161-.411.206-.906.145-1.599 1.715-4.148 4.137-6.725 1.868-1.986 3.918-4.682 5.119-6.744.502-.862 1.018-1.707 1.15-1.875.237-.302.244-.301.506.075.399.573 1.29 1.541 1.356 1.475.032-.032-.049-.495-.175-1.031-.303-1.285-.306-3.783-.006-4.5.125-.298.28-.52.344-.487 1.122.571 1.616.74 1.756.6.11-.11.021-.317-.294-.675-.259-.295-.567-.921-.719-1.462-.245-.874-.243-1.03-.025-2.119.32-1.594.536-3.683.537-5.094l.006-1.163 1.081-.244c2.617-.591 4.993-2.52 6.281-5.094 1-2 1.231-3.21 1.138-5.962-.06-1.762-.147-2.444-.412-3.225-.997-2.93-2.711-4.914-5.4-6.25l-1.088-.544-.106-1.6c-.129-1.967-.532-3.569-1.331-5.275-1.725-3.681-4.226-5.956-7.338-6.688-1.446-.34-3.698-.304-5.4.087l-1.413.325-1.206-.731c-1.15-.698-3.439-1.744-5.544-2.531-.713-.267-1.042-.486-1.219-.806-.449-.813-.965-1.324-1.706-1.7-.51-.258-.933-.401-1.112-.381m1.512 7.631c.338 0 .277.56-.319 2.925-.297 1.181-.503 2.178-.462 2.219.041.041.607-.398 1.263-.975 1.441-1.27 2.897-2.315 3.975-2.856.84-.422 1.102-.317.381.15-.73.473-2.611 2.366-4.01 4.04-.744.891-1.519 1.732-1.719 1.863-.484.317-1.288.429-1.862.256-.623-.187-1.497-1.085-1.906-1.956-.539-1.146-1.19-1.992-2.775-3.625-.822-.847-1.494-1.582-1.494-1.637 0-.581 2.455 1.228 3.956 2.919.498.561 1.048 1.196 1.219 1.406l.306.381.006-.35c.003-.19-.126-.832-.294-1.438-.168-.606-.309-1.243-.306-1.413.005-.277.03-.274.225.069.12.21.431 1.026.694 1.806.263.78.551 1.391.638 1.363.087-.029.355-.634.594-1.344.58-1.721 1.616-3.806 1.894-3.806m-18.806 2.238c.393.006.736.04.844.106.133.082.188.649.188 1.925v1.813l-.5.05c-.378.037-.494.124-.494.356 0 .282.114.302 1.525.337 1.643.042 2.103-.08 1.775-.475-.106-.127-.375-.255-.6-.281l-.406-.044-.044-1.563c-.051-1.849.002-1.888 1.337-1.01.95.628 2.594 2.166 2.594 2.431 0 .097-.217.223-.475.275-.341.068-.45.168-.413.363.039.205.227.276.806.313.417.026.847.122.956.212.33.274 1.507 2.563 1.944 3.781 1.48 4.129 1.709 9.311.575 13.04l-.281.919-1.163.569c-.85.421-1.411.846-2.087 1.569-.508.543-.955.987-1 .987-.045 0-.087-.408-.087-.906 0-.498-.056-.945-.125-.987-.158-.098-1.868.349-2.112.55-.348.287-.054.559.5.469l.525-.081v2c0 1.767-.038 2.01-.281 2.144-.384.206-2.01.329-2.469.188-.265-.082-.367-.208-.331-.413.028-.162.127-.681.219-1.156.198-1.027-.036-2.322-.525-2.944-.731-.93-2.06-1.134-2.888-.438-.526.443-1.045 1.433-1.05 1.994-.002.189-.092.344-.2.344-.5 0-2.708-3.267-3.4-5.03-.355-.904-.385-1.12-.238-1.544.242-.695.219-2.489-.044-3.119-.122-.292-.461-.753-.75-1.025-.463-.436-.542-.615-.631-1.5l-.1-1 .563-.431c.797-.608 1.127-1.437 1.131-2.825.003-.941-.063-1.283-.4-1.95-.377-.744-.399-.855-.219-1.375.331-.955 1.239-2.736 1.531-3 .26-.235.295-.226.594.194.76 1.067 2.211 1.189 3.138.262.622-.622.906-1.615.819-2.825-.047-.655-.008-.98.138-1.1.145-.121.957-.185 1.612-.175m31.412.012c.209-.004.499.016.888.038 1.396.076 1.393.067 1.344 2.02-.043 1.703-.047 1.723-.425 1.775-.56.077-.808.316-.594.575.241.29 3.079.302 3.319.012.234-.282-.074-.563-.619-.563h-.431v-1.369c0-.75.063-1.404.138-1.45.194-.12 1.545 1 2.044 1.694 1.155 1.603 2.048 3.282 2.131 4.01.036.316-.05.401-.569.55-.438.126-.612.254-.612.462 0 .231.114.294.537.294h.531v2.056 2.063l-.531.075c-.407.058-.537.149-.537.381 0 .269.128.314 1.069.381l1.069.075-.037 1.056c-.019.579-.072 1.078-.112 1.119-.041.041-.504.193-1.031.337-.748.205-.956.331-.956.556 0 .229.115.288.537.288h.531v1.844c0 1.946-.124 2.356-.713 2.356-.415 0-.543.456-.2.706.271.198.266.231-.063.931-.565 1.204-.8 1.415-1.862 1.706-.767.21-.981.336-.981.563 0 .233.1.281.487.244.265-.025.519.013.569.094.287.465-3.104 3.531-3.906 3.531-.248 0-.275-.193-.275-2.275 0-1.254-.056-2.32-.125-2.362-.162-.1-1.873.342-2.125.55-.305.252.044.539.569.462l.463-.069v2.069c0 1.187-.064 2.103-.15 2.156-.082.051-.723.132-1.419.181-.991.07-1.302.046-1.444-.125-.14-.169-.129-.351.038-.819.471-1.323.216-2.965-.606-3.862-.483-.527-.57-.556-1.462-.556-.923 0-.955.014-1.531.663l-.587.663-.806-.875c-.442-.482-.916-1.188-1.056-1.575-.457-1.26-.5-1.226 1.438-1.275 1.6-.04 1.712-.059 1.712-.344 0-.233-.116-.32-.494-.356l-.5-.05v-2.475c0-1.558-.053-2.541-.156-2.644-.116-.116-.463-.089-1.188.094-.817.206-1.019.319-1.019.556 0 .236.111.294.538.294h.531l.044 2.025c.032 1.54-.008 2.041-.156 2.087-.107.034-.443.099-.75.15l-.556.094-.206-1.112c-.291-1.583-.25-5.5.075-7.212.373-1.962 1.152-4.344 1.419-4.344.179 0 .21.352.175 2.02l-.044 2.025-.531.075c-.407.058-.538.149-.538.381 0 .287.105.306 1.681.306 1.576 0 1.675-.02 1.675-.306 0-.233-.116-.314-.494-.35l-.5-.05v-2.5c0-2.59-.044-2.792-.644-2.694-.405.067-.328-.395.231-1.331.478-.802.666-.973 1.219-1.144.18-.056.263-.234.263-.556 0-.347.156-.633.563-1.038l.556-.556.219.531c.717 1.762 2.167 2.3 3.4 1.262.791-.666.977-1.183.975-2.75-.001-1.196-.059-1.438.569-1.45m-2.1.5c.589 0 .394 2.724-.231 3.238-.424.349-.672.336-1.031-.05-.526-.565-.65-2.074-.206-2.462.363-.318 1.188-.725 1.469-.725m-32.506.3c.281 0 .294.082.225 1.156-.108 1.676-.863 2.529-1.556 1.762-.361-.399-.575-1.363-.381-1.725.214-.4 1.353-1.194 1.712-1.194m37.11 6.1c-.616.028-1.212.344-1.594.962-1.065 1.723-.565 4.406.95 5.081.564.252 1.392.16 1.931-.219 1.04-.731 1.435-3.129.75-4.544-.423-.874-1.246-1.318-2.037-1.281m-32.475.006c-.05 0-.1.003-.15.006-.267.019-.534.093-.788.225-.87.454-1.277 1.359-1.294 2.863-.017 1.527.466 2.515 1.438 2.944.59.26.888.262 1.5.006 1.486-.621 2.066-3.068 1.15-4.863-.379-.742-1.106-1.177-1.856-1.181m27.26 0c-.862-.017-1.736.558-2.144 1.625-.4 1.047-.228 2.781.35 3.606.707 1.01 1.886 1.257 2.8.587 1.304-.955 1.609-3.499.594-4.925-.423-.593-1.01-.882-1.6-.894m5.35.762c.631 0 .909.531.969 1.85.067 1.48-.055 2.193-.444 2.581-.377.377-.67.374-1.05-.006-.421-.421-.505-.854-.444-2.419.058-1.481.311-2.01.969-2.01m-5.538.018c.096-.008.202.004.313.031 1.268.318 1.029 4.675-.256 4.675-.102 0-.346-.171-.544-.381-.303-.322-.366-.577-.419-1.637-.083-1.693.234-2.629.906-2.688m-27.09.006c.886.004 1.296 1.703.881 3.75-.082.404-.579.95-.869.95-.11 0-.318-.083-.456-.188-.401-.304-.569-.967-.569-2.225 0-1.417.325-2.211.925-2.281.03-.003.059-.006.087-.006m-.019 7.6c-.341-.008-.681.066-.981.244-.78.461-1.124 1.186-1.2 2.494-.102 1.757.365 2.847 1.406 3.3.604.263.9.269 1.513.013 1.486-.621 2.066-3.074 1.15-4.869-.372-.729-1.137-1.163-1.888-1.181m32.506 0c-.616.028-1.212.344-1.594.962-1.065 1.723-.565 4.406.95 5.081.564.252 1.392.154 1.931-.225 1.04-.731 1.435-3.129.75-4.544-.423-.874-1.246-1.311-2.037-1.275m-26.975.006c-1.283.002-2.148.963-2.344 2.625-.18 1.535.506 3.01 1.619 3.462.487.2 1.341.069 1.831-.275.644-.453 1.069-1.483 1.069-2.594 0-1.357-.252-2.075-.944-2.7-.474-.428-.706-.519-1.231-.519m22.22.094c-.192-.001-.574.065-.981.175-.793.214-.987.325-.987.569 0 .25.085.289.494.25l.5-.044v2.144 2.15h-.456c-.49 0-.689.193-.556.538.066.173.41.221 1.575.219.821-.002 1.589-.063 1.706-.138.347-.22.075-.598-.469-.65l-.506-.05-.037-2.513c-.023-1.382-.099-2.568-.163-2.631-.016-.016-.055-.019-.119-.019m4.894.663c.631 0 .909.531.969 1.85.067 1.48-.055 2.193-.444 2.581-.377.377-.67.38-1.05 0-.421-.421-.505-.861-.444-2.425.058-1.481.311-2.01.969-2.01m-32.581.013c.182.004.362.09.519.263.316.349.577 1.777.469 2.581-.14 1.042-.214 1.27-.519 1.575-.334.334-.561.364-.95.138-.597-.348-.799-2.97-.306-3.956.179-.358.444-.564.712-.594.026-.003.049-.007.075-.006m5.381.012c.033 0 .065.002.1.006.585.068.938.863.938 2.125 0 1.311-.119 1.868-.481 2.256-.359.386-.606.399-1.031.05-.669-.548-.752-3.303-.125-4.1.185-.236.368-.337.6-.337m-8.113 8.369c.657 0 .969.68.981 2.138.011 1.288-.134 1.979-.413 1.969-.103-.004-.438-.129-.737-.288-.874-.462-.95-.638-.869-1.906.088-1.372.384-1.912 1.038-1.913m27.16 0c.624 0 .909.501 1.013 1.775.097 1.187-.089 2.089-.438 2.156-.13.025-.532-.186-.9-.469l-.669-.513.019-1.094c.025-1.329.306-1.856.975-1.856" fill="#231f20"/><g fill="#1a1a1a"><path d="m31.19 27.843c.062-.003.104 0 .116.011.046.046.081 1.155.083 2.463.002 1.308.054 2.459.116 2.556.062.097.322.197.573.226.338.038.457.132.457.358 0 .284-.121.307-1.647.347-1.392.037-1.656.009-1.735-.198-.124-.322.073-.495.634-.556l.457-.05v-2.061-2.061h-.534c-.426 0-.534-.056-.534-.292 0-.237.204-.349 1.025-.556.422-.106.806-.178.992-.187"/><path d="m41.858 27.887c.176-.01.302.004.347.05.105.105.165 1.07.165 2.645v2.474l.496.05c.378.036.496.12.496.353 0 .283-.106.309-1.521.336-.839.016-1.614-.011-1.719-.055-.34-.142-.199-.501.231-.595.231-.051.504-.121.612-.154.148-.046.187-.542.154-2.083l-.044-2.027h-.518c-.555 0-.762-.231-.441-.496.27-.223 1.212-.465 1.741-.496"/></g><path d="m21.569 31.575c-1.087.006-3.631 2.239-4.569 4.05-1.567 3.03-1.568 6.704 0 9.688 1.062 2.02 3.165 3.744 5.256 4.306 1.037.279 1.43.284 1.625.044.125-.154.383-1.436.406-2 .003-.072-.548-.314-1.231-.544-1.367-.459-2.255-1.036-2.956-1.919-.409-.514-.591-.987-.381-.987.041 0 .523.31 1.075.688 1.429.978 1.942.882 1.356-.25-.131-.253-.22-.609-.194-.788.045-.311.076-.306.587.138.861.745 1.722 1.281 2.075 1.281.283 0 .353-.134.512-.981l.188-.987-.769-1.956c-.421-1.075-1.061-2.9-1.425-4.056-.644-2.048-.666-2.097-1.038-2.01-.523.128-1.3.729-2.244 1.737-.559.598-.801.767-.806.575-.014-.536.634-1.507 1.875-2.819l1.262-1.331-.087-.913c-.072-.802-.119-.926-.419-.969-.032-.005-.065 0-.1 0m56.925 0c-.196.016-.267.199-.325.55-.209 1.266-.163 1.372 1.106 2.712 1.14 1.204 1.944 2.456 1.819 2.831-.031.094-.502-.287-1.044-.85-.542-.563-1.245-1.159-1.556-1.319-.536-.275-.57-.272-.7-.019-.076.147-.26.948-.406 1.788-.147.839-.713 2.889-1.256 4.556-.867 2.662-.959 3.06-.763 3.256.196.196.286.197.737-.031.283-.143.847-.54 1.25-.875.403-.335.778-.559.831-.506.053.053-.02.416-.162.813-.142.397-.263.808-.263.913.002.366.564.186 1.537-.494.539-.377 1.037-.686 1.1-.688.566-.008-.961 1.824-1.931 2.319-.344.176-.967.43-1.388.575l-.769.269.044.944c.02.519.11 1.081.2 1.25.132.246.26.29.65.212 3.073-.613 5.464-2.826 6.606-6.106.381-1.094.422-1.419.419-3.2-.003-1.744-.054-2.136-.419-3.237-.755-2.28-2.308-4.201-4.237-5.231-.563-.301-.885-.447-1.081-.431m-33.687 13.3c-.991.033-1.903.461-2.756 1.275-1.553 1.481-1.882 2.781-1.112 4.406.373.788.382.858.15 1.212-.135.207-.843.682-1.575 1.05-4.058 2.041-6.578 5.181-7.45 9.3-.238 1.126-.318 4.642-.137 6 .757 5.683 3.128 11.212 6.3 14.694.497.546 1.079 1.344 1.3 1.781.822 1.623 1.924 2.422 3.925 2.856 1.186.257 7.338.313 8.381.075 1-.228 1.691-.746 2.837-2.131.56-.677 1.576-1.65 2.256-2.162 1.597-1.204 3.444-3.065 4.156-4.188.309-.487.72-1.068.906-1.294.621-.75 2.044-3.759 2.65-5.581 1.2-3.603 1.663-7.475 1.169-9.788-.676-3.165-2.639-5.649-6.425-8.113-1.01-.655-2.02-1.343-2.256-1.538l-.425-.362.581-1.125c.503-.978.575-1.26.569-2.138-.013-1.941-1.235-3.686-2.744-3.913-1.079-.162-2.55.169-4.175.938-.787.372-1.484.675-1.556.675-.072 0-.468-.245-.875-.538-1.346-.967-2.571-1.431-3.694-1.394m10.281 3.813c.957-.04 1.966 1.109 1.381 1.694-.182.182-.476.243-1.069.219-.921-.037-.986.001-1.219.681-.231.675-.628.706-.894.075-.183-.437-.18-.576.013-1.038.297-.713 1.07-1.497 1.594-1.612.063-.014.13-.016.194-.019m-11.05.006c.517.017 1.059.368 1.544 1.038.49.677.579 1.387.237 1.837-.334.439-.641.319-.837-.337-.196-.655-.182-.65-1.281-.612-1.194.041-1.506-.496-.788-1.35.334-.397.723-.588 1.125-.575m5.406 2.081c.096 0 .34.31.544.694.203.383.677.966 1.05 1.294l.675.594-.406.163c-.225.086-.528.15-.675.15-.428 0-1.056.78-1.375 1.706-.162.471-.375.999-.469 1.175-.31.58-.431.344-.544-1.081-.107-1.358-.131-1.424-.65-1.9-.602-.551-.549-.78.269-1.119.251-.104.656-.511.925-.931.263-.411.56-.744.656-.744m-1.862 10.531c.027.002.049.012.063.025.054.054-.041.664-.206 1.362-.165.698-.451 1.961-.638 2.8-.53 2.389-.648 2.72-1.069 2.931-.529.266-2.438.197-2.438-.088 0-.06.216-.24.487-.4.809-.478 1.828-1.492 2.069-2.063.139-.33.251-1.285.3-2.494l.081-1.95.362.087c.196.049.485.009.65-.094.124-.077.257-.125.337-.119m-3.512 10.675c1.13-.02 2.225.299 3.163.944 1.016.699 2.438 2.787 2.119 3.106-.042.042-.657.007-1.362-.081-1.511-.188-3.214-.017-4.675.469-.532.177-1.402.616-1.938.975-.775.52-1.012.608-1.144.45-.272-.327-.363-2.229-.15-3.119.269-1.121 1.283-2.169 2.431-2.506.517-.152 1.043-.228 1.556-.237" fill="#e75e25"/><g fill="#1a1a1a"><path d="m31.15 36.22c.064-.005.105-.005.121.005.065.04.119 1.152.121 2.468.002 1.317.054 2.476.116 2.573.062.097.322.197.573.226.338.038.457.132.457.358 0 .284-.121.307-1.647.347-1.392.037-1.656.009-1.735-.198-.124-.322.073-.495.634-.556l.457-.05v-2.061-2.061h-.534c-.423 0-.534-.057-.534-.286 0-.227.218-.35.992-.562.407-.112.788-.189.981-.204"/><path d="m49.759 80.85c.114-.016.108.112.05.545-.046.346-.23.835-.408 1.085-.32.45-.339.453-1.73.446-.774-.004-1.751.041-2.171.099-.42.058-.874.138-1.014.176-.452.124-.475-.251-.05-.865.258-.373.714-.745 1.207-.986.704-.345.951-.385 2.231-.347.792.023 1.57-.017 1.73-.094.067-.032.116-.055.154-.061"/></g><path d="m12.137 0c-6.702 0-12.138 5.435-12.138 12.138v75.72c0 6.702 5.435 12.138 12.138 12.138h75.72c6.702 0 12.137-5.435 12.138-12.138v-75.72c0-6.702-5.435-12.138-12.138-12.138h-75.72m6.06 8h63.61c5.63 0 10.2 4.564 10.2 10.194v63.61c0 5.63-4.57 10.2-10.2 10.2h-63.61c-5.63 0-10.194-4.57-10.194-10.2v-63.61c0-5.63 4.564-10.194 10.194-10.194" fill-opacity=".784"/><path d="m12.138 0c-6.702 0-12.138 5.435-12.138 12.138v75.72c0 6.702 5.435 12.138 12.138 12.137h75.72c6.702 0 12.137-5.435 12.138-12.137v-75.72c0-6.702-5.435-12.138-12.138-12.138z" fill="url(#0)"/></svg>