<?xml version="1.0" encoding="UTF-8" standalone="no"?>
<!-- Created with Inkscape (http://www.inkscape.org/) -->

<svg
   xmlns:dc="http://purl.org/dc/elements/1.1/"
   xmlns:cc="http://creativecommons.org/ns#"
   xmlns:rdf="http://www.w3.org/1999/02/22-rdf-syntax-ns#"
   xmlns:svg="http://www.w3.org/2000/svg"
   xmlns="http://www.w3.org/2000/svg"
   xmlns:sodipodi="http://sodipodi.sourceforge.net/DTD/sodipodi-0.dtd"
   xmlns:inkscape="http://www.inkscape.org/namespaces/inkscape"
   width="500"
   height="500"
   id="svg3932"
   version="1.1"
   inkscape:version="0.48.4 r9939"
   sodipodi:docname="Codeivate.svg">
  <metadata
     id="metadata13">
    <rdf:RDF>
      <cc:Work
         rdf:about="">
        <dc:format>image/svg+xml</dc:format>
        <dc:type
           rdf:resource="http://purl.org/dc/dcmitype/StillImage" />
      </cc:Work>
    </rdf:RDF>
  </metadata>
  <defs
     id="defs11" />
  <sodipodi:namedview
     pagecolor="#ffffff"
     bordercolor="#666666"
     borderopacity="1"
     objecttolerance="10"
     gridtolerance="10"
     guidetolerance="10"
     inkscape:pageopacity="0"
     inkscape:pageshadow="2"
     inkscape:window-width="1920"
     inkscape:window-height="1145"
     id="namedview9"
     showgrid="false"
     inkscape:zoom="0.944"
     inkscape:cx="235.35488"
     inkscape:cy="173.23726"
     inkscape:window-x="-2"
     inkscape:window-y="-3"
     inkscape:window-maximized="1"
     inkscape:current-layer="svg3932" />
  <path
     inkscape:connector-curvature="0"
     id="path7-8-6"
     d="M 60.68749,0 C 27.17541,0 -9.9999862e-5,27.1754 0,60.6875 l 0,378.625 C 0,472.82453 27.17541,500.0001 60.68749,500 l 378.62503,0 C 472.82471,500 499.99991,472.82453 500,439.3125 l 0,-378.625 C 500,27.1754 472.82581,0 439.31252,0 z"
     style="fill:#558fce;fill-opacity:1;display:inline"
     sodipodi:nodetypes="sssssssss" />
  <g
     id="g3275"
     transform="translate(0,-20)">
    <g
       transform="matrix(1.0015649,0,0,1.0144928,-0.39123001,24.592384)"
       id="g3141">
      <path
         inkscape:connector-curvature="0"
         style="fill:#ebab53;fill-opacity:1;display:inline"
         d="m 334.8125,84.21875 0,68.96875 45.53125,0 0,-68.96875 -45.53125,0 z"
         id="path3051-9" />
      <path
         inkscape:connector-curvature="0"
         style="fill:#398710;fill-opacity:1;display:inline"
         d="m 90.24999,84.1875 0,68.96875 244.56253,0 0,-68.96875 z"
         id="path3070" />
      <path
         inkscape:connector-curvature="0"
         style="fill:#ffffff;display:inline"
         d="m 380.34372,84.1875 0,68.96875 29.4063,0 0,-68.96875 z"
         id="path3068" />
    </g>
    <path
       inkscape:connector-curvature="0"
       id="path7-8-6-6-5"
       d="M 90.90625,100 C 84.88226,100 79.99998,104.90533 80,110.9375 l 0,68.125 C 80,185.09467 84.88226,190 90.90625,190 l 318.1875,0 C 415.11776,190 420,185.09467 420,179.0625 l 0,-68.125 C 420,104.90533 415.11797,100 409.09375,100 l -318.1875,0 z m 9.375,10 299.4375,0 C 405.38861,110 410,113.80831 410,118.5 l 0,53 c 0,4.69169 -4.61159,8.5 -10.28125,8.5 l -299.4375,0 C 94.611608,180 90,176.19169 90,171.5 l 0,-53 c -1.9e-5,-4.69169 4.611608,-8.5 10.28125,-8.5 z"
       style="fill:#062958;fill-opacity:1;display:inline" />
  </g>
  <g
     id="g3282"
     transform="translate(0,-10)">
    <g
       transform="matrix(1.0015649,0,0,1.0144928,-0.39123001,6.3767984)"
       id="g3159">
      <path
         inkscape:connector-curvature="0"
         style="fill:#ebab53;fill-opacity:1;display:inline"
         d="m 262.59375,215.53125 0,68.96875 45.53125,0 0,-68.96875 -45.53125,0 z"
         id="path3051-3" />
      <path
         inkscape:connector-curvature="0"
         style="fill:#35830b;fill-opacity:1;display:inline"
         d="m 90.24999,215.5 0,68.96875 172.34373,0 0,-68.96875 z"
         id="path3064" />
      <path
         inkscape:connector-curvature="0"
         style="fill:#ffffff;display:inline"
         d="m 308.12502,215.5 0,68.96875 101.625,0 0,-68.96875 z"
         id="path3062" />
    </g>
    <path
       inkscape:connector-curvature="0"
       id="path7-8-6-6-8"
       d="M 90.90625,215 C 84.882258,215 79.999984,219.90533 80,225.9375 l 0,68.125 C 80,300.09467 84.882258,305 90.90625,305 l 318.1875,0 C 415.11776,305 420,300.09467 420,294.0625 l 0,-68.125 C 420,219.90533 415.11797,215 409.09375,215 l -318.1875,0 z m 9.375,10 299.4375,0 C 405.38861,225 410,228.80831 410,233.5 l 0,53 c 0,4.69169 -4.61159,8.5 -10.28125,8.5 l -299.4375,0 C 94.611607,295 90,291.19169 90,286.5 l 0,-53 c -1.9e-5,-4.69169 4.611607,-8.5 10.28125,-8.5 z"
       style="fill:#062958;fill-opacity:1;display:inline" />
  </g>
  <g
     id="g3289">
    <g
       transform="matrix(1.0015649,0,0,1.0149524,-0.39123001,-11.998178)"
       id="g3154">
      <path
         inkscape:connector-curvature="0"
         style="fill:#ebab53;fill-opacity:1;display:inline"
         d="m 225.21875,346.8125 0,68.96875 98.0625,0 0,-68.96875 -98.0625,0 z"
         id="path3051-4" />
      <path
         inkscape:connector-curvature="0"
         style="fill:#35830b;fill-opacity:1;display:inline"
         d="m 90.24999,346.8125 0,68.96875 134.96873,0 0,-68.96875 z"
         id="path3058" />
      <path
         inkscape:connector-curvature="0"
         style="fill:#ffffff;display:inline"
         d="m 323.28122,346.8125 0,68.96875 86.4688,0 0,-68.96875 z"
         id="path7-6" />
    </g>
    <path
       inkscape:connector-curvature="0"
       id="path7-8-6-6"
       d="M 90.90625,330 C 84.882258,330 79.999984,334.90533 80,340.9375 l 0,68.125 C 80,415.09467 84.882258,420 90.90625,420 l 318.1875,0 C 415.11776,420 420,415.09467 420,409.0625 l 0,-68.125 C 420,334.90533 415.11797,330 409.09375,330 l -318.1875,0 z m 9.375,10 299.4375,0 C 405.38861,340 410,343.80831 410,348.5 l 0,53 c 0,4.69169 -4.61159,8.5 -10.28125,8.5 l -299.4375,0 C 94.611605,410 90,406.19169 90,401.5 l 0,-53 c -1.9e-5,-4.69169 4.611605,-8.5 10.28125,-8.5 z"
       style="fill:#062958;fill-opacity:1;display:inline" />
  </g>
  <path
     style="fill:#000000;fill-opacity:0.78431373;display:inline"
     d="M 60.6875,0 C 27.17542,0 -9.9999862e-5,27.175402 0,60.6875 l 0,378.625 C 0,472.82453 27.17542,500.0001 60.6875,500 l 378.625,0 c 33.5122,0 60.6874,-27.17547 60.6875,-60.6875 l 0,-378.625 C 500,27.175402 472.8258,0 439.3125,0 L 60.6875,0 z M 90.96875,40 409,40 c 28.15118,0 51,22.818589 51,50.96875 L 460,409 c -8e-5,28.15011 -22.84975,51 -51,51 L 90.96875,460 C 62.8186,460.00008 40,437.15011 40,409 L 40,90.96875 C 39.99992,62.818589 62.8186,40 90.96875,40 z"
     id="path7-8-6-9"
     inkscape:connector-curvature="0" />
</svg>
