<?xml version="1.0" encoding="UTF-8" standalone="no"?>
<!-- Created with Inkscape (http://www.inkscape.org/) -->

<svg
   xmlns:dc="http://purl.org/dc/elements/1.1/"
   xmlns:cc="http://creativecommons.org/ns#"
   xmlns:rdf="http://www.w3.org/1999/02/22-rdf-syntax-ns#"
   xmlns:svg="http://www.w3.org/2000/svg"
   xmlns="http://www.w3.org/2000/svg"
   xmlns:sodipodi="http://sodipodi.sourceforge.net/DTD/sodipodi-0.dtd"
   xmlns:inkscape="http://www.inkscape.org/namespaces/inkscape"
   width="500"
   height="500"
   id="svg3932"
   version="1.1"
   inkscape:version="0.48.4 r9939"
   sodipodi:docname="Coderbits.svg">
  <metadata
     id="metadata13">
    <rdf:RDF>
      <cc:Work
         rdf:about="">
        <dc:format>image/svg+xml</dc:format>
        <dc:type
           rdf:resource="http://purl.org/dc/dcmitype/StillImage" />
      </cc:Work>
    </rdf:RDF>
  </metadata>
  <defs
     id="defs11" />
  <sodipodi:namedview
     pagecolor="#ffffff"
     bordercolor="#666666"
     borderopacity="1"
     objecttolerance="10"
     gridtolerance="10"
     guidetolerance="10"
     inkscape:pageopacity="0"
     inkscape:pageshadow="2"
     inkscape:window-width="1920"
     inkscape:window-height="1145"
     id="namedview9"
     showgrid="false"
     inkscape:zoom="0.944"
     inkscape:cx="-121.89795"
     inkscape:cy="190.69248"
     inkscape:window-x="-2"
     inkscape:window-y="-3"
     inkscape:window-maximized="1"
     inkscape:current-layer="svg3932" />
  <path
     style="fill:#fefad5;fill-opacity:1;display:inline"
     d="M 60.687405,-1.5000138e-5 C 27.175255,-1.5000138e-5 -1.0499986e-4,27.175375 -4.9998621e-6,60.687485 l 0,378.624995 c 0,33.51203 27.1752599998621,60.68763 60.6874099998621,60.68753 l 378.625105,0 c 33.5122,0 60.6874,-27.1755 60.6875,-60.68753 l 0,-378.624995 c 0,-33.51211 -27.1742,-60.687500000138 -60.6875,-60.687500000138 z"
     id="path3082"
     inkscape:connector-curvature="0" />
  <path
     style="fill:#231f20;fill-opacity:1;display:inline"
     d="M 259.625 54.75 C 259.32546 54.783692 259.15625 54.907397 259.15625 55.125 C 259.15625 55.321754 259.90807 56.889736 260.8125 58.625 C 264.3636 65.437974 260.23954 68.712879 242.75 73.03125 C 231.46932 75.816586 217.59633 80.191316 209.78125 83.375 C 206.59897 84.671446 206.46625 84.643894 201.78125 82.78125 C 186.77917 76.816647 168.69429 76.221478 152.84375 81.1875 C 142.43639 84.44814 136.72407 87.889648 129.46875 95.15625 C 123.93283 100.70077 122.34037 102.8859 118.96875 109.6875 C 114.16369 119.38118 111.46358 129.50566 110.25 142.375 C 109.55986 149.69344 109.07621 151.9003 108.15625 152.1875 C 103.56144 153.62226 95.564628 158.31284 91.59375 161.90625 C 69.402065 181.9886 67.845898 220.70729 88.34375 242.65625 C 95.894641 250.74161 103.34137 254.92553 114.40625 257.25 C 115.55989 257.49233 116.5 258.16049 116.5 258.71875 C 116.5 260.38755 111.99015 266.10513 109.59375 267.46875 C 108.36677 268.16691 107.51503 269.04933 107.65625 269.46875 C 107.95605 270.36037 112.17042 270.39822 115.1875 269.53125 C 117.12842 268.9736 117.29125 269.10747 117.28125 271.125 C 117.26803 273.78286 110.62184 287.79015 106.96875 292.875 C 103.85744 297.20562 103.62436 298.38809 106.03125 297.65625 C 108.36048 296.94804 116.10293 292.29477 117.28125 290.875 C 118.18251 289.78915 120.34375 289.25873 120.34375 290.125 C 120.34375 293.45977 123.06282 314.85614 124.21875 320.59375 C 125.06395 324.78889 128.6955 336.95389 132.28125 347.625 C 137.16978 362.17398 138.68264 367.66707 138.375 369.5625 C 137.91775 372.38045 138.90826 372.83456 141.375 370.96875 C 143.89411 369.06353 145.14323 369.63354 148.84375 374.34375 C 150.81041 376.8469 156.19737 382.4173 160.78125 386.71875 C 167.34141 392.8749 169.97243 395.98655 173.125 401.3125 C 175.32791 405.03391 179.8488 411.36331 183.21875 415.375 C 186.58879 419.3867 190.37756 424.55833 191.625 426.90625 C 196.30003 435.70501 205.13778 441.92558 216.0625 444.09375 C 222.84497 445.43983 253.96585 445.68705 260.1875 444.4375 C 266.72068 443.12537 271.68129 439.72988 278.0625 432.15625 C 281.15574 428.485 286.31292 423.50575 289.53125 421.09375 C 292.7494 418.68183 298.27255 413.80454 301.78125 410.25 C 308.9046 403.03347 307.87261 403.13611 312.03125 409.03125 C 312.78504 410.09955 313.65833 411 314 411 C 314.34168 411 314.80682 408.94291 315.03125 406.46875 C 315.75612 398.47428 323.60531 385.72834 335.71875 372.84375 C 345.05656 362.91153 355.30647 349.43451 361.3125 339.125 C 363.82438 334.81333 366.40392 330.58903 367.0625 329.75 C 368.2484 328.23917 368.28099 328.24297 369.59375 330.125 C 371.591 332.98835 376.04399 337.83101 376.375 337.5 C 376.53518 337.33983 376.1324 335.02629 375.5 332.34375 C 373.98613 325.91926 373.97158 313.42667 375.46875 309.84375 C 376.09215 308.35187 376.86689 307.243 377.1875 307.40625 C 382.79905 310.26342 385.26672 311.10829 385.96875 310.40625 C 386.52041 309.85451 386.07147 308.82099 384.5 307.03125 C 383.20284 305.55392 381.66603 302.4265 380.90625 299.71875 C 379.67962 295.34687 379.68993 294.57057 380.78125 289.125 C 382.37882 281.15354 383.45975 270.7097 383.46875 263.65625 L 383.5 257.84375 L 388.90625 256.625 C 401.99218 253.6699 413.86932 244.02701 420.3125 231.15625 C 425.32709 221.13914 426.46976 215.10453 426 201.34375 C 425.6994 192.53564 425.26692 189.12501 423.9375 185.21875 C 418.95076 170.56681 410.38326 160.64685 396.9375 153.96875 L 391.5 151.25 L 390.96875 143.25 C 390.32419 133.41404 388.30956 125.40455 384.3125 116.875 C 375.68828 98.471497 363.18367 87.093589 347.625 83.4375 C 340.39498 81.738554 329.13692 81.919709 320.625 83.875 L 313.5625 85.5 L 307.53125 81.84375 C 301.78227 78.353828 290.33472 73.123558 279.8125 69.1875 C 276.24686 67.853677 274.60053 66.755144 273.71875 65.15625 C 271.47591 61.08964 268.89577 58.535378 265.1875 56.65625 C 262.63771 55.364124 260.52362 54.648925 259.625 54.75 z M 267.1875 92.90625 C 268.87534 92.90625 268.57213 95.704341 265.59375 107.53125 C 264.10707 113.43476 263.07815 118.42181 263.28125 118.625 C 263.48462 118.82828 266.31759 116.63627 269.59375 113.75 C 276.79908 107.40229 284.0766 102.17642 289.46875 99.46875 C 293.66785 97.360119 294.97855 97.884146 291.375 100.21875 C 287.7227 102.58501 278.31782 112.05031 271.3125 120.4375 C 267.5918 124.89215 263.7168 129.09609 262.71875 129.75 C 260.30084 131.33435 256.28025 131.8954 253.40625 131.03125 C 250.28973 130.0942 245.92365 125.60813 243.875 121.25 C 241.18109 115.51882 237.92616 111.28951 230 103.125 C 225.89029 98.891602 222.53125 95.214031 222.53125 94.9375 C 222.53125 92.031053 234.80427 101.0768 242.3125 109.53125 C 244.80155 112.33394 247.55242 115.51367 248.40625 116.5625 L 249.9375 118.46875 L 249.96875 116.71875 C 249.98198 115.76945 249.33911 112.55908 248.5 109.53125 C 247.66088 106.50333 246.95375 103.31633 246.96875 102.46875 C 246.99343 101.08583 247.1165 101.10095 248.09375 102.8125 C 248.69265 103.86133 250.24675 107.94216 251.5625 111.84375 C 252.87817 115.74552 254.317 118.80055 254.75 118.65625 C 255.18282 118.51194 256.52307 115.48516 257.71875 111.9375 C 260.6185 103.33452 265.80026 92.90625 267.1875 92.90625 z M 173.15625 104.09375 C 175.12326 104.12313 176.83586 104.29179 177.375 104.625 C 178.03975 105.03588 178.3125 107.87196 178.3125 114.25 L 178.3125 123.3125 L 175.8125 123.5625 C 173.92164 123.7448 173.34375 124.18023 173.34375 125.34375 C 173.34375 126.7547 173.91389 126.85257 180.96875 127.03125 C 189.18343 127.23947 191.48196 126.63014 189.84375 124.65625 C 189.31572 124.01997 187.9668 123.37985 186.84375 123.25 L 184.8125 123.03125 L 184.59375 115.21875 C 184.3367 105.97534 184.60615 105.77745 191.28125 110.1875 C 196.03324 113.32675 204.25 121.01566 204.25 122.34375 C 204.25 122.82885 203.16518 123.46082 201.875 123.71875 C 200.17156 124.05954 199.62729 124.55647 199.8125 125.53125 C 200.00723 126.55689 200.94999 126.91075 203.84375 127.09375 C 205.92695 127.22553 208.07899 127.70315 208.625 128.15625 C 210.27626 129.52683 216.15971 140.96928 218.34375 147.0625 C 225.74434 167.70902 226.89042 193.61669 221.21875 212.28125 L 219.8125 216.875 L 214 219.71875 C 209.74898 221.82337 206.94259 223.94908 203.5625 227.5625 C 201.02039 230.27995 198.78667 232.5 198.5625 232.5 C 198.33842 232.5 198.125 230.46115 198.125 227.96875 C 198.125 225.47635 197.84608 223.24511 197.5 223.03125 C 196.70787 222.54166 188.15813 224.77535 186.9375 225.78125 C 185.19668 227.21583 186.66751 228.57449 189.4375 228.125 L 192.0625 227.71875 L 192.0625 237.71875 C 192.0625 246.55498 191.87019 247.78791 190.65625 248.4375 C 188.73428 249.466 180.60427 250.08136 178.3125 249.375 C 176.98644 248.96624 176.47862 248.33656 176.65625 247.3125 C 176.79694 246.50247 177.29188 243.90984 177.75 241.53125 C 178.73951 236.39421 177.57191 229.92319 175.125 226.8125 C 171.46785 222.16312 164.82595 221.14275 160.6875 224.625 C 158.05626 226.83919 155.4648 231.79194 155.4375 234.59375 C 155.42781 235.53759 154.97787 236.31259 154.4375 236.3125 C 151.93822 236.3125 140.89877 219.97847 137.4375 211.15625 C 135.66398 206.63602 135.51085 205.55772 136.25 203.4375 C 137.46067 199.96441 137.34744 190.99359 136.03125 187.84375 C 135.42221 186.38599 133.72756 184.07928 132.28125 182.71875 C 129.96384 180.53885 129.57017 179.64432 129.125 175.21875 L 128.625 170.21875 L 131.4375 168.0625 C 135.42046 165.02453 137.07345 160.87548 137.09375 153.9375 C 137.10697 149.23444 136.78079 147.52201 135.09375 144.1875 C 133.21074 140.466 133.09953 139.91174 134 137.3125 C 135.65373 132.53838 140.19497 123.63495 141.65625 122.3125 C 142.95411 121.13806 143.1311 121.18306 144.625 123.28125 C 148.42442 128.61698 155.68128 129.22497 160.3125 124.59375 C 163.42346 121.4827 164.84401 116.5208 164.40625 110.46875 C 164.1693 107.19365 164.36782 105.571 165.09375 104.96875 C 165.82056 104.36552 169.87789 104.04485 173.15625 104.09375 z M 330.21875 104.15625 C 331.26485 104.13562 332.71498 104.23823 334.65625 104.34375 C 341.63795 104.72333 341.62015 104.67753 341.375 114.4375 C 341.16106 122.95418 341.1405 123.05095 339.25 123.3125 C 336.45172 123.69957 335.20854 124.89485 336.28125 126.1875 C 337.48426 127.63716 351.67596 127.69542 352.875 126.25 C 354.04389 124.84169 352.50311 123.4375 349.78125 123.4375 L 347.625 123.4375 L 347.625 116.59375 C 347.625 112.84272 347.9413 109.57312 348.3125 109.34375 C 349.28041 108.74556 356.03655 114.34902 358.53125 117.8125 C 364.30438 125.82716 368.7716 134.22465 369.1875 137.875 C 369.36768 139.45671 368.93647 139.8795 366.34375 140.625 C 364.15548 141.25405 363.28125 141.89282 363.28125 142.9375 C 363.28125 144.09388 363.84958 144.40625 365.96875 144.40625 L 368.625 144.40625 L 368.625 154.6875 L 368.625 165 L 365.96875 165.375 C 363.93465 165.66563 363.28125 166.11897 363.28125 167.28125 C 363.28125 168.62521 363.92123 168.85164 368.625 169.1875 L 373.96875 169.5625 L 373.78125 174.84375 C 373.6849 177.73697 373.42238 180.23379 373.21875 180.4375 C 373.0152 180.64105 370.69912 181.40321 368.0625 182.125 C 364.32408 183.14826 363.28125 183.77747 363.28125 184.90625 C 363.28125 186.05213 363.8554 186.34375 365.96875 186.34375 L 368.625 186.34375 L 368.625 195.5625 C 368.625 205.29276 368.00271 207.34375 365.0625 207.34375 C 362.98997 207.34375 362.34998 209.62298 364.0625 210.875 C 365.41537 211.86433 365.392 212.02775 363.75 215.53125 C 360.92738 221.55368 359.75208 222.60764 354.4375 224.0625 C 350.60423 225.11177 349.53125 225.74278 349.53125 226.875 C 349.53125 228.03949 350.03012 228.27895 351.96875 228.09375 C 353.29411 227.96716 354.564 228.16044 354.8125 228.5625 C 356.24866 230.88635 339.291 246.21875 335.28125 246.21875 C 334.04245 246.21875 333.90625 245.25622 333.90625 234.84375 C 333.90625 228.57564 333.62716 223.24502 333.28125 223.03125 C 332.46929 222.52958 323.91734 224.7415 322.65625 225.78125 C 321.12875 227.04041 322.87837 228.47853 325.5 228.09375 L 327.8125 227.75 L 327.8125 238.09375 C 327.8125 244.03103 327.49224 248.60948 327.0625 248.875 C 326.651 249.12949 323.44536 249.53601 319.96875 249.78125 C 315.01198 250.13113 313.45865 250.01 312.75 249.15625 C 312.04955 248.3122 312.10464 247.40081 312.9375 245.0625 C 315.2937 238.44743 314.01756 230.2363 309.90625 225.75 C 307.49249 223.1162 307.05466 222.96875 302.59375 222.96875 C 297.97998 222.96875 297.81706 223.03657 294.9375 226.28125 L 292 229.59375 L 287.96875 225.21875 C 285.75641 222.80992 283.38936 219.28035 282.6875 217.34375 C 280.40332 211.04196 280.18855 211.21231 289.875 210.96875 C 297.87582 210.76768 298.4375 210.67241 298.4375 209.25 C 298.4375 208.0864 297.85951 207.65104 295.96875 207.46875 L 293.46875 207.21875 L 293.46875 194.84375 C 293.46875 187.05185 293.20187 182.13937 292.6875 181.625 C 292.10606 181.04364 290.3733 181.17935 286.75 182.09375 C 282.66303 183.12521 281.65625 183.68989 281.65625 184.875 C 281.65625 186.05438 282.21198 186.34375 284.34375 186.34375 L 287 186.34375 L 287.21875 196.46875 C 287.38078 204.17056 287.17912 206.67291 286.4375 206.90625 C 285.90083 207.07488 284.22081 207.40228 282.6875 207.65625 L 279.90625 208.125 L 278.875 202.5625 C 277.42147 194.64913 277.62413 175.06076 279.25 166.5 C 281.11361 156.68784 285.0101 144.78125 286.34375 144.78125 C 287.23936 144.78125 287.39435 146.54123 287.21875 154.875 L 287 165 L 284.34375 165.375 C 282.30974 165.66563 281.65625 166.11888 281.65625 167.28125 C 281.65625 168.71435 282.18051 168.8125 290.0625 168.8125 C 297.9444 168.8125 298.4375 168.71433 298.4375 167.28125 C 298.4375 166.11765 297.85951 165.71346 295.96875 165.53125 L 293.46875 165.28125 L 293.46875 152.78125 C 293.46875 139.83011 293.24847 138.81929 290.25 139.3125 C 288.22744 139.64527 288.61237 137.33719 291.40625 132.65625 C 293.79824 128.64844 294.73795 127.79108 297.5 126.9375 C 298.39933 126.65965 298.8125 125.76537 298.8125 124.15625 C 298.8125 122.42045 299.59231 120.99201 301.625 118.96875 L 304.40625 116.1875 L 305.5 118.84375 C 309.08531 127.65574 316.33715 130.34195 322.5 125.15625 C 326.45581 121.82756 327.384 119.24063 327.375 111.40625 C 327.36839 105.4266 327.08055 104.21815 330.21875 104.15625 z M 319.71875 106.65625 C 322.66178 106.65625 321.68642 120.27669 318.5625 122.84375 C 316.44149 124.58677 315.20243 124.52172 313.40625 122.59375 C 310.77633 119.77087 310.15825 112.225 312.375 110.28125 C 314.19092 108.68915 318.31556 106.65625 319.71875 106.65625 z M 157.1875 108.15625 C 158.5936 108.15625 158.657 108.56827 158.3125 113.9375 C 157.77478 122.31525 153.99781 126.58045 150.53125 122.75 C 148.72664 120.75592 147.6563 115.93511 148.625 114.125 C 149.69472 112.12599 155.38973 108.15625 157.1875 108.15625 z M 342.75 138.65625 C 339.67078 138.79772 336.6922 140.37669 334.78125 143.46875 C 329.45822 152.08143 331.9555 165.49642 339.53125 168.875 C 342.35157 170.13275 346.49059 169.67625 349.1875 167.78125 C 354.38792 164.12737 356.36237 152.13746 352.9375 145.0625 C 350.82204 140.69255 346.70898 138.47435 342.75 138.65625 z M 180.375 138.6875 C 180.12508 138.68594 179.87547 138.70119 179.625 138.71875 C 178.28915 138.81241 176.95706 139.18169 175.6875 139.84375 C 171.33721 142.11225 169.30335 146.64018 169.21875 154.15625 C 169.13324 161.79212 171.54892 166.73107 176.40625 168.875 C 179.35439 170.17634 180.848 170.18436 183.90625 168.90625 C 191.33716 165.80155 194.23405 153.56696 189.65625 144.59375 C 187.76242 140.88161 184.12387 138.71097 180.375 138.6875 z M 316.6875 138.6875 C 312.37609 138.60164 308.00663 141.47638 305.96875 146.8125 C 303.97035 152.04536 304.8265 160.71984 307.71875 164.84375 C 311.25372 169.88426 317.14774 171.12801 321.71875 167.78125 C 328.23959 163.00704 329.76415 150.28569 324.6875 143.15625 C 322.57451 140.18872 319.63741 138.7462 316.6875 138.6875 z M 343.4375 142.5 C 346.59316 142.5 347.98189 145.15705 348.28125 151.75 C 348.61738 159.15139 348.00457 162.71419 346.0625 164.65625 C 344.17879 166.54001 342.71278 166.52511 340.8125 164.625 C 338.70902 162.52161 338.28655 160.35268 338.59375 152.53125 C 338.88466 145.12616 340.14804 142.5 343.4375 142.5 z M 315.75 142.59375 C 316.2299 142.55208 316.76147 142.61169 317.3125 142.75 C 323.6521 144.34105 322.4568 166.125 316.03125 166.125 C 315.52156 166.125 314.29997 165.26978 313.3125 164.21875 C 311.79788 162.60654 311.48003 161.33604 311.21875 156.03125 C 310.80179 147.56385 312.39028 142.88536 315.75 142.59375 z M 180.3125 142.625 C 184.74396 142.64585 186.7912 151.13796 184.71875 161.375 C 184.30991 163.39411 181.8213 166.125 180.375 166.125 C 179.8259 166.125 178.78424 165.71191 178.09375 165.1875 C 176.08944 163.66547 175.24912 160.35256 175.25 154.0625 C 175.25 146.97696 176.87379 143.00595 179.875 142.65625 C 180.02283 142.63905 180.1696 142.62433 180.3125 142.625 z M 180.21875 180.625 C 178.51381 180.58449 176.81584 180.95568 175.3125 181.84375 C 171.41417 184.14645 169.6912 187.77138 169.3125 194.3125 C 168.80405 203.09619 171.13743 208.5455 176.34375 210.8125 C 179.36594 212.12793 180.84139 212.15531 183.90625 210.875 C 191.33716 207.7703 194.23405 195.50447 189.65625 186.53125 C 187.79669 182.88609 183.96969 180.7141 180.21875 180.625 z M 342.75 180.625 C 339.67078 180.76647 336.6922 182.34548 334.78125 185.4375 C 329.45822 194.05026 331.9555 207.46511 339.53125 210.84375 C 342.35157 212.10158 346.49059 211.61375 349.1875 209.71875 C 354.38792 206.06482 356.36237 194.07496 352.9375 187 C 350.82204 182.63009 346.70898 180.4431 342.75 180.625 z M 207.875 180.65625 C 201.45757 180.66506 197.1328 185.47252 196.15625 193.78125 C 195.25393 201.45829 198.68499 208.80877 204.25 211.09375 C 206.68554 212.09365 210.95617 211.44035 213.40625 209.71875 C 216.6274 207.45555 218.75 202.30267 218.75 196.75 C 218.75 189.9655 217.48785 186.37277 214.03125 183.25 C 211.66023 181.108 210.50175 180.65325 207.875 180.65625 z M 318.96875 181.125 C 318.01045 181.12144 316.09801 181.45106 314.0625 182 C 310.09621 183.07043 309.125 183.62673 309.125 184.84375 C 309.125 186.09253 309.54907 186.29121 311.59375 186.09375 L 314.09375 185.875 L 314.09375 196.59375 L 314.09375 207.34375 L 311.8125 207.34375 C 309.36189 207.34375 308.36932 208.30634 309.03125 210.03125 C 309.36323 210.89619 311.07925 211.134 316.90625 211.125 C 321.00971 211.11618 324.85191 210.80817 325.4375 210.4375 C 327.17126 209.33957 325.81094 207.44842 323.09375 207.1875 L 320.5625 206.9375 L 320.375 194.375 C 320.25934 187.46295 319.87914 181.53539 319.5625 181.21875 C 319.48334 181.13956 319.28812 181.12588 318.96875 181.125 z M 343.4375 184.4375 C 346.59316 184.4375 347.98189 187.09464 348.28125 193.6875 C 348.61738 201.08897 348.00457 204.65177 346.0625 206.59375 C 344.17879 208.47755 342.71278 208.49386 340.8125 206.59375 C 338.70902 204.49028 338.28655 202.29009 338.59375 194.46875 C 338.88466 187.06366 340.14804 184.4375 343.4375 184.4375 z M 180.53125 184.5 C 181.4412 184.51788 182.34356 184.94895 183.125 185.8125 C 184.70274 187.5557 186.00788 194.69789 185.46875 198.71875 C 184.7705 203.92666 184.39931 205.06943 182.875 206.59375 C 181.20514 208.26343 180.07033 208.41532 178.125 207.28125 C 175.13851 205.54017 174.13124 192.42944 176.59375 187.5 C 177.48743 185.71106 178.81494 184.67775 180.15625 184.53125 C 180.28666 184.51701 180.40126 184.49745 180.53125 184.5 z M 207.4375 184.5625 C 207.60331 184.5619 207.76076 184.57325 207.9375 184.59375 C 210.8629 184.93278 212.625 188.90894 212.625 195.21875 C 212.625 201.77511 212.02753 204.55864 210.21875 206.5 C 208.42266 208.42797 207.18749 208.49293 205.0625 206.75 C 201.71988 204.00848 201.30256 190.23542 204.4375 186.25 C 205.36389 185.07234 206.27672 184.5665 207.4375 184.5625 z M 166.875 226.40625 C 170.16165 226.40625 171.71778 229.80617 171.78125 237.09375 C 171.83766 243.53508 171.1089 246.9877 169.71875 246.9375 C 169.20227 246.91899 167.52948 246.29204 166.03125 245.5 C 161.66287 243.19042 161.28059 242.30897 161.6875 235.96875 C 162.12781 229.10747 163.60714 226.40634 166.875 226.40625 z M 302.65625 226.40625 C 305.77603 226.40625 307.19877 228.91318 307.71875 235.28125 C 308.20332 241.21447 307.27136 245.72734 305.53125 246.0625 C 304.88184 246.18758 302.87247 245.13385 301.03125 243.71875 L 297.6875 241.15625 L 297.78125 235.6875 C 297.90783 229.04325 299.30904 226.40634 302.65625 226.40625 z "
     id="path3080" />
  <path
     inkscape:connector-curvature="0"
     style="fill:#1a1a1a;display:inline"
     d="m 155.96005,139.21254 c 0.30941,-0.0159 0.52142,-0.002 0.57854,0.0551 0.22875,0.22867 0.40435,5.77609 0.41317,12.31368 0.009,6.53759 0.26895,12.29539 0.57854,12.78199 0.3095,0.48659 1.60762,0.98672 2.86492,1.12944 1.69066,0.19191 2.28639,0.66215 2.28639,1.79058 0,1.41765 -0.60357,1.53406 -8.23662,1.73548 -6.95895,0.18345 -8.28035,0.0431 -8.67747,-0.9917 -0.61759,-1.60921 0.36706,-2.47702 3.16799,-2.78229 l 2.28639,-0.24792 0,-10.30272 0,-10.30272 -2.67205,0 c -2.13195,0 -2.67214,-0.28055 -2.67214,-1.46002 0,-1.18555 1.01842,-1.74632 5.12381,-2.78228 2.10974,-0.53248 4.03038,-0.88907 4.95853,-0.93661 z"
     id="path3062" />
  <path
     inkscape:connector-curvature="0"
     style="fill:#1a1a1a;display:inline"
     d="m 209.29187,139.43292 c 0.88151,-0.0507 1.5088,0.0212 1.73553,0.24792 0.52538,0.52547 0.82642,5.34816 0.82642,13.22275 l 0,12.36877 2.47926,0.24793 c 1.89086,0.18221 2.47927,0.59943 2.47927,1.76303 0,1.4143 -0.53164,1.54746 -7.60308,1.68039 -4.19522,0.0789 -8.07037,-0.0567 -8.59478,-0.27547 -1.7008,-0.70936 -0.99603,-2.50342 1.15699,-2.97512 1.15364,-0.25282 2.52096,-0.60499 3.05771,-0.77133 0.7425,-0.22999 0.93335,-2.70943 0.77133,-10.41291 l -0.22038,-10.13743 -2.58945,0 c -2.77678,0 -3.81238,-1.15303 -2.20379,-2.47927 1.35092,-1.11381 6.06051,-2.32721 8.70497,-2.47926 z"
     id="path3060" />
  <path
     style="fill:#e75e25;fill-opacity:1;display:inline"
     d="M 107.84375 157.875 C 102.41105 157.9048 89.689842 169.06755 85 178.125 C 77.164908 193.2571 77.159971 211.64284 85 226.5625 C 90.308578 236.66468 100.82523 245.2818 111.28125 248.09375 C 116.46642 249.48822 118.4335 249.51586 119.40625 248.3125 C 120.0301 247.54091 121.32158 241.13177 121.4375 238.3125 C 121.4525 237.95461 118.69792 236.74007 115.28125 235.59375 C 108.44677 233.30057 104.0079 230.41401 100.5 226 C 98.457084 223.42923 97.546244 221.0625 98.59375 221.0625 C 98.799407 221.0625 101.21119 222.61205 103.96875 224.5 C 111.11273 229.39091 113.67628 228.90863 110.75 223.25 C 110.0953 221.98388 109.65096 220.20548 109.78125 219.3125 C 110.00851 217.75565 110.15883 217.78316 112.71875 220 C 117.0224 223.72696 121.3271 226.40625 123.09375 226.40625 C 124.51052 226.40634 124.85725 225.73506 125.65625 221.5 L 126.59375 216.5625 L 122.75 206.78125 C 120.64406 201.40753 117.44259 192.28204 115.625 186.5 C 112.40684 176.26207 112.29468 176.01548 110.4375 176.46875 C 107.82319 177.1068 103.93979 180.11142 99.21875 185.15625 C 96.421347 188.14556 95.211741 188.99325 95.1875 188.03125 C 95.11962 185.35074 98.357153 180.49704 104.5625 173.9375 L 110.875 167.28125 L 110.4375 162.71875 C 110.07669 158.70918 109.8403 158.08762 108.34375 157.875 C 108.18411 157.8523 108.019 157.874 107.84375 157.875 z M 392.46875 157.875 C 391.48762 157.9536 391.13342 158.87197 390.84375 160.625 C 389.79757 166.95472 390.02843 167.48286 396.375 174.1875 C 402.07532 180.20949 406.09498 186.46515 405.46875 188.34375 C 405.31184 188.81466 402.96084 186.90931 400.25 184.09375 C 397.53916 181.27845 394.02674 178.29962 392.46875 177.5 C 389.78692 176.12351 389.62001 176.1411 388.96875 177.40625 C 388.5904 178.14117 387.67013 182.14853 386.9375 186.34375 C 386.20496 190.53906 383.37317 200.78634 380.65625 209.125 C 376.31972 222.43404 375.86368 224.42618 376.84375 225.40625 C 377.82373 226.3864 378.27175 226.38971 380.53125 225.25 C 381.94688 224.53589 384.76407 222.55155 386.78125 220.875 C 388.79833 219.19844 390.6726 218.07886 390.9375 218.34375 C 391.20222 218.60838 390.83576 220.42283 390.125 222.40625 C 389.41414 224.3893 388.8125 226.44443 388.8125 226.96875 C 388.8215 228.80054 391.63474 227.89789 396.5 224.5 C 399.19665 222.61664 401.68539 221.07132 402 221.0625 C 404.82791 221.022 397.19702 230.18034 392.34375 232.65625 C 390.62329 233.53398 387.50884 234.807 385.40625 235.53125 L 381.5625 236.875 L 381.78125 241.59375 C 381.88325 244.18806 382.32965 246.99961 382.78125 247.84375 C 383.44072 249.07585 384.08337 249.29482 386.03125 248.90625 C 401.39811 245.84007 413.35001 234.77596 419.0625 218.375 C 420.96851 212.90272 421.17124 211.27796 421.15625 202.375 C 421.14125 193.65698 420.886 191.69636 419.0625 186.1875 C 415.28882 174.78773 407.52275 165.18186 397.875 160.03125 C 395.05794 158.5273 393.44988 157.79636 392.46875 157.875 z M 224.03125 224.375 C 219.07722 224.53879 214.51583 226.68101 210.25 230.75 C 202.48711 238.15447 200.84206 244.6527 204.6875 252.78125 C 206.55076 256.71986 206.59916 257.07093 205.4375 258.84375 C 204.76005 259.87768 201.223 262.25305 197.5625 264.09375 C 177.27362 274.29633 164.67362 289.9981 160.3125 310.59375 C 159.1206 316.2225 158.72074 333.80263 159.625 340.59375 C 163.40926 369.01048 175.26344 396.65317 191.125 414.0625 C 193.61184 416.79211 196.51817 420.78435 197.625 422.96875 C 201.73701 431.08317 207.24717 435.08103 217.25 437.25 C 223.17828 438.53534 253.94032 438.81266 259.15625 437.625 C 264.16159 436.48537 267.6124 433.89633 273.34375 426.96875 C 276.14609 423.58163 281.22349 418.72128 284.625 416.15625 C 292.61127 410.1339 301.84528 400.83277 305.40625 395.21875 C 306.95102 392.78347 309.00512 389.87702 309.9375 388.75 C 313.04008 384.99985 320.15509 369.95263 323.1875 360.84375 C 329.18569 342.82653 331.50108 323.46707 329.03125 311.90625 C 325.65002 296.08065 315.83514 283.66127 296.90625 271.34375 C 291.87191 268.06786 286.79821 264.63103 285.625 263.65625 L 283.5 261.84375 L 286.40625 256.21875 C 288.92131 251.32959 289.27909 249.9168 289.25 245.53125 C 289.1848 235.82488 283.0728 227.09965 275.53125 225.96875 C 270.13611 225.15978 262.78339 226.8139 254.65625 230.65625 C 250.71957 232.51731 247.23739 234.03125 246.875 234.03125 C 246.51269 234.03125 244.53665 232.80706 242.5 231.34375 C 235.77033 226.50898 229.6458 224.18936 224.03125 224.375 z M 275.4375 243.4375 C 280.22211 243.2366 285.26906 248.98103 282.34375 251.90625 C 281.43297 252.81703 279.96516 253.11988 277 253 C 272.39681 252.81373 272.07144 253.00387 270.90625 256.40625 C 269.75059 259.78034 267.76471 259.93779 266.4375 256.78125 C 265.52002 254.59871 265.53875 253.89953 266.5 251.59375 C 267.9858 248.03102 271.84994 244.10635 274.46875 243.53125 C 274.78275 243.46245 275.11848 243.45079 275.4375 243.4375 z M 220.1875 243.46875 C 222.77484 243.55255 225.48226 245.31001 227.90625 248.65625 C 230.35766 252.0403 230.80301 255.59192 229.09375 257.84375 C 227.42583 260.04093 225.8902 259.44034 224.90625 256.15625 C 223.92494 252.88071 223.99723 252.90396 218.5 253.09375 C 212.53091 253.29985 210.96971 250.61346 214.5625 246.34375 C 216.23324 244.35822 218.17508 243.40396 220.1875 243.46875 z M 247.21875 253.875 C 247.70014 253.875 248.92041 255.42645 249.9375 257.34375 C 250.9546 259.26096 253.32406 262.17235 255.1875 263.8125 L 258.5625 266.78125 L 256.53125 267.59375 C 255.40564 268.02173 253.88958 268.34375 253.15625 268.34375 C 251.01796 268.34375 247.87441 272.24466 246.28125 276.875 C 245.47016 279.23235 244.4085 281.86989 243.9375 282.75 C 242.38542 285.65001 241.78283 284.47036 241.21875 277.34375 C 240.68146 270.55501 240.56508 270.22199 237.96875 267.84375 C 234.96101 265.08883 235.22412 263.94348 239.3125 262.25 C 240.56963 261.72938 242.59064 259.69273 243.9375 257.59375 C 245.25484 255.54079 246.73744 253.875 247.21875 253.875 z M 237.90625 306.53125 C 238.04059 306.54185 238.15184 306.58926 238.21875 306.65625 C 238.48647 306.92405 238.01339 309.97671 237.1875 313.46875 C 236.36161 316.96088 234.93133 323.27353 234 327.46875 C 231.34779 339.41506 230.76122 341.06638 228.65625 342.125 C 226.01047 343.45547 216.46875 343.11176 216.46875 341.6875 C 216.46875 341.38761 217.54995 340.48888 218.90625 339.6875 C 222.95311 337.297 228.04806 332.22715 229.25 329.375 C 229.94543 327.7248 230.503 322.95142 230.75 316.90625 L 231.15625 307.15625 L 232.96875 307.59375 C 233.95103 307.84022 235.39365 307.63996 236.21875 307.125 C 236.83757 306.73854 237.50313 306.49943 237.90625 306.53125 z M 220.34375 359.90625 C 225.99321 359.80635 231.46958 361.40077 236.15625 364.625 C 241.23431 368.11827 248.34836 378.5578 246.75 380.15625 C 246.54161 380.36456 243.46718 380.18885 239.9375 379.75 C 232.38414 378.81136 223.86718 379.66587 216.5625 382.09375 C 213.90437 382.97721 209.55278 385.17319 206.875 386.96875 C 202.99941 389.56773 201.81333 390.01061 201.15625 389.21875 C 199.79845 387.58274 199.33944 378.07145 200.40625 373.625 C 201.75101 368.01935 206.82145 362.78247 212.5625 361.09375 C 215.14517 360.33397 217.77581 359.95156 220.34375 359.90625 z "
     id="path3052" />
  <path
     inkscape:connector-curvature="0"
     style="fill:#1a1a1a;display:inline"
     d="m 155.73967,181.08456 c 0.32149,-0.025 0.52477,-0.0228 0.60604,0.0275 0.3252,0.20099 0.59723,5.75842 0.60605,12.34123 0.009,6.58281 0.26895,12.37803 0.57854,12.86462 0.3095,0.4866 1.60762,0.98673 2.86492,1.12945 1.69066,0.19199 2.28639,0.66224 2.28639,1.79062 0,1.41774 -0.60357,1.53419 -8.23662,1.73544 -6.95895,0.18362 -8.28035,0.0432 -8.67747,-0.9917 -0.61759,-1.6093 0.36706,-2.47711 3.16799,-2.78229 l 2.28639,-0.24793 0,-10.30272 0,-10.30272 -2.67205,0 c -2.11335,0 -2.67214,-0.28658 -2.67214,-1.43246 0,-1.13337 1.09193,-1.75131 4.95853,-2.80983 2.03727,-0.55767 3.93897,-0.9444 4.90343,-1.01926 z"
     id="path3042" />
  <path
     inkscape:connector-curvature="0"
     style="fill:#1a1a1a;display:inline"
     d="m 248.79481,404.27313 c 0.56858,-0.0802 0.53861,0.56047 0.24797,2.72714 -0.23175,1.72813 -1.14773,4.17583 -2.0385,5.42688 -1.60057,2.25122 -1.69384,2.26312 -8.64988,2.23138 -3.87144,-0.0176 -8.75601,0.20584 -10.85367,0.49577 -2.09757,0.29002 -4.36985,0.68996 -5.06872,0.88152 -2.25906,0.61926 -2.377,-1.25282 -0.24797,-4.3249 1.29222,-1.86476 3.57199,-3.72687 6.03292,-4.93102 3.52096,-1.72425 4.75279,-1.92365 11.15665,-1.73545 3.95783,0.11628 7.85113,-0.0837 8.64988,-0.46835 0.33383,-0.16061 0.58189,-0.27617 0.77132,-0.30297 z"
     id="path7-9" />
  <path
     style="fill:#000000;fill-opacity:0.78431373;display:inline"
     d="M 60.6875,0 C 27.17542,0 -9.9999724e-5,27.17541 0,60.6875 l 0,378.625 C 0,472.82453 27.17542,500.0001 60.6875,500 l 378.625,0 c 33.5122,0 60.6874,-27.17547 60.6875,-60.6875 l 0,-378.625 C 500,27.17541 472.8258,0 439.3125,0 L 60.6875,0 z M 90.96875,40 409,40 c 28.15118,0 51,22.81859 51,50.96875 L 460,409 c -8e-5,28.15011 -22.84975,51 -51,51 L 90.96875,460 C 62.8186,460.00008 40,437.15011 40,409 L 40,90.96875 C 39.99992,62.81859 62.8186,40 90.96875,40 z"
     id="path7-8-6-9"
     inkscape:connector-curvature="0" />
</svg>
