<?xml version="1.0" encoding="UTF-8" standalone="no"?>
<!-- Created with Inkscape (http://www.inkscape.org/) -->

<svg
   xmlns:dc="http://purl.org/dc/elements/1.1/"
   xmlns:cc="http://creativecommons.org/ns#"
   xmlns:rdf="http://www.w3.org/1999/02/22-rdf-syntax-ns#"
   xmlns:svg="http://www.w3.org/2000/svg"
   xmlns="http://www.w3.org/2000/svg"
   xmlns:sodipodi="http://sodipodi.sourceforge.net/DTD/sodipodi-0.dtd"
   xmlns:inkscape="http://www.inkscape.org/namespaces/inkscape"
   width="500"
   height="500"
   id="svg3932"
   version="1.1"
   inkscape:version="0.48.4 r9939"
   sodipodi:docname="Codeivate.svg">
  <g
     transform="translate(0,-552.36218)">
    <path
       d="m 439.32025,552.36227 -378.6407,0 c -33.5121,0 -60.6795,27.1675 -60.6795,60.6796 l 0,378.64052 c 0,33.51221 27.1675,60.67971 60.6795,60.67971 l 378.6407,0 c 33.5122,0 60.6797,-27.1675 60.6797,-60.67971 l 0,-378.64052 c 0,-33.5121 -27.1662,-60.6796 -60.6797,-60.6796 z"
       style="fill:#ffffff;fill-opacity:1;display:inline" />
    <path
       style="fill:#1a1a1a;display:inline"
       d="M 60.6875 0 C 27.1754 0 -9.9999998e-05 27.17539 0 60.6875 L 0 439.3125 C 0 472.82453 27.1754 500.0001 60.6875 500 L 439.3125 500 C 472.8247 500 499.9999 472.82453 500 439.3125 L 500 60.6875 C 500 27.17539 472.8258 0 439.3125 0 L 60.6875 0 z M 88.28125 70.25 L 411.71875 70.25 C 418.23423 70.25 423.6875 75.70327 423.6875 82.21875 L 423.6875 155.125 C 423.6875 161.64048 418.23423 167.125 411.71875 167.125 L 88.28125 167.125 C 81.76576 167.125 76.3125 161.64048 76.3125 155.125 L 76.3125 82.21875 C 76.3125 75.70327 81.76576 70.25 88.28125 70.25 z M 90.25 84.1875 L 90.25 153.15625 L 334.8125 153.15625 L 334.8125 84.1875 L 90.25 84.1875 z M 380.34375 84.1875 L 380.34375 153.15625 L 409.75 153.15625 L 409.75 84.1875 L 380.34375 84.1875 z M 88.28125 201.5625 L 411.71875 201.5625 C 418.23423 201.5625 423.6875 207.01577 423.6875 213.53125 L 423.6875 286.4375 C 423.6875 292.95298 418.23423 298.4375 411.71875 298.4375 L 88.28125 298.4375 C 81.76577 298.4375 76.3125 292.95298 76.3125 286.4375 L 76.3125 213.53125 C 76.3125 207.01577 81.76577 201.5625 88.28125 201.5625 z M 90.25 215.5 L 90.25 284.46875 L 262.59375 284.46875 L 262.59375 215.5 L 90.25 215.5 z M 308.125 215.5 L 308.125 284.46875 L 409.75 284.46875 L 409.75 215.5 L 308.125 215.5 z M 88.28125 332.875 L 411.71875 332.875 C 418.23423 332.875 423.6875 338.32827 423.6875 344.84375 L 423.6875 417.75 C 423.6875 424.26548 418.23423 429.75 411.71875 429.75 L 88.28125 429.75 C 81.76577 429.75 76.3125 424.26548 76.3125 417.75 L 76.3125 344.84375 C 76.3125 338.32827 81.76577 332.875 88.28125 332.875 z M 90.25 346.8125 L 90.25 415.78125 L 225.21875 415.78125 L 225.21875 346.8125 L 90.25 346.8125 z M 323.28125 346.8125 L 323.28125 415.78125 L 409.75 415.78125 L 409.75 346.8125 L 323.28125 346.8125 z "
       transform="translate(0,552.36218)" />
  </g>
</svg>
