<?xml version="1.0" encoding="UTF-8" standalone="no"?>
<!-- Created with Inkscape (http://www.inkscape.org/) -->

<svg
   xmlns:dc="http://purl.org/dc/elements/1.1/"
   xmlns:cc="http://creativecommons.org/ns#"
   xmlns:rdf="http://www.w3.org/1999/02/22-rdf-syntax-ns#"
   xmlns:svg="http://www.w3.org/2000/svg"
   xmlns="http://www.w3.org/2000/svg"
   xmlns:sodipodi="http://sodipodi.sourceforge.net/DTD/sodipodi-0.dtd"
   xmlns:inkscape="http://www.inkscape.org/namespaces/inkscape"
   width="500"
   height="500"
   id="svg3932"
   version="1.1"
   inkscape:version="0.48.4 r9939"
   sodipodi:docname="Coderbits.svg">
  <g
     transform="translate(0,-552.36218)">
    <path
       d="m 439.32025,552.36227 -378.6407,0 c -33.5121,0 -60.6795,27.1675 -60.6795,60.6796 l 0,378.64052 c 0,33.51221 27.1675,60.67971 60.6795,60.67971 l 378.6407,0 c 33.5122,0 60.6797,-27.1675 60.6797,-60.67971 l 0,-378.64052 c 0,-33.5121 -27.1662,-60.6796 -60.6797,-60.6796 z"
       style="fill:#ffffff;fill-opacity:1;display:inline" />
    <path
       style="fill:#1a1a1a;display:inline"
       d="m 60.68745,552.36217 c -33.5121,0 -60.68759999986,27.17539 -60.687499999862,60.6875 l 0,378.625 c 0,33.51203 27.175399999862,60.68763 60.687499999862,60.68753 l 378.6251,0 c 33.5122,0 60.6874,-27.1755 60.6875,-60.68753 l 0,-378.625 c 0,-33.51211 -27.1742,-60.6875 -60.6875,-60.6875 z m 200.2189,28.49999 c 1.0194,-0.11466 3.42,0.69045 6.3125,2.15625 4.2067,2.1317 7.1432,5.04305 9.6875,9.65625 1.0003,1.8138 2.8613,3.0494 6.9062,4.5625 11.9365,4.4651 24.9158,10.38476 31.4375,14.34376 l 6.8438,4.15625 8.0312,-1.84375 c 9.656,-2.2181 22.4232,-2.4273 30.625,-0.5 17.6499,4.1475 31.8104,17.0604 41.5938,37.9375 4.5343,9.676 6.8313,18.7795 7.5625,29.9375 l 0.5937,9.0625 6.1875,3.09375 c 15.253,7.5757 24.968,18.8162 30.625,35.4375 1.5081,4.4313 2.0028,8.28925 2.3438,18.28125 0.5329,15.61035 -0.7802,22.48025 -6.4688,33.84375 -7.3092,14.6007 -20.7802,25.5227 -35.625,28.875 l -6.125,1.375 -0.031,6.625 c -0.01,8.0015 -1.2502,19.8321 -3.0625,28.875 -1.238,6.1775 -1.2352,7.0718 0.1563,12.0313 0.8619,3.0717 2.591,6.6053 4.0625,8.2812 1.7827,2.0303 2.3133,3.2179 1.6875,3.8438 -0.7964,0.7964 -3.603,-0.1651 -9.9688,-3.4063 -0.3637,-0.1852 -1.2615,1.0576 -1.9687,2.75 -1.6984,4.0645 -1.6554,18.2433 0.062,25.5313 0.7174,3.0431 1.1504,5.662 0.9687,5.8437 -0.3755,0.3755 -5.4218,-5.1268 -7.6875,-8.375 -1.4892,-2.135 -1.5297,-2.1202 -2.875,-0.4063 -0.7471,0.9518 -3.6817,5.7338 -6.5312,10.625 -6.8133,11.6952 -18.4071,26.9828 -29,38.25 -13.7416,14.6164 -22.6465,29.0873 -23.4688,38.1563 -0.2546,2.8067 -0.7999,5.125 -1.1875,5.125 -0.3876,0 -1.3949,-1.0068 -2.25,-2.2187 -4.7176,-6.6875 -3.5442,-6.8115 -11.625,1.375 -3.9803,4.0323 -10.2243,9.5763 -13.875,12.3124 -3.6509,2.7362 -9.5222,8.36663 -13.0312,12.53133 -7.2389,8.5916 -12.8387,12.449 -20.25,13.9375 -7.0579,1.4175 -42.3684,1.152 -50.0625,-0.375 -12.3931,-2.4596 -22.4154,-9.5186 -27.7188,-19.5 -1.4151,-2.6635 -5.7083,-8.54293 -9.5313,-13.09383 -3.8229,-4.5509 -8.9698,-11.7471 -11.4688,-15.9687 -3.5763,-6.0418 -6.5581,-9.5477 -14,-16.5313 -5.2,-4.8796 -11.3002,-11.1916 -13.5312,-14.0312 -4.1979,-5.3433 -5.6423,-6.0051 -8.5,-3.8438 -2.7983,2.1166 -3.8937,1.603 -3.375,-1.5937 0.349,-2.1502 -1.3919,-8.3705 -6.9375,-24.875 -4.0677,-12.1054 -8.1662,-25.9285 -9.125,-30.6875 -1.3113,-6.5088 -4.4063,-30.7795 -4.4063,-34.5625 0,-0.9827 -2.4463,-0.3881 -3.4687,0.8437 -1.3367,1.6106 -10.1077,6.9154 -12.75,7.7188 -2.7304,0.8302 -2.467,-0.5248 1.0625,-5.4375 4.1441,-5.7683 11.6725,-21.6412 11.6875,-24.6563 0.011,-2.2887 -0.1732,-2.445 -2.375,-1.8124 -3.4226,0.9835 -8.2224,0.9485 -8.5625,-0.063 -0.1602,-0.4758 0.8268,-1.4892 2.2187,-2.2812 2.7185,-1.5469 7.8438,-8.0444 7.8438,-9.9375 0,-0.6333 -1.0663,-1.3814 -2.375,-1.6563 -12.5521,-2.6369 -21.028,-7.3903 -29.5938,-16.5624 -23.2529,-24.8991 -21.4869,-68.8122 3.6875,-91.5938 4.5046,-4.0764 13.6001,-9.40365 18.8125,-11.03125 1.0436,-0.3258 1.5921,-2.8229 2.375,-11.125 1.3767,-14.5991 4.4241,-26.09715 9.875,-37.09375 3.8248,-7.7158 5.6263,-10.179 11.9063,-16.46875 8.2305,-8.2433 14.725,-12.14485 26.5312,-15.84375 17.981,-5.6335 38.4816,-4.9538 55.5001,1.8125 5.3147,2.113 5.4838,2.12695 9.0938,0.65625 8.8655,-3.6116 24.6093,-8.55905 37.4062,-11.71876 19.8403,-4.8988 24.4972,-8.61505 20.4688,-16.34375 -1.026,-1.9685 -1.875,-3.74555 -1.875,-3.96875 0,-0.24685 0.1914,-0.39928 0.5312,-0.4375 z m 8.5937,43.28126 c -1.5737,0 -7.4605,11.83445 -10.75,21.59375 -1.3564,4.0245 -2.884,7.4613 -3.375,7.625 -0.4912,0.1637 -2.1012,-3.3238 -3.5937,-7.75 -1.4926,-4.426 -3.2581,-9.02895 -3.9375,-10.21875 -1.1086,-1.9416 -1.2533,-1.97505 -1.2813,-0.40625 -0.017,0.9615 0.7669,4.5651 1.7188,8 0.9519,3.4348 1.7025,7.1106 1.6875,8.1875 l -0.031,1.96875 -1.75,-2.15625 c -0.9686,-1.1898 -4.0827,-4.78935 -6.9063,-7.96875 -8.5174,-9.5908 -22.4375,-19.8596 -22.4375,-16.5625 0,0.3137 3.8067,4.47885 8.4688,9.28125 8.9915,9.2619 12.6627,14.061 15.7187,20.5625 2.324,4.9439 7.2771,10.03075 10.8125,11.09375 3.2603,0.9803 7.8509,0.32855 10.5938,-1.46875 1.1322,-0.7418 5.4979,-5.47785 9.7187,-10.53125 7.9469,-9.5145 18.6381,-20.28445 22.7813,-22.96875 4.0879,-2.6484 2.6072,-3.2358 -2.1563,-0.84375 -6.1169,3.0716 -14.3887,9.01785 -22.5625,16.21875 -3.7165,3.2742 -6.9255,5.76185 -7.1562,5.53125 -0.2304,-0.2305 0.9385,-5.89675 2.625,-12.59375 3.3787,-13.41655 3.7272,-16.59375 1.8125,-16.59375 z m -106.6876,12.6875 c -3.719,-0.0555 -8.3005,0.31569 -9.125,1 -0.8235,0.6832 -1.05,2.50345 -0.7812,6.21875 0.4966,6.8655 -1.1272,12.50205 -4.6563,16.03125 -5.2537,5.2537 -13.4711,4.58415 -17.7812,-1.46875 -1.6947,-2.3802 -1.9027,-2.4573 -3.375,-1.125 -1.6577,1.5002 -6.8115,11.61545 -8.6875,17.03125 -1.0215,2.9486 -0.9174,3.5908 1.2187,7.8125 1.9138,3.7827 2.2963,5.7273 2.2813,11.0625 -0.023,7.8705 -1.888,12.5537 -6.4063,16 l -3.1875,2.4375 0.5625,5.6875 c 0.505,5.0204 0.9336,6.0271 3.5625,8.5 1.6407,1.5434 3.5591,4.1588 4.25,5.8125 1.4931,3.5732 1.6547,13.77885 0.2813,17.71875 -0.8385,2.4052 -0.6682,3.6222 1.3437,8.75 3.9265,10.008 16.4461,28.5312 19.2813,28.5312 0.613,10e-5 1.114,-0.8667 1.125,-1.9374 0.031,-3.1784 2.9838,-8.8008 5.9687,-11.3126 4.6947,-3.9503 12.2263,-2.8055 16.375,2.4688 2.7758,3.5288 4.0913,10.86 2.9688,16.6875 -0.5197,2.6983 -1.0904,5.6436 -1.25,6.5625 -0.2015,1.1617 0.3707,1.8801 1.875,2.3438 2.5998,0.8013 11.851,0.1042 14.0313,-1.0626 1.3771,-0.7369 1.5625,-2.1323 1.5625,-12.1562 l 0,-11.3438 -2.9687,0.4688 c -3.1423,0.5099 -4.8186,-1.0601 -2.8438,-2.6875 1.3847,-1.1411 11.1014,-3.6491 12,-3.0937 0.3926,0.2426 0.7188,2.7663 0.7188,5.5937 0,2.8274 0.2145,5.125 0.4687,5.125 0.2543,0 2.8037,-2.511 5.6875,-5.5937 3.8344,-4.0991 7.0214,-6.4875 11.8438,-8.875 l 6.5937,-3.25 1.5938,-5.1876 c 6.434,-21.17325 5.1453,-50.57835 -3.25,-73.99995 -2.4776,-6.9122 -9.1581,-19.8827 -11.0313,-21.4375 -0.6194,-0.514 -3.0743,-1.06925 -5.4375,-1.21875 -3.2827,-0.2076 -4.3416,-0.61775 -4.5625,-1.78125 -0.2101,-1.1058 0.4114,-1.6759 2.3438,-2.0625 1.4636,-0.2926 2.6875,-0.98095 2.6875,-1.53125 0,-1.5066 -9.3281,-10.2513 -14.7188,-13.8125 -7.5723,-5.0028 -7.8853,-4.76705 -7.5937,5.71875 l 0.25,8.875 2.3125,0.25 c 1.274,0.1473 2.8072,0.87195 3.4062,1.59375 1.8584,2.2392 -0.7438,2.9237 -10.0626,2.6875 -8.0031,-0.2027 -8.6562,-0.3369 -8.6562,-1.9375 0,-1.3199 0.6675,-1.7932 2.8125,-2 l 2.8125,-0.28125 0,-10.28125 c 0,-7.2353 -0.3084,-10.4714 -1.0625,-10.9375 -0.6116,-0.378 -2.5499,-0.56043 -4.7813,-0.59375 z m 178.1876,0.0625 c -3.56,0.0702 -3.2262,1.46663 -3.2187,8.25 0.01,8.8874 -1.0438,11.81765 -5.5313,15.59375 -6.9912,5.8827 -15.214,2.84015 -19.2812,-7.15625 l -1.25,-3.03125 -3.1563,3.15625 c -2.3059,2.2952 -3.1875,3.9059 -3.1875,5.875 0,1.8254 -0.4798,2.84105 -1.5,3.15625 -3.1333,0.9683 -4.1927,1.9535 -6.9062,6.5 -3.1694,5.3101 -3.6069,7.94 -1.3125,7.5625 3.4015,-0.5595 3.6562,0.58935 3.6562,15.28125 l 0,14.15625 2.8125,0.28125 c 2.1449,0.2067 2.8125,0.68 2.8125,2 0,1.6257 -0.5587,1.71875 -9.5,1.71875 -8.9414,0 -9.5312,-0.093 -9.5312,-1.71875 0,-1.3186 0.7238,-1.82655 3.0312,-2.15625 l 3.0313,-0.4375 0.25,-11.46875 c 0.1992,-9.4539 0.016,-11.46875 -1,-11.46875 -1.5129,0 -5.9172,13.52525 -8.0313,24.65625 -1.8444,9.7114 -2.0864,31.92925 -0.4375,40.90625 l 1.1563,6.3125 3.1562,-0.53125 c 1.7394,-0.2881 3.6725,-0.6837 4.2813,-0.875 0.8413,-0.2647 1.0588,-3.0755 0.875,-11.8125 l -0.25,-11.5 -3.0313,0 c -2.4183,0 -3.0312,-0.31835 -3.0312,-1.65625 0,-1.3444 1.1449,-1.98615 5.7812,-3.15625 4.1103,-1.0373 6.0592,-1.19075 6.7188,-0.53125 0.5835,0.5835 0.9062,6.1608 0.9062,15 l 0,14.03125 2.8125,0.28125 c 2.1449,0.2068 2.8125,0.68 2.8125,2 0,1.6136 -0.6425,1.7406 -9.7187,1.9687 -10.9884,0.2763 -10.7475,0.07 -8.1563,7.2188 0.7962,2.1969 3.4903,6.2049 6,8.9375 l 4.5625,4.9687 3.3438,-3.75 c 3.2666,-3.6808 3.4536,-3.7812 8.6875,-3.7812 5.0605,0 5.543,0.1684 8.2812,3.1562 4.6639,5.0893 6.1104,14.4021 3.4375,21.9063 -0.9448,2.6526 -0.9821,3.6988 -0.1875,4.6563 0.8039,0.9685 2.5645,1.1156 8.1875,0.7187 3.9439,-0.2782 7.5645,-0.7426 8.0313,-1.0313 0.4875,-0.3012 0.8437,-5.5147 0.8437,-12.25 l 0,-11.7187 -2.5937,0.375 c -2.974,0.4365 -4.9828,-1.1653 -3.25,-2.5937 1.4306,-1.1795 11.1414,-3.6941 12.0625,-3.125 0.3924,0.2425 0.7187,6.2644 0.7187,13.375 0,11.812 0.126,12.9374 1.5313,12.9374 4.5487,0 23.8167,-17.395 22.1875,-20.0312 -0.2819,-0.4561 -1.7465,-0.7061 -3.25,-0.5625 -2.1992,0.2101 -2.75,-0.054 -2.75,-1.375 0,-1.2844 1.214,-1.9972 5.5625,-3.1875 6.0289,-1.6504 7.3605,-2.8556 10.5625,-9.6875 1.8627,-3.9744 1.8784,-4.159 0.3437,-5.2813 -1.9427,-1.4203 -1.1948,-3.99995 1.1563,-3.99995 3.3354,0 4.0312,-2.30565 4.0312,-13.34375 l 0,-10.46875 -3.0312,0 c -2.3974,0 -3.0313,-0.3251 -3.0313,-1.625 0,-1.2805 1.1966,-1.99545 5.4375,-3.15625 2.991,-0.8188 5.6129,-1.67535 5.8438,-1.90625 0.231,-0.2311 0.5157,-3.0929 0.625,-6.375 l 0.2187,-5.96875 -6.0625,-0.4375 c -5.336,-0.381 -6.0625,-0.63165 -6.0625,-2.15625 0,-1.3185 0.7238,-1.82655 3.0313,-2.15625 l 3.0312,-0.4375 0,-11.6875 0,-11.6875 -3.0312,0 c -2.404,0 -3.0313,-0.34445 -3.0313,-1.65625 0,-1.1851 0.9864,-1.9114 3.4688,-2.625 2.9412,-0.8457 3.4231,-1.3307 3.2187,-3.125 -0.4718,-4.141 -5.5446,-13.6581 -12.0937,-22.75 -2.83,-3.929 -10.4645,-10.27235 -11.5625,-9.59375 -0.4211,0.2602 -0.7813,3.96355 -0.7813,8.21875 l 0,7.75 2.4375,0 c 3.0877,0 4.826,1.5899 3.5,3.1875 -1.3602,1.6397 -17.4478,1.582 -18.8125,-0.0625 -1.2169,-1.4664 0.2006,-2.8109 3.375,-3.25 2.1446,-0.2967 2.1636,-0.4011 2.4063,-10.0625 0.2781,-11.0718 0.2951,-11.03815 -7.625,-11.46875 -2.2022,-0.1197 -3.8446,-0.24215 -5.0313,-0.21875 z m -11.9062,2.84375 c -1.5918,0 -6.2838,2.3189 -8.3438,4.125 -2.5147,2.205 -1.7959,10.76645 1.1875,13.96875 2.0376,2.1871 3.4377,2.25855 5.8438,0.28125 3.5438,-2.9121 4.6511,-18.375 1.3125,-18.375 z m -184.4064,1.71875 c -2.0394,0 -8.474,4.4823 -9.6875,6.75 -1.0989,2.0534 0.1091,7.51915 2.1563,9.78125 3.9325,4.3453 8.2025,-0.4962 8.8125,-10 0.3908,-6.0909 0.3138,-6.53125 -1.2813,-6.53125 z m 210.5314,34.59375 c 4.4911,-0.20635 9.1314,2.29269 11.5312,7.25 3.8852,8.0259 1.6494,21.63625 -4.25,25.78125 -3.0594,2.1497 -7.7381,2.6768 -10.9375,1.25 -8.594,-3.8327 -11.4447,-19.0422 -5.4062,-28.8125 2.1678,-3.50766 5.5694,-5.30826 9.0625,-5.46875 z m -29.5625,0.0312 c 3.3464,0.0666 6.6655,1.69611 9.0625,5.0625 5.759,8.0877 4.0223,22.5216 -3.375,27.9375 -5.1854,3.7966 -11.8649,2.4055 -15.875,-3.3125 -3.281,-4.6782 -4.2358,-14.53255 -1.9688,-20.46875 2.3118,-6.05334 7.2654,-9.31615 12.1563,-9.21875 z m -155.5001,0.0312 c 4.5461,-0.31875 9.0835,2.16442 11.3751,6.65625 5.1931,10.1793 1.8983,24.07175 -6.5314,27.59375 -3.4693,1.4499 -5.1556,1.44505 -8.5,-0.0312 -5.5102,-2.4321 -8.2532,-8.05655 -8.1562,-16.71875 0.096,-8.5263 2.4087,-13.64535 7.3437,-16.21875 1.4402,-0.75105 2.9534,-1.175 4.4688,-1.28125 z m -26.8438,0.5625 c 0.351,-0.018 0.5915,-0.002 0.6563,0.0625 0.2595,0.2594 0.4587,6.55245 0.4687,13.96875 0.01,7.4163 0.3051,13.948 0.6563,14.5 0.3511,0.552 1.8237,1.11935 3.25,1.28125 1.9179,0.2177 2.5937,0.75115 2.5937,2.03125 0,1.6082 -0.6847,1.74025 -9.3437,1.96875 -7.8943,0.2081 -9.3933,0.0489 -9.8438,-1.125 -0.7006,-1.8255 0.4164,-2.80995 3.5938,-3.15625 l 2.5937,-0.28125 0,-11.6875 0,-11.6875 -3.0312,0 c -2.4185,0 -3.0313,-0.31825 -3.0313,-1.65625 0,-1.3449 1.1553,-1.98105 5.8125,-3.15625 2.3933,-0.60405 4.5721,-1.00857 5.625,-1.0625 z m 60.5001,0.25 c 1,-0.0575 1.7116,0.0241 1.9688,0.28125 0.596,0.5961 0.9375,6.067 0.9375,15 l 0,14.03125 2.8125,0.28125 c 2.145,0.2067 2.8125,0.68 2.8125,2 0,1.6044 -0.6031,1.75545 -8.625,1.90625 -4.7591,0.0895 -9.1551,-0.0643 -9.75,-0.3125 -1.9294,-0.8047 -1.1299,-2.8399 1.3125,-3.375 1.3087,-0.2868 2.8598,-0.6863 3.4687,-0.875 0.8423,-0.2609 1.0588,-3.0736 0.875,-11.8125 l -0.25,-11.5 -2.9375,0 c -3.15,0 -4.3248,-1.308 -2.5,-2.8125 1.5325,-1.26352 6.8751,-2.64001 9.875,-2.8125 z m 152.1875,3.46875 c -3.7316,0 -5.17,2.9746 -5.5,11.375 -0.3485,8.8727 0.1138,11.3639 2.5,13.75 2.1557,2.1555 3.8319,2.16815 5.9688,0.0312 2.2031,-2.2031 2.9125,-6.26005 2.5312,-14.65625 -0.3396,-7.4791 -1.9202,-10.5 -5.5,-10.5 z m -31.4062,0.125 c -3.8113,0.33081 -5.6293,5.61326 -5.1563,15.21875 0.2964,6.0178 0.6568,7.4836 2.375,9.3125 1.1202,1.1923 2.5156,2.15625 3.0938,2.15625 7.2892,0 8.6292,-24.72635 1.4375,-26.53125 -0.6251,-0.1569 -1.2056,-0.20351 -1.75,-0.15625 z m -153.6564,0.0312 c -0.1621,-7.6e-4 -0.3323,0.0117 -0.5,0.0312 -3.4046,0.3967 -5.25,4.8996 -5.25,12.9375 -0.001,7.1355 0.9763,10.8984 3.25,12.625 0.7833,0.5949 1.9396,1.0625 2.5625,1.0625 1.6407,0 4.4738,-3.0845 4.9376,-5.375 2.351,-11.61299 0.027,-21.2576 -5.0001,-21.28125 z m -82.2187,17.2814 c -6.1629,0.0338 -20.5861,12.6939 -25.9063,22.96875 -8.8882,17.166 -8.8938,38.0438 0,54.9688 6.0221,11.46 17.9511,21.2163 29.8125,24.4062 5.8821,1.5819 8.1153,1.6463 9.2188,0.2812 0.7077,-0.8753 2.181,-8.1455 2.3125,-11.3437 0.017,-0.406 -3.1241,-1.7933 -7,-3.0937 -7.7531,-2.6014 -12.7706,-5.8677 -16.75,-10.875 -2.3175,-2.9163 -3.3758,-5.625 -2.1875,-5.625 0.2333,0 2.9968,1.7645 6.125,3.9062 8.1042,5.5483 11.0071,5.013 7.6875,-1.4062 -0.7427,-1.4363 -1.2416,-3.4558 -1.0938,-4.4688 0.2578,-1.7661 0.4085,-1.7336 3.3125,0.7812 4.8821,4.2279 9.7772,7.25 11.7813,7.25 1.6072,10e-5 1.9998,-0.7581 2.9062,-5.5624 l 1.0625,-5.5938 -4.3437,-11.09375 c -2.389,-6.096 -6.0319,-16.4408 -8.0938,-23 -3.6507,-11.614 -3.7994,-11.92045 -5.9062,-11.40625 -2.9657,0.7238 -7.3632,4.1521 -12.7188,9.875 -3.1734,3.3911 -4.535,4.3413 -4.5625,3.25 -0.077,-3.0408 3.5856,-8.52755 10.625,-15.96875 l 7.1563,-7.5625 -0.4688,-5.1875 c -0.4093,-4.5485 -0.7085,-5.22755 -2.4062,-5.46875 -0.1811,-0.0257 -0.3637,-0.0323 -0.5625,-0.0312 z m 322.8751,0.0312 c -1.113,0.0892 -1.4839,1.1051 -1.8125,3.09375 -1.1868,7.1805 -0.9496,7.80045 6.25,15.40625 6.4665,6.8314 11.0229,13.90015 10.3125,16.03125 -0.178,0.5342 -2.8311,-1.6185 -5.9063,-4.8125 -3.0752,-3.1937 -7.0451,-6.56165 -8.8125,-7.46875 -3.0423,-1.5615 -3.2612,-1.5602 -4,-0.125 -0.4292,0.8337 -1.4501,5.39715 -2.2812,10.15625 -0.831,4.7592 -4.0429,16.38435 -7.125,25.8438 -4.9194,15.0979 -5.4556,17.3569 -4.3438,18.4687 1.1117,1.1119 1.6243,1.1054 4.1875,-0.1875 1.6059,-0.8101 4.8055,-3.0356 7.0938,-4.9375 2.2882,-1.9019 4.4182,-3.2067 4.7187,-2.9062 0.3003,0.3002 -0.1312,2.375 -0.9375,4.625 -0.8064,2.2496 -1.4687,4.5927 -1.4687,5.1875 0.01,2.078 3.1995,1.0421 8.7187,-2.8125 3.0591,-2.1365 5.8619,-3.8963 6.2188,-3.9063 3.208,-0.046 -5.4319,10.3476 -10.9375,13.1563 -1.9517,0.9957 -5.4898,2.4595 -7.875,3.2811 l -4.3438,1.5 0.2188,5.3439 c 0.1157,2.943 0.6439,6.1362 1.1562,7.0938 0.7481,1.3977 1.4778,1.6595 3.6875,1.2187 17.4323,-3.4783 30.9885,-16.0197 37.4688,-34.6251 2.1622,-6.2078 2.392,-8.0566 2.375,-18.1562 -0.017,-9.8898 -0.3064,-12.1257 -2.375,-18.375 -4.2809,-12.932 -13.0868,-23.81335 -24.0313,-29.65625 -3.1957,-1.7061 -5.0432,-2.52671 -6.1562,-2.4375 z m -240.7501,25.78125 c 4.2551,0.10109 8.5781,2.58364 10.6876,6.71875 5.1931,10.1793 1.8983,24.07175 -6.5314,27.59375 -3.4768,1.4524 -5.1341,1.4303 -8.5625,-0.062 -5.9061,-2.5717 -8.5455,-8.75455 -7.9687,-18.71885 0.4296,-7.4203 2.3902,-11.5128 6.8125,-14.125 1.7054,-1.00744 3.6284,-1.4522 5.5625,-1.40625 z m 184.3751,0 c 4.4911,-0.20634 9.1314,2.29274 11.5312,7.25 3.8852,8.0259 1.6494,21.63625 -4.25,25.7813 -3.0594,2.1497 -7.7381,2.6769 -10.9375,1.25 -8.594,-3.83275 -11.4447,-19.04215 -5.4062,-28.81255 2.1678,-3.50761 5.5694,-5.30826 9.0625,-5.46875 z m -153.0313,0.0312 c 2.9798,-0.003 4.3103,0.53885 7,2.96875 3.9212,3.5425 5.3438,7.6161 5.3438,15.3125 0,6.299 -2.4084,12.15135 -6.0625,14.71875 -2.7794,1.953 -7.6121,2.6655 -10.375,1.5312 -6.313,-2.5921 -10.2111,-10.91605 -9.1875,-19.62495 1.1078,-9.4255 6.0012,-14.89625 13.2812,-14.90625 z m -59.1251,0.5 c 0.3647,-0.0283 0.5953,-0.0258 0.6875,0.0312 0.3689,0.228 0.6775,6.5324 0.6875,14 0.01,7.4676 0.3051,14.04175 0.6563,14.59375 0.3511,0.552 1.8237,1.11935 3.25,1.28125 1.9179,0.2178 2.5937,0.75125 2.5937,2.0313 0,1.6083 -0.6847,1.7404 -9.3437,1.9687 -7.8943,0.2083 -9.3933,0.049 -9.8438,-1.125 -0.7006,-1.8256 0.4164,-2.81005 3.5938,-3.15625 l 2.5937,-0.28125 0,-11.6875 0,-11.6875 -3.0312,0 c -2.3974,0 -3.0313,-0.3251 -3.0313,-1.625 0,-1.2857 1.2387,-1.9867 5.625,-3.1875 2.3111,-0.63262 4.4684,-1.07133 5.5625,-1.15625 z m 185.1564,0.0314 c 0.3623,10e-4 0.5977,0.0352 0.6875,0.125 0.3592,0.3592 0.775,7.0964 0.9062,14.9375 l 0.2188,14.25 2.875,0.28125 c 3.0824,0.296 4.623,2.442 2.6562,3.6875 -0.6643,0.4205 -5.0012,0.7713 -9.6562,0.7813 -6.6102,0.01 -8.5609,-0.2688 -8.9375,-1.25 -0.7509,-1.95675 0.3762,-3.06255 3.1562,-3.06255 l 2.5625,0 0,-12.1875 0,-12.15625 -2.8125,0.25 c -2.3195,0.224 -2.8125,-0.0209 -2.8125,-1.4375 0,-1.3806 1.0944,-2.00445 5.5938,-3.21875 2.3091,-0.62272 4.4754,-1.00403 5.5625,-1 z m 27.7812,3.78125 c -3.7316,0 -5.17,2.9746 -5.5,11.375 -0.3485,8.8726 0.1138,11.3638 2.5,13.75 2.1557,2.1555 3.8319,2.137 5.9688,0 2.2031,-2.203 2.9125,-6.2287 2.5312,-14.625 -0.3396,-7.479 -1.9202,-10.5 -5.5,-10.5 z m -185.2501,0.0937 c -1.5216,0.16619 -3.0174,1.34561 -4.0312,3.375 -2.7935,5.592 -1.6379,20.4624 1.75,22.4375 2.2068,1.2865 3.4807,1.11285 5.375,-0.78125 1.7292,-1.7292 2.1455,-3.0296 2.9376,-8.9375 0.6116,-4.5613 -0.8666,-12.6475 -2.6564,-14.625 -1.0131,-1.11956 -2.1915,-1.59801 -3.375,-1.46875 z m 30.9689,0.0312 c -1.3168,0.005 -2.3554,0.60155 -3.4063,1.9375 -3.5563,4.5211 -3.0731,20.14 0.7188,23.25 2.4106,1.9772 3.8062,1.90585 5.8437,-0.28125 2.0519,-2.2023 2.7188,-5.3749 2.7188,-12.8125 0,-7.1579 -1.9939,-11.6779 -5.3125,-12.0625 -0.2005,-0.0232 -0.3744,-0.0319 -0.5625,-0.0312 z m 18.8125,45.1875 c -5.6199,0.1858 -10.7858,2.6029 -15.625,7.2188 -8.8063,8.3997 -10.6748,15.7789 -6.3125,25 2.1137,4.468 2.1615,4.8639 0.8437,6.875 -0.7685,1.1729 -4.785,3.8493 -8.9375,5.9374 -23.0159,11.5739 -37.3028,29.3861 -42.2501,52.75 -1.3521,6.3853 -1.807,26.3274 -0.7812,34.0313 4.2929,32.2362 17.7253,63.5944 35.7188,83.3437 2.8211,3.0965 6.1507,7.647 7.4063,10.125 4.6647,9.20508 10.9027,13.72708 22.25,16.18758 6.7251,1.4581 41.6142,1.7847 47.5312,0.4374 5.6781,-1.2928 9.5921,-4.235 16.0938,-12.0937 3.179,-3.84238 8.9538,-9.37148 12.8125,-12.28128 9.0597,-6.8318 19.5229,-17.3814 23.5625,-23.75 1.7524,-2.7626 4.0673,-6.0652 5.125,-7.3437 3.5196,-4.2542 11.6225,-21.2918 15.0625,-31.625 6.8044,-20.4389 9.4268,-42.4166 6.625,-55.5313 -3.8357,-17.9527 -14.9644,-32.0269 -36.4375,-46 -5.711,-3.7162 -11.4816,-7.6442 -12.8125,-8.75 l -2.4063,-2.0312 3.2813,-6.375 c 2.8531,-5.5463 3.283,-7.15 3.25,-12.125 -0.074,-11.011 -7.0386,-20.9359 -15.5938,-22.2188 -6.1203,-0.9177 -14.4367,0.9538 -23.6562,5.3126 -4.4658,2.1112 -8.4327,3.8437 -8.8438,3.8437 -0.411,0 -2.6583,-1.3713 -4.9687,-3.0313 -7.6342,-5.4846 -14.5683,-8.1168 -20.9375,-7.9062 z m -64.8439,2.2812 c -3.7071,10e-5 -5.3755,3.0603 -5.875,10.8438 -0.4616,7.1924 -0.018,8.1925 4.9375,10.8125 1.6996,0.8985 3.5704,1.6353 4.1563,1.6563 1.577,0.057 2.4077,-3.8805 2.3437,-11.1876 -0.072,-8.2671 -1.8341,-12.125 -5.5625,-12.125 z m 154.0314,0 c -3.7971,10e-5 -5.3877,2.994 -5.5313,10.5313 l -0.094,6.2187 3.7813,2.9063 c 2.0887,1.6053 4.3883,2.7982 5.125,2.6563 1.974,-0.3802 3.0184,-5.5193 2.4687,-12.25 -0.5899,-7.224 -2.2109,-10.0626 -5.75,-10.0626 z m -30.875,19.3126 c 5.4277,-0.2279 11.1622,6.3066 7.8437,9.625 -1.0332,1.0332 -2.6988,1.386 -6.0625,1.25 -5.2219,-0.2113 -5.5844,-0.016 -6.9062,3.8437 -1.311,3.8276 -3.5569,4.0183 -5.0625,0.4375 -1.0408,-2.4759 -1.0284,-3.2905 0.062,-5.9062 1.6855,-4.0416 6.0604,-8.4726 9.0312,-9.125 0.3562,-0.078 0.7319,-0.1099 1.0938,-0.125 z m -62.6875,0.062 c 2.9351,0.095 6.0314,2.079 8.7812,5.875 2.7809,3.8389 3.2828,7.8831 1.3438,10.4376 -1.8921,2.4925 -3.6338,1.7879 -4.75,-1.9376 -1.1132,-3.7158 -1.0452,-3.684 -7.2813,-3.4687 -6.7714,0.2338 -8.5444,-2.8127 -4.4687,-7.6563 1.8953,-2.2524 4.0921,-3.3235 6.375,-3.25 z m 30.6875,11.7813 c 0.5461,0 1.9399,1.7625 3.0937,3.9375 1.1538,2.1749 3.8236,5.4832 5.9375,7.3438 l 3.8438,3.375 -2.3125,0.9062 c -1.2769,0.4855 -3.0119,0.875 -3.8438,0.875 -2.4257,0 -5.9739,4.4035 -7.7812,9.6562 -0.9201,2.6742 -2.122,5.6892 -2.6563,6.6876 -1.7607,3.2898 -2.4538,1.9282 -3.0937,-6.1563 -0.6095,-7.7012 -0.7422,-8.0834 -3.6875,-10.7813 -3.412,-3.1252 -3.1067,-4.4226 1.5312,-6.3437 1.4261,-0.5906 3.7221,-2.9002 5.25,-5.2813 1.4944,-2.3289 3.1728,-4.2187 3.7188,-4.2187 z m -10.5625,59.75 c 0.1524,0.012 0.2678,0.049 0.3437,0.125 0.3037,0.3038 -0.2193,3.7886 -1.1562,7.75 -0.9369,3.9615 -2.5685,11.1159 -3.625,15.875 -3.0087,13.552 -3.6746,15.4241 -6.0625,16.625 -3.0014,1.5093 -13.8438,1.1157 -13.8438,-0.5 0,-0.3402 1.2427,-1.3722 2.7813,-2.2813 4.5908,-2.7118 10.3552,-8.4519 11.7187,-11.6874 0.7889,-1.872 1.4386,-7.2673 1.7188,-14.125 l 0.4687,-11.0938 2.0313,0.5 c 1.1143,0.2796 2.7827,0.053 3.7187,-0.5312 0.702,-0.4384 1.449,-0.6924 1.9063,-0.6563 z m -19.9375,60.5313 c 6.4088,-0.1133 12.6209,1.7174 17.9375,5.375 5.7606,3.9628 13.8444,15.8117 12.0312,17.625 -0.2364,0.2363 -3.7146,0.029 -7.7187,-0.4688 -8.5686,-1.0648 -18.2448,-0.098 -26.5313,2.6562 -3.0154,1.0022 -7.9623,3.4944 -11,5.5313 -4.3965,2.9483 -5.7233,3.4608 -6.4687,2.5625 -1.5403,-1.8559 -2.054,-12.6747 -0.8438,-17.7188 1.5255,-6.3591 7.2686,-12.2717 13.7813,-14.1874 2.9298,-0.8619 5.8994,-1.3236 8.8125,-1.375 z m 32.2812,50.3437 c 0.645,-0.091 0.611,0.6358 0.2813,3.0937 -0.2629,1.9604 -1.302,4.7371 -2.3125,6.1563 -1.8157,2.5538 -1.9215,2.5673 -9.8125,2.5313 -4.3918,-0.02 -9.9329,0.2335 -12.3125,0.5624 -2.3795,0.329 -4.9572,0.7827 -5.75,1 -2.5627,0.7025 -2.6965,-1.4212 -0.2813,-4.9062 1.4659,-2.1154 4.0521,-4.2278 6.8438,-5.5938 3.9942,-1.956 5.3916,-2.1822 12.6562,-1.9687 4.4898,0.1319 8.9064,-0.095 9.8125,-0.5313 0.3787,-0.1822 0.6601,-0.3133 0.875,-0.3437 z" />
  </g>
</svg>
