<?xml version="1.0" encoding="UTF-8" standalone="no"?>
<!-- Created with Inkscape (http://www.inkscape.org/) -->

<svg
   xmlns:dc="http://purl.org/dc/elements/1.1/"
   xmlns:cc="http://creativecommons.org/ns#"
   xmlns:rdf="http://www.w3.org/1999/02/22-rdf-syntax-ns#"
   xmlns:svg="http://www.w3.org/2000/svg"
   xmlns="http://www.w3.org/2000/svg"
   xmlns:xlink="http://www.w3.org/1999/xlink"
   xmlns:sodipodi="http://sodipodi.sourceforge.net/DTD/sodipodi-0.dtd"
   xmlns:inkscape="http://www.inkscape.org/namespaces/inkscape"
   width="100"
   height="100"
   id="svg3932"
   version="1.1"
   inkscape:version="0.48.4 r9939"
   sodipodi:docname="Coderbits.svg">
  <metadata
     id="metadata13">
    <rdf:RDF>
      <cc:Work
         rdf:about="">
        <dc:format>image/svg+xml</dc:format>
        <dc:type
           rdf:resource="http://purl.org/dc/dcmitype/StillImage" />
      </cc:Work>
    </rdf:RDF>
  </metadata>
  <defs
     id="defs11">
    <linearGradient
       y2="796.64795"
       x2="334.28577"
       y1="1009.505"
       x1="644.28564"
       gradientTransform="matrix(0.14285713,0,0,0.19999998,0,-110.4725)"
       gradientUnits="userSpaceOnUse"
       id="linearGradient3058"
       xlink:href="#linearGradient5322-1"
       inkscape:collect="always" />
    <linearGradient
       id="linearGradient5322-1">
      <stop
         style="stop-color:#000000;stop-opacity:0.37391305;"
         offset="0"
         id="stop5324-6" />
      <stop
         style="stop-color:#000000;stop-opacity:0;"
         offset="1"
         id="stop5326-3" />
    </linearGradient>
    <linearGradient
       y2="796.64795"
       x2="334.28577"
       y1="1009.505"
       x1="644.28564"
       gradientTransform="matrix(0.14285713,0,0,0.19999998,0,-110.4725)"
       gradientUnits="userSpaceOnUse"
       id="linearGradient3033"
       xlink:href="#linearGradient5322-1"
       inkscape:collect="always" />
    <linearGradient
       inkscape:collect="always"
       xlink:href="#linearGradient5322"
       id="linearGradient3799"
       x1="-72.770866"
       y1="98.260445"
       x2="-108.53157"
       y2="74.678169"
       gradientUnits="userSpaceOnUse"
       gradientTransform="translate(157.25636,-12.92373)" />
    <linearGradient
       id="linearGradient5322">
      <stop
         style="stop-color:#000000;stop-opacity:0.37391305;"
         offset="0"
         id="stop5324" />
      <stop
         style="stop-color:#000000;stop-opacity:0;"
         offset="1"
         id="stop5326" />
    </linearGradient>
    <linearGradient
       y2="74.678169"
       x2="-108.53157"
       y1="98.260445"
       x1="-72.770866"
       gradientTransform="translate(157.25636,-12.923728)"
       gradientUnits="userSpaceOnUse"
       id="linearGradient3833"
       xlink:href="#linearGradient5322"
       inkscape:collect="always" />
  </defs>
  <sodipodi:namedview
     pagecolor="#ffffff"
     bordercolor="#666666"
     borderopacity="1"
     objecttolerance="10"
     gridtolerance="10"
     guidetolerance="10"
     inkscape:pageopacity="0"
     inkscape:pageshadow="2"
     inkscape:window-width="1920"
     inkscape:window-height="1145"
     id="namedview9"
     showgrid="false"
     inkscape:zoom="3.776"
     inkscape:cx="98.905927"
     inkscape:cy="37.165738"
     inkscape:window-x="-2"
     inkscape:window-y="-3"
     inkscape:window-maximized="1"
     inkscape:current-layer="svg3932" />
  <path
     style="fill:#ffffff;fill-opacity:1;display:inline"
     d="m 12.137477,1e-5 C 5.4350468,10e-6 -2.5000082e-5,5.43509 -5.0000829e-6,12.13751 l 0,75.72499 c 0,6.70241 5.4350518000829,12.13753 12.1374820000829,12.13751 l 75.725018,0 c 6.70244,0 12.13748,-5.4351 12.1375,-12.13751 l 0,-75.72499 c 0,-6.70242 -5.43484,-12.1375 -12.1375,-12.1375 z"
     id="path3082"
     inkscape:connector-curvature="0" />
  <path
     style="fill:#fefad5;fill-opacity:1;display:inline"
     d="m 51.924351,10.950763 c -0.0599,0.007 -0.0937,0.0315 -0.0937,0.075 0,0.0394 0.15036,0.35295 0.33125,0.7 0.71022,1.3626 -0.1146,2.01758 -3.6125,2.88125 -2.25614,0.55707 -5.03074,1.43202 -6.59375,2.06875 -0.63646,0.25929 -0.663,0.25378 -1.6,-0.11875 -3.00042,-1.19292 -6.6174,-1.31195 -9.7875,-0.31875 -2.08148,0.65213 -3.22394,1.34043 -4.675,2.79375 -1.10719,1.10891 -1.42568,1.54593 -2.1,2.90625 -0.96102,1.93874 -1.50104,3.96363 -1.74375,6.5375 -0.13803,1.46369 -0.23476,1.90506 -0.41875,1.9625 -0.91897,0.28695 -2.51833,1.22507 -3.3125,1.94375 -4.43834,4.01647 -4.74957,11.76021 -0.65,16.15 1.51018,1.61707 2.99952,2.45386 5.2125,2.91875 0.23072,0.0485 0.41875,0.1821 0.41875,0.29375 0,0.33376 -0.90197,1.47728 -1.38125,1.75 -0.2454,0.13963 -0.41575,0.31612 -0.3875,0.4 0.06,0.17832 0.90283,0.18589 1.50625,0.0125 0.38818,-0.11153 0.42075,-0.0848 0.41875,0.31875 -0.003,0.53157 -1.33189,3.33303 -2.0625,4.35 -0.62227,0.86612 -0.66888,1.10262 -0.1875,0.95625 0.46584,-0.14164 2.01433,-1.0723 2.25,-1.35625 0.18025,-0.21717 0.6125,-0.32325 0.6125,-0.15 0,0.66695 0.54381,4.94623 0.775,6.09375 0.16904,0.83903 0.89535,3.27203 1.6125,5.40625 0.9777,2.9098 1.28027,4.00841 1.21875,4.3875 -0.0915,0.56359 0.10665,0.65441 0.6,0.28125 0.50382,-0.38104 0.75364,-0.26704 1.49375,0.675 0.39333,0.50063 1.47072,1.61471 2.3875,2.475 1.31203,1.23123 1.83823,1.85356 2.46875,2.91875 0.44058,0.74428 1.34476,2.01016 2.01875,2.8125 0.674,0.80234 1.43176,1.83666 1.68125,2.30625 0.935,1.75975 2.70255,3.00386 4.8875,3.4375 1.35649,0.26921 7.58067,0.31866 8.825,0.0688 1.30663,-0.26243 2.29875,-0.94153 3.575,-2.45625 0.61864,-0.73425 1.65008,-1.7301 2.29375,-2.2125 0.64363,-0.48239 1.74826,-1.45784 2.45,-2.16875 1.42467,-1.44331 1.21827,-1.42278 2.05,-0.24375 0.15075,0.21366 0.32541,0.39375 0.39375,0.39375 0.0683,0 0.16136,-0.41142 0.20625,-0.90625 0.14497,-1.59889 1.71481,-4.14808 4.1375,-6.725 1.86756,-1.98644 3.91754,-4.68185 5.11875,-6.74375 0.50237,-0.86233 1.01828,-1.70719 1.15,-1.875 0.23718,-0.30217 0.24369,-0.30141 0.50625,0.075 0.39945,0.57267 1.29004,1.5412 1.35625,1.475 0.032,-0.032 -0.0485,-0.49474 -0.175,-1.03125 -0.30278,-1.2849 -0.30569,-3.78342 -0.006,-4.5 0.12468,-0.29838 0.27962,-0.52015 0.34375,-0.4875 1.12231,0.57143 1.61584,0.74041 1.75625,0.6 0.11033,-0.11035 0.0205,-0.31705 -0.29375,-0.675 -0.25944,-0.29547 -0.5668,-0.92095 -0.71875,-1.4625 -0.24533,-0.87438 -0.24327,-1.02964 -0.025,-2.11875 0.31951,-1.59429 0.5357,-3.68306 0.5375,-5.09375 l 0.006,-1.1625 1.08125,-0.24375 c 2.61718,-0.59102 4.99261,-2.5196 6.28124,-5.09375 1.00292,-2.00342 1.23146,-3.21034 1.1375,-5.9625 -0.0601,-1.76162 -0.14661,-2.44375 -0.4125,-3.225 -0.99734,-2.93039 -2.71084,-4.91438 -5.39999,-6.25 l -1.0875,-0.54375 -0.10625,-1.6 c -0.12892,-1.96719 -0.53184,-3.56909 -1.33125,-5.275 -1.72485,-3.6807 -4.22577,-5.95628 -7.3375,-6.6875 -1.44601,-0.33979 -3.69762,-0.30356 -5.4,0.0875 l -1.4125,0.325 -1.20625,-0.73125 c -1.1498,-0.69798 -3.43931,-1.74404 -5.54375,-2.53125 -0.71313,-0.26676 -1.0424,-0.48647 -1.21875,-0.80625 -0.44857,-0.81332 -0.9646,-1.32417 -1.70625,-1.7 -0.50996,-0.25842 -0.93278,-0.40146 -1.1125,-0.38125 z"
     id="path3080-8"
     inkscape:connector-curvature="0"
     sodipodi:nodetypes="cssscssssscsscscccccscssccccccscscscscscssssccccccsscccscscccsscccscscc" />
  <path
     style="fill:#231f20;fill-opacity:1;display:inline"
     d="m 51.924347,10.950763 c -0.05991,0.007 -0.09375,0.0315 -0.09375,0.075 0,0.0394 0.150364,0.35295 0.33125,0.7 0.71022,1.3626 -0.114592,2.01758 -3.612499,2.88125 -2.256136,0.55707 -5.030734,1.43202 -6.59375,2.06875 -0.636456,0.25929 -0.663,0.25378 -1.6,-0.11875 -3.000416,-1.19292 -6.617392,-1.31195 -9.7875,-0.31875 -2.081472,0.65213 -3.223936,1.34043 -4.675,2.79375 -1.107184,1.10891 -1.425676,1.54593 -2.1,2.90625 -0.961012,1.93874 -1.501034,3.96363 -1.74375,6.5375 -0.138028,1.46369 -0.234758,1.90506 -0.41875,1.9625 -0.918962,0.28695 -2.518324,1.22507 -3.3125,1.94375 -4.438336,4.01647 -4.74957,11.76021 -0.65,16.15 1.510179,1.61707 2.999524,2.45386 5.2125,2.91875 0.230728,0.0485 0.41875,0.1821 0.41875,0.29375 0,0.33376 -0.90197,1.47728 -1.38125,1.75 -0.245396,0.13963 -0.415744,0.31612 -0.3875,0.4 0.05996,0.17832 0.902834,0.18589 1.50625,0.0125 0.388184,-0.11153 0.42075,-0.0848 0.41875,0.31875 -0.0026,0.53157 -1.331882,3.33303 -2.0625,4.35 -0.622262,0.86612 -0.668878,1.10262 -0.1875,0.95625 0.465846,-0.14164 2.014336,-1.0723 2.25,-1.35625 0.180252,-0.21717 0.6125,-0.32325 0.6125,-0.15 0,0.66695 0.543814,4.94623 0.775,6.09375 0.16904,0.83903 0.89535,3.27203 1.6125,5.40625 0.977706,2.9098 1.280278,4.00841 1.21875,4.3875 -0.09145,0.56359 0.106652,0.65441 0.6,0.28125 0.503822,-0.38104 0.753646,-0.26704 1.49375,0.675 0.393332,0.50063 1.470724,1.61471 2.3875,2.475 1.312032,1.23123 1.838236,1.85356 2.46875,2.91875 0.440582,0.74428 1.34476,2.01016 2.01875,2.8125 0.674008,0.80234 1.431762,1.83666 1.68125,2.30625 0.935006,1.75975 2.702556,3.00386 4.8875,3.4375 1.356494,0.26921 7.580669,0.31866 8.824999,0.0688 1.306636,-0.26243 2.298758,-0.94153 3.575,-2.45625 0.618648,-0.73425 1.650084,-1.7301 2.29375,-2.2125 0.64363,-0.48239 1.74826,-1.45784 2.45,-2.16875 1.42467,-1.44331 1.218272,-1.42278 2.05,-0.24375 0.150758,0.21366 0.325416,0.39375 0.39375,0.39375 0.06834,0 0.161364,-0.41142 0.20625,-0.90625 0.144974,-1.59889 1.714812,-4.14808 4.1375,-6.725 1.867562,-1.98644 3.917544,-4.68185 5.11875,-6.74375 0.502376,-0.86233 1.018284,-1.70719 1.15,-1.875 0.23718,-0.30217 0.243698,-0.30141 0.50625,0.075 0.39945,0.57267 1.290048,1.5412 1.35625,1.475 0.03204,-0.032 -0.04852,-0.49474 -0.175,-1.03125 -0.302774,-1.2849 -0.305684,-3.78342 -0.0062,-4.5 0.12468,-0.29838 0.279628,-0.52015 0.34375,-0.4875 1.12231,0.57143 1.615844,0.74041 1.75625,0.6 0.110332,-0.11035 0.02054,-0.31705 -0.29375,-0.675 -0.259432,-0.29547 -0.566794,-0.92095 -0.71875,-1.4625 -0.245326,-0.87438 -0.243264,-1.02964 -0.025,-2.11875 0.319514,-1.59429 0.5357,-3.68306 0.5375,-5.09375 l 0.0063,-1.1625 1.08125,-0.24375 c 2.617186,-0.59102 4.992614,-2.5196 6.281249,-5.09375 1.002918,-2.00342 1.231452,-3.21034 1.1375,-5.9625 -0.06012,-1.76162 -0.146616,-2.44375 -0.4125,-3.225 -0.997348,-2.93039 -2.710847,-4.91438 -5.399999,-6.25 l -1.0875,-0.54375 -0.10625,-1.6 c -0.128912,-1.96719 -0.531838,-3.56909 -1.33125,-5.275 -1.724844,-3.6807 -4.225766,-5.95628 -7.3375,-6.6875 -1.446004,-0.33979 -3.697616,-0.30356 -5.4,0.0875 l -1.4125,0.325 -1.20625,-0.73125 c -1.149796,-0.69798 -3.439306,-1.74404 -5.54375,-2.53125 -0.713128,-0.26676 -1.042394,-0.48647 -1.21875,-0.80625 -0.448568,-0.81332 -0.964596,-1.32417 -1.70625,-1.7 -0.509958,-0.25842 -0.932776,-0.40146 -1.1125,-0.38125 z m 1.5125,7.63125 c 0.337568,0 0.276926,0.55962 -0.31875,2.925 -0.297336,1.1807 -0.50312,2.17811 -0.4625,2.21875 0.04067,0.0407 0.607268,-0.39774 1.2625,-0.975 1.441066,-1.26954 2.89657,-2.31471 3.975,-2.85625 0.83982,-0.42172 1.10196,-0.31692 0.38125,0.15 -0.73046,0.47325 -2.611436,2.36631 -4.0125,4.04375 -0.74414,0.89093 -1.51914,1.73172 -1.71875,1.8625 -0.483582,0.31687 -1.2877,0.42908 -1.8625,0.25625 -0.623304,-0.18741 -1.496519,-1.08462 -1.906249,-1.95625 -0.538782,-1.14623 -1.189768,-1.9921 -2.775,-3.625 -0.821942,-0.84668 -1.49375,-1.58219 -1.49375,-1.6375 0,-0.58129 2.454604,1.22786 3.95625,2.91875 0.49781,0.56054 1.047984,1.19649 1.21875,1.40625 l 0.30625,0.38125 0.0062,-0.35 c 0.0026,-0.18986 -0.125928,-0.83193 -0.29375,-1.4375 -0.167824,-0.60558 -0.30925,-1.24298 -0.30625,-1.4125 0.0049,-0.27658 0.02955,-0.27356 0.225,0.0687 0.11978,0.20977 0.430599,1.02593 0.693749,1.80625 0.263134,0.78036 0.5509,1.39136 0.6375,1.3625 0.08656,-0.0289 0.354614,-0.63422 0.59375,-1.34375 0.57995,-1.72059 1.616302,-3.80625 1.89375,-3.80625 z m -18.806249,2.2375 c 0.393402,0.006 0.735922,0.0396 0.84375,0.10625 0.13295,0.0822 0.1875,0.64939 0.1875,1.925 l 0,1.8125 -0.5,0.05 c -0.378172,0.0365 -0.49375,0.12355 -0.49375,0.35625 0,0.28219 0.114028,0.30177 1.525,0.3375 1.642936,0.0417 2.102642,-0.0802 1.775,-0.475 -0.105606,-0.12725 -0.37539,-0.25528 -0.6,-0.28125 l -0.40625,-0.0437 -0.04375,-1.5625 c -0.05141,-1.84868 0.0025,-1.88826 1.3375,-1.00625 0.950398,0.62785 2.59375,2.16563 2.59375,2.43125 0,0.097 -0.216964,0.22342 -0.475,0.275 -0.340688,0.0682 -0.449542,0.16755 -0.4125,0.3625 0.03895,0.20513 0.227498,0.2759 0.80625,0.3125 0.41664,0.0264 0.847048,0.12188 0.95625,0.2125 0.330252,0.27412 1.506942,2.56261 1.94375,3.78125 1.480118,4.12931 1.709334,9.31084 0.575,13.04375 l -0.28125,0.91875 -1.1625,0.56875 c -0.850204,0.42092 -1.411482,0.84607 -2.0875,1.56875 -0.508422,0.54349 -0.955166,0.9875 -1,0.9875 -0.04482,0 -0.0875,-0.40777 -0.0875,-0.90625 0,-0.49848 -0.05578,-0.94473 -0.125,-0.9875 -0.158426,-0.0979 -1.868374,0.34882 -2.1125,0.55 -0.348164,0.28692 -0.054,0.55865 0.5,0.46875 l 0.525,-0.0812 0,2 c 0,1.76725 -0.03846,2.01383 -0.28125,2.14375 -0.384394,0.2057 -2.010396,0.32877 -2.46875,0.1875 -0.265212,-0.0817 -0.366776,-0.20769 -0.33125,-0.4125 0.02814,-0.16201 0.127126,-0.68053 0.21875,-1.15625 0.197902,-1.02741 -0.03562,-2.32161 -0.525,-2.94375 -0.73143,-0.92988 -2.05981,-1.13395 -2.8875,-0.4375 -0.526248,0.44284 -1.04454,1.43339 -1.05,1.99375 -0.0019,0.18877 -0.09193,0.34377 -0.2,0.34375 -0.499856,0 -2.707746,-3.26681 -3.4,-5.03125 -0.354704,-0.90405 -0.38533,-1.11971 -0.2375,-1.54375 0.242134,-0.69462 0.219488,-2.48878 -0.04375,-3.11875 -0.121808,-0.29155 -0.460738,-0.75289 -0.75,-1.025 -0.463482,-0.43598 -0.542216,-0.61488 -0.63125,-1.5 l -0.1,-1 0.5625,-0.43125 c 0.796592,-0.60759 1.12719,-1.4374 1.13125,-2.825 0.0026,-0.94061 -0.06259,-1.2831 -0.4,-1.95 -0.376602,-0.7443 -0.398844,-0.85515 -0.21875,-1.375 0.330746,-0.95482 1.238994,-2.73551 1.53125,-3 0.259572,-0.23489 0.29497,-0.22589 0.59375,0.19375 0.759884,1.06715 2.211256,1.18875 3.1375,0.2625 0.622192,-0.62221 0.906302,-1.61459 0.81875,-2.825 -0.04739,-0.65502 -0.0077,-0.97955 0.1375,-1.1 0.145362,-0.12064 0.956828,-0.18478 1.6125,-0.175 z m 31.412499,0.0125 c 0.20922,-0.004 0.499246,0.0164 0.8875,0.0375 1.39634,0.0759 1.39278,0.0668 1.34375,2.01875 -0.04279,1.70334 -0.0469,1.72269 -0.425,1.775 -0.559656,0.0774 -0.808292,0.31647 -0.59375,0.575 0.240602,0.28993 3.078942,0.30159 3.31875,0.0125 0.233778,-0.28166 -0.07438,-0.5625 -0.61875,-0.5625 l -0.43125,0 0,-1.36875 c 0,-0.7502 0.06326,-1.40412 0.1375,-1.45 0.193582,-0.11964 1.54481,1.00106 2.04375,1.69375 1.154626,1.60293 2.04807,3.28243 2.13125,4.0125 0.03604,0.31634 -0.05021,0.4009 -0.56875,0.55 -0.437654,0.12581 -0.6125,0.25357 -0.6125,0.4625 0,0.23128 0.113666,0.29375 0.5375,0.29375 l 0.53125,0 0,2.05625 0,2.0625 -0.53125,0.075 c -0.40682,0.0581 -0.5375,0.1488 -0.5375,0.38125 0,0.26879 0.127996,0.31408 1.06875,0.38125 l 1.06875,0.075 -0.0375,1.05625 c -0.01927,0.57865 -0.07177,1.07801 -0.1125,1.11875 -0.04071,0.0407 -0.503926,0.19314 -1.03125,0.3375 -0.747684,0.20465 -0.95625,0.3305 -0.95625,0.55625 0,0.22918 0.11483,0.2875 0.5375,0.2875 l 0.53125,0 0,1.84375 c 0,1.94605 -0.124458,2.35625 -0.7125,2.35625 -0.414506,0 -0.542504,0.45585 -0.2,0.70625 0.270574,0.19787 0.2659,0.23055 -0.0625,0.93125 -0.564524,1.20449 -0.799584,1.41528 -1.8625,1.70625 -0.766654,0.20985 -0.98125,0.33606 -0.98125,0.5625 0,0.2329 0.09977,0.28079 0.4875,0.24375 0.265072,-0.0253 0.51905,0.0133 0.56875,0.0937 0.287232,0.46477 -3.1043,3.53125 -3.90625,3.53125 -0.24776,0 -0.275,-0.19251 -0.275,-2.275 0,-1.25362 -0.05582,-2.31975 -0.125,-2.3625 -0.162392,-0.10033 -1.872782,0.34205 -2.125,0.55 -0.3055,0.25183 0.04442,0.53946 0.56875,0.4625 l 0.4625,-0.0688 0,2.06875 c 0,1.18746 -0.06405,2.10315 -0.15,2.15625 -0.0823,0.0509 -0.723428,0.1322 -1.41875,0.18125 -0.991354,0.07 -1.30202,0.0457 -1.44375,-0.125 -0.14009,-0.16881 -0.129072,-0.35109 0.0375,-0.81875 0.47124,-1.32301 0.216012,-2.96524 -0.60625,-3.8625 -0.482752,-0.52676 -0.570318,-0.55625 -1.4625,-0.55625 -0.922754,0 -0.955338,0.0136 -1.53125,0.6625 l -0.5875,0.6625 -0.80625,-0.875 c -0.442468,-0.48177 -0.915878,-1.18768 -1.05625,-1.575 -0.456836,-1.26036 -0.49979,-1.22629 1.4375,-1.275 1.600164,-0.0402 1.7125,-0.0593 1.7125,-0.34375 0,-0.23272 -0.115598,-0.31979 -0.49375,-0.35625 l -0.5,-0.05 0,-2.475 c 0,-1.55838 -0.05338,-2.54087 -0.15625,-2.64375 -0.116288,-0.11627 -0.46284,-0.0891 -1.1875,0.0937 -0.817394,0.20629 -1.01875,0.31923 -1.01875,0.55625 0,0.23588 0.111146,0.29375 0.5375,0.29375 l 0.53125,0 0.04375,2.025 c 0.03241,1.54036 -0.0079,2.04083 -0.15625,2.0875 -0.107334,0.0337 -0.443338,0.0992 -0.75,0.15 l -0.55625,0.0937 -0.20625,-1.1125 c -0.290706,-1.58267 -0.250174,-5.50035 0.075,-7.2125 0.372722,-1.96243 1.15202,-4.34375 1.41875,-4.34375 0.179122,0 0.21012,0.352 0.175,2.01875 l -0.04375,2.025 -0.53125,0.075 c -0.406802,0.0581 -0.5375,0.14878 -0.5375,0.38125 0,0.28662 0.104852,0.30625 1.68125,0.30625 1.57638,0 1.675,-0.0196 1.675,-0.30625 0,-0.23272 -0.115598,-0.31356 -0.49375,-0.35 l -0.5,-0.05 0,-2.5 c 0,-2.59023 -0.04406,-2.79239 -0.64375,-2.69375 -0.404512,0.0666 -0.327526,-0.39506 0.23125,-1.33125 0.478398,-0.80156 0.66634,-0.97303 1.21875,-1.14375 0.179866,-0.0556 0.2625,-0.23442 0.2625,-0.55625 0,-0.34716 0.155962,-0.63285 0.5625,-1.0375 l 0.55625,-0.55625 0.21875,0.53125 c 0.717062,1.7624 2.16743,2.29964 3.4,1.2625 0.791162,-0.66574 0.9768,-1.18312 0.975,-2.75 -0.0013,-1.19593 -0.05889,-1.43762 0.56875,-1.45 z m -2.1,0.5 c 0.588606,0 0.393534,2.72409 -0.23125,3.2375 -0.424202,0.34861 -0.672014,0.3356 -1.03125,-0.05 -0.525984,-0.56457 -0.6496,-2.07375 -0.20625,-2.4625 0.363184,-0.31842 1.188112,-0.725 1.46875,-0.725 z m -32.506249,0.3 c 0.28122,0 0.2939,0.0824 0.225,1.15625 -0.107544,1.67555 -0.862938,2.52859 -1.55625,1.7625 -0.360922,-0.39881 -0.57499,-1.36298 -0.38125,-1.725 0.213944,-0.3998 1.352946,-1.19375 1.7125,-1.19375 z m 37.112499,6.1 c -0.615844,0.0283 -1.21156,0.34409 -1.59375,0.9625 -1.064606,1.72254 -0.56515,4.40554 0.95,5.08125 0.564064,0.25155 1.391868,0.16025 1.93125,-0.21875 1.040084,-0.73077 1.434974,-3.12876 0.75,-4.54375 -0.423092,-0.87399 -1.245704,-1.31763 -2.0375,-1.28125 z m -32.474999,0.006 c -0.04998,-4e-4 -0.09991,0.003 -0.15,0.006 -0.26717,0.0187 -0.533588,0.0926 -0.7875,0.225 -0.870058,0.4537 -1.27683,1.35929 -1.29375,2.8625 -0.0171,1.52718 0.466034,2.51497 1.4375,2.94375 0.589628,0.26027 0.88835,0.26187 1.5,0.006 1.486182,-0.62094 2.06556,-3.06786 1.15,-4.8625 -0.378766,-0.74243 -1.106476,-1.17655 -1.85625,-1.18125 z m 27.262499,0 c -0.862282,-0.0172 -1.736174,0.55778 -2.14375,1.625 -0.39968,1.04657 -0.22845,2.78147 0.35,3.60625 0.706994,1.0081 1.885798,1.25685 2.8,0.5875 1.304168,-0.95484 1.60908,-3.49911 0.59375,-4.925 -0.422598,-0.5935 -1.010018,-0.88201 -1.6,-0.89375 z m 5.35,0.7625 c 0.631132,0 0.908878,0.53141 0.96875,1.85 0.06723,1.48028 -0.05534,2.19284 -0.44375,2.58125 -0.376742,0.37675 -0.669944,0.37377 -1.05,-0.006 -0.420696,-0.42068 -0.50519,-0.85446 -0.44375,-2.41875 0.05818,-1.48102 0.310858,-2.00625 0.96875,-2.00625 z m -5.5375,0.0187 c 0.09598,-0.008 0.202294,0.004 0.3125,0.0312 1.26792,0.31821 1.02886,4.675 -0.25625,4.675 -0.101938,0 -0.346256,-0.17104 -0.54375,-0.38125 -0.302924,-0.32244 -0.366494,-0.57654 -0.41875,-1.6375 -0.08339,-1.69348 0.234306,-2.62918 0.90625,-2.6875 z m -27.087499,0.006 c 0.886292,0.004 1.29574,1.70259 0.88125,3.75 -0.08177,0.40382 -0.57949,0.95 -0.86875,0.95 -0.10982,0 -0.318152,-0.0826 -0.45625,-0.1875 -0.400862,-0.3044 -0.568926,-0.96699 -0.56875,-2.225 0,-1.41711 0.324758,-2.21131 0.925,-2.28125 0.02957,-0.003 0.05892,-0.006 0.0875,-0.006 z m -0.01875,7.6 c -0.340988,-0.008 -0.680582,0.0661 -0.98125,0.24375 -0.779666,0.46054 -1.12426,1.18553 -1.2,2.49375 -0.10169,1.75674 0.364986,2.8466 1.40625,3.3 0.604438,0.26309 0.899528,0.26856 1.5125,0.0125 1.486182,-0.62094 2.06556,-3.0741 1.15,-4.86875 -0.371912,-0.72903 -1.137312,-1.16343 -1.8875,-1.18125 z m 32.506249,0 c -0.615844,0.0283 -1.21156,0.3441 -1.59375,0.9625 -1.064606,1.72255 -0.56515,4.40552 0.95,5.08125 0.564064,0.25157 1.391868,0.154 1.93125,-0.225 1.040084,-0.73079 1.434974,-3.12876 0.75,-4.54375 -0.423092,-0.87398 -1.245704,-1.31138 -2.0375,-1.275 z m -26.974999,0.006 c -1.283486,0.002 -2.14844,0.96326 -2.34375,2.625 -0.180464,1.53541 0.505748,3.0055 1.61875,3.4625 0.487108,0.19998 1.341234,0.0693 1.83125,-0.275 0.64423,-0.45264 1.06875,-1.48322 1.06875,-2.59375 0,-1.3569 -0.25243,-2.07544 -0.94375,-2.7 -0.474204,-0.4284 -0.7059,-0.51935 -1.23125,-0.51875 z m 22.218749,0.0937 c -0.19166,-8e-4 -0.574148,0.0652 -0.98125,0.175 -0.793258,0.21409 -0.9875,0.32535 -0.9875,0.56875 0,0.24976 0.08481,0.28949 0.49375,0.25 l 0.5,-0.0438 0,2.14375 0,2.15 -0.45625,0 c -0.490122,0 -0.688636,0.19252 -0.55625,0.5375 0.0664,0.17299 0.4096,0.22055 1.575,0.21875 0.820692,-0.002 1.589132,-0.0634 1.70625,-0.1375 0.346752,-0.21959 0.07469,-0.59782 -0.46875,-0.65 l -0.50625,-0.05 -0.0375,-2.5125 c -0.02313,-1.38241 -0.09917,-2.56792 -0.1625,-2.63125 -0.01583,-0.0158 -0.05488,-0.0186 -0.11875,-0.0187 z m 4.89375,0.6625 c 0.631132,0 0.908878,0.53143 0.96875,1.85 0.06723,1.48029 -0.05534,2.19285 -0.44375,2.58125 -0.376742,0.37676 -0.669944,0.38002 -1.05,0 -0.420696,-0.42069 -0.50519,-0.86073 -0.44375,-2.425 0.05818,-1.48102 0.310858,-2.00625 0.96875,-2.00625 z m -32.581249,0.0125 c 0.18199,0.004 0.362462,0.0898 0.51875,0.2625 0.315548,0.34864 0.576576,1.77708 0.46875,2.58125 -0.13965,1.04158 -0.213888,1.27014 -0.51875,1.575 -0.333972,0.33394 -0.560934,0.36431 -0.95,0.1375 -0.597298,-0.34822 -0.798752,-2.97036 -0.30625,-3.95625 0.178736,-0.35779 0.444238,-0.56445 0.7125,-0.59375 0.02608,-0.003 0.049,-0.007 0.075,-0.006 z m 5.38125,0.0125 c 0.03316,-1.2e-4 0.06465,0.002 0.1,0.006 0.58508,0.0678 0.9375,0.86304 0.9375,2.125 0,1.31127 -0.119494,1.86798 -0.48125,2.25625 -0.359218,0.38559 -0.606252,0.39859 -1.03125,0.05 -0.668524,-0.5483 -0.751988,-3.30291 -0.125,-4.1 0.185278,-0.23553 0.367844,-0.3367 0.6,-0.3375 z m -8.1125,8.36875 c 0.65733,0 0.968556,0.67998 0.98125,2.1375 0.01128,1.28827 -0.13447,1.97879 -0.4125,1.96875 -0.103296,-0.004 -0.437854,-0.12909 -0.7375,-0.2875 -0.873676,-0.46192 -0.950132,-0.63821 -0.86875,-1.90625 0.08806,-1.37226 0.383928,-1.91248 1.0375,-1.9125 z m 27.156249,0 c 0.623956,0 0.908504,0.50139 1.0125,1.775 0.09691,1.18664 -0.08948,2.08922 -0.4375,2.15625 -0.129882,0.025 -0.531756,-0.18573 -0.9,-0.46875 l -0.66875,-0.5125 0.01875,-1.09375 c 0.02532,-1.32885 0.305558,-1.85623 0.975,-1.85625 z"
     id="path3080"
     inkscape:connector-curvature="0" />
  <path
     inkscape:connector-curvature="0"
     style="fill:#1a1a1a;display:inline"
     d="m 31.192005,27.84252 c 0.06188,-0.003 0.104284,-4e-4 0.115708,0.011 0.04575,0.0457 0.08087,1.15522 0.08263,2.46274 0.0018,1.30751 0.05379,2.45907 0.115708,2.55639 0.0619,0.0973 0.321524,0.19735 0.572984,0.22589 0.338132,0.0384 0.457278,0.13243 0.457278,0.35812 0,0.28353 -0.120714,0.30681 -1.647324,0.34709 -1.39179,0.0367 -1.65607,0.009 -1.735494,-0.19834 -0.123518,-0.32184 0.07341,-0.4954 0.633598,-0.55645 l 0.457278,-0.0496 0,-2.06054 0,-2.06055 -0.53441,0 c -0.42639,0 -0.534428,-0.0561 -0.534428,-0.292 0,-0.23711 0.203684,-0.34926 1.024762,-0.55646 0.421948,-0.10649 0.806076,-0.17781 0.991706,-0.18732 z"
     id="path3062" />
  <path
     inkscape:connector-curvature="0"
     style="fill:#1a1a1a;display:inline"
     d="m 41.858369,27.8866 c 0.176302,-0.0101 0.30176,0.004 0.347106,0.0496 0.105076,0.10509 0.165284,1.06963 0.165284,2.64455 l 0,2.47375 0.495852,0.0496 c 0.378172,0.0364 0.495854,0.11989 0.495854,0.35261 0,0.28286 -0.106328,0.30949 -1.520616,0.33607 -0.839044,0.0158 -1.614074,-0.0113 -1.718956,-0.0551 -0.34016,-0.14187 -0.199206,-0.50068 0.231398,-0.59502 0.230728,-0.0506 0.504192,-0.121 0.611542,-0.15427 0.1485,-0.046 0.18667,-0.54189 0.154266,-2.08258 l -0.04408,-2.02749 -0.51789,0 c -0.555356,0 -0.762476,-0.2306 -0.440758,-0.49585 0.270184,-0.22276 1.212102,-0.46544 1.740994,-0.49585 z"
     id="path3060" />
  <path
     style="fill:#e75e25;fill-opacity:1;display:inline"
     d="m 21.568745,31.57501 c -1.08654,0.006 -3.630781,2.23851 -4.56875,4.05 -1.567018,3.02642 -1.568005,6.70357 0,9.6875 1.061716,2.02044 3.165046,3.74386 5.25625,4.30625 1.037034,0.27889 1.43045,0.28442 1.625,0.0437 0.12477,-0.15432 0.383066,-1.43615 0.40625,-2 0.003,-0.0716 -0.547916,-0.31449 -1.23125,-0.54375 -1.366896,-0.45864 -2.25467,-1.03595 -2.95625,-1.91875 -0.408583,-0.51415 -0.590751,-0.9875 -0.38125,-0.9875 0.04113,0 0.523488,0.30991 1.075,0.6875 1.428796,0.97818 1.941506,0.88173 1.35625,-0.25 -0.13094,-0.25322 -0.219808,-0.6089 -0.19375,-0.7875 0.04545,-0.31137 0.07552,-0.30587 0.5875,0.1375 0.86073,0.74539 1.72167,1.28125 2.075,1.28125 0.283354,2e-5 0.3527,-0.13424 0.5125,-0.98125 l 0.1875,-0.9875 -0.76875,-1.95625 c -0.421188,-1.07474 -1.061482,-2.89984 -1.425,-4.05625 -0.643632,-2.04758 -0.666064,-2.0969 -1.0375,-2.00625 -0.522862,0.12761 -1.299542,0.72854 -2.24375,1.7375 -0.55948,0.59786 -0.801401,0.7674 -0.80625,0.575 -0.01358,-0.5361 0.633931,-1.50684 1.875,-2.81875 l 1.2625,-1.33125 -0.0875,-0.9125 c -0.07216,-0.80191 -0.11944,-0.92622 -0.41875,-0.96875 -0.03193,-0.005 -0.06495,-2e-4 -0.1,0 z m 56.924999,0 c -0.196226,0.0157 -0.267066,0.1994 -0.325,0.55 -0.209236,1.26595 -0.163064,1.37157 1.10625,2.7125 1.140064,1.2044 1.943996,2.45553 1.81875,2.83125 -0.03138,0.0942 -0.501582,-0.28689 -1.04375,-0.85 -0.542168,-0.56306 -1.244652,-1.15882 -1.55625,-1.31875 -0.536366,-0.2753 -0.569748,-0.27178 -0.7,-0.0187 -0.07567,0.14699 -0.259724,0.94846 -0.40625,1.7875 -0.146508,0.83906 -0.712866,2.88852 -1.25625,4.55625 -0.867306,2.66181 -0.958514,3.06024 -0.7625,3.25625 0.195996,0.19603 0.2856,0.19669 0.7375,-0.0312 0.283126,-0.14282 0.846564,-0.53969 1.25,-0.875 0.403416,-0.33531 0.77827,-0.55923 0.83125,-0.50625 0.05294,0.0529 -0.02035,0.41582 -0.1625,0.8125 -0.142172,0.39661 -0.2625,0.80764 -0.2625,0.9125 0.0018,0.36636 0.564448,0.18583 1.5375,-0.49375 0.53933,-0.37667 1.037078,-0.68574 1.1,-0.6875 0.565582,-0.008 -0.960596,1.82357 -1.93125,2.31875 -0.344092,0.17555 -0.966982,0.43015 -1.3875,0.575 l -0.76875,0.26875 0.04375,0.94375 c 0.0204,0.51886 0.10968,1.08117 0.2,1.25 0.131894,0.24642 0.260424,0.29021 0.65,0.2125 3.073372,-0.61324 5.463752,-2.82606 6.606249,-6.10625 0.381202,-1.09446 0.421748,-1.41941 0.41875,-3.2 -0.003,-1.7436 -0.05405,-2.13573 -0.41875,-3.2375 -0.754735,-2.27995 -2.307949,-4.20113 -4.237499,-5.23125 -0.563412,-0.30079 -0.885024,-0.44698 -1.08125,-0.43125 z m -33.687499,13.3 c -0.990806,0.0328 -1.903084,0.4612 -2.75625,1.275 -1.552578,1.48089 -1.881588,2.78054 -1.1125,4.40625 0.372652,0.78772 0.382332,0.85794 0.15,1.2125 -0.13549,0.20679 -0.8429,0.68186 -1.575,1.05 -4.057776,2.04052 -6.577776,5.18087 -7.45,9.3 -0.23838,1.12575 -0.318352,4.64178 -0.1375,6 0.756852,5.68335 3.127688,11.21188 6.3,14.69375 0.497368,0.54592 1.078634,1.34437 1.3,1.78125 0.822402,1.62288 1.924434,2.42245 3.925,2.85625 1.185656,0.25707 7.338063,0.31253 8.381249,0.075 1.001068,-0.22793 1.69123,-0.74574 2.8375,-2.13125 0.560468,-0.67743 1.575948,-1.6495 2.25625,-2.1625 1.597254,-1.20447 3.444056,-3.0647 4.15625,-4.1875 0.308954,-0.48706 0.719774,-1.06835 0.90625,-1.29375 0.620516,-0.75003 2.043518,-3.75947 2.65,-5.58125 1.199638,-3.60344 1.662716,-7.47534 1.16875,-9.7875 -0.676246,-3.16512 -2.639222,-5.649 -6.425,-8.1125 -1.006868,-0.65518 -2.021608,-1.34254 -2.25625,-1.5375 l -0.425,-0.3625 0.58125,-1.125 c 0.503012,-0.97783 0.574568,-1.26039 0.56875,-2.1375 -0.01304,-1.94127 -1.23544,-3.68632 -2.74375,-3.9125 -1.079028,-0.16179 -2.549572,0.16903 -4.175,0.9375 -0.787336,0.37221 -1.483771,0.675 -1.556249,0.675 -0.07246,0 -0.46767,-0.24484 -0.875,-0.5375 -1.345934,-0.96695 -2.57084,-1.43088 -3.69375,-1.39375 z m 10.281249,3.8125 c 0.956922,-0.0402 1.966312,1.10871 1.38125,1.69375 -0.182156,0.18216 -0.475718,0.24273 -1.06875,0.21875 -0.920638,-0.0372 -0.985712,8e-4 -1.21875,0.68125 -0.231132,0.67482 -0.628308,0.70631 -0.89375,0.075 -0.183496,-0.43651 -0.17975,-0.57634 0.0125,-1.0375 0.29716,-0.71255 1.069988,-1.49748 1.59375,-1.6125 0.0628,-0.0138 0.129946,-0.0161 0.19375,-0.0187 z m -11.049999,0.006 c 0.517468,0.0168 1.058952,0.36825 1.54375,1.0375 0.490282,0.67681 0.579352,1.38713 0.2375,1.8375 -0.333584,0.43944 -0.64071,0.31932 -0.8375,-0.3375 -0.196262,-0.65511 -0.181804,-0.65046 -1.28125,-0.6125 -1.193818,0.0412 -1.506058,-0.49606 -0.7875,-1.35 0.334148,-0.39711 0.722516,-0.58796 1.125,-0.575 z m 5.40625,2.08125 c 0.09628,0 0.340332,0.31029 0.54375,0.69375 0.203419,0.38344 0.677311,0.96572 1.049999,1.29375 l 0.675,0.59375 -0.40625,0.1625 c -0.225122,0.0856 -0.528334,0.15 -0.675,0.15 -0.427658,0 -1.056367,0.78018 -1.374999,1.70625 -0.162218,0.47147 -0.37455,0.99898 -0.46875,1.175 -0.310416,0.58 -0.430934,0.34407 -0.54375,-1.08125 -0.107458,-1.35775 -0.130734,-1.42435 -0.65,-1.9 -0.601548,-0.55098 -0.548926,-0.78005 0.26875,-1.11875 0.251426,-0.10412 0.655628,-0.51145 0.925,-0.93125 0.263468,-0.41059 0.559988,-0.74375 0.65625,-0.74375 z m -1.8625,10.53125 c 0.02687,0.002 0.04912,0.0116 0.0625,0.025 0.05354,0.0536 -0.04107,0.66409 -0.20625,1.3625 -0.165178,0.69843 -0.451234,1.96096 -0.6375,2.8 -0.530442,2.38926 -0.647756,2.71953 -1.06875,2.93125 -0.529156,0.26609 -2.4375,0.19735 -2.4375,-0.0875 0,-0.06 0.21624,-0.23972 0.4875,-0.4 0.809372,-0.4781 1.828362,-1.49207 2.06875,-2.0625 0.139086,-0.33004 0.2506,-1.28472 0.3,-2.49375 l 0.08125,-1.95 0.3625,0.0875 c 0.196456,0.0493 0.48498,0.009 0.65,-0.0937 0.123764,-0.0773 0.256876,-0.12511 0.3375,-0.11875 z m -3.5125,10.675 c 1.129892,-0.02 2.225166,0.2989 3.1625,0.94375 1.015612,0.69865 2.438422,2.78656 2.11875,3.10625 -0.04168,0.0417 -0.656564,0.007 -1.3625,-0.0813 -1.510672,-0.18773 -3.214064,-0.0168 -4.675,0.46875 -0.531626,0.17669 -1.401944,0.61589 -1.9375,0.975 -0.775118,0.5198 -1.012334,0.60837 -1.14375,0.45 -0.27156,-0.3272 -0.363362,-2.22946 -0.15,-3.11875 0.268952,-1.12113 1.28304,-2.16851 2.43125,-2.50625 0.516534,-0.15196 1.042662,-0.22844 1.55625,-0.2375 z"
     id="path3052"
     inkscape:connector-curvature="0" />
  <path
     inkscape:connector-curvature="0"
     style="fill:#1a1a1a;display:inline"
     d="m 31.147929,36.21692 c 0.0643,-0.005 0.104954,-0.005 0.121208,0.005 0.06504,0.0402 0.119446,1.15169 0.12121,2.46825 0.0018,1.31656 0.05379,2.4756 0.115708,2.57292 0.0619,0.0973 0.321524,0.19735 0.572984,0.22589 0.338132,0.0384 0.457278,0.13245 0.457278,0.35813 0,0.28354 -0.120714,0.30683 -1.647324,0.34708 -1.39179,0.0367 -1.65607,0.009 -1.735494,-0.19834 -0.123518,-0.32186 0.07341,-0.49542 0.633598,-0.55645 l 0.457278,-0.0496 0,-2.06054 0,-2.06055 -0.53441,0 c -0.42267,0 -0.534428,-0.0573 -0.534428,-0.28649 0,-0.22667 0.218386,-0.35026 0.991706,-0.56196 0.407454,-0.11154 0.787794,-0.18888 0.980686,-0.20386 z"
     id="path3042" />
  <path
     inkscape:connector-curvature="0"
     style="fill:#1a1a1a;display:inline"
     d="m 49.758957,80.85463 c 0.113716,-0.016 0.107722,0.1121 0.04959,0.54543 -0.04635,0.34563 -0.229546,0.83517 -0.4077,1.08538 -0.320114,0.45024 -0.338768,0.45262 -1.729976,0.44627 -0.774288,-0.004 -1.751202,0.0412 -2.170734,0.0992 -0.419514,0.058 -0.87397,0.13799 -1.013744,0.1763 -0.451812,0.12385 -0.4754,-0.25056 -0.04959,-0.86498 0.258444,-0.37295 0.714398,-0.74537 1.206584,-0.9862 0.704192,-0.34485 0.950558,-0.38473 2.23133,-0.34709 0.791566,0.0233 1.570226,-0.0167 1.729976,-0.0937 0.06677,-0.0321 0.116378,-0.0552 0.154264,-0.0606 z"
     id="path7-9" />
  <path
     style="fill:#000000;fill-opacity:0.78431373;display:inline"
     d="m 12.137496,1e-5 C 5.4350798,10e-6 -2.4000055e-5,5.43509 -4.0001105e-6,12.13751 l 0,75.725 c 0,6.7024 5.4350838001105,12.13752 12.1375000001105,12.1375 l 75.724997,0 c 6.70244,0 12.13748,-5.4351 12.1375,-12.1375 l 0,-75.725 C 99.999993,5.43509 94.565153,9.9999999e-6 87.862493,9.9999999e-6 l -75.724997,0 z m 6.056249,8 63.606249,0 c 5.630235,0 10.199999,4.56372 10.199999,10.19375 l 0,63.60625 c -1.6e-5,5.63002 -4.56995,10.2 -10.199999,10.2 l -63.606249,0 c -5.630029,1e-5 -10.1937492,-4.56998 -10.1937492,-10.2 l 0,-63.60625 C 7.9999798,12.56373 12.563716,8.00001 18.193745,8.00001 z"
     id="path7-8-6-9"
     inkscape:connector-curvature="0" />
  <path
     style="fill:url(#linearGradient3833);fill-opacity:1;display:inline"
     d="M 12.1375,1.9999724e-6 C 5.43509,1.9999724e-6 -1.9999972e-5,5.435082 0,12.137502 l 0,75.724997 c 0,6.7024 5.43509,12.137521 12.1375,12.137499 l 75.725,0 c 6.70244,0 12.13748,-5.435099 12.1375,-12.137499 l 0,-75.724997 C 100,5.435082 94.56516,1.9999724e-6 87.8625,1.9999724e-6 z"
     id="path7-8-6-9-9"
     inkscape:connector-curvature="0"
     sodipodi:nodetypes="sssssssss" />
</svg>
