<?xml version="1.0" encoding="UTF-8" standalone="no"?>
<!-- Created with Inkscape (http://www.inkscape.org/) -->

<svg
   xmlns:dc="http://purl.org/dc/elements/1.1/"
   xmlns:cc="http://creativecommons.org/ns#"
   xmlns:rdf="http://www.w3.org/1999/02/22-rdf-syntax-ns#"
   xmlns:svg="http://www.w3.org/2000/svg"
   xmlns="http://www.w3.org/2000/svg"
   xmlns:sodipodi="http://sodipodi.sourceforge.net/DTD/sodipodi-0.dtd"
   xmlns:inkscape="http://www.inkscape.org/namespaces/inkscape"
   width="500"
   height="500"
   id="svg3932"
   version="1.1"
   inkscape:version="0.48.4 r9939"
   sodipodi:docname="Coderbits.svg">
  <defs
     id="defs3934" />
  <sodipodi:namedview
     id="base"
     pagecolor="#ffffff"
     bordercolor="#666666"
     borderopacity="1.0"
     inkscape:pageopacity="0.0"
     inkscape:pageshadow="2"
     inkscape:zoom="0.35"
     inkscape:cx="-305"
     inkscape:cy="520"
     inkscape:document-units="px"
     inkscape:current-layer="layer1"
     showgrid="false"
     inkscape:window-width="1920"
     inkscape:window-height="1145"
     inkscape:window-x="-2"
     inkscape:window-y="-3"
     inkscape:window-maximized="1" />
  <metadata
     id="metadata3937">
    <rdf:RDF>
      <cc:Work
         rdf:about="">
        <dc:format>image/svg+xml</dc:format>
        <dc:type
           rdf:resource="http://purl.org/dc/dcmitype/StillImage" />
        <dc:title></dc:title>
      </cc:Work>
    </rdf:RDF>
  </metadata>
  <g
     inkscape:label="Layer 1"
     inkscape:groupmode="layer"
     id="layer1"
     transform="translate(0,-552.36218)">
    <path
       d="m 439.32025,552.36227 -378.6407,0 c -33.5121,0 -60.6795,27.1675 -60.6795,60.6796 l 0,378.64052 c 0,33.51221 27.1675,60.67971 60.6795,60.67971 l 378.6407,0 c 33.5122,0 60.6797,-27.1675 60.6797,-60.67971 l 0,-378.64052 c 0,-33.5121 -27.1662,-60.6796 -60.6797,-60.6796 z"
       id="linkedin-square-rounded-icon-0-4-7-3-5"
       inkscape:connector-curvature="0"
       sodipodi:nodetypes="sssssssss"
       style="fill:#ffffff;fill-opacity:1;display:inline" />
    <path
       style="fill:#1a1a1a;display:inline"
       d="M 60.6875,552.36215 C 27.1753,552.36215 0,579.53755 0,613.04965 l 0,378.65616 c 0,33.51239 27.1753,60.65639 60.6875,60.65639 l 378.625,0 c 33.5121,0 60.6875,-27.144 60.6875,-60.65639 l 0,-378.65616 c 0,-33.5121 -27.1742,-60.6875 -60.6875,-60.6875 l -378.625,0 z m 189.1875,103 c 92.5472,-0.4447 175.2007,46.969 191.625,112.9687 2.8963,11.6391 3.5452,31.3583 1.4063,42.6876 -7.5022,39.7363 -36.9554,73.6451 -83.375,96 -22.4635,10.8179 -43.1741,17.1355 -69.875,21.3437 -14.0507,2.2145 -46.7892,3.0191 -63.875,1.5625 l -14.0938,-1.1875 -10.1562,4.9375 c -11.0256,5.36106 -27.4208,11.10746 -38.7813,13.59376 -7.941,1.7379 -37.9615,2.8078 -45.625,1.625 -2.5738,-0.3974 -5.0074,-1.0699 -5.4063,-1.4688 -0.3987,-0.3988 1.0541,-2.5941 3.25,-4.9062 13.2787,-13.98106 18.6301,-26.18076 15.3126,-34.90626 -1.6139,-4.2452 -7.7172,-10.1897 -18.25,-17.7187 -11.5701,-8.2706 -26.7729,-22.96 -34.2188,-33.0626 -6.2026,-8.4155 -14.181,-23.5861 -17,-32.3437 -17.4911,-54.3402 11.7708,-109.0367 75.9062,-141.9375 29.9831,-15.3812 55.6386,-22.8738 89.4376,-26.0312 7.9507,-0.7428 15.8757,-1.1186 23.7187,-1.1563 z"
       id="linkedin-square-rounded-icon-0-5-8"
       inkscape:connector-curvature="0" />
  </g>
</svg>
