<svg xmlns="http://www.w3.org/2000/svg" viewBox="0 0 100 100"><defs><linearGradient y2="61.754" x2="48.725" y1="85.34" x1="84.49" gradientUnits="userSpaceOnUse" id="0"><stop stop-opacity=".374"/><stop offset="1" stop-opacity="0"/></linearGradient></defs><path d="m12.138 0c-6.702 0-12.138 5.435-12.138 12.138v75.73c0 6.702 5.435 12.13 12.138 12.13h75.72c6.702 0 12.138-5.429 12.138-12.13v-75.73c0-6.702-5.435-12.138-12.138-12.138h-75.72" fill="#f60"/><path d="m49.978 23.5c16.682-.08 31.58 8.466 34.541 20.363.522 2.098.639 5.652.253 7.695-1.352 7.163-6.661 13.275-15.03 17.304-4.049 1.95-7.782 3.089-12.595 3.847-2.533.399-8.434.544-11.514.282l-2.54-.214-1.831.89c-1.987.966-4.943 2-6.99 2.45-1.431.313-6.843.506-8.224.293-.464-.072-.903-.193-.974-.265-.072-.072.19-.468.586-.884 2.394-2.52 3.358-4.719 2.76-6.292-.291-.765-1.391-1.837-3.29-3.194-2.086-1.491-4.826-4.139-6.168-5.96-1.118-1.517-2.556-4.251-3.064-5.83-3.153-9.795 2.122-19.654 13.682-25.585 5.405-2.772 10.03-4.123 16.12-4.692 1.433-.134 2.862-.202 4.275-.208" fill="#fff"/><path d="m12.138 0c-6.702 0-12.138 5.435-12.138 12.137v75.73c0 6.702 5.435 12.138 12.138 12.138h75.72c6.702 0 12.137-5.435 12.138-12.138v-75.73c0-6.702-5.435-12.137-12.138-12.137z" fill="url(#0)"/></svg>