<?xml version="1.0" encoding="UTF-8" standalone="no"?>
<!-- Created with Inkscape (http://www.inkscape.org/) -->

<svg
   xmlns:dc="http://purl.org/dc/elements/1.1/"
   xmlns:cc="http://creativecommons.org/ns#"
   xmlns:rdf="http://www.w3.org/1999/02/22-rdf-syntax-ns#"
   xmlns:svg="http://www.w3.org/2000/svg"
   xmlns="http://www.w3.org/2000/svg"
   xmlns:sodipodi="http://sodipodi.sourceforge.net/DTD/sodipodi-0.dtd"
   xmlns:inkscape="http://www.inkscape.org/namespaces/inkscape"
   width="500"
   height="500"
   id="svg3932"
   version="1.1"
   inkscape:version="0.48.4 r9939"
   sodipodi:docname="Comments.svg">
  <metadata
     id="metadata13">
    <rdf:RDF>
      <cc:Work
         rdf:about="">
        <dc:format>image/svg+xml</dc:format>
        <dc:type
           rdf:resource="http://purl.org/dc/dcmitype/StillImage" />
      </cc:Work>
    </rdf:RDF>
  </metadata>
  <defs
     id="defs11" />
  <sodipodi:namedview
     pagecolor="#ffffff"
     bordercolor="#666666"
     borderopacity="1"
     objecttolerance="10"
     gridtolerance="10"
     guidetolerance="10"
     inkscape:pageopacity="0"
     inkscape:pageshadow="2"
     inkscape:window-width="1920"
     inkscape:window-height="1145"
     id="namedview9"
     showgrid="false"
     inkscape:zoom="0.944"
     inkscape:cx="240.21467"
     inkscape:cy="104.30229"
     inkscape:window-x="-2"
     inkscape:window-y="-3"
     inkscape:window-maximized="1"
     inkscape:current-layer="svg3932" />
  <path
     inkscape:connector-curvature="0"
     style="fill:#ff6600;display:inline"
     d="M 60.6875,0 C 27.175302,0 0,27.175396 0,60.68749 L 0,439.34361 C 0,472.856 27.175302,500 60.6875,500 l 378.625,0 C 472.8246,500 500,472.856 500,439.34361 L 500,60.68749 C 500,27.175396 472.8258,0 439.3125,0 L 60.6875,0 z"
     id="path3003-1" />
  <path
     inkscape:connector-curvature="0"
     style="fill:#ffffff;display:inline"
     d="m 249.89028,117.50245 c 83.40905,-0.40079 157.90131,42.33126 172.70387,101.81411 2.61031,10.48985 3.19515,28.26197 1.26744,38.47261 -6.76143,35.81272 -33.30641,66.37335 -75.14252,86.52092 -20.24544,9.74973 -38.91107,15.44353 -62.97551,19.23621 -12.66333,1.99584 -42.16921,2.721 -57.56795,1.40822 l -12.70218,-1.07024 -9.15337,4.44996 c -9.93693,4.83171 -24.71326,10.01071 -34.95202,12.25151 -7.1569,1.5663 -34.21316,2.53056 -41.11996,1.46454 -2.31966,-0.35815 -4.51297,-0.96425 -4.87249,-1.32377 -0.35932,-0.35941 0.95003,-2.33795 2.9291,-4.42176 11.96755,-12.60056 16.79055,-23.59566 13.80062,-31.4596 -1.45453,-3.82602 -6.9552,-9.18356 -16.44798,-15.96914 C 115.22966,321.42206 101.528,308.1831 94.817308,299.07804 89.227155,291.49348 82.036545,277.82084 79.495894,269.92796 63.731874,220.95334 90.10444,171.6576 147.90709,142.00543 c 27.02255,-13.86245 50.14481,-20.61522 80.60649,-23.46086 7.16564,-0.66945 14.30813,-1.00815 21.3767,-1.04212 z"
     id="path7-0" />
  <path
     style="fill:#000000;fill-opacity:0.78431373;display:inline"
     d="M 60.6875,-3.900276e-6 C 27.17542,-3.900276e-6 -9.9999724e-5,27.175398 0,60.687496 L 0,439.3125 C 0,472.82453 27.17542,500.0001 60.6875,500 l 378.625,0 C 472.8247,500 499.9999,472.82453 500,439.3125 L 500,60.687496 C 500,27.175398 472.8258,-3.900276e-6 439.3125,-3.900276e-6 l -378.625,0 z M 90.96875,39.999996 l 318.03125,0 c 28.15118,0 51,22.818589 51,50.96875 L 460,409 c -8e-5,28.15011 -22.84975,51 -51,51 L 90.96875,460 C 62.8186,460.00008 40,437.15011 40,409 L 40,90.968746 c -8e-5,-28.150161 22.8186,-50.96875 50.96875,-50.96875 z"
     id="path7-8-6-9"
     inkscape:connector-curvature="0" />
</svg>
