<svg xmlns="http://www.w3.org/2000/svg" viewBox="0 0 100 100"><defs><linearGradient y2="61.754" x2="48.725" y1="85.34" x1="84.49" gradientUnits="userSpaceOnUse" id="0" gradientTransform="matrix(1 0 0 .99995.001 0)"><stop stop-opacity=".374"/><stop offset="1" stop-opacity="0"/></linearGradient></defs><path d="m12.139.003c-6.702 0-12.138 5.435-12.138 12.137v75.73c0 6.702 5.435 12.13 12.138 12.13h75.72c6.702 0 12.138-5.429 12.138-12.13v-75.73c0-6.702-5.435-12.137-12.138-12.137h-75.72" fill="#f60"/><path d="m49.976 19.717c19.07-.091 36.09 9.675 39.476 23.27.597 2.398.73 6.459.289 8.794-1.545 8.186-7.613 15.17-17.18 19.775-4.627 2.228-8.894 3.53-14.394 4.396-2.895.456-9.639.622-13.159.322l-2.903-.245-2.093 1.017c-2.271 1.104-5.649 2.286-7.989 2.8-1.635.358-7.821.578-9.399.335-.53-.082-1.032-.221-1.113-.303-.082-.082.217-.535.67-1.01 2.736-2.88 3.838-5.393 3.154-7.19-.333-.874-1.59-2.099-3.76-3.65-2.384-1.704-5.515-4.73-7.05-6.811-1.278-1.734-2.921-4.858-3.502-6.662-3.603-11.194 2.425-22.46 15.637-29.24 6.177-3.168 11.463-4.712 18.423-5.362 1.638-.153 3.271-.231 4.886-.238" fill="#fff"/><path d="m12.139 0c-6.702 0-12.138 5.435-12.138 12.136v75.73c0 6.702 5.435 12.137 12.138 12.137h75.72c6.702 0 12.137-5.435 12.138-12.137v-75.73c0-6.702-5.435-12.136-12.138-12.136z" fill="url(#0)"/></svg>