<svg xmlns="http://www.w3.org/2000/svg" viewBox="0 0 100 100"><defs><linearGradient y2="61.754" x2="48.725" y1="85.34" x1="84.49" gradientUnits="userSpaceOnUse" id="0" gradientTransform="matrix(.99995 0 0 .99992-.003.006)"><stop stop-opacity=".374"/><stop offset="1" stop-opacity="0"/></linearGradient></defs><path d="m12.137.008c-6.702 0-12.137 5.435-12.137 12.137v75.71c0 6.701 5.435 12.137 12.137 12.137h75.72c6.702 0 12.136-5.435 12.137-12.137v-75.71c0-6.701-5.435-12.137-12.137-12.137z" fill="#43609c"/><path d="m74.77 10.01c-12.215 0-20.579 7.463-20.579 21.15v11.793h-13.813v15.996h13.813v41.05h16.523v-41.05h13.774l2.067-15.996h-15.841v-10.217c0-4.631 1.281-7.785 7.924-7.785l8.474-.013v-14.304c-1.466-.195-6.492-.63-12.343-.63" fill="#fff"/><path d="m12.135.006c-6.702 0-12.137 5.435-12.137 12.136v75.72c0 6.701 5.435 12.137 12.137 12.136h75.73c6.702 0 12.136-5.435 12.136-12.136v-75.72c0-6.701-5.435-12.136-12.136-12.136z" fill="url(#0)"/></svg>