<svg xmlns="http://www.w3.org/2000/svg" viewBox="0 0 100 100"><defs><linearGradient y2="61.754" x2="48.725" y1="85.34" x1="84.49" gradientUnits="userSpaceOnUse" id="0"><stop stop-opacity=".374"/><stop offset="1" stop-opacity="0"/></linearGradient></defs><path d="m12.138 0c-6.702 0-12.138 5.435-12.138 12.138v75.72c0 6.702 5.435 12.138 12.138 12.138h75.72c6.702 0 12.137-5.435 12.138-12.138v-75.72c0-6.702-5.435-12.138-12.138-12.138z" fill="#43609c"/><path d="m12.138 0c-6.702 0-12.138 5.435-12.138 12.138v75.72c0 6.702 5.435 12.138 12.138 12.138h75.72c6.702 0 12.137-5.435 12.138-12.138v-75.72c0-6.702-5.435-12.138-12.138-12.138h-75.72m6.06 8h63.61c5.63 0 10.2 4.564 10.2 10.194v63.61c0 5.63-4.57 10.2-10.2 10.2h-63.61c-5.63 0-10.194-4.57-10.194-10.2v-63.61c0-5.63 4.564-10.194 10.194-10.194" fill-opacity=".784"/><path d="m72.825 15.11c-11.523 0-19.413 7.04-19.413 19.956v11.125h-13.03v15.09h13.03v38.725h15.587v-38.725h12.994l1.95-15.09h-14.944v-9.638c0-4.369 1.208-7.344 7.475-7.344l7.994-.012v-13.494c-1.383-.184-6.124-.594-11.644-.594" fill="#fff"/><path d="m12.138 0c-6.702 0-12.138 5.435-12.138 12.137v75.73c0 6.702 5.435 12.138 12.138 12.137h75.73c6.702 0 12.137-5.435 12.137-12.137v-75.73c0-6.702-5.435-12.137-12.137-12.137z" fill="url(#0)"/></svg>