<?xml version="1.0" encoding="UTF-8" standalone="no"?>
<!-- Created with Inkscape (http://www.inkscape.org/) -->

<svg
   xmlns:dc="http://purl.org/dc/elements/1.1/"
   xmlns:cc="http://creativecommons.org/ns#"
   xmlns:rdf="http://www.w3.org/1999/02/22-rdf-syntax-ns#"
   xmlns:svg="http://www.w3.org/2000/svg"
   xmlns="http://www.w3.org/2000/svg"
   xmlns:xlink="http://www.w3.org/1999/xlink"
   xmlns:sodipodi="http://sodipodi.sourceforge.net/DTD/sodipodi-0.dtd"
   xmlns:inkscape="http://www.inkscape.org/namespaces/inkscape"
   width="100"
   height="100"
   id="svg3932"
   version="1.1"
   inkscape:version="0.48.4 r9939"
   sodipodi:docname="FigShare.svg">
  <metadata
     id="metadata13">
    <rdf:RDF>
      <cc:Work
         rdf:about="">
        <dc:format>image/svg+xml</dc:format>
        <dc:type
           rdf:resource="http://purl.org/dc/dcmitype/StillImage" />
      </cc:Work>
    </rdf:RDF>
  </metadata>
  <defs
     id="defs11">
    <linearGradient
       inkscape:collect="always"
       xlink:href="#linearGradient5322"
       id="linearGradient3799"
       x1="-72.770866"
       y1="98.260445"
       x2="-108.53157"
       y2="74.678169"
       gradientUnits="userSpaceOnUse"
       gradientTransform="translate(157.25636,-12.92373)" />
    <linearGradient
       id="linearGradient5322">
      <stop
         style="stop-color:#000000;stop-opacity:0.37391305;"
         offset="0"
         id="stop5324" />
      <stop
         style="stop-color:#000000;stop-opacity:0;"
         offset="1"
         id="stop5326" />
    </linearGradient>
    <linearGradient
       y2="74.678169"
       x2="-108.53157"
       y1="98.260445"
       x1="-72.770866"
       gradientTransform="translate(157.25636,-12.923728)"
       gradientUnits="userSpaceOnUse"
       id="linearGradient3833"
       xlink:href="#linearGradient5322"
       inkscape:collect="always" />
  </defs>
  <sodipodi:namedview
     pagecolor="#ffffff"
     bordercolor="#666666"
     borderopacity="1"
     objecttolerance="10"
     gridtolerance="10"
     guidetolerance="10"
     inkscape:pageopacity="0"
     inkscape:pageshadow="2"
     inkscape:window-width="1920"
     inkscape:window-height="1145"
     id="namedview9"
     showgrid="false"
     inkscape:zoom="1.888"
     inkscape:cx="159.47078"
     inkscape:cy="-1.9290619"
     inkscape:window-x="-2"
     inkscape:window-y="-3"
     inkscape:window-maximized="1"
     inkscape:current-layer="svg3932" />
  <path
     inkscape:connector-curvature="0"
     id="path7-7-8"
     d="M 12.1375,0 C 5.4350792,0 -2.084021e-5,5.43508 0,12.1375 L 0,87.86249 C 0,94.5649 5.4350792,100.00002 12.1375,100 l 75.725,0 C 94.56494,100 99.99998,94.5649 100,87.86249 L 100,12.1375 C 100,5.43508 94.56516,0 87.8625,0 z"
     style="fill:#ffffff;fill-opacity:1;display:inline"
     sodipodi:nodetypes="sssccssss" />
  <path
     style="fill:#000000;fill-opacity:0.78431373;display:inline"
     d="M 12.1375,0 C 5.435084,0 -2.0000185e-5,5.43508 0,12.1375 l 0,75.725 C 0,94.56491 5.435084,100.00002 12.1375,100 l 75.725,0 C 94.56494,100 99.99998,94.56491 100,87.8625 l 0,-75.725 C 100,5.43508 94.56516,0 87.8625,0 L 12.1375,0 z M 18.19375,8 81.8,8 C 87.430236,8 92,12.56372 92,18.19375 L 92,81.8 C 91.999984,87.43002 87.43005,92 81.8,92 L 18.19375,92 C 12.56372,92.00002 8,87.43002 8,81.8 L 8,18.19375 C 7.999984,12.56372 12.56372,8 18.19375,8 z"
     id="path7-8-6-9"
     inkscape:connector-curvature="0" />
  <g
     id="g3770"
     transform="matrix(0.7066027,0,0,0.7066027,27.442583,-81.053666)">
    <path
       inkscape:connector-curvature="0"
       d="m 64.4937,148.32584 c -1.47,2.0175 -4.295,2.46 -6.31125,0.99625 -2.01625,-1.46375 -2.46375,-4.2875 -0.99375,-6.305 1.46375,-2.01625 4.28375,-2.46125 6.30625,-0.99875 2.01375,1.46375 2.4625,4.28625 0.99875,6.3075"
       style="fill:#4e5d6e;fill-opacity:1;fill-rule:nonzero;stroke:none"
       id="path3020" />
    <path
       inkscape:connector-curvature="0"
       d="m 47.3722,146.75459 c 0.957,-1.87125 3.2515,-2.61625 5.12525,-1.65875 1.87375,0.95125 2.615,3.2425 1.65875,5.1175 -0.94375,1.87875 -3.24,2.62375 -5.117125,1.66375 -1.876875,-0.95375 -2.619625,-3.25 -1.666875,-5.1225"
       style="fill:#4e5d6e;fill-opacity:1;fill-rule:nonzero;stroke:none"
       id="path3022" />
    <path
       inkscape:connector-curvature="0"
       d="m 45.63245,153.55709 c -0.538125,1.66375 -2.335,2.57375 -4.0025,2.03375 -1.6665,-0.54125 -2.577125,-2.33375 -2.036125,-3.9975 0.5405,-1.66625 2.331,-2.57875 3.999,-2.03625 1.663625,0.53875 2.5815,2.33125 2.039625,4"
       style="fill:#4e5d6e;fill-opacity:1;fill-rule:nonzero;stroke:none"
       id="path3024" />
    <path
       inkscape:connector-curvature="0"
       d="m 39.040575,157.41459 c -0.223125,1.44125 -1.583,2.42625 -3.024875,2.1975 -1.4355,-0.2275 -2.420375,-1.58625 -2.19,-3.025 0.226125,-1.445 1.578125,-2.42875 3.020125,-2.1975 1.441875,0.22625 2.429125,1.58 2.19475,3.025"
       style="fill:#4e5d6e;fill-opacity:1;fill-rule:nonzero;stroke:none"
       id="path3026" />
    <path
       inkscape:connector-curvature="0"
       d="m 34.113825,161.63959 c 0,1.21 -0.979,2.18625 -2.189,2.18625 -1.207,0 -2.189375,-0.97625 -2.189375,-2.18625 0,-1.205 0.982375,-2.185 2.189375,-2.185 1.21,0 2.189,0.98 2.189,2.185"
       style="fill:#4e5d6e;fill-opacity:1;fill-rule:nonzero;stroke:none"
       id="path3028" />
    <path
       inkscape:connector-curvature="0"
       d="m 30.633325,165.82709 c 0.151875,0.9835 -0.511125,1.90637 -1.493625,2.06312 -0.98875,0.14988 -1.90425,-0.51412 -2.055625,-1.49562 -0.160125,-0.9825 0.50875,-1.9025 1.495125,-2.05875 0.982875,-0.1575 1.900875,0.51625 2.054125,1.49125"
       style="fill:#4e5d6e;fill-opacity:1;fill-rule:nonzero;stroke:none"
       id="path3030" />
    <path
       inkscape:connector-curvature="0"
       d="m 6.6627,227.91709 c -1.46975,2.02 -4.2905,2.46237 -6.308625,0.9985 -2.01175,-1.46388 -2.464375,-4.28863 -0.9985,-6.30375 1.46725,-2.0185 4.2895,-2.46388 6.303625,-1 2.016625,1.46387 2.47225,4.28862 1.0035,6.30525"
       style="fill:#96d325;fill-opacity:1;fill-rule:nonzero;stroke:none"
       id="path3032" />
    <path
       inkscape:connector-curvature="0"
       d="m 9.6842,220.72171 c 0.958875,-1.8725 3.2505,-2.61862 5.1245,-1.665 1.878375,0.9565 2.619625,3.2515 1.666,5.1265 -0.94975,1.86863 -3.2485,2.61375 -5.1235,1.65713 -1.872125,-0.95363 -2.61825,-3.24463 -1.667,-5.11863"
       style="fill:#96d325;fill-opacity:1;fill-rule:nonzero;stroke:none"
       id="path3034" />
    <path
       inkscape:connector-curvature="0"
       d="m 24.25695,219.34571 c -0.5435,1.66113 -2.330625,2.58013 -4.0015,2.03713 -1.669,-0.54488 -2.578125,-2.332 -2.039125,-4.00237 0.542,-1.666 2.332125,-2.57626 3.999625,-2.03476 1.661125,0.54013 2.583,2.33263 2.041,4"
       style="fill:#96d325;fill-opacity:1;fill-rule:nonzero;stroke:none"
       id="path3036" />
    <path
       inkscape:connector-curvature="0"
       d="m 30.02695,214.34821 c -0.2305,1.44975 -1.583,2.42725 -3.024875,2.19975 -1.445375,-0.22762 -2.42925,-1.585 -2.19975,-3.02587 0.2285,-1.4415 1.586875,-2.42388 3.02825,-2.19788 1.442,0.22913 2.43225,1.585 2.196375,3.024"
       style="fill:#96d325;fill-opacity:1;fill-rule:nonzero;stroke:none"
       id="path3038" />
    <path
       inkscape:connector-curvature="0"
       d="m 34.113825,209.29696 c 0,1.2075 -0.979,2.185 -2.189,2.185 -1.207,0 -2.189375,-0.9775 -2.189375,-2.185 0,-1.20999 0.982375,-2.1865 2.189375,-2.1865 1.21,0 2.189,0.97651 2.189,2.1865"
       style="fill:#96d325;fill-opacity:1;fill-rule:nonzero;stroke:none"
       id="path3040" />
    <path
       inkscape:connector-curvature="0"
       d="m 36.7637,204.54796 c 0.15775,0.9765 -0.503875,1.89888 -1.493625,2.05663 -0.982875,0.15625 -1.898375,-0.51425 -2.055625,-1.49275 -0.15525,-0.98388 0.50725,-1.90575 1.49025,-2.0625 0.99025,-0.15325 1.910625,0.51762 2.059,1.49862"
       style="fill:#96d325;fill-opacity:1;fill-rule:nonzero;stroke:none"
       id="path3042" />
    <path
       inkscape:connector-curvature="0"
       d="m -13.466675,165.96959 c 2.369625,0.77875 3.667,3.32 2.899375,5.694 -0.7705,2.37162 -3.317875,3.671 -5.686,2.8965 -2.373625,-0.768 -3.6695,-3.313 -2.8995,-5.6875 0.77,-2.368 3.317875,-3.6655 5.686125,-2.903"
       style="fill:#96d325;fill-opacity:1;fill-rule:nonzero;stroke:none"
       id="path3044" />
    <path
       inkscape:connector-curvature="0"
       d="m -8.470675,175.21196 c 2.077625,0.33063 3.48875,2.28375 3.15975,4.36138 -0.327625,2.07712 -2.279375,3.49562 -4.357,3.163 -2.076125,-0.329 -3.491125,-2.27725 -3.168,-4.35888 0.336,-2.07812 2.28175,-3.49262 4.36525,-3.1655"
       style="fill:#96d325;fill-opacity:1;fill-rule:nonzero;stroke:none"
       id="path3046" />
    <path
       inkscape:connector-curvature="0"
       d="m -2.66205,182.29646 c 1.7515,0 3.173875,1.41838 3.173875,3.17188 0,1.75637 -1.422375,3.17475 -3.173875,3.17475 -1.754375,0 -3.172875,-1.41838 -3.17775,-3.17475 0,-1.7535 1.423375,-3.17188 3.17775,-3.17188"
       style="fill:#96d325;fill-opacity:1;fill-rule:nonzero;stroke:none"
       id="path3048" />
    <path
       inkscape:connector-curvature="0"
       d="m 3.0362,187.36771 c 1.44775,-0.229 2.80375,0.75688 3.02925,2.19725 0.2325,1.44338 -0.752875,2.79788 -2.199125,3.02488 -1.442,0.22712 -2.796,-0.75575 -3.0205,-2.19725 -0.229,-1.44525 0.754875,-2.79925 2.190375,-3.02488"
       style="fill:#96d325;fill-opacity:1;fill-rule:nonzero;stroke:none"
       id="path3050" />
    <path
       inkscape:connector-curvature="0"
       d="m 8.593825,190.75246 c 1.145,-0.36962 2.377875,0.25588 2.752375,1.40625 0.36925,1.13963 -0.25975,2.38038 -1.408125,2.75051 -1.149,0.37312 -2.38425,-0.25101 -2.7515,-1.39938 -0.375,-1.15088 0.253375,-2.38375 1.40725,-2.75738"
       style="fill:#96d325;fill-opacity:1;fill-rule:nonzero;stroke:none"
       id="path3052" />
    <path
       inkscape:connector-curvature="0"
       d="m 13.65345,192.76171 c 0.875375,-0.44575 1.9545,-0.0937 2.407125,0.79013 0.45225,0.88425 0.100625,1.96525 -0.788,2.417 -0.881375,0.44775 -1.962875,0.0986 -2.40875,-0.78375 -0.459,-0.89213 -0.107375,-1.97163 0.789625,-2.42338"
       style="fill:#96d325;fill-opacity:1;fill-rule:nonzero;stroke:none"
       id="path3054" />
    <path
       inkscape:connector-curvature="0"
       d="m 80.1012,196.38096 c 2.37875,0.76613 3.67125,3.3115 2.89875,5.686 -0.77125,2.36713 -3.315,3.666 -5.68375,2.8975 -2.37375,-0.774 -3.665,-3.3145 -2.90125,-5.689 0.7775,-2.36912 3.32,-3.67487 5.68625,-2.8945"
       style="fill:#4e5d6e;fill-opacity:1;fill-rule:nonzero;stroke:none"
       id="path3056" />
    <path
       inkscape:connector-curvature="0"
       d="m 73.5187,188.19834 c 2.0775,0.329 3.49,2.28312 3.165,4.36325 -0.3325,2.07662 -2.28125,3.49312 -4.35625,3.16262 -2.08,-0.32912 -3.49875,-2.28175 -3.17375,-4.35887 0.32875,-2.07913 2.285,-3.49463 4.365,-3.167"
       style="fill:#4e5d6e;fill-opacity:1;fill-rule:nonzero;stroke:none"
       id="path3058" />
    <path
       inkscape:connector-curvature="0"
       d="m 66.5112,182.29646 c 1.75625,0 3.17125,1.41838 3.17125,3.17188 0,1.75637 -1.415,3.17475 -3.17125,3.17475 -1.7475,0 -3.1725,-1.41838 -3.1725,-3.17475 0,-1.7535 1.425,-3.17188 3.1725,-3.17188"
       style="fill:#4e5d6e;fill-opacity:1;fill-rule:nonzero;stroke:none"
       id="path3060" />
    <path
       inkscape:connector-curvature="0"
       d="m 59.98245,178.34671 c 1.44125,-0.227 2.79125,0.75688 3.02125,2.19725 0.22875,1.44538 -0.75375,2.79888 -2.195,3.02788 -1.44375,0.23187 -2.80125,-0.75875 -3.0275,-2.19725 -0.23,-1.44138 0.75375,-2.79938 2.20125,-3.02788"
       style="fill:#4e5d6e;fill-opacity:1;fill-rule:nonzero;stroke:none"
       id="path3062" />
    <path
       inkscape:connector-curvature="0"
       d="m 53.9087,176.02346 c 1.1475,-0.37112 2.39125,0.26075 2.75,1.40625 0.37625,1.1455 -0.24875,2.38038 -1.39625,2.7505 -1.145,0.376 -2.38125,-0.249 -2.7575,-1.39787 -0.37,-1.14463 0.26,-2.38525 1.40375,-2.75888"
       style="fill:#4e5d6e;fill-opacity:1;fill-rule:nonzero;stroke:none"
       id="path3064" />
    <path
       inkscape:connector-curvature="0"
       d="m 48.574325,174.96784 c 0.88125,-0.45163 1.961875,-0.0942 2.413125,0.78362 0.46125,0.88975 0.105,1.97125 -0.7875,2.42288 -0.87375,0.44537 -1.960125,0.0924 -2.41175,-0.78363 -0.455125,-0.88725 -0.102625,-1.97312 0.786125,-2.42287"
       style="fill:#4e5d6e;fill-opacity:1;fill-rule:nonzero;stroke:none"
       id="path3066" />
    <path
       inkscape:connector-curvature="0"
       d="m 6.6627,143.01709 c 1.46875,2.01875 1.013125,4.84625 -1.0035,6.305 -2.014125,1.46875 -4.836375,1.01875 -6.303625,-0.99625 -1.465875,-2.02125 -1.01325,-4.84375 0.9985,-6.3075 2.018125,-1.4625 4.84275,-1.0175 6.308625,0.99875"
       style="fill:#4e5d6e;fill-opacity:1;fill-rule:nonzero;stroke:none"
       id="path3068" />
    <path
       inkscape:connector-curvature="0"
       d="m 5.271075,153.42709 c 1.485875,1.48625 1.4795,3.89875 0,5.3875 -1.492625,1.48375 -3.901375,1.4825 -5.391625,0 -1.485875,-1.48875 -1.485875,-3.9 0.003375,-5.3875 1.486875,-1.48625 3.9005,-1.49 5.38825,0"
       style="fill:#4e5d6e;fill-opacity:1;fill-rule:nonzero;stroke:none"
       id="path3070" />
    <path
       inkscape:connector-curvature="0"
       d="m 5.8057,162.56834 c 1.42,1.035 1.7325,3.0175 0.704625,4.43412 -1.028375,1.4155 -3.016625,1.73338 -4.435,0.70075 -1.413625,-1.02737 -1.732,-3.01362 -0.69925,-4.42487 1.026375,-1.425 3.017,-1.73625 4.429625,-0.71"
       style="fill:#4e5d6e;fill-opacity:1;fill-rule:nonzero;stroke:none"
       id="path3072" />
    <path
       inkscape:connector-curvature="0"
       d="m 7.44295,170.02734 c 1.29975,0.66162 1.817375,2.2525 1.15325,3.55962 -0.6615,1.29788 -2.2485,1.82075 -3.555625,1.14988 -1.29875,-0.65963 -1.813,-2.25188 -1.15775,-3.55275 0.6665,-1.30363 2.257375,-1.81788 3.560125,-1.15675"
       style="fill:#4e5d6e;fill-opacity:1;fill-rule:nonzero;stroke:none"
       id="path3074" />
    <path
       inkscape:connector-curvature="0"
       d="m 9.938075,176.02346 c 1.148375,0.37363 1.777375,1.61425 1.402375,2.75888 -0.36875,1.14887 -1.601625,1.77387 -2.746625,1.39787 -1.153875,-0.37012 -1.78225,-1.605 -1.40725,-2.7505 0.36725,-1.1455 1.6075,-1.77737 2.7515,-1.40625"
       style="fill:#4e5d6e;fill-opacity:1;fill-rule:nonzero;stroke:none"
       id="path3076" />
    <path
       inkscape:connector-curvature="0"
       d="m 12.843325,180.62209 c 0.98975,0.15675 1.652875,1.08162 1.495125,2.06887 -0.15625,0.97025 -1.07175,1.63963 -2.048375,1.48875 -0.98725,-0.15675 -1.657625,-1.07175 -1.501375,-2.0605 0.162,-0.97662 1.083,-1.644 2.054625,-1.49712"
       style="fill:#4e5d6e;fill-opacity:1;fill-rule:nonzero;stroke:none"
       id="path3078" />
    <path
       inkscape:connector-curvature="0"
       d="m 64.4937,222.61184 c 1.46375,2.01512 1.015,4.84237 -0.99875,6.30375 -2.0225,1.46875 -4.83875,1.0215 -6.30625,-0.9985 -1.47,-2.01663 -1.0225,-4.84138 0.99375,-6.30525 2.01625,-1.45987 4.8425,-1.0185 6.31125,1"
       style="fill:#96d325;fill-opacity:1;fill-rule:nonzero;stroke:none"
       id="path3080" />
    <path
       inkscape:connector-curvature="0"
       d="m 63.96995,212.12559 c 1.48875,1.48775 1.48875,3.89737 0,5.38525 -1.49625,1.48337 -3.89875,1.48725 -5.39,0 -1.48875,-1.48788 -1.48875,-3.8975 0,-5.38525 1.49125,-1.4825 3.9,-1.49125 5.39,0"
       style="fill:#96d325;fill-opacity:1;fill-rule:nonzero;stroke:none"
       id="path3082" />
    <path
       inkscape:connector-curvature="0"
       d="m 61.7687,203.22609 c 1.42125,1.03325 1.735,3.0205 0.705,4.437 -1.02625,1.42387 -3.01,1.73737 -4.43,0.70275 -1.425,-1.02788 -1.73875,-3.01525 -0.7075,-4.42875 1.03875,-1.42038 3.02125,-1.73687 4.4325,-0.711"
       style="fill:#96d325;fill-opacity:1;fill-rule:nonzero;stroke:none"
       id="path3084" />
    <path
       inkscape:connector-curvature="0"
       d="m 58.8062,196.19784 c 1.305,0.66262 1.82375,2.25637 1.1575,3.55763 -0.66,1.30074 -2.25625,1.81637 -3.5575,1.15674 -1.3,-0.66162 -1.82375,-2.25737 -1.15625,-3.55962 0.6675,-1.29788 2.2575,-1.82075 3.55625,-1.15475"
       style="fill:#96d325;fill-opacity:1;fill-rule:nonzero;stroke:none"
       id="path3086" />
    <path
       inkscape:connector-curvature="0"
       d="m 55.26245,190.75246 c 1.1475,0.37363 1.7725,1.6065 1.39625,2.75738 -0.36375,1.14837 -1.6025,1.7725 -2.75,1.39938 -1.14375,-0.37013 -1.77375,-1.61088 -1.40625,-2.75051 0.37375,-1.15037 1.615,-1.77587 2.76,-1.40625"
       style="fill:#96d325;fill-opacity:1;fill-rule:nonzero;stroke:none"
       id="path3088" />
    <path
       inkscape:connector-curvature="0"
       d="m 51.5637,186.76272 c 0.98875,0.149 1.655,1.06599 1.49625,2.05474 -0.16,0.98238 -1.0825,1.6455 -2.06125,1.497 -0.9815,-0.15675 -1.645625,-1.07862 -1.489375,-2.06437 0.15625,-0.97663 1.076875,-1.65038 2.054375,-1.48737"
       style="fill:#96d325;fill-opacity:1;fill-rule:nonzero;stroke:none"
       id="path3090" />
    <path
       inkscape:connector-curvature="0"
       d="m 77.3162,165.96959 c 2.3625,-0.7625 4.9125,0.535 5.68375,2.903 0.7725,2.3745 -0.52,4.9195 -2.89875,5.6875 -2.36625,0.7745 -4.90875,-0.52488 -5.68625,-2.8965 -0.77125,-2.374 0.5275,-4.91775 2.90125,-5.694"
       style="fill:#96d325;fill-opacity:1;fill-rule:nonzero;stroke:none"
       id="path3092" />
    <path
       inkscape:connector-curvature="0"
       d="m 67.1787,163.22959 c 1.87375,-0.95375 4.16125,-0.205 5.12125,1.66875 0.95625,1.86875 0.21,4.16025 -1.6675,5.11975 -1.86875,0.95512 -4.16875,0.2105 -5.1225,-1.66113 -0.95,-1.87737 -0.2075,-4.17487 1.66875,-5.12737"
       style="fill:#96d325;fill-opacity:1;fill-rule:nonzero;stroke:none"
       id="path3094" />
    <path
       inkscape:connector-curvature="0"
       d="m 58.0437,162.56834 c 1.42,-1.02625 3.40375,-0.715 4.43,0.71 1.03,1.41125 0.71625,3.39375 -0.705,4.42975 -1.41125,1.02775 -3.39625,0.70987 -4.43,-0.70562 -1.03375,-1.41663 -0.72,-3.40663 0.705,-4.43413"
       style="fill:#96d325;fill-opacity:1;fill-rule:nonzero;stroke:none"
       id="path3096" />
    <path
       inkscape:connector-curvature="0"
       d="m 50.4362,163.21959 c 1.02875,-1.035 2.705,-1.0375 3.7425,0 1.0275,1.0325 1.0275,2.70875 -0.0025,3.739 -1.035,1.03312 -2.7075,1.03312 -3.74,0 -1.038125,-1.03025 -1.038125,-2.7115 0,-3.739"
       style="fill:#96d325;fill-opacity:1;fill-rule:nonzero;stroke:none"
       id="path3098" />
    <path
       inkscape:connector-curvature="0"
       d="m 47.696825,167.47959 c -0.7055,0.97162 -2.075125,1.19425 -3.05175,0.48037 -0.9765,-0.7065 -1.19775,-2.07287 -0.481375,-3.05037 0.702125,-0.98125 2.075625,-1.195 3.04825,-0.48625 0.976625,0.705 1.20025,2.08125 0.484875,3.05625"
       style="fill:#96d325;fill-opacity:1;fill-rule:nonzero;stroke:none"
       id="path3100" />
    <path
       inkscape:connector-curvature="0"
       d="m 42.424325,168.81896 c -0.455,0.88563 -1.533125,1.24013 -2.416875,0.7885 -0.88725,-0.45162 -1.24125,-1.53275 -0.787125,-2.42287 0.44775,-0.88125 1.535625,-1.235 2.412125,-0.78375 0.8935,0.45175 1.246,1.53625 0.791875,2.41812"
       style="fill:#96d325;fill-opacity:1;fill-rule:nonzero;stroke:none"
       id="path3102" />
    <path
       inkscape:connector-curvature="0"
       d="m -16.2533,196.38096 c 2.368125,-0.78037 4.9155,0.52538 5.687,2.8945 0.766625,2.3745 -0.53075,4.915 -2.902875,5.689 -2.36575,0.7685 -4.913625,-0.53037 -5.683625,-2.8975 -0.77,-2.3745 0.525875,-4.91987 2.8995,-5.686"
       style="fill:#4e5d6e;fill-opacity:1;fill-rule:nonzero;stroke:none"
       id="path3104" />
    <path
       inkscape:connector-curvature="0"
       d="m -6.78855,200.91509 c 1.875,-0.94875 4.172875,-0.20063 5.126,1.67037 0.956125,1.87163 0.206625,4.16513 -1.666,5.12263 -1.8765,0.95262 -4.169875,0.2075 -5.1245,-1.666 -0.953625,-1.8765 -0.209,-4.17137 1.6645,-5.127"
       style="fill:#4e5d6e;fill-opacity:1;fill-rule:nonzero;stroke:none"
       id="path3106" />
    <path
       inkscape:connector-curvature="0"
       d="m 2.075325,203.22609 c 1.418375,-1.02587 3.406625,-0.70938 4.435,0.711 1.03025,1.4135 0.715375,3.396 -0.704625,4.42875 -1.412625,1.03462 -3.40325,0.72112 -4.429625,-0.70275 -1.03175,-1.4165 -0.714375,-3.40375 0.69925,-4.437"
       style="fill:#4e5d6e;fill-opacity:1;fill-rule:nonzero;stroke:none"
       id="path3108" />
    <path
       inkscape:connector-curvature="0"
       d="m 9.67045,203.98009 c 1.035125,-1.03275 2.7115,-1.03088 3.746625,0 1.03125,1.03075 1.03125,2.707 -0.0039,3.73925 -1.03125,1.03262 -2.707625,1.03612 -3.74275,0 -1.02875,-1.03225 -1.02875,-2.70763 0,-3.73925"
       style="fill:#4e5d6e;fill-opacity:1;fill-rule:nonzero;stroke:none"
       id="path3110" />
    <path
       inkscape:connector-curvature="0"
       d="m 19.687575,206.02696 c -0.703125,0.98088 -2.080125,1.19475 -3.055125,0.48625 -0.976625,-0.709 -1.1905,-2.07512 -0.48,-3.05125 0.709,-0.9795 2.076625,-1.19725 3.05275,-0.48775 0.972125,0.71188 1.189375,2.0815 0.482375,3.05275"
       style="fill:#4e5d6e;fill-opacity:1;fill-rule:nonzero;stroke:none"
       id="path3112" />
    <path
       inkscape:connector-curvature="0"
       d="m 24.62895,203.75009 c -0.44925,0.88575 -1.534125,1.23287 -2.419375,0.78562 -0.88725,-0.45162 -1.237875,-1.53024 -0.78375,-2.41987 0.44925,-0.88088 1.527375,-1.23688 2.423375,-0.78863 0.879875,0.4555 1.23725,1.53713 0.77975,2.42288"
       style="fill:#4e5d6e;fill-opacity:1;fill-rule:nonzero;stroke:none"
       id="path3114" />
    <path
       inkscape:connector-curvature="0"
       d="m 36.438075,136.27709 c 0,2.49125 -2.016625,4.51375 -4.51325,4.51375 -2.493625,0 -4.512625,-2.0225 -4.512625,-4.51375 0,-2.4925 2.019,-4.51375 4.512625,-4.51375 2.496625,0 4.51325,2.02125 4.51325,4.51375"
       style="fill:#96d325;fill-opacity:1;fill-rule:nonzero;stroke:none"
       id="path3116" />
    <path
       inkscape:connector-curvature="0"
       d="m 21.66995,145.06834 c -0.3335,-2.08 1.0875,-4.02375 3.168,-4.35625 2.07525,-0.33125 4.0195,1.08625 4.358875,3.16625 0.32375,2.07125 -1.09225,4.03 -3.168,4.35625 -2.082,0.33375 -4.02925,-1.08625 -4.358875,-3.16625"
       style="fill:#96d325;fill-opacity:1;fill-rule:nonzero;stroke:none"
       id="path3118" />
    <path
       inkscape:connector-curvature="0"
       d="m 24.25695,151.59334 c 0.542,1.66375 -0.379875,3.45625 -2.041,3.9975 -1.6675,0.54 -3.457625,-0.37 -3.999625,-2.03375 -0.539,-1.66875 0.372625,-3.46125 2.039125,-4 1.6675,-0.54125 3.458,0.37 4.0015,2.03625"
       style="fill:#96d325;fill-opacity:1;fill-rule:nonzero;stroke:none"
       id="path3120" />
    <path
       inkscape:connector-curvature="0"
       d="m 21.200325,158.58459 c 0.6625,1.30125 0.136125,2.8925 -1.16125,3.5625 -1.303625,0.65625 -2.8955,0.14125 -3.5605,-1.165 -0.660625,-1.2975 -0.138125,-2.88875 1.15825,-3.54875 1.305125,-0.665 2.8945,-0.1525 3.5635,1.15125"
       style="fill:#96d325;fill-opacity:1;fill-rule:nonzero;stroke:none"
       id="path3122" />
    <path
       inkscape:connector-curvature="0"
       d="m 19.687575,164.90959 c 0.707,0.9775 0.48975,2.34387 -0.482375,3.05237 -0.976125,0.71188 -2.34375,0.48925 -3.05275,-0.48237 -0.7105,-0.975 -0.496625,-2.34875 0.48,-3.05625 0.975,-0.70875 2.352,-0.495 3.055125,0.48625"
       style="fill:#96d325;fill-opacity:1;fill-rule:nonzero;stroke:none"
       id="path3124" />
    <path
       inkscape:connector-curvature="0"
       d="m 19.33845,170.33496 c 0.702125,0.70225 0.700625,1.84775 0,2.54838 -0.704125,0.70363 -1.84175,0.69875 -2.546375,0 -0.703125,-0.7085 -0.703125,-1.84125 -0.0034,-2.54838 0.708,-0.70262 1.845625,-0.70262 2.54975,0"
       style="fill:#96d325;fill-opacity:1;fill-rule:nonzero;stroke:none"
       id="path3126" />
    <path
       inkscape:connector-curvature="0"
       d="m 36.438075,234.66309 c 0,2.49125 -2.016625,4.51375 -4.51325,4.51375 -2.493625,0 -4.512625,-2.0225 -4.512625,-4.51375 0,-2.49113 2.019,-4.516 4.512625,-4.516 2.496625,0 4.51325,2.02487 4.51325,4.516"
       style="fill:#4e5d6e;fill-opacity:1;fill-rule:nonzero;stroke:none"
       id="path3128" />
    <path
       inkscape:connector-curvature="0"
       d="m 34.657325,227.06059 c -0.329625,-2.081 1.088875,-4.02875 3.168375,-4.36138 2.067875,-0.3285 4.021,1.09138 4.34725,3.17238 0.3295,2.07525 -1.081625,4.0255 -3.15925,4.35162 -2.079,0.3325 -4.02825,-1.085 -4.356375,-3.16262"
       style="fill:#4e5d6e;fill-opacity:1;fill-rule:nonzero;stroke:none"
       id="path3130" />
    <path
       inkscape:connector-curvature="0"
       d="m 45.63245,217.38046 c 0.541875,1.66888 -0.376,3.4575 -2.039625,4.00238 -1.668,0.543 -3.4585,-0.376 -3.999,-2.03713 -0.541,-1.66737 0.369625,-3.45987 2.036125,-4.00237 1.6675,-0.53913 3.464375,0.37112 4.0025,2.03712"
       style="fill:#4e5d6e;fill-opacity:1;fill-rule:nonzero;stroke:none"
       id="path3132" />
    <path
       inkscape:connector-curvature="0"
       d="m 47.36095,209.94921 c 0.670375,1.30525 0.1465,2.89113 -1.1485,3.55626 -1.30125,0.66499 -2.8955,0.14737 -3.564375,-1.15488 -0.653375,-1.30263 -0.145625,-2.8935 1.159625,-3.55513 1.306125,-0.665 2.8965,-0.145 3.55325,1.15375"
       style="fill:#4e5d6e;fill-opacity:1;fill-rule:nonzero;stroke:none"
       id="path3134" />
    <path
       inkscape:connector-curvature="0"
       d="m 47.696825,203.46196 c 0.715375,0.97213 0.49175,2.34225 -0.484875,3.05375 -0.972625,0.706 -2.346125,0.49213 -3.05025,-0.48875 -0.708,-0.97125 -0.493125,-2.34087 0.483375,-3.05275 0.976625,-0.7085 2.34625,-0.49175 3.05175,0.48775"
       style="fill:#4e5d6e;fill-opacity:1;fill-rule:nonzero;stroke:none"
       id="path3136" />
    <path
       inkscape:connector-curvature="0"
       d="m 47.052325,198.05621 c 0.703125,0.70363 0.703125,1.84125 0,2.54488 -0.701125,0.70075 -1.8335,0.70075 -2.5445,0 -0.701625,-0.69875 -0.701625,-1.84425 0.005,-2.54488 0.701125,-0.70362 1.834875,-0.70362 2.5395,0"
       style="fill:#4e5d6e;fill-opacity:1;fill-rule:nonzero;stroke:none"
       id="path3138" />
    <path
       inkscape:connector-curvature="0"
       d="m 51.4237,140.07584 c -0.775,2.37375 -3.320625,3.67375 -5.69125,2.9 -2.374,-0.77125 -3.669375,-3.3175 -2.897875,-5.68625 0.763125,-2.37875 3.309,-3.67375 5.682625,-2.8975 2.3715,0.77375 3.6715,3.3175 2.9065,5.68375"
       style="fill:#c53753;fill-opacity:1;fill-rule:nonzero;stroke:none"
       id="path3140" />
    <path
       inkscape:connector-curvature="0"
       d="m 34.657325,143.87834 c 0.328125,-2.08 2.28225,-3.495 4.356375,-3.16625 2.077625,0.3325 3.48875,2.27625 3.168,4.36125 -0.335,2.075 -2.288125,3.49 -4.36275,3.16125 -2.07275,-0.32625 -3.495125,-2.28 -3.161625,-4.35625"
       style="fill:#c53753;fill-opacity:1;fill-rule:nonzero;stroke:none"
       id="path3142" />
    <path
       inkscape:connector-curvature="0"
       d="m 35.0962,150.87834 c 0,1.7575 -1.417875,3.1775 -3.171375,3.1775 -1.755375,0 -3.17325,-1.42 -3.17325,-3.1775 0,-1.7525 1.417875,-3.17125 3.17325,-3.17125 1.7535,0 3.171375,1.41875 3.171375,3.17125"
       style="fill:#c53753;fill-opacity:1;fill-rule:nonzero;stroke:none"
       id="path3144" />
    <path
       inkscape:connector-curvature="0"
       d="m 30.02695,156.58709 c 0.2255,1.44375 -0.754375,2.7975 -2.196375,3.025 -1.441375,0.22625 -2.79975,-0.75625 -3.02825,-2.1975 -0.2295,-1.44 0.75925,-2.79625 2.19725,-3.025 1.444375,-0.23125 2.796875,0.7525 3.027375,2.1975"
       style="fill:#c53753;fill-opacity:1;fill-rule:nonzero;stroke:none"
       id="path3146" />
    <path
       inkscape:connector-curvature="0"
       d="m 26.644575,162.12834 c 0.373125,1.15 -0.26025,2.38625 -1.408625,2.75875 -1.145,0.37375 -2.380375,-0.25625 -2.7505,-1.40375 -0.376,-1.1475 0.2505,-2.38375 1.402375,-2.75625 1.147875,-0.37125 2.378375,0.255 2.75675,1.40125"
       style="fill:#c53753;fill-opacity:1;fill-rule:nonzero;stroke:none"
       id="path3148" />
    <path
       inkscape:connector-curvature="0"
       d="m 24.62895,167.18946 c 0.453125,0.88238 0.09425,1.96638 -0.7885,2.418 -0.88725,0.45513 -1.965375,0.104 -2.421875,-0.7885 -0.446875,-0.88187 -0.09137,-1.9635 0.786125,-2.41312 0.895,-0.45875 1.9765,-0.1025 2.42425,0.78363"
       style="fill:#c53753;fill-opacity:1;fill-rule:nonzero;stroke:none"
       id="path3150" />
    <path
       inkscape:connector-curvature="0"
       d="m 21.0132,233.64559 c -0.764125,2.3725 -3.313875,3.67137 -5.688375,2.89887 -2.369625,-0.7715 -3.667,-3.31637 -2.893125,-5.685 0.769,-2.37012 3.3155,-3.6665 5.681125,-2.8975 2.373125,0.7725 3.671875,3.3135 2.900375,5.68363"
       style="fill:#65cbb8;fill-opacity:1;fill-rule:nonzero;stroke:none"
       id="path3152" />
    <path
       inkscape:connector-curvature="0"
       d="m 21.66995,225.87159 c 0.329625,-2.081 2.28525,-3.50087 4.361875,-3.17238 2.07275,0.33263 3.48875,2.28125 3.15525,4.3575 -0.32475,2.0815 -2.27875,3.499 -4.349125,3.1665 -2.0805,-0.32612 -3.4985,-2.28275 -3.168,-4.35162"
       style="fill:#65cbb8;fill-opacity:1;fill-rule:nonzero;stroke:none"
       id="path3154" />
    <path
       inkscape:connector-curvature="0"
       d="m 35.0962,220.05571 c 0,1.7525 -1.417875,3.17725 -3.171375,3.17725 -1.755375,0 -3.17325,-1.42475 -3.17325,-3.17725 0,-1.75237 1.417875,-3.17287 3.17325,-3.17287 1.7535,0 3.171375,1.4205 3.171375,3.17287"
       style="fill:#65cbb8;fill-opacity:1;fill-rule:nonzero;stroke:none"
       id="path3156" />
    <path
       inkscape:connector-curvature="0"
       d="m 39.040575,213.52209 c 0.232,1.44475 -0.752875,2.79825 -2.19475,3.02725 -1.445375,0.2325 -2.794,-0.75875 -3.020125,-2.20113 -0.230375,-1.439 0.7545,-2.79487 2.19,-3.02 1.441875,-0.23 2.80175,0.75238 3.024875,2.19388"
       style="fill:#65cbb8;fill-opacity:1;fill-rule:nonzero;stroke:none"
       id="path3158" />
    <path
       inkscape:connector-curvature="0"
       d="m 41.3672,207.45071 c 0.369625,1.14988 -0.25625,2.38475 -1.40375,2.76125 -1.1475,0.36625 -2.38525,-0.26025 -2.753875,-1.40525 -0.3745,-1.14987 0.25875,-2.38475 1.400375,-2.75487 1.148375,-0.37263 2.38525,0.25387 2.75725,1.39887"
       style="fill:#65cbb8;fill-opacity:1;fill-rule:nonzero;stroke:none"
       id="path3160" />
    <path
       inkscape:connector-curvature="0"
       d="m 42.424325,202.11584 c 0.45275,0.88525 0.09187,1.96475 -0.787,2.41987 -0.882875,0.456 -1.96925,0.10013 -2.4185,-0.78762 -0.44925,-0.88375 -0.09375,-1.96338 0.77875,-2.418 0.893625,-0.45313 1.975125,-0.1015 2.42675,0.78575"
       style="fill:#65cbb8;fill-opacity:1;fill-rule:nonzero;stroke:none"
       id="path3162" />
    <path
       inkscape:connector-curvature="0"
       d="m -17.268925,180.95459 c 2.493625,0 4.511125,2.0235 4.511125,4.51375 0,2.49512 -2.0175,4.51662 -4.511125,4.51662 -2.495125,0 -4.51475,-2.0215 -4.51475,-4.51662 0,-2.49025 2.0215,-4.51375 4.51475,-4.51375"
       style="fill:#65cbb8;fill-opacity:1;fill-rule:nonzero;stroke:none"
       id="path3164" />
    <path
       inkscape:connector-curvature="0"
       d="m -9.667925,188.19834 c 2.077625,-0.32763 4.029375,1.08787 4.357,3.167 0.3305,2.07712 -1.082125,4.02975 -3.168,4.35737 -2.07525,0.332 -4.025875,-1.08637 -4.357,-3.16412 -0.325625,-2.07712 1.091875,-4.03125 3.168,-4.36025"
       style="fill:#65cbb8;fill-opacity:1;fill-rule:nonzero;stroke:none"
       id="path3166" />
    <path
       inkscape:connector-curvature="0"
       d="m -1.95405,193.13534 c 1.666,-0.5405 3.4595,0.376 4.0025,2.0385 0.536125,1.6695 -0.36875,3.461 -2.041,3.99862 -1.665125,0.54388 -3.45225,-0.36674 -3.995125,-2.03125 -0.5445,-1.6705 0.367125,-3.46049 2.033625,-4.00587"
       style="fill:#65cbb8;fill-opacity:1;fill-rule:nonzero;stroke:none"
       id="path3168" />
    <path
       inkscape:connector-curvature="0"
       d="m 5.040575,196.19296 c 1.30225,-0.66112 2.8965,-0.13825 3.555625,1.1645 0.6675,1.29738 0.153875,2.89313 -1.15625,3.55475 -1.29975,0.6645 -2.890625,0.14988 -3.557125,-1.15675 -0.665,-1.30125 -0.1435,-2.9 1.15775,-3.5625"
       style="fill:#65cbb8;fill-opacity:1;fill-rule:nonzero;stroke:none"
       id="path3170" />
    <path
       inkscape:connector-curvature="0"
       d="m 11.36145,197.70509 c 0.9765,-0.70988 2.34225,-0.48875 3.055125,0.483 0.711375,0.97462 0.48825,2.34613 -0.481875,3.05612 -0.9795,0.7095 -2.34525,0.49563 -3.058125,-0.48637 -0.70225,-0.97463 -0.488375,-2.34075 0.484875,-3.05275"
       style="fill:#65cbb8;fill-opacity:1;fill-rule:nonzero;stroke:none"
       id="path3172" />
    <path
       inkscape:connector-curvature="0"
       d="m 16.792075,198.05334 c 0.704625,-0.70075 1.84225,-0.69925 2.543,0 0.7055,0.7035 0.7055,1.83975 0,2.54775 -0.70075,0.69587 -1.835,0.70075 -2.543,-0.003 -0.703125,-0.70075 -0.703125,-1.8365 0,-2.54487"
       style="fill:#65cbb8;fill-opacity:1;fill-rule:nonzero;stroke:none"
       id="path3174" />
    <path
       inkscape:connector-curvature="0"
       d="m 81.12245,180.95459 c 2.48125,0 4.50875,2.0235 4.50875,4.51375 0,2.49512 -2.0275,4.51662 -4.50875,4.51662 -2.4975,0 -4.51875,-2.0215 -4.51875,-4.51375 0,-2.49312 2.02125,-4.51662 4.51875,-4.51662"
       style="fill:#c53753;fill-opacity:1;fill-rule:nonzero;stroke:none"
       id="path3176" />
    <path
       inkscape:connector-curvature="0"
       d="m 72.32745,175.21196 c 2.075,-0.32612 4.0275,1.09138 4.35625,3.1655 0.33,2.08163 -1.09,4.02988 -3.16625,4.35888 -2.07875,0.33262 -4.0275,-1.08588 -4.35625,-3.163 -0.3325,-2.07763 1.08,-4.03175 3.16625,-4.36138"
       style="fill:#c53753;fill-opacity:1;fill-rule:nonzero;stroke:none"
       id="path3178" />
    <path
       inkscape:connector-curvature="0"
       d="m 63.8412,171.76709 c 1.66625,-0.54688 3.45125,0.36675 4.00125,2.03325 0.54125,1.6655 -0.3775,3.45262 -2.04125,3.99762 -1.66625,0.54238 -3.46125,-0.36825 -3.99875,-2.03225 -0.54,-1.6695 0.37,-3.46537 2.03875,-3.99862"
       style="fill:#c53753;fill-opacity:1;fill-rule:nonzero;stroke:none"
       id="path3180" />
    <path
       inkscape:connector-curvature="0"
       d="m 56.4062,170.02734 c 1.30125,-0.664 2.8975,-0.14687 3.55375,1.15675 0.66625,1.30087 0.15125,2.89312 -1.15375,3.55762 -1.305,0.66163 -2.88875,0.14313 -3.55375,-1.15475 -0.66,-1.30712 -0.15,-2.90087 1.15375,-3.55962"
       style="fill:#c53753;fill-opacity:1;fill-rule:nonzero;stroke:none"
       id="path3182" />
    <path
       inkscape:connector-curvature="0"
       d="m 49.917075,169.69534 c 0.976625,-0.7085 2.346625,-0.49563 3.047875,0.48587 0.715,0.97163 0.49875,2.33838 -0.48,3.05325 -0.97375,0.7095 -2.33875,0.48875 -3.05375,-0.48587 -0.710375,-0.978 -0.491625,-2.34325 0.485875,-3.05325"
       style="fill:#c53753;fill-opacity:1;fill-rule:nonzero;stroke:none"
       id="path3184" />
    <path
       inkscape:connector-curvature="0"
       d="m 44.512825,170.33646 c 0.702125,-0.70412 1.838375,-0.69925 2.545375,0.005 0.702125,0.69587 0.702125,1.8365 -0.0039,2.5435 -0.703125,0.7065 -1.840375,0.69725 -2.53525,0 -0.712875,-0.70213 -0.711375,-1.84275 -0.0063,-2.54838"
       style="fill:#c53753;fill-opacity:1;fill-rule:nonzero;stroke:none"
       id="path3186" />
    <path
       inkscape:connector-curvature="0"
       d="m -5.22305,152.90084 c 2.022375,1.46875 2.46825,4.29 0.994625,6.30625 -1.4585,2.0175 -4.28225,2.465 -6.298875,0.9975 -2.01025,-1.46375 -2.464875,-4.28875 -1.003375,-6.3 1.46575,-2.01625 4.298375,-2.4725 6.307625,-1.00375"
       style="fill:#c53753;fill-opacity:1;fill-rule:nonzero;stroke:none"
       id="path3188" />
    <path
       inkscape:connector-curvature="0"
       d="m -3.32855,163.22959 c 1.872625,0.95875 2.622125,3.25375 1.666,5.12737 -0.953125,1.86675 -3.251,2.62013 -5.126,1.65825 -1.8735,-0.94974 -2.618125,-3.24075 -1.6645,-5.11687 0.958,-1.87375 3.252,-2.6225 5.1245,-1.66875"
       style="fill:#c53753;fill-opacity:1;fill-rule:nonzero;stroke:none"
       id="path3190" />
    <path
       inkscape:connector-curvature="0"
       d="m 0.00745,171.76709 c 1.67225,0.53325 2.577125,2.32912 2.04,3.99862 -0.542,1.664 -2.3355,2.57463 -4.0015,2.03225 -1.6665,-0.54499 -2.578125,-2.33212 -2.033625,-3.99762 0.536625,-1.6665 2.33,-2.58013 3.995125,-2.03325"
       style="fill:#c53753;fill-opacity:1;fill-rule:nonzero;stroke:none"
       id="path3192" />
    <path
       inkscape:connector-curvature="0"
       d="m 3.866325,178.34671 c 1.44625,0.2285 2.428625,1.5865 2.199125,3.02788 -0.2255,1.4385 -1.5815,2.42912 -3.02925,2.19725 -1.4355,-0.229 -2.419375,-1.5825 -2.190375,-3.02788 0.2245,-1.4355 1.5785,-2.42912 3.0205,-2.19725"
       style="fill:#c53753;fill-opacity:1;fill-rule:nonzero;stroke:none"
       id="path3194" />
    <path
       inkscape:connector-curvature="0"
       d="m 8.0982,183.28184 c 1.203625,0 2.185125,0.98287 2.185125,2.1865 0,1.20362 -0.9815,2.184 -2.185125,2.184 -1.2085,0.007 -2.189875,-0.98038 -2.189875,-2.184 0,-1.20363 0.981375,-2.1865 2.189875,-2.1865"
       style="fill:#c53753;fill-opacity:1;fill-rule:nonzero;stroke:none"
       id="path3196" />
    <path
       inkscape:connector-curvature="0"
       d="m 12.2837,186.76272 c 0.983,-0.15376 1.903375,0.50487 2.059625,1.48737 0.152875,0.98575 -0.517625,1.90762 -1.492625,2.06437 -0.985375,0.15001 -1.904875,-0.51462 -2.062,-1.4985 -0.16125,-0.98437 0.519,-1.898 1.495,-2.05324"
       style="fill:#c53753;fill-opacity:1;fill-rule:nonzero;stroke:none"
       id="path3198" />
    <path
       inkscape:connector-curvature="0"
       d="m 74.37495,210.73046 c 2.01875,1.46388 2.4675,4.29013 0.99375,6.31013 -1.46,2.01025 -4.2775,2.46488 -6.3,0.99512 -2.02,-1.46387 -2.46875,-4.2925 -0.99875,-6.30612 1.46625,-2.01275 4.28875,-2.46288 6.305,-0.99913"
       style="fill:#65cbb8;fill-opacity:1;fill-rule:nonzero;stroke:none"
       id="path3200" />
    <path
       inkscape:connector-curvature="0"
       d="m 70.63495,200.91509 c 1.875,0.95562 2.62125,3.2505 1.66375,5.127 -0.95875,1.8735 -3.24625,2.61862 -5.12,1.666 -1.87625,-0.9575 -2.62375,-3.251 -1.66875,-5.12263 0.9625,-1.8745 3.25625,-2.623 5.125,-1.67037"
       style="fill:#65cbb8;fill-opacity:1;fill-rule:nonzero;stroke:none"
       id="path3202" />
    <path
       inkscape:connector-curvature="0"
       d="m 65.8012,193.13534 c 1.66375,0.54538 2.5825,2.33537 2.03375,4.00587 -0.5425,1.66451 -2.3275,2.57513 -3.99375,2.03125 -1.66875,-0.53762 -2.57875,-2.32912 -2.04375,-3.99375 0.5425,-1.66737 2.3375,-2.58387 4.00375,-2.04337"
       style="fill:#65cbb8;fill-opacity:1;fill-rule:nonzero;stroke:none"
       id="path3204" />
    <path
       inkscape:connector-curvature="0"
       d="m 60.8037,187.36771 c 1.44625,0.22563 2.42875,1.57963 2.2,3.02488 -0.23,1.4415 -1.58,2.42725 -3.02625,2.19725 -1.4425,-0.227 -2.42625,-1.5815 -2.19625,-3.02 0.22625,-1.44525 1.58375,-2.434 3.0225,-2.20213"
       style="fill:#65cbb8;fill-opacity:1;fill-rule:nonzero;stroke:none"
       id="path3206" />
    <path
       inkscape:connector-curvature="0"
       d="m 55.7537,183.28184 c 1.21,0 2.18625,0.98287 2.18625,2.1865 0,1.20362 -0.97625,2.184 -2.18625,2.184 -1.2075,0.007 -2.185,-0.98038 -2.185,-2.184 0,-1.20363 0.9775,-2.1865 2.185,-2.1865"
       style="fill:#65cbb8;fill-opacity:1;fill-rule:nonzero;stroke:none"
       id="path3208" />
    <path
       inkscape:connector-curvature="0"
       d="m 50.9987,180.62559 c 0.98375,-0.15038 1.9075,0.51212 2.06125,1.498 0.1525,0.98437 -0.51875,1.89937 -1.49625,2.05612 -0.9775,0.15088 -1.9015,-0.51362 -2.054375,-1.49162 -0.15625,-0.98438 0.51275,-1.90288 1.489375,-2.0625"
       style="fill:#65cbb8;fill-opacity:1;fill-rule:nonzero;stroke:none"
       id="path3210" />
    <path
       inkscape:connector-curvature="0"
       d="m 69.0687,152.90084 c 2.01625,-1.46875 4.84,-1.0125 6.3,1 1.47375,2.015 1.0275,4.84 -0.99375,6.30875 -2.01625,1.4625 -4.84125,1.015 -6.305,-1.0025 -1.46125,-2.01625 -1.02125,-4.8375 0.99875,-6.30625"
       style="fill:#65cbb8;fill-opacity:1;fill-rule:nonzero;stroke:none"
       id="path3212" />
    <path
       inkscape:connector-curvature="0"
       d="m 58.57995,153.42834 c 1.49125,-1.49125 3.8975,-1.49125 5.38625,0 1.4925,1.48875 1.4925,3.8975 0,5.38375 -1.48875,1.48625 -3.895,1.48625 -5.38625,0.002 -1.48625,-1.48875 -1.48625,-3.90125 0,-5.38625"
       style="fill:#65cbb8;fill-opacity:1;fill-rule:nonzero;stroke:none"
       id="path3214" />
    <path
       inkscape:connector-curvature="0"
       d="m 54.81995,159.35209 c -1.02875,1.42 -3.015,1.7325 -4.4325,0.69625 -1.41525,-1.02375 -1.729125,-3.00625 -0.700875,-4.42625 1.030875,-1.42 3.012125,-1.735 4.434625,-0.705 1.41875,1.03375 1.73125,3.015 0.69875,4.435"
       style="fill:#65cbb8;fill-opacity:1;fill-rule:nonzero;stroke:none"
       id="path3216" />
    <path
       inkscape:connector-curvature="0"
       d="m 47.3682,160.98834 c -0.664,1.3 -2.254375,1.82 -3.562,1.1525 -1.297875,-0.6575 -1.82125,-2.25 -1.148375,-3.55625 0.657625,-1.30375 2.251875,-1.81625 3.54975,-1.15375 1.299875,0.6575 1.820875,2.25375 1.160625,3.5575"
       style="fill:#65cbb8;fill-opacity:1;fill-rule:nonzero;stroke:none"
       id="path3218" />
    <path
       inkscape:connector-curvature="0"
       d="m 41.3672,163.48334 c -0.372,1.1475 -1.608875,1.7725 -2.75725,1.40375 -1.143125,-0.3725 -1.774875,-1.60875 -1.400375,-2.75875 0.368625,-1.14625 1.606375,-1.775 2.753875,-1.39875 1.1475,0.37 1.773375,1.60625 1.40375,2.75375"
       style="fill:#65cbb8;fill-opacity:1;fill-rule:nonzero;stroke:none"
       id="path3220" />
    <path
       inkscape:connector-curvature="0"
       d="m 36.768575,166.38709 c -0.15325,0.989 -1.076125,1.653 -2.067875,1.50312 -0.971125,-0.16312 -1.637625,-1.08162 -1.492625,-2.05562 0.162625,-0.98875 1.079125,-1.65875 2.065375,-1.5025 0.974125,0.16 1.648,1.08 1.495125,2.055"
       style="fill:#65cbb8;fill-opacity:1;fill-rule:nonzero;stroke:none"
       id="path3222" />
    <path
       inkscape:connector-curvature="0"
       d="m -10.5273,210.73046 c 2.016625,-1.46375 4.840375,-1.0175 6.308625,0.99913 1.463875,2.01363 1.018,4.83975 -1.004375,6.30612 -2.014125,1.46976 -4.834,1.01513 -6.297875,-0.99512 -1.47125,-2.02 -1.0215,-4.84625 0.993625,-6.31013"
       style="fill:#c53753;fill-opacity:1;fill-rule:nonzero;stroke:none"
       id="path3224" />
    <path
       inkscape:connector-curvature="0"
       d="m -0.117175,212.12559 c 1.485875,-1.49125 3.895625,-1.49125 5.38825,0 1.484375,1.48775 1.484375,3.89737 0,5.38525 -1.492625,1.48725 -3.901375,1.48725 -5.38825,0 -1.48925,-1.48538 -1.48925,-3.8975 0,-5.38525"
       style="fill:#c53753;fill-opacity:1;fill-rule:nonzero;stroke:none"
       id="path3226" />
    <path
       inkscape:connector-curvature="0"
       d="m 14.165075,215.31796 c -1.032625,1.4165 -3.0185,1.73138 -4.439375,0.70163 -1.412625,-1.03413 -1.73,-3.01763 -0.69825,-4.43163 1.03125,-1.42 3.013625,-1.73975 4.432125,-0.70462 1.4175,1.02737 1.734875,3.01613 0.7055,4.43463"
       style="fill:#c53753;fill-opacity:1;fill-rule:nonzero;stroke:none"
       id="path3228" />
    <path
       inkscape:connector-curvature="0"
       d="m 21.200325,212.34671 c -0.669,1.30613 -2.26225,1.82375 -3.5635,1.15875 -1.296375,-0.66512 -1.815,-2.251 -1.15825,-3.55625 0.665,-1.29875 2.254375,-1.81875 3.562,-1.15712 1.295875,0.665 1.817375,2.25587 1.15975,3.55462"
       style="fill:#c53753;fill-opacity:1;fill-rule:nonzero;stroke:none"
       id="path3230" />
    <path
       inkscape:connector-curvature="0"
       d="m 26.644575,208.80671 c -0.378375,1.145 -1.608875,1.77638 -2.75675,1.40525 -1.15825,-0.3725 -1.778375,-1.6065 -1.402375,-2.76125 0.370125,-1.145 1.6055,-1.7715 2.7505,-1.39887 1.148375,0.37012 1.78175,1.605 1.408625,2.75487"
       style="fill:#c53753;fill-opacity:1;fill-rule:nonzero;stroke:none"
       id="path3232" />
    <path
       inkscape:connector-curvature="0"
       d="m 30.6397,205.10546 c -0.159625,0.98488 -1.077625,1.65538 -2.0605,1.49913 -0.983,-0.16412 -1.652875,-1.08012 -1.503875,-2.05663 0.160125,-0.98787 1.076625,-1.65675 2.06775,-1.49862 0.97325,0.16312 1.6465,1.07863 1.496625,2.05612"
       style="fill:#c53753;fill-opacity:1;fill-rule:nonzero;stroke:none"
       id="path3234" />
    <path
       inkscape:connector-curvature="0"
       d="m 21.0132,137.28959 c 0.7715,2.36875 -0.52725,4.915 -2.900375,5.68625 -2.36175,0.77375 -4.912125,-0.52625 -5.681125,-2.9 -0.773875,-2.36625 0.52975,-4.915 2.893125,-5.67875 2.3745,-0.77875 4.92425,0.51375 5.688375,2.8925"
       style="fill:#65cbb8;fill-opacity:1;fill-rule:nonzero;stroke:none"
       id="path3236" />
    <path
       inkscape:connector-curvature="0"
       d="m 16.477075,146.75459 c 0.95125,1.8775 0.196875,4.16875 -1.668375,5.1225 -1.874,0.96 -4.165625,0.215 -5.11625,-1.66375 -0.9595,-1.875 -0.214875,-4.16625 1.65875,-5.1175 1.873,-0.9575 4.168875,-0.2125 5.125875,1.65875"
       style="fill:#65cbb8;fill-opacity:1;fill-rule:nonzero;stroke:none"
       id="path3238" />
    <path
       inkscape:connector-curvature="0"
       d="m 14.165075,155.62209 c 1.029375,1.42 0.712,3.4025 -0.7055,4.43125 -1.4185,1.02625 -3.400875,0.71875 -4.432125,-0.70375 -1.03175,-1.4175 -0.714375,-3.39875 0.69825,-4.4325 1.420875,-1.0275 3.40675,-0.715 4.439375,0.705"
       style="fill:#65cbb8;fill-opacity:1;fill-rule:nonzero;stroke:none"
       id="path3240" />
    <path
       inkscape:connector-curvature="0"
       d="m 13.417075,163.21459 c 1.03125,1.0325 1.03125,2.71375 -0.0039,3.74 -1.03125,1.03712 -2.707625,1.03712 -3.74125,0 -1.03025,-1.02625 -1.035125,-2.7075 0,-3.735 1.02875,-1.02875 2.71,-1.035 3.745125,-0.005"
       style="fill:#65cbb8;fill-opacity:1;fill-rule:nonzero;stroke:none"
       id="path3242" />
    <path
       inkscape:connector-curvature="0"
       d="m 13.9347,169.69534 c 0.970125,0.71 1.19325,2.07525 0.480875,3.05325 -0.711875,0.97462 -2.077625,1.19537 -3.054125,0.481 -0.97175,-0.71 -1.187125,-2.07675 -0.476125,-3.04838 0.69925,-0.9815 2.069875,-1.19437 3.049375,-0.48587"
       style="fill:#65cbb8;fill-opacity:1;fill-rule:nonzero;stroke:none"
       id="path3244" />
    <path
       inkscape:connector-curvature="0"
       d="m 15.272575,174.96784 c 0.888625,0.45262 1.24025,1.53275 0.786125,2.42287 -0.444375,0.88376 -1.527375,1.24413 -2.416,0.78363 -0.88625,-0.45163 -1.237875,-1.53313 -0.786125,-2.417 0.453125,-0.88963 1.534625,-1.24113 2.416,-0.7895"
       style="fill:#65cbb8;fill-opacity:1;fill-rule:nonzero;stroke:none"
       id="path3246" />
    <path
       inkscape:connector-curvature="0"
       d="m 51.4237,230.85946 c 0.765,2.36863 -0.535,4.9135 -2.9065,5.685 -2.36575,0.7725 -4.9195,-0.52637 -5.686625,-2.89887 -0.7675,-2.37013 0.53375,-4.91113 2.901875,-5.68363 2.370625,-0.76899 4.91625,0.52738 5.69125,2.8975"
       style="fill:#c53753;fill-opacity:1;fill-rule:nonzero;stroke:none"
       id="path3248" />
    <path
       inkscape:connector-curvature="0"
       d="m 54.1562,220.72171 c 0.95875,1.874 0.21,4.1675 -1.65875,5.11863 -1.87375,0.95662 -4.16825,0.21637 -5.12525,-1.65713 -0.956125,-1.88137 -0.21,-4.17 1.661125,-5.1265 1.877875,-0.95362 4.176625,-0.20749 5.122875,1.66501"
       style="fill:#c53753;fill-opacity:1;fill-rule:nonzero;stroke:none"
       id="path3250" />
    <path
       inkscape:connector-curvature="0"
       d="m 54.81995,211.58796 c 1.0325,1.414 0.72,3.40138 -0.69875,4.43163 -1.4225,1.02837 -3.40375,0.71487 -4.434625,-0.70163 -1.02825,-1.4185 -0.714375,-3.40725 0.699625,-4.43462 1.41875,-1.03513 3.405,-0.71538 4.43375,0.70462"
       style="fill:#c53753;fill-opacity:1;fill-rule:nonzero;stroke:none"
       id="path3252" />
    <path
       inkscape:connector-curvature="0"
       d="m 54.1762,203.98009 c 1.03,1.03162 1.03,2.707 -0.0038,3.73925 -1.02625,1.03612 -2.7075,1.03612 -3.73625,0 -1.038125,-1.03225 -1.038125,-2.70763 0,-3.73925 1.02875,-1.03275 2.71,-1.03275 3.74,0"
       style="fill:#c53753;fill-opacity:1;fill-rule:nonzero;stroke:none"
       id="path3254" />
    <path
       inkscape:connector-curvature="0"
       d="m 52.48495,197.70509 c 0.97875,0.712 1.18875,2.07812 0.48,3.05275 -0.70125,0.982 -2.07,1.19587 -3.047875,0.48637 -0.9775,-0.70999 -1.19625,-2.0815 -0.485875,-3.05612 0.715,-0.97175 2.08,-1.19288 3.05375,-0.483"
       style="fill:#c53753;fill-opacity:1;fill-rule:nonzero;stroke:none"
       id="path3256" />
    <path
       inkscape:connector-curvature="0"
       d="m 50.20495,192.76084 c 0.88375,0.456 1.23875,1.5405 0.78875,2.41787 -0.4525,0.89025 -1.535625,1.24175 -2.423375,0.79013 -0.88475,-0.45463 -1.23475,-1.53963 -0.787,-2.4205 0.451625,-0.88475 1.542875,-1.24063 2.421625,-0.7875"
       style="fill:#c53753;fill-opacity:1;fill-rule:nonzero;stroke:none"
       id="path3258" />
  </g>
  <path
     style="fill:url(#linearGradient3833);fill-opacity:1;display:inline"
     d="M 12.1375,1.5131878e-6 C 5.4350898,1.5131878e-6 -2.0223314e-5,5.4350812 -2.2331362e-7,12.137501 l 0,75.725001 C -2.2331362e-7,94.564902 5.4350898,100.00002 12.1375,99.999999 l 75.725,0 c 6.70244,0 12.13748,-5.435097 12.1375,-12.137497 l 0,-75.725001 C 100,5.4350812 94.56516,1.5131878e-6 87.8625,1.5131878e-6 z"
     id="path7-8-6-9-9"
     inkscape:connector-curvature="0"
     sodipodi:nodetypes="sssssssss" />
</svg>
