<svg xmlns="http://www.w3.org/2000/svg" viewBox="0 0 100 100"><defs><linearGradient y2="61.754" x2="48.725" y1="85.34" x1="84.49" gradientUnits="userSpaceOnUse" id="0" gradientTransform="matrix(1 0 0 .99996.002.002)"><stop stop-opacity=".374"/><stop offset="1" stop-opacity="0"/></linearGradient></defs><path d="m12.14.006c-6.702 0-12.138 5.435-12.138 12.138v75.72c0 6.702 5.435 12.138 12.138 12.138h75.72c6.702 0 12.137-5.435 12.138-12.138v-75.72c0-6.702-5.435-12.138-12.138-12.138z" fill="#fff"/><g transform="matrix(.74482 0 0 .74479 26.23-88.13)"><g fill="#4e5d6e"><path d="m64.49 148.33c-1.47 2.02-4.295 2.46-6.311.996-2.02-1.464-2.464-4.287-.994-6.305 1.464-2.02 4.284-2.461 6.306-.999 2.01 1.464 2.463 4.286.999 6.308"/><path d="m47.37 146.75c.957-1.871 3.252-2.616 5.125-1.659 1.874.951 2.615 3.243 1.659 5.118-.944 1.879-3.24 2.624-5.117 1.664-1.877-.954-2.62-3.25-1.667-5.123"/><path d="m45.632 153.56c-.538 1.664-2.335 2.574-4 2.034-1.666-.541-2.577-2.334-2.036-3.998.541-1.666 2.331-2.579 3.999-2.036 1.664.539 2.581 2.331 2.04 4"/><path d="m39.04 157.41c-.223 1.441-1.583 2.426-3.02 2.197-1.435-.227-2.42-1.586-2.19-3.03.226-1.445 1.578-2.429 3.02-2.197 1.442.226 2.429 1.58 2.195 3.03"/><path d="m34.11 161.64c0 1.21-.979 2.186-2.189 2.186-1.207 0-2.189-.976-2.189-2.186 0-1.205.982-2.185 2.189-2.185 1.21 0 2.189.98 2.189 2.185"/><path d="m30.633 165.83c.152.983-.511 1.906-1.494 2.063-.989.15-1.904-.514-2.056-1.496-.16-.982.509-1.903 1.495-2.059.983-.157 1.901.516 2.054 1.491"/></g><g fill="#96d325"><path d="m6.663 227.92c-1.47 2.02-4.291 2.462-6.309.999-2.01-1.464-2.464-4.289-.999-6.304 1.467-2.02 4.29-2.464 6.304-1 2.02 1.464 2.472 4.289 1 6.305"/><path d="m9.684 220.72c.959-1.873 3.251-2.619 5.125-1.665 1.878.957 2.62 3.251 1.666 5.126-.95 1.869-3.249 2.614-5.124 1.657-1.872-.954-2.618-3.245-1.667-5.119"/><path d="m24.26 219.35c-.544 1.661-2.331 2.58-4 2.037-1.669-.545-2.578-2.332-2.039-4 .542-1.666 2.332-2.576 4-2.035 1.661.54 2.583 2.333 2.041 4"/><path d="m30.03 214.35c-.23 1.45-1.583 2.427-3.02 2.2-1.445-.228-2.429-1.585-2.2-3.03.229-1.441 1.587-2.424 3.03-2.198 1.442.229 2.432 1.585 2.196 3.02"/><path d="m34.11 209.3c0 1.208-.979 2.185-2.189 2.185-1.207 0-2.189-.977-2.189-2.185 0-1.21.982-2.186 2.189-2.186 1.21 0 2.189.977 2.189 2.186"/><path d="m36.764 204.55c.158.976-.504 1.899-1.494 2.057-.983.156-1.898-.514-2.056-1.493-.155-.984.507-1.906 1.49-2.063.99-.153 1.911.518 2.059 1.499"/><path d="m-13.467 165.97c2.37.779 3.667 3.32 2.899 5.694-.771 2.372-3.318 3.671-5.686 2.897-2.374-.768-3.669-3.313-2.899-5.688.77-2.368 3.318-3.666 5.686-2.903"/><path d="m-8.471 175.21c2.078.331 3.489 2.284 3.16 4.361-.328 2.077-2.279 3.496-4.357 3.163-2.076-.329-3.491-2.277-3.168-4.359.336-2.078 2.282-3.493 4.365-3.166"/><path d="m-2.662 182.3c1.752 0 3.174 1.418 3.174 3.172 0 1.756-1.422 3.175-3.174 3.175-1.754 0-3.173-1.418-3.178-3.175 0-1.754 1.423-3.172 3.178-3.172"/><path d="m3.036 187.37c1.448-.229 2.804.757 3.03 2.197.232 1.443-.753 2.798-2.199 3.02-1.442.227-2.796-.756-3.02-2.197-.229-1.445.755-2.799 2.19-3.02"/><path d="m8.594 190.75c1.145-.37 2.378.256 2.752 1.406.369 1.14-.26 2.38-1.408 2.751-1.149.373-2.384-.251-2.752-1.399-.375-1.151.253-2.384 1.407-2.757"/><path d="m13.653 192.76c.875-.446 1.954-.094 2.407.79.452.884.101 1.965-.788 2.417-.881.448-1.963.099-2.409-.784-.459-.892-.107-1.972.79-2.423"/></g><g fill="#4e5d6e"><path d="m80.1 196.38c2.379.766 3.671 3.311 2.899 5.686-.771 2.367-3.315 3.666-5.684 2.898-2.374-.774-3.665-3.315-2.901-5.689.778-2.369 3.32-3.675 5.686-2.894"/><path d="m73.52 188.2c2.078.329 3.49 2.283 3.165 4.363-.332 2.077-2.281 3.493-4.356 3.163-2.08-.329-3.499-2.282-3.174-4.359.329-2.079 2.285-3.495 4.365-3.167"/><path d="m66.51 182.3c1.756 0 3.171 1.418 3.171 3.172 0 1.756-1.415 3.175-3.171 3.175-1.748 0-3.172-1.418-3.172-3.175 0-1.754 1.425-3.172 3.172-3.172"/><path d="m59.982 178.35c1.441-.227 2.791.757 3.02 2.197.229 1.445-.754 2.799-2.195 3.03-1.444.232-2.801-.759-3.03-2.197-.23-1.441.754-2.799 2.201-3.03"/><path d="m53.909 176.02c1.148-.371 2.391.261 2.75 1.406.376 1.145-.249 2.38-1.396 2.75-1.145.376-2.381-.249-2.758-1.398-.37-1.145.26-2.385 1.404-2.759"/><path d="m48.574 174.97c.881-.452 1.962-.094 2.413.784.461.89.105 1.971-.788 2.423-.874.445-1.96.092-2.412-.784-.455-.887-.103-1.973.786-2.423"/><path d="m6.663 143.02c1.469 2.02 1.013 4.846-1 6.305-2.01 1.469-4.836 1.019-6.304-.996-1.466-2.02-1.013-4.844.999-6.308 2.02-1.463 4.843-1.018 6.309.999"/><path d="m5.271 153.43c1.486 1.486 1.479 3.899 0 5.387-1.493 1.484-3.901 1.482-5.392 0-1.486-1.489-1.486-3.9.003-5.387 1.487-1.486 3.901-1.49 5.388 0"/><path d="m5.806 162.57c1.42 1.035 1.733 3.02.705 4.434-1.028 1.416-3.02 1.733-4.435.701-1.414-1.027-1.732-3.01-.699-4.425 1.026-1.425 3.02-1.736 4.43-.71"/><path d="m7.443 170.03c1.3.662 1.817 2.252 1.153 3.56-.662 1.298-2.249 1.821-3.556 1.15-1.299-.66-1.813-2.252-1.158-3.553.667-1.304 2.257-1.818 3.56-1.157"/><path d="m9.938 176.02c1.148.374 1.777 1.614 1.402 2.759-.369 1.149-1.602 1.774-2.747 1.398-1.154-.37-1.782-1.605-1.407-2.75.367-1.145 1.608-1.777 2.752-1.406"/><path d="m12.843 180.62c.99.157 1.653 1.082 1.495 2.069-.156.97-1.072 1.64-2.048 1.489-.987-.157-1.658-1.072-1.501-2.06.162-.977 1.083-1.644 2.055-1.497"/></g><g fill="#96d325"><path d="m64.49 222.61c1.464 2.02 1.015 4.842-.999 6.304-2.023 1.469-4.839 1.022-6.306-.999-1.47-2.02-1.023-4.841.994-6.305 2.02-1.46 4.843-1.018 6.311 1"/><path d="m63.97 212.13c1.489 1.488 1.489 3.897 0 5.385-1.496 1.483-3.899 1.487-5.39 0-1.489-1.488-1.489-3.898 0-5.385 1.491-1.482 3.9-1.491 5.39 0"/><path d="m61.769 203.23c1.421 1.033 1.735 3.02.705 4.437-1.026 1.424-3.01 1.737-4.43.703-1.425-1.028-1.739-3.02-.708-4.429 1.039-1.42 3.02-1.737 4.432-.711"/><path d="m58.806 196.2c1.305.663 1.824 2.256 1.157 3.558-.66 1.301-2.256 1.816-3.557 1.157-1.3-.662-1.824-2.257-1.156-3.56.667-1.298 2.258-1.821 3.556-1.155"/><path d="m55.26 190.75c1.148.374 1.773 1.607 1.396 2.757-.364 1.148-1.602 1.773-2.75 1.399-1.144-.37-1.774-1.611-1.406-2.751.374-1.15 1.615-1.776 2.76-1.406"/><path d="m51.564 186.76c.989.149 1.655 1.066 1.496 2.055-.16.982-1.083 1.645-2.061 1.497-.981-.157-1.646-1.079-1.489-2.064.156-.977 1.077-1.65 2.054-1.487"/><path d="m77.32 165.97c2.362-.762 4.912.535 5.684 2.903.772 2.375-.52 4.919-2.899 5.688-2.366.774-4.909-.525-5.686-2.897-.771-2.374.528-4.918 2.901-5.694"/><path d="m67.18 163.23c1.874-.954 4.161-.205 5.121 1.669.956 1.869.21 4.16-1.668 5.12-1.869.955-4.169.21-5.123-1.661-.95-1.877-.207-4.175 1.669-5.127"/><path d="m58.04 162.57c1.42-1.026 3.404-.715 4.43.71 1.03 1.411.716 3.394-.705 4.43-1.411 1.028-3.396.71-4.43-.706-1.034-1.417-.72-3.407.705-4.434"/><path d="m50.44 163.22c1.029-1.035 2.705-1.037 3.742 0 1.028 1.032 1.028 2.709-.002 3.739-1.035 1.033-2.708 1.033-3.74 0-1.038-1.03-1.038-2.712 0-3.739"/><path d="m47.697 167.48c-.706.972-2.075 1.194-3.052.48-.977-.707-1.198-2.073-.481-3.05.702-.981 2.076-1.195 3.048-.486.977.705 1.2 2.081.485 3.056"/><path d="m42.42 168.82c-.455.886-1.533 1.24-2.417.788-.887-.452-1.241-1.533-.787-2.423.448-.881 1.536-1.235 2.412-.784.894.452 1.246 1.536.792 2.418"/></g><g fill="#4e5d6e"><path d="m-16.253 196.38c2.368-.78 4.916.525 5.687 2.894.767 2.375-.531 4.915-2.903 5.689-2.366.768-4.914-.53-5.684-2.898-.77-2.375.526-4.92 2.899-5.686"/><path d="m-6.789 200.92c1.875-.949 4.173-.201 5.126 1.67.956 1.872.207 4.165-1.666 5.123-1.877.953-4.17.208-5.124-1.666-.954-1.876-.209-4.171 1.665-5.127"/><path d="m2.075 203.23c1.418-1.026 3.407-.709 4.435.711 1.03 1.413.715 3.396-.705 4.429-1.413 1.035-3.403.721-4.43-.703-1.032-1.417-.714-3.404.699-4.437"/><path d="m9.67 203.98c1.035-1.033 2.711-1.031 3.747 0 1.031 1.031 1.031 2.707-.004 3.739-1.031 1.033-2.708 1.036-3.743 0-1.029-1.032-1.029-2.708 0-3.739"/><path d="m19.688 206.03c-.703.981-2.08 1.195-3.055.486-.977-.709-1.191-2.075-.48-3.051.709-.98 2.077-1.197 3.053-.488.972.712 1.189 2.082.482 3.053"/><path d="m24.629 203.75c-.449.886-1.534 1.233-2.419.786-.887-.452-1.238-1.53-.784-2.42.449-.881 1.527-1.237 2.423-.789.88.456 1.237 1.537.78 2.423"/></g><g fill="#96d325"><path d="m36.438 136.28c0 2.491-2.02 4.514-4.513 4.514-2.494 0-4.513-2.023-4.513-4.514 0-2.493 2.02-4.514 4.513-4.514 2.497 0 4.513 2.02 4.513 4.514"/><path d="m21.67 145.07c-.334-2.08 1.087-4.02 3.168-4.356 2.075-.331 4.02 1.086 4.359 3.166.324 2.071-1.092 4.03-3.168 4.356-2.082.334-4.03-1.086-4.359-3.166"/><path d="m24.26 151.59c.542 1.664-.38 3.456-2.041 3.998-1.668.54-3.458-.37-4-2.034-.539-1.669.373-3.461 2.039-4 1.668-.541 3.458.37 4 2.036"/><path d="m21.2 158.58c.663 1.301.136 2.893-1.161 3.563-1.304.656-2.896.141-3.561-1.165-.661-1.298-.138-2.889 1.158-3.549 1.305-.665 2.895-.153 3.564 1.151"/><path d="m19.688 164.91c.707.977.49 2.344-.482 3.052-.976.712-2.344.489-3.053-.482-.71-.975-.497-2.349.48-3.056.975-.709 2.352-.495 3.055.486"/><path d="m19.338 170.33c.702.702.701 1.848 0 2.548-.704.704-1.842.699-2.546 0-.703-.708-.703-1.841-.003-2.548.708-.703 1.846-.703 2.55 0"/></g><g fill="#4e5d6e"><path d="m36.438 234.66c0 2.491-2.02 4.514-4.513 4.514-2.494 0-4.513-2.023-4.513-4.514 0-2.491 2.02-4.516 4.513-4.516 2.497 0 4.513 2.025 4.513 4.516"/><path d="m34.657 227.06c-.33-2.081 1.089-4.03 3.168-4.361 2.068-.328 4.02 1.091 4.347 3.172.33 2.075-1.082 4.03-3.159 4.352-2.079.333-4.03-1.085-4.356-3.163"/><path d="m45.632 217.38c.542 1.669-.376 3.458-2.04 4-1.668.543-3.459-.376-3.999-2.037-.541-1.667.37-3.46 2.036-4 1.667-.539 3.464.371 4 2.037"/><path d="m47.36 209.95c.67 1.305.147 2.891-1.148 3.556-1.301.665-2.895.147-3.564-1.155-.653-1.303-.146-2.893 1.16-3.555 1.306-.665 2.897-.145 3.553 1.154"/><path d="m47.697 203.46c.715.972.492 2.342-.485 3.054-.973.706-2.346.492-3.05-.489-.708-.971-.493-2.341.483-3.053.977-.708 2.346-.492 3.052.488"/><path d="m47.05 198.06c.703.704.703 1.841 0 2.545-.701.701-1.834.701-2.544 0-.702-.699-.702-1.844.005-2.545.701-.704 1.835-.704 2.539 0"/></g><g fill="#c53753"><path d="m51.42 140.08c-.775 2.374-3.321 3.674-5.691 2.9-2.374-.771-3.669-3.317-2.898-5.686.763-2.379 3.309-3.674 5.683-2.898 2.371.774 3.672 3.317 2.907 5.684"/><path d="m34.657 143.88c.328-2.08 2.282-3.495 4.356-3.166 2.078.333 3.489 2.276 3.168 4.361-.335 2.075-2.288 3.49-4.363 3.161-2.073-.326-3.495-2.28-3.162-4.356"/><path d="m35.1 150.88c0 1.757-1.418 3.178-3.171 3.178-1.755 0-3.173-1.42-3.173-3.178 0-1.752 1.418-3.171 3.173-3.171 1.753 0 3.171 1.419 3.171 3.171"/><path d="m30.03 156.59c.226 1.444-.754 2.798-2.196 3.03-1.441.226-2.8-.756-3.03-2.197-.23-1.44.759-2.796 2.197-3.03 1.444-.231 2.797.752 3.03 2.197"/><path d="m26.645 162.13c.373 1.15-.26 2.386-1.409 2.759-1.145.374-2.38-.256-2.75-1.404-.376-1.148.25-2.384 1.402-2.756 1.148-.371 2.378.255 2.757 1.401"/><path d="m24.629 167.19c.453.882.094 1.966-.788 2.418-.887.455-1.965.104-2.422-.788-.447-.882-.091-1.964.786-2.413.895-.459 1.977-.102 2.424.784"/></g><g fill="#65cbb8"><path d="m21.01 233.65c-.764 2.373-3.314 3.671-5.688 2.899-2.37-.772-3.667-3.316-2.893-5.685.769-2.37 3.316-3.667 5.681-2.898 2.373.773 3.672 3.314 2.9 5.684"/><path d="m21.67 225.87c.33-2.081 2.285-3.501 4.362-3.172 2.073.333 3.489 2.281 3.155 4.357-.325 2.082-2.279 3.499-4.349 3.167-2.081-.326-3.499-2.283-3.168-4.352"/><path d="m35.1 220.06c0 1.752-1.418 3.177-3.171 3.177-1.755 0-3.173-1.425-3.173-3.177 0-1.752 1.418-3.173 3.173-3.173 1.753 0 3.171 1.421 3.171 3.173"/><path d="m39.04 213.52c.232 1.445-.753 2.798-2.195 3.03-1.445.232-2.794-.759-3.02-2.201-.23-1.439.755-2.795 2.19-3.02 1.442-.23 2.802.752 3.02 2.194"/><path d="m41.37 207.45c.37 1.15-.256 2.385-1.404 2.761-1.148.366-2.385-.26-2.754-1.405-.374-1.15.259-2.385 1.4-2.755 1.148-.373 2.385.254 2.757 1.399"/><path d="m42.42 202.12c.453.885.092 1.965-.787 2.42-.883.456-1.969.1-2.419-.788-.449-.884-.094-1.963.779-2.418.894-.453 1.975-.101 2.427.786"/><path d="m-17.269 180.95c2.494 0 4.511 2.024 4.511 4.514 0 2.495-2.02 4.517-4.511 4.517-2.495 0-4.515-2.02-4.515-4.517 0-2.49 2.02-4.514 4.515-4.514"/><path d="m-9.668 188.2c2.078-.328 4.03 1.088 4.357 3.167.33 2.077-1.082 4.03-3.168 4.357-2.075.332-4.03-1.086-4.357-3.164-.326-2.077 1.092-4.03 3.168-4.36"/><path d="m-1.954 193.14c1.666-.541 3.46.376 4 2.038.536 1.669-.369 3.461-2.041 3.999-1.665.544-3.452-.367-3.995-2.031-.545-1.671.367-3.46 2.034-4.01"/><path d="m5.04 196.19c1.302-.661 2.897-.138 3.556 1.165.668 1.297.154 2.893-1.156 3.555-1.3.665-2.891.15-3.557-1.157-.665-1.301-.143-2.9 1.158-3.563"/><path d="m11.361 197.71c.976-.71 2.342-.489 3.055.483.711.975.488 2.346-.482 3.056-.979.709-2.345.496-3.058-.486-.702-.975-.488-2.341.485-3.053"/><path d="m16.792 198.05c.705-.701 1.842-.699 2.543 0 .706.703.706 1.84 0 2.548-.701.696-1.835.701-2.543-.003-.703-.701-.703-1.837 0-2.545"/></g><g fill="#c53753"><path d="m81.12 180.95c2.481 0 4.509 2.024 4.509 4.514 0 2.495-2.028 4.517-4.509 4.517-2.498 0-4.519-2.02-4.519-4.514 0-2.493 2.02-4.517 4.519-4.517"/><path d="m72.33 175.21c2.075-.326 4.03 1.091 4.356 3.166.33 2.082-1.09 4.03-3.166 4.359-2.079.333-4.03-1.086-4.356-3.163-.332-2.078 1.08-4.03 3.166-4.361"/><path d="m63.841 171.77c1.666-.547 3.451.367 4 2.033.541 1.666-.377 3.453-2.041 3.998-1.666.542-3.461-.368-3.999-2.032-.54-1.669.37-3.465 2.039-3.999"/><path d="m56.41 170.03c1.301-.664 2.898-.147 3.554 1.157.666 1.301.151 2.893-1.154 3.558-1.305.662-2.889.143-3.554-1.155-.66-1.307-.15-2.901 1.154-3.56"/><path d="m49.917 169.7c.977-.708 2.347-.496 3.048.486.715.972.499 2.338-.48 3.053-.974.709-2.339.489-3.054-.486-.71-.978-.492-2.343.486-3.053"/><path d="m44.513 170.34c.702-.704 1.838-.699 2.545.005.702.696.702 1.837-.004 2.543-.703.707-1.84.697-2.535 0-.713-.702-.711-1.843-.006-2.548"/><path d="m-5.223 152.9c2.02 1.469 2.468 4.29.995 6.306-1.459 2.02-4.282 2.465-6.299.998-2.01-1.464-2.465-4.289-1-6.3 1.466-2.02 4.298-2.472 6.308-1"/><path d="m-3.329 163.23c1.873.959 2.622 3.254 1.666 5.127-.953 1.867-3.251 2.62-5.126 1.658-1.874-.95-2.618-3.241-1.665-5.117.958-1.874 3.252-2.623 5.125-1.669"/><path d="m.007 171.77c1.672.533 2.577 2.329 2.04 3.999-.542 1.664-2.336 2.575-4 2.032-1.667-.545-2.578-2.332-2.034-3.998.537-1.667 2.33-2.58 3.995-2.033"/><path d="m3.866 178.35c1.446.228 2.429 1.587 2.199 3.03-.226 1.439-1.582 2.429-3.03 2.197-1.436-.229-2.419-1.583-2.19-3.03.224-1.435 1.579-2.429 3.02-2.197"/><path d="m8.098 183.28c1.204 0 2.185.983 2.185 2.186 0 1.204-.982 2.184-2.185 2.184-1.209.007-2.19-.98-2.19-2.184 0-1.204.981-2.186 2.19-2.186"/><path d="m12.284 186.76c.983-.154 1.903.505 2.06 1.487.153.986-.518 1.908-1.493 2.064-.985.15-1.905-.515-2.062-1.499-.161-.984.519-1.898 1.495-2.053"/></g><g fill="#65cbb8"><path d="m74.37 210.73c2.02 1.464 2.468 4.29.994 6.31-1.46 2.01-4.278 2.465-6.3.995-2.02-1.464-2.469-4.292-.999-6.306 1.466-2.01 4.289-2.463 6.305-.999"/><path d="m70.63 200.92c1.875.956 2.621 3.25 1.664 5.127-.959 1.874-3.246 2.619-5.12 1.666-1.876-.958-2.624-3.251-1.669-5.123.963-1.875 3.256-2.623 5.125-1.67"/><path d="m65.801 193.14c1.664.545 2.582 2.335 2.034 4.01-.543 1.665-2.328 2.575-3.994 2.031-1.669-.538-2.579-2.329-2.044-3.994.542-1.667 2.337-2.584 4-2.043"/><path d="m60.804 187.37c1.446.226 2.429 1.58 2.2 3.02-.23 1.441-1.58 2.427-3.03 2.197-1.443-.227-2.426-1.582-2.196-3.02.226-1.445 1.584-2.434 3.02-2.202"/><path d="m55.754 183.28c1.21 0 2.186.983 2.186 2.186 0 1.204-.976 2.184-2.186 2.184-1.208.007-2.185-.98-2.185-2.184 0-1.204.977-2.186 2.185-2.186"/><path d="m50.999 180.63c.984-.15 1.907.512 2.061 1.498.153.984-.519 1.899-1.496 2.056-.977.151-1.901-.514-2.054-1.492-.156-.984.513-1.903 1.489-2.063"/><path d="m69.07 152.9c2.02-1.469 4.84-1.012 6.3 1 1.474 2.01 1.028 4.84-.994 6.309-2.02 1.463-4.841 1.015-6.305-1-1.461-2.02-1.021-4.838.999-6.306"/><path d="m58.58 153.43c1.491-1.491 3.898-1.491 5.386 0 1.493 1.489 1.493 3.898 0 5.384-1.489 1.486-3.895 1.486-5.386.002-1.486-1.489-1.486-3.901 0-5.386"/><path d="m54.82 159.35c-1.029 1.42-3.02 1.732-4.432.696-1.415-1.024-1.729-3.01-.701-4.426 1.031-1.42 3.01-1.735 4.435-.705 1.419 1.034 1.731 3.01.699 4.435"/><path d="m47.37 160.99c-.664 1.3-2.254 1.82-3.562 1.153-1.298-.657-1.821-2.25-1.148-3.556.658-1.304 2.252-1.816 3.55-1.154 1.3.657 1.821 2.254 1.161 3.558"/><path d="m41.37 163.48c-.372 1.148-1.609 1.773-2.757 1.404-1.143-.373-1.775-1.609-1.4-2.759.369-1.146 1.606-1.775 2.754-1.399 1.148.37 1.773 1.606 1.404 2.754"/><path d="m36.769 166.39c-.153.989-1.076 1.653-2.068 1.503-.971-.163-1.638-1.082-1.493-2.056.163-.989 1.079-1.659 2.065-1.502.974.16 1.648 1.08 1.495 2.055"/></g><g fill="#c53753"><path d="m-10.527 210.73c2.02-1.464 4.84-1.018 6.309.999 1.464 2.01 1.018 4.84-1 6.306-2.01 1.47-4.834 1.015-6.298-.995-1.471-2.02-1.021-4.846.994-6.31"/><path d="m-.117 212.13c1.486-1.491 3.896-1.491 5.388 0 1.484 1.488 1.484 3.897 0 5.385-1.493 1.487-3.901 1.487-5.388 0-1.489-1.485-1.489-3.898 0-5.385"/><path d="m14.165 215.32c-1.033 1.417-3.02 1.731-4.439.702-1.413-1.034-1.73-3.02-.698-4.432 1.031-1.42 3.01-1.74 4.432-.705 1.418 1.027 1.735 3.02.706 4.435"/><path d="m21.2 212.35c-.669 1.306-2.262 1.824-3.564 1.159-1.296-.665-1.815-2.251-1.158-3.556.665-1.299 2.254-1.819 3.562-1.157 1.296.665 1.817 2.256 1.16 3.555"/><path d="m26.645 208.81c-.378 1.145-1.609 1.776-2.757 1.405-1.158-.373-1.778-1.607-1.402-2.761.37-1.145 1.605-1.772 2.75-1.399 1.148.37 1.782 1.605 1.409 2.755"/><path d="m30.64 205.11c-.16.985-1.078 1.655-2.061 1.499-.983-.164-1.653-1.08-1.504-2.057.16-.988 1.077-1.657 2.068-1.499.973.163 1.646 1.079 1.497 2.056"/></g><g fill="#65cbb8"><path d="m21.01 137.29c.771 2.369-.527 4.915-2.9 5.686-2.362.774-4.912-.526-5.681-2.9-.774-2.366.53-4.915 2.893-5.679 2.375-.779 4.924.514 5.688 2.893"/><path d="m16.477 146.75c.951 1.877.197 4.169-1.668 5.123-1.874.96-4.166.215-5.116-1.664-.96-1.875-.215-4.166 1.659-5.118 1.873-.958 4.169-.213 5.126 1.659"/><path d="m14.165 155.62c1.029 1.42.712 3.403-.706 4.431-1.418 1.026-3.401.719-4.432-.704-1.032-1.417-.714-3.399.698-4.433 1.421-1.028 3.407-.715 4.439.705"/><path d="m13.417 163.21c1.031 1.032 1.031 2.714-.004 3.74-1.031 1.037-2.708 1.037-3.741 0-1.03-1.026-1.035-2.708 0-3.735 1.029-1.029 2.71-1.035 3.745-.005"/><path d="m13.935 169.7c.97.71 1.193 2.075.481 3.053-.712.975-2.078 1.195-3.054.481-.972-.71-1.187-2.077-.476-3.048.699-.982 2.07-1.194 3.049-.486"/><path d="m15.273 174.97c.889.453 1.24 1.533.786 2.423-.444.884-1.527 1.244-2.416.784-.886-.452-1.238-1.533-.786-2.417.453-.89 1.535-1.241 2.416-.79"/></g><g fill="#c53753"><path d="m51.42 230.86c.765 2.369-.535 4.913-2.907 5.685-2.366.773-4.919-.526-5.687-2.899-.767-2.37.534-4.911 2.902-5.684 2.371-.769 4.916.527 5.691 2.898"/><path d="m54.16 220.72c.959 1.874.21 4.167-1.659 5.119-1.874.957-4.168.216-5.125-1.657-.956-1.881-.21-4.17 1.661-5.126 1.878-.954 4.177-.207 5.123 1.665"/><path d="m54.82 211.59c1.032 1.414.72 3.401-.699 4.432-1.422 1.028-3.404.715-4.435-.702-1.028-1.418-.714-3.407.7-4.435 1.419-1.035 3.405-.715 4.434.705"/><path d="m54.18 203.98c1.03 1.032 1.03 2.707-.004 3.739-1.026 1.036-2.708 1.036-3.736 0-1.038-1.032-1.038-2.708 0-3.739 1.029-1.033 2.71-1.033 3.74 0"/><path d="m52.48 197.71c.979.712 1.189 2.078.48 3.053-.701.982-2.07 1.196-3.048.486-.977-.71-1.196-2.082-.486-3.056.715-.972 2.08-1.193 3.054-.483"/><path d="m50.2 192.76c.884.456 1.239 1.541.789 2.418-.453.89-1.536 1.242-2.423.79-.885-.455-1.235-1.54-.787-2.421.452-.885 1.543-1.241 2.422-.787"/></g></g><path d="m12.14.002c-6.702 0-12.138 5.435-12.138 12.137v75.73c0 6.702 5.435 12.138 12.138 12.137h75.72c6.702 0 12.137-5.435 12.138-12.137v-75.73c0-6.702-5.435-12.137-12.138-12.137z" fill="url(#0)"/></svg>