<svg xmlns="http://www.w3.org/2000/svg" viewBox="0 0 100 100"><defs><linearGradient y2="61.752" x2="48.727" y1="85.34" x1="84.49" gradientUnits="userSpaceOnUse" id="0"><stop stop-opacity=".374"/><stop offset="1" stop-opacity="0"/></linearGradient></defs><path d="m12.138 0c-6.702 0-12.138 5.435-12.138 12.138v75.72c0 6.702 5.435 12.138 12.138 12.138h75.72c6.702 0 12.137-5.435 12.138-12.138v-75.72c0-6.702-5.435-12.138-12.138-12.138z" fill="#fff"/><path d="m12.138 0c-6.702 0-12.138 5.435-12.138 12.138v75.72c0 6.702 5.435 12.138 12.138 12.138h75.72c6.702 0 12.137-5.435 12.138-12.138v-75.72c0-6.702-5.435-12.138-12.138-12.138h-75.72m6.06 8h63.61c5.63 0 10.2 4.564 10.2 10.194v63.61c0 5.63-4.57 10.2-10.2 10.2h-63.61c-5.63 0-10.194-4.57-10.194-10.2v-63.61c0-5.63 4.564-10.194 10.194-10.194" fill-opacity=".784"/><g transform="matrix(.45516 0 0 .45516-114.76-47.06)"><g fill="#343433"><path d="m319.17 203.47c5.408-3.933 12.957-2.709 16.866 2.677 3.946 5.381 2.752 12.957-2.661 16.89-5.408 3.917-12.96 2.717-16.879-2.677-3.911-5.408-2.733-12.952 2.674-16.882"/><path d="m283.47 203.47c5.408-3.933 12.957-2.709 16.866 2.677 3.946 5.381 2.752 12.957-2.661 16.89-5.408 3.917-12.96 2.717-16.879-2.677-3.911-5.408-2.733-12.952 2.674-16.882"/><path d="m390.57 203.47c5.408-3.933 12.957-2.709 16.866 2.677 3.946 5.381 2.752 12.957-2.661 16.89-5.408 3.917-12.96 2.717-16.879-2.677-3.911-5.408-2.733-12.952 2.674-16.882"/><path d="m354.87 203.47c5.408-3.933 12.957-2.709 16.866 2.677 3.946 5.381 2.752 12.957-2.661 16.89-5.408 3.917-12.96 2.717-16.879-2.677-3.911-5.408-2.733-12.952 2.674-16.882"/><path d="m426.27 203.47c5.408-3.933 12.957-2.709 16.866 2.677 3.946 5.381 2.752 12.957-2.661 16.89-5.408 3.917-12.96 2.717-16.879-2.677-3.911-5.408-2.733-12.952 2.674-16.882"/></g><g fill="#45c2c5"><path d="m371.76 170.44c3.933 5.408 2.709 12.957-2.677 16.866-5.381 3.946-12.957 2.752-16.89-2.661-3.917-5.408-2.717-12.96 2.677-16.879 5.408-3.911 12.952-2.733 16.882 2.674"/><path d="m371.76 134.74c3.933 5.408 2.709 12.957-2.677 16.866-5.381 3.946-12.957 2.752-16.89-2.661-3.917-5.408-2.717-12.96 2.677-16.879 5.408-3.911 12.952-2.733 16.882 2.674"/><path d="m371.76 241.85c3.933 5.408 2.709 12.957-2.677 16.866-5.381 3.946-12.957 2.752-16.89-2.661-3.917-5.408-2.717-12.96 2.677-16.879 5.408-3.911 12.952-2.733 16.882 2.674"/><path d="m371.76 277.55c3.933 5.408 2.709 12.957-2.677 16.866-5.381 3.946-12.957 2.752-16.89-2.661-3.917-5.408-2.717-12.96 2.677-16.879 5.408-3.911 12.952-2.733 16.882 2.674"/><path d="m319.17 167.77c5.408-3.933 12.957-2.709 16.866 2.677 3.946 5.381 2.752 12.957-2.661 16.89-5.408 3.917-12.96 2.717-16.879-2.677-3.911-5.408-2.733-12.952 2.674-16.882"/></g><g fill="#343433"><path d="m390.57 167.77c5.408-3.933 12.957-2.709 16.866 2.677 3.946 5.381 2.752 12.957-2.661 16.89-5.408 3.917-12.96 2.717-16.879-2.677-3.911-5.408-2.733-12.952 2.674-16.882"/><path d="m390.57 239.17c5.408-3.933 12.957-2.709 16.866 2.677 3.946 5.381 2.752 12.957-2.661 16.89-5.408 3.917-12.96 2.717-16.879-2.677-3.911-5.408-2.733-12.952 2.674-16.882"/></g><path d="m336.06 241.85c3.933 5.408 2.709 12.957-2.677 16.866-5.381 3.946-12.957 2.752-16.89-2.661-3.917-5.408-2.717-12.96 2.677-16.879 5.408-3.911 12.952-2.733 16.882 2.674" fill="#45c2c5"/></g><path d="m12.14-.002c-6.702 0-12.138 5.435-12.138 12.137v75.73c0 6.702 5.435 12.138 12.138 12.137h75.72c6.702 0 12.137-5.435 12.138-12.137v-75.73c0-6.702-5.435-12.137-12.138-12.137z" fill="url(#0)"/></svg>