<?xml version="1.0" encoding="UTF-8" standalone="no"?>
<!-- Created with Inkscape (http://www.inkscape.org/) -->

<svg
   xmlns:dc="http://purl.org/dc/elements/1.1/"
   xmlns:cc="http://creativecommons.org/ns#"
   xmlns:rdf="http://www.w3.org/1999/02/22-rdf-syntax-ns#"
   xmlns:svg="http://www.w3.org/2000/svg"
   xmlns="http://www.w3.org/2000/svg"
   xmlns:xlink="http://www.w3.org/1999/xlink"
   xmlns:sodipodi="http://sodipodi.sourceforge.net/DTD/sodipodi-0.dtd"
   xmlns:inkscape="http://www.inkscape.org/namespaces/inkscape"
   width="140"
   height="100"
   id="svg2"
   version="1.1"
   inkscape:version="0.48.4 r9939"
   sodipodi:docname="FlagFR_NB.svg">
  <defs
     id="defs4">
    <linearGradient
       id="linearGradient5322">
      <stop
         style="stop-color:#000000;stop-opacity:0.37391305;"
         offset="0"
         id="stop5324" />
      <stop
         style="stop-color:#000000;stop-opacity:0;"
         offset="1"
         id="stop5326" />
    </linearGradient>
    <linearGradient
       inkscape:collect="always"
       xlink:href="#linearGradient5322"
       id="linearGradient5328"
       x1="644.28564"
       y1="1009.505"
       x2="334.28577"
       y2="796.64795"
       gradientUnits="userSpaceOnUse"
       gradientTransform="matrix(0.19999998,0,0,0.19999998,-3.3545001e-5,841.88977)" />
  </defs>
  <sodipodi:namedview
     id="base"
     pagecolor="#ffffff"
     bordercolor="#666666"
     borderopacity="1.0"
     inkscape:pageopacity="0.0"
     inkscape:pageshadow="2"
     inkscape:zoom="0.49497475"
     inkscape:cx="617.64224"
     inkscape:cy="54.601811"
     inkscape:document-units="px"
     inkscape:current-layer="layer1"
     showgrid="false"
     inkscape:window-width="1920"
     inkscape:window-height="1145"
     inkscape:window-x="-2"
     inkscape:window-y="-3"
     inkscape:window-maximized="1" />
  <metadata
     id="metadata7">
    <rdf:RDF>
      <cc:Work
         rdf:about="">
        <dc:format>image/svg+xml</dc:format>
        <dc:type
           rdf:resource="http://purl.org/dc/dcmitype/StillImage" />
        <dc:title />
      </cc:Work>
    </rdf:RDF>
  </metadata>
  <g
     inkscape:label="Layer 1"
     inkscape:groupmode="layer"
     id="layer1"
     transform="translate(0,-952.36218)">
    <path
       inkscape:connector-curvature="0"
       style="fill:#ffffff;display:inline"
       d="m 12.137458,952.3622 c -6.7024192,0 -12.1375005,5.43508 -12.1375005,12.13751 l 0,75.72499 c 0,6.7024 5.4350813,12.1375 12.1375005,12.1375 l 115.725002,0 c 6.70244,0 12.1375,-5.4351 12.1375,-12.1375 l 0,-75.72499 c 0,-6.70243 -5.43482,-12.13751 -12.1375,-12.13751 z"
       id="path3028-2"
       sodipodi:nodetypes="sssssssss" />
    <path
       style="fill:#333333;fill-opacity:1;display:inline"
       d="m 12.137465,952.3622 c -6.7024196,0 -12.137499000001,5.43508 -12.137499000001,12.1375 l 0,75.725 c 0,6.7024 5.435079400001,12.1375 12.137499000001,12.1375 l 34.362496,0 0,-100 -34.362496,0 z"
       id="path3082"
       inkscape:connector-curvature="0" />
    <path
       style="fill:#999999;fill-opacity:1;display:inline"
       d="m 93.499955,952.3622 0,100 34.362495,0 c 6.70244,0 12.1375,-5.4351 12.1375,-12.1375 l 0,-75.725 c 0,-6.70242 -5.43482,-12.1375 -12.1375,-12.1375 l -34.362495,0 z"
       id="path3028"
       inkscape:connector-curvature="0" />
    <path
       inkscape:connector-curvature="0"
       style="fill:url(#linearGradient5328);fill-opacity:1;display:inline"
       d="m 12.137458,952.3622 c -6.702419,0 -12.137500455,5.43508 -12.137500455,12.1375 l 0,75.725 c 0,6.7024 5.435081455,12.1375 12.137500455,12.1375 l 115.725002,0 c 6.70244,0 12.1375,-5.4351 12.1375,-12.1375 l 0,-75.725 c 0,-6.70242 -5.43482,-12.1375 -12.1375,-12.1375 z"
       id="path3028-2-9"
       sodipodi:nodetypes="sssssssss" />
    <path
       style="fill:#000000;fill-opacity:0.78431373;display:inline"
       d="m 12.137465,952.3622 c -6.7024156,0 -12.137518999943,5.43508 -12.137499000001,12.1375 l 0,75.725 c 0,6.7024 5.435083400001,12.1375 12.137499000001,12.1375 l 115.724985,0 c 6.70244,0 12.1375,-5.4351 12.1375,-12.1375 l 0,-75.725 c 0,-6.70242 -5.43484,-12.1375 -12.1375,-12.1375 z m 6.056249,8 103.606236,0 c 5.63024,0 10.2,4.56372 10.2,10.19375 l 0,63.60625 c 0,5.63 -4.56995,10.2 -10.2,10.2 l -103.606236,0 c -5.630029,0 -10.1937489,-4.57 -10.1937489,-10.2 l 0,-63.60625 c -1.6e-5,-5.63003 4.5637199,-10.19375 10.1937489,-10.19375 z"
       id="path7-8-6-9-2"
       inkscape:connector-curvature="0"
       sodipodi:nodetypes="ssssssssssssssssss" />
  </g>
</svg>
