<?xml version="1.0" encoding="UTF-8" standalone="no"?>
<!-- Created with Inkscape (http://www.inkscape.org/) -->

<svg
   xmlns:dc="http://purl.org/dc/elements/1.1/"
   xmlns:cc="http://creativecommons.org/ns#"
   xmlns:rdf="http://www.w3.org/1999/02/22-rdf-syntax-ns#"
   xmlns:svg="http://www.w3.org/2000/svg"
   xmlns="http://www.w3.org/2000/svg"
   xmlns:xlink="http://www.w3.org/1999/xlink"
   xmlns:sodipodi="http://sodipodi.sourceforge.net/DTD/sodipodi-0.dtd"
   xmlns:inkscape="http://www.inkscape.org/namespaces/inkscape"
   width="140"
   height="100"
   id="svg2"
   version="1.1"
   inkscape:version="0.48.4 r9939"
   sodipodi:docname="FlagEN.svg">
  <defs
     id="defs4">
    <linearGradient
       gradientUnits="userSpaceOnUse"
       y2="796.64795"
       x2="334.28577"
       y1="1009.505"
       x1="644.28564"
       id="linearGradient5328"
       xlink:href="#linearGradient5322"
       inkscape:collect="always" />
    <linearGradient
       id="linearGradient5322">
      <stop
         id="stop5324"
         offset="0"
         style="stop-color:#000000;stop-opacity:0.37391305;" />
      <stop
         id="stop5326"
         offset="1"
         style="stop-color:#000000;stop-opacity:0;" />
    </linearGradient>
    <linearGradient
       inkscape:collect="always"
       xlink:href="#linearGradient5322"
       id="linearGradient3019"
       gradientUnits="userSpaceOnUse"
       x1="644.28564"
       y1="1009.505"
       x2="334.28577"
       y2="796.64795"
       gradientTransform="matrix(0.19999998,0,0,0.19999998,8.384374e-6,841.88978)" />
    <linearGradient
       y2="796.64795"
       x2="334.28577"
       y1="1009.505"
       x1="644.28564"
       gradientTransform="matrix(1,0,0,1.3205675,-782.85713,-232.92558)"
       gradientUnits="userSpaceOnUse"
       id="linearGradient3442"
       xlink:href="#linearGradient5322-8-4"
       inkscape:collect="always" />
    <linearGradient
       inkscape:collect="always"
       xlink:href="#linearGradient5322-8-4"
       id="linearGradient3065"
       gradientUnits="userSpaceOnUse"
       gradientTransform="matrix(1,0,0,1.3205675,39.918886,-230.62238)"
       x1="644.28564"
       y1="1009.505"
       x2="334.28577"
       y2="796.64795" />
    <linearGradient
       id="linearGradient5322-8-4">
      <stop
         id="stop5324-8-3"
         offset="0"
         style="stop-color:#000000;stop-opacity:0.37391305;" />
      <stop
         id="stop5326-7-7"
         offset="1"
         style="stop-color:#000000;stop-opacity:0;" />
    </linearGradient>
    <linearGradient
       y2="796.64795"
       x2="334.28577"
       y1="1009.505"
       x1="644.28564"
       gradientTransform="matrix(1,0,0,1.3205675,39.918886,-230.62238)"
       gradientUnits="userSpaceOnUse"
       id="linearGradient3021-9"
       xlink:href="#linearGradient5322-8-4"
       inkscape:collect="always" />
    <linearGradient
       id="linearGradient5322-8-7">
      <stop
         id="stop5324-8-6"
         offset="0"
         style="stop-color:#000000;stop-opacity:0.37391305;" />
      <stop
         id="stop5326-7-8"
         offset="1"
         style="stop-color:#000000;stop-opacity:0;" />
    </linearGradient>
    <linearGradient
       y2="796.64795"
       x2="334.28577"
       y1="1009.505"
       x1="644.28564"
       gradientTransform="matrix(1,0,0,1.3205675,6.25e-5,-257.21133)"
       gradientUnits="userSpaceOnUse"
       id="linearGradient3224-9"
       xlink:href="#linearGradient5322-8-7"
       inkscape:collect="always" />
    <linearGradient
       id="linearGradient5322-8-1">
      <stop
         id="stop5324-8-9"
         offset="0"
         style="stop-color:#000000;stop-opacity:0.37391305;" />
      <stop
         id="stop5326-7-3"
         offset="1"
         style="stop-color:#000000;stop-opacity:0;" />
    </linearGradient>
    <linearGradient
       y2="796.64795"
       x2="334.28577"
       y1="1009.505"
       x1="644.28564"
       gradientTransform="matrix(1,0,0,1.3205675,6.25e-5,-257.21133)"
       gradientUnits="userSpaceOnUse"
       id="linearGradient3224-6"
       xlink:href="#linearGradient5322-8-1"
       inkscape:collect="always" />
    <linearGradient
       y2="796.64795"
       x2="334.28577"
       y1="1009.505"
       x1="644.28564"
       gradientTransform="matrix(1,0,0,1.3205675,6.0625e-5,-257.21136)"
       gradientUnits="userSpaceOnUse"
       id="linearGradient3224"
       xlink:href="#linearGradient5322-8"
       inkscape:collect="always" />
    <linearGradient
       id="linearGradient5322-8">
      <stop
         id="stop5324-8"
         offset="0"
         style="stop-color:#000000;stop-opacity:0.37391305;" />
      <stop
         id="stop5326-7"
         offset="1"
         style="stop-color:#000000;stop-opacity:0;" />
    </linearGradient>
    <linearGradient
       y2="796.64795"
       x2="334.28577"
       y1="1009.505"
       x1="644.28564"
       gradientTransform="matrix(1,0,0,1.3205675,39.918886,-230.62238)"
       gradientUnits="userSpaceOnUse"
       id="linearGradient3021"
       xlink:href="#linearGradient5322-8"
       inkscape:collect="always" />
    <linearGradient
       id="linearGradient5322-9">
      <stop
         style="stop-color:#000000;stop-opacity:0.37391305;"
         offset="0"
         id="stop5324-2" />
      <stop
         style="stop-color:#000000;stop-opacity:0;"
         offset="1"
         id="stop5326-1" />
    </linearGradient>
    <linearGradient
       inkscape:collect="always"
       xlink:href="#linearGradient5322-9"
       id="linearGradient5328-2"
       x1="644.28564"
       y1="1009.505"
       x2="334.28577"
       y2="796.64795"
       gradientUnits="userSpaceOnUse" />
    <linearGradient
       inkscape:collect="always"
       xlink:href="#linearGradient5322-8"
       id="linearGradient3097"
       gradientUnits="userSpaceOnUse"
       gradientTransform="matrix(0.19999998,0,0,0.26411349,-670.72345,904.58194)"
       x1="644.28564"
       y1="1009.505"
       x2="334.28577"
       y2="796.64795" />
  </defs>
  <sodipodi:namedview
     id="base"
     pagecolor="#ffffff"
     bordercolor="#666666"
     borderopacity="1.0"
     inkscape:pageopacity="0.0"
     inkscape:pageshadow="2"
     inkscape:zoom="2.8"
     inkscape:cx="112.52532"
     inkscape:cy="25.549704"
     inkscape:document-units="px"
     inkscape:current-layer="layer1"
     showgrid="false"
     inkscape:window-width="1920"
     inkscape:window-height="1145"
     inkscape:window-x="-2"
     inkscape:window-y="-3"
     inkscape:window-maximized="1" />
  <metadata
     id="metadata7">
    <rdf:RDF>
      <cc:Work
         rdf:about="">
        <dc:format>image/svg+xml</dc:format>
        <dc:type
           rdf:resource="http://purl.org/dc/dcmitype/StillImage" />
        <dc:title />
      </cc:Work>
    </rdf:RDF>
  </metadata>
  <g
     inkscape:label="Layer 1"
     inkscape:groupmode="layer"
     id="layer1"
     transform="translate(0,-952.36218)">
    <path
       inkscape:connector-curvature="0"
       style="fill:#00006f;fill-opacity:1;display:inline"
       d="m 12.137458,952.36221 c -6.7024191,0 -12.1375005,5.43507 -12.1375005,12.1375 l 0,75.72499 c 0,6.7024 5.4350814,12.1375 12.1375005,12.1375 l 115.725002,0 c 6.70244,0 12.1375,-5.4351 12.1375,-12.1375 l 0,-75.72499 c 0,-6.70243 -5.43482,-12.1375 -12.1375,-12.1375 z"
       id="path3028-2"
       sodipodi:nodetypes="sssssssss" />
    <path
       style="fill:#ffffff;fill-opacity:1;stroke:none"
       d="m 6.1437153,953.94346 c -3.6690854,2.08799 -6.143749300001,6.0335 -6.143749300001,10.55625 l 0,8.99375 L 49.99371,1002.3622 -3.4000001e-5,1031.2309 l 0,8.9938 c 0,4.5227 2.474663900001,8.4682 6.143749300001,10.5562 l 63.8562427,-36.8687 63.856242,36.8687 c 3.66909,-2.088 6.14375,-6.0335 6.14375,-10.5562 l 0,-8.9938 -49.993745,-28.8687 49.993745,-28.86874 0,-8.99375 c 0,-4.52275 -2.47466,-8.46826 -6.14375,-10.55625 L 69.999958,990.8122 6.1437153,953.94346 z"
       id="rect3024-2-6-7"
       inkscape:connector-curvature="0" />
    <path
       style="fill:#ff0000;fill-opacity:1;stroke:none"
       d="m 2.2437157,957.47471 c -1.4102379,1.98295 -2.243749700001,4.40686 -2.243749700001,7.025 l 0,3.21875 L 60.006209,1002.3622 -3.4000001e-5,1037.0059 l 0,3.2188 c 0,2.6181 0.833511800001,5.042 2.243749700001,7.025 l 67.7562423,-39.1187 67.756242,39.1187 c 1.41024,-1.983 2.24375,-4.4069 2.24375,-7.025 l 0,-3.2188 -60.006244,-34.6437 60.006244,-34.64374 0,-3.21875 c 0,-2.61814 -0.83354,-5.04205 -2.24375,-7.025 L 69.999958,996.59345 2.2437157,957.47471 z"
       id="rect3024-2-6-7-4"
       inkscape:connector-curvature="0" />
    <rect
       style="fill:#ffffff;fill-opacity:1;stroke:none"
       id="rect3230"
       width="139.99998"
       height="29.999998"
       x="7.6293945e-06"
       y="987.36218" />
    <rect
       style="fill:#ffffff;fill-opacity:1;stroke:none"
       id="rect3232"
       width="29.999996"
       height="99.999992"
       x="55"
       y="952.36218" />
    <rect
       style="fill:#ff0000;fill-opacity:1;stroke:none"
       id="rect3234"
       width="14.999998"
       height="99.999992"
       x="62.5"
       y="952.36218" />
    <rect
       style="fill:#ff0000;fill-opacity:1;stroke:none"
       id="rect3236"
       width="139.99998"
       height="14.999999"
       x="7.6293945e-06"
       y="994.86218" />
    <path
       style="fill:#000000;fill-opacity:0.78431373;display:inline"
       d="m 12.137465,952.3622 c -6.7024157,0 -12.137518999943,5.43508 -12.137499000001,12.1375 l 0,75.725 c 0,6.7024 5.435083300001,12.1375 12.137499000001,12.1375 l 115.724985,0 c 6.70244,0 12.1375,-5.4351 12.1375,-12.1375 l 0,-75.725 c 0,-6.70242 -5.43484,-12.1375 -12.1375,-12.1375 z m 6.056249,8 103.606236,0 c 5.63024,0 10.2,4.56372 10.2,10.19375 l 0,63.60625 c 0,5.63 -4.56995,10.2 -10.2,10.2 l -103.606236,0 c -5.63003,0 -10.193749,-4.57 -10.193749,-10.2 l 0,-63.60625 c -1.6e-5,-5.63003 4.563719,-10.19375 10.193749,-10.19375 z"
       id="path7-8-6-9-2"
       inkscape:connector-curvature="0"
       sodipodi:nodetypes="ssssssssssssssssss" />
    <path
       inkscape:connector-curvature="0"
       style="fill:url(#linearGradient3019);fill-opacity:1;display:inline"
       d="m 12.137501,952.36218 c -6.7024199,0 -12.137501525625,5.4351 -12.137501525625,12.1375 l 0,75.72502 c 0,6.7024 5.435081625625,12.1375 12.137501525625,12.1375 l 115.724999,0 c 6.70244,0 12.1375,-5.4351 12.1375,-12.1375 l 0,-75.72502 c 0,-6.7024 -5.43482,-12.1375 -12.1375,-12.1375 z"
       id="path3028-2-9"
       sodipodi:nodetypes="sssssssss" />
  </g>
</svg>
