<svg xmlns="http://www.w3.org/2000/svg" viewBox="0 0 140 100"><defs><linearGradient id="0" gradientUnits="userSpaceOnUse" x1="128.86" y1="91.43" x2="66.857" y2="48.86"><stop stop-opacity=".374"/><stop offset="1" stop-opacity="0"/></linearGradient></defs><path d="m12.138 0c-6.702 0-12.138 5.435-12.138 12.138v75.73c0 6.702 5.435 12.138 12.138 12.138h115.72c6.702 0 12.138-5.435 12.138-12.138v-75.73c0-6.702-5.435-12.138-12.138-12.138z" fill="#333"/><path d="M 6.144,1.58 C 2.475,3.668 0,7.61 0,12.136 V 21.13 L 49.994,49.999 0,78.868 v 8.994 c 0,4.523 2.475,8.468 6.144,10.556 L 70,61.549 133.856,98.418 C 137.525,96.33 140,92.388 140,87.862 V 78.868 L 90.006,49.999 140,21.13 V 12.136 C 140,7.613 137.525,3.668 133.856,1.58 L 70,38.449 6.144,1.58" fill="#fff"/><path d="m2.244 5.11c-1.41 1.983-2.244 4.407-2.244 7.02v3.219l60.01 34.644-60.01 34.644v3.219c0 2.618.834 5.04 2.244 7.03l67.756-39.12 67.756 39.12c1.41-1.983 2.244-4.407 2.244-7.03v-3.219l-60.01-34.644 60.01-34.644v-3.219c0-2.618-.834-5.04-2.244-7.02l-67.756 39.12-67.756-39.12" fill="#b3b3b3"/><g transform="translate(0-952.36)" fill="#fff"><path d="m0 987.36h140v29.998h-140z"/><path d="m55 952.36h30v100h-30z"/></g><g transform="translate(0-952.36)" fill="#b3b3b3"><path d="m62.5 952.36h15v100h-15z"/><path d="m0 994.86h140v14.998h-140z"/></g><path d="m12.138 0c-6.702 0-12.138 5.435-12.138 12.138v75.73c0 6.702 5.435 12.138 12.138 12.138h115.72c6.702 0 12.137-5.435 12.137-12.138v-75.73c0-6.702-5.435-12.138-12.138-12.138z" fill="url(#0)"/></svg>