<svg xmlns="http://www.w3.org/2000/svg" viewBox="0 0 140 100"><defs><linearGradient id="0" gradientUnits="userSpaceOnUse" x1="128.86" y1="91.43" x2="66.857" y2="48.86"><stop stop-opacity=".374"/><stop offset="1" stop-opacity="0"/></linearGradient></defs><path d="m12.137 0c-6.702 0-12.138 5.435-12.138 12.138v75.72c0 6.702 5.435 12.138 12.138 12.138h115.73c6.702 0 12.137-5.435 12.137-12.138v-75.72c0-6.702-5.435-12.138-12.138-12.138z" fill="#fff"/><path d="m12.137 0c-6.702 0-12.137 5.435-12.137 12.138v75.72c0 6.702 5.435 12.138 12.137 12.138h34.36v-100h-34.36" fill="#333"/><path d="m93.5 0v100h34.36c6.702 0 12.137-5.435 12.137-12.138v-75.73c0-6.702-5.435-12.138-12.138-12.138h-34.36" fill="#999"/><path d="m12.137 0c-6.702 0-12.138 5.435-12.138 12.138v75.72c0 6.702 5.435 12.138 12.138 12.138h115.73c6.702 0 12.137-5.435 12.137-12.138v-75.73c0-6.702-5.435-12.138-12.138-12.138z" fill="url(#0)"/></svg>