<?xml version="1.0" encoding="UTF-8" standalone="no"?>
<!-- Created with Inkscape (http://www.inkscape.org/) -->

<svg
   xmlns:dc="http://purl.org/dc/elements/1.1/"
   xmlns:cc="http://creativecommons.org/ns#"
   xmlns:rdf="http://www.w3.org/1999/02/22-rdf-syntax-ns#"
   xmlns:svg="http://www.w3.org/2000/svg"
   xmlns="http://www.w3.org/2000/svg"
   xmlns:xlink="http://www.w3.org/1999/xlink"
   xmlns:sodipodi="http://sodipodi.sourceforge.net/DTD/sodipodi-0.dtd"
   xmlns:inkscape="http://www.inkscape.org/namespaces/inkscape"
   width="700"
   height="500"
   id="svg2"
   version="1.1"
   inkscape:version="0.48.4 r9939"
   sodipodi:docname="FlagEN.svg">
  <defs
     id="defs4">
    <linearGradient
       gradientUnits="userSpaceOnUse"
       y2="796.64795"
       x2="334.28577"
       y1="1009.505"
       x1="644.28564"
       id="linearGradient5328"
       xlink:href="#linearGradient5322"
       inkscape:collect="always" />
    <linearGradient
       id="linearGradient5322">
      <stop
         id="stop5324"
         offset="0"
         style="stop-color:#000000;stop-opacity:0.37391305;" />
      <stop
         id="stop5326"
         offset="1"
         style="stop-color:#000000;stop-opacity:0;" />
    </linearGradient>
    <linearGradient
       inkscape:collect="always"
       xlink:href="#linearGradient5322"
       id="linearGradient3019"
       gradientUnits="userSpaceOnUse"
       x1="644.28564"
       y1="1009.505"
       x2="334.28577"
       y2="796.64795"
       gradientTransform="translate(4.0375001e-6,-4e-5)" />
  </defs>
  <sodipodi:namedview
     id="base"
     pagecolor="#ffffff"
     bordercolor="#666666"
     borderopacity="1.0"
     inkscape:pageopacity="0.0"
     inkscape:pageshadow="2"
     inkscape:zoom="0.9899495"
     inkscape:cx="288.6838"
     inkscape:cy="164.95703"
     inkscape:document-units="px"
     inkscape:current-layer="layer1"
     showgrid="false"
     inkscape:window-width="1920"
     inkscape:window-height="1145"
     inkscape:window-x="-2"
     inkscape:window-y="-3"
     inkscape:window-maximized="1" />
  <metadata
     id="metadata7">
    <rdf:RDF>
      <cc:Work
         rdf:about="">
        <dc:format>image/svg+xml</dc:format>
        <dc:type
           rdf:resource="http://purl.org/dc/dcmitype/StillImage" />
        <dc:title />
      </cc:Work>
    </rdf:RDF>
  </metadata>
  <g
     inkscape:label="Layer 1"
     inkscape:groupmode="layer"
     id="layer1"
     transform="translate(0,-552.36218)">
    <path
       inkscape:connector-curvature="0"
       style="fill:#00006f;display:inline;fill-opacity:1"
       d="m 60.687468,552.36217 c -33.5121,0 -60.6875105,27.17539 -60.6875105,60.68752 l 0,378.62511 c 0,33.512 27.1754105,60.6874 60.6875105,60.6874 l 578.625072,0 c 33.5122,0 60.6875,-27.1754 60.6875,-60.6874 l 0,-378.62511 c 0,-33.51213 -27.17409,-60.68751 -60.6875,-60.68751 z"
       id="path3028-2"
       sodipodi:nodetypes="sssssssss" />
    <path
       style="fill:#ffffff;fill-opacity:1;stroke:none"
       d="M 30.71875 7.90625 C 12.373321 18.346217 0 38.073758 0 60.6875 L 0 105.65625 L 249.96875 250 L 0 394.34375 L 0 439.3125 C 0 461.92615 12.373321 481.65373 30.71875 492.09375 L 350 307.75 L 669.28125 492.09375 C 687.62668 481.65373 700 461.92615 700 439.3125 L 700 394.34375 L 450.03125 250 L 700 105.65625 L 700 60.6875 C 700 38.073758 687.62669 18.346217 669.28125 7.90625 L 350 192.25 L 30.71875 7.90625 z "
       transform="translate(0,552.36218)"
       id="rect3024-2-6-7" />
    <path
       style="fill:#ff0000;fill-opacity:1;stroke:none"
       d="M 11.21875 25.5625 C 4.1675595 35.477272 0 47.596824 0 60.6875 L 0 76.78125 L 300.03125 250 L 0 423.21875 L 0 439.3125 C 0 452.40312 4.1675595 464.52272 11.21875 474.4375 L 350 278.84375 L 688.78125 474.4375 C 695.83243 464.52272 700 452.40312 700 439.3125 L 700 423.21875 L 399.96875 250 L 700 76.78125 L 700 60.6875 C 700 47.596824 695.83228 35.477272 688.78125 25.5625 L 350 221.15625 L 11.21875 25.5625 z "
       transform="translate(0,552.36218)"
       id="rect3024-2-6-7-4" />
    <path
       style="fill:#ffffff;fill-opacity:1;stroke:none"
       d="M 283.40625 0 C 280.12747 0 277.5 2.6274745 277.5 5.90625 L 277.5 177.5 L 5.90625 177.5 C 2.6274745 177.5 0 180.12747 0 183.40625 L 0 316.59375 C 0 319.87253 2.6274745 322.5 5.90625 322.5 L 277.5 322.5 L 277.5 494.09375 C 277.5 497.37253 280.12747 500 283.40625 500 L 416.59375 500 C 419.87253 500 422.5 497.37253 422.5 494.09375 L 422.5 322.5 L 694.09375 322.5 C 697.37253 322.5 700 319.87253 700 316.59375 L 700 183.40625 C 700 180.12747 697.37253 177.5 694.09375 177.5 L 422.5 177.5 L 422.5 5.90625 C 422.5 2.6274745 419.87253 0 416.59375 0 L 283.40625 0 z "
       transform="translate(0,552.36218)"
       id="rect3024" />
    <path
       style="fill:#ff0000;fill-opacity:1;stroke:none"
       d="M 313.25 0 C 311.44102 0 310 1.4410203 310 3.25 L 310 210 L 3.25 210 C 1.4410203 210 0 211.44102 0 213.25 L 0 286.75 C 0 288.55898 1.4410203 290 3.25 290 L 310 290 L 310 496.75 C 310 498.55898 311.44102 500 313.25 500 L 386.75 500 C 388.55898 500 390 498.55898 390 496.75 L 390 290 L 696.75 290 C 698.55898 290 700 288.55898 700 286.75 L 700 213.25 C 700 211.44102 698.55898 210 696.75 210 L 390 210 L 390 3.25 C 390 1.4410203 388.55898 0 386.75 0 L 313.25 0 z "
       transform="translate(0,552.36218)"
       id="rect3024-9" />
    <path
       inkscape:connector-curvature="0"
       style="fill:url(#linearGradient3019);fill-opacity:1;display:inline"
       d="m 60.687471,552.36217 c -33.5121,0 -60.6875115125,27.1754 -60.6875115125,60.6875 l 0,378.62512 c 0,33.51201 27.1754115125,60.68741 60.6875115125,60.68741 l 578.625069,0 c 33.5122,0 60.6875,-27.1754 60.6875,-60.68741 l 0,-378.62512 c 0,-33.5121 -27.17409,-60.6875 -60.6875,-60.6875 z"
       id="path3028-2-9"
       sodipodi:nodetypes="sssssssss" />
    <path
       style="fill:#000000;fill-opacity:0.78431373;display:inline"
       d="m 60.6875,552.36214 c -33.51208,0 -60.687599999724,27.1754 -60.6875,60.6875 l 0,378.62504 c 0,33.51202 27.17542,60.68752 60.6875,60.68752 l 578.625,0 c 33.5122,0 60.6875,-27.1755 60.6875,-60.68752 l 0,-378.62504 c 0,-33.5121 -27.1742,-60.6875 -60.6875,-60.6875 z m 30.28125,40 518.03125,0 c 28.15118,0 51,22.81859 51,50.96875 l 0,318.03129 c 0,28.1501 -22.84975,51.00002 -51,51.00002 l -518.03125,0 C 62.8186,1012.3622 40,989.51228 40,961.36218 l 0,-318.03129 c -8e-5,-28.15016 22.8186,-50.96875 50.96875,-50.96875 z"
       id="path7-8-6-9-2"
       inkscape:connector-curvature="0"
       sodipodi:nodetypes="ssssssssssssssssss" />
  </g>
</svg>
