<svg xmlns="http://www.w3.org/2000/svg" viewBox="0 0 140 100"><defs><linearGradient id="0" gradientUnits="userSpaceOnUse" x1="128.86" y1="1043.79" x2="66.857" y2="1001.22"><stop stop-opacity=".374"/><stop offset="1" stop-opacity="0"/></linearGradient></defs><g transform="translate(0-952.36)"><path d="m12.138 952.36c-6.702 0-12.138 5.435-12.138 12.138v75.73c0 6.702 5.435 12.138 12.138 12.138h115.72c6.702 0 12.138-5.435 12.138-12.138v-75.73c0-6.702-5.435-12.138-12.138-12.138z" fill="#333"/><path d="m6.144 953.94c-3.669 2.088-6.144 6.03-6.144 10.556v8.994l49.994 28.869-49.994 28.869v8.994c0 4.523 2.475 8.468 6.144 10.556l63.856-36.869 63.856 36.869c3.669-2.088 6.144-6.03 6.144-10.556v-8.994l-49.994-28.869 49.994-28.869v-8.994c0-4.523-2.475-8.468-6.144-10.556l-63.856 36.869-63.856-36.869" fill="#fff"/><path d="m2.244 957.47c-1.41 1.983-2.244 4.407-2.244 7.02v3.219l60.01 34.644-60.01 34.644v3.219c0 2.618.834 5.04 2.244 7.03l67.756-39.12 67.756 39.12c1.41-1.983 2.244-4.407 2.244-7.03v-3.219l-60.01-34.644 60.01-34.644v-3.219c0-2.618-.834-5.04-2.244-7.02l-67.756 39.12-67.756-39.12" fill="#b3b3b3"/><g fill="#fff"><path d="m0 987.36h140v29.998h-140z"/><path d="m55 952.36h30v100h-30z"/></g><g fill="#b3b3b3"><path d="m62.5 952.36h15v100h-15z"/><path d="m0 994.86h140v14.998h-140z"/></g><path d="m12.138 952.36c-6.702 0-12.138 5.435-12.138 12.138v75.73c0 6.702 5.435 12.138 12.138 12.138h115.72c6.702 0 12.137-5.435 12.137-12.138v-75.73c0-6.702-5.435-12.138-12.138-12.138zm6.06 8h103.61c5.63 0 10.2 4.564 10.2 10.194v63.61c0 5.63-4.57 10.2-10.2 10.2h-103.61c-5.63 0-10.194-4.57-10.194-10.2v-63.61c0-5.63 4.564-10.194 10.194-10.194" fill-opacity=".784"/><path d="m12.138 952.36c-6.702 0-12.138 5.435-12.138 12.138v75.73c0 6.702 5.435 12.138 12.138 12.138h115.72c6.702 0 12.137-5.435 12.137-12.138v-75.73c0-6.702-5.435-12.138-12.138-12.138z" fill="url(#0)"/></g></svg>