<svg xmlns="http://www.w3.org/2000/svg" viewBox="0 0 140 100"><defs><linearGradient id="0" x1="128.86" y1="1043.79" x2="66.857" y2="1001.22" gradientUnits="userSpaceOnUse"><stop stop-opacity=".374"/><stop offset="1" stop-opacity="0"/></linearGradient></defs><g transform="translate(0-952.36)"><path d="m12.137 952.36c-6.702 0-12.138 5.435-12.138 12.138v75.72c0 6.702 5.435 12.138 12.138 12.138h115.73c6.702 0 12.137-5.435 12.137-12.138v-75.72c0-6.702-5.435-12.138-12.138-12.138z" fill="#fff"/><path d="m12.137 952.36c-6.702 0-12.137 5.435-12.137 12.138v75.72c0 6.702 5.435 12.138 12.137 12.138h34.36v-100h-34.36" fill="#333"/><path d="m93.5 952.36v100h34.36c6.702 0 12.137-5.435 12.137-12.138v-75.73c0-6.702-5.435-12.138-12.138-12.138h-34.36" fill="#999"/><path d="m12.137 952.36c-6.702 0-12.138 5.435-12.138 12.138v75.72c0 6.702 5.435 12.138 12.138 12.138h115.73c6.702 0 12.137-5.435 12.137-12.138v-75.73c0-6.702-5.435-12.138-12.138-12.138z" fill="url(#0)"/><path d="m12.137 952.36c-6.702 0-12.138 5.435-12.137 12.138v75.72c0 6.702 5.435 12.138 12.137 12.138h115.72c6.702 0 12.138-5.435 12.138-12.138v-75.73c0-6.702-5.435-12.138-12.138-12.138zm6.06 8h103.61c5.63 0 10.2 4.564 10.2 10.194v63.61c0 5.63-4.57 10.2-10.2 10.2h-103.61c-5.63 0-10.194-4.57-10.194-10.2v-63.61c0-5.63 4.564-10.194 10.194-10.194" fill-opacity=".784"/></g></svg>