<?xml version="1.0" encoding="UTF-8" standalone="no"?>
<!-- Created with Inkscape (http://www.inkscape.org/) -->

<svg
   xmlns:dc="http://purl.org/dc/elements/1.1/"
   xmlns:cc="http://creativecommons.org/ns#"
   xmlns:rdf="http://www.w3.org/1999/02/22-rdf-syntax-ns#"
   xmlns:svg="http://www.w3.org/2000/svg"
   xmlns="http://www.w3.org/2000/svg"
   xmlns:xlink="http://www.w3.org/1999/xlink"
   xmlns:sodipodi="http://sodipodi.sourceforge.net/DTD/sodipodi-0.dtd"
   xmlns:inkscape="http://www.inkscape.org/namespaces/inkscape"
   width="140"
   height="100"
   id="svg2"
   version="1.1"
   inkscape:version="0.48.4 r9939"
   sodipodi:docname="FlagEN_NB.svg">
  <defs
     id="defs4">
    <linearGradient
       gradientUnits="userSpaceOnUse"
       y2="796.64795"
       x2="334.28577"
       y1="1009.505"
       x1="644.28564"
       id="linearGradient5328"
       xlink:href="#linearGradient5322"
       inkscape:collect="always" />
    <linearGradient
       id="linearGradient5322">
      <stop
         id="stop5324"
         offset="0"
         style="stop-color:#000000;stop-opacity:0.37391305;" />
      <stop
         id="stop5326"
         offset="1"
         style="stop-color:#000000;stop-opacity:0;" />
    </linearGradient>
    <linearGradient
       inkscape:collect="always"
       xlink:href="#linearGradient5322"
       id="linearGradient3019"
       gradientUnits="userSpaceOnUse"
       x1="644.28564"
       y1="1009.505"
       x2="334.28577"
       y2="796.64795"
       gradientTransform="matrix(0.19999998,0,0,0.19999998,199.99997,841.88977)" />
    <linearGradient
       inkscape:collect="always"
       xlink:href="#linearGradient5322-8"
       id="linearGradient3019-5"
       gradientUnits="userSpaceOnUse"
       x1="644.28564"
       y1="1009.505"
       x2="334.28577"
       y2="796.64795"
       gradientTransform="matrix(0.19999998,0,0,0.19999998,1e-5,841.88977)" />
    <linearGradient
       id="linearGradient5322-8">
      <stop
         id="stop5324-5"
         offset="0"
         style="stop-color:#000000;stop-opacity:0.37391305;" />
      <stop
         id="stop5326-0"
         offset="1"
         style="stop-color:#000000;stop-opacity:0;" />
    </linearGradient>
  </defs>
  <sodipodi:namedview
     id="base"
     pagecolor="#ffffff"
     bordercolor="#666666"
     borderopacity="1.0"
     inkscape:pageopacity="0.0"
     inkscape:pageshadow="2"
     inkscape:zoom="1.979899"
     inkscape:cx="-65.708499"
     inkscape:cy="-1.6475145"
     inkscape:document-units="px"
     inkscape:current-layer="layer1"
     showgrid="false"
     inkscape:window-width="1920"
     inkscape:window-height="1145"
     inkscape:window-x="-2"
     inkscape:window-y="-3"
     inkscape:window-maximized="1" />
  <metadata
     id="metadata7">
    <rdf:RDF>
      <cc:Work
         rdf:about="">
        <dc:format>image/svg+xml</dc:format>
        <dc:type
           rdf:resource="http://purl.org/dc/dcmitype/StillImage" />
        <dc:title />
      </cc:Work>
    </rdf:RDF>
  </metadata>
  <g
     inkscape:label="Layer 1"
     inkscape:groupmode="layer"
     id="layer1"
     transform="translate(0,-952.36218)">
    <path
       inkscape:connector-curvature="0"
       style="fill:#333333;fill-opacity:1;display:inline"
       d="m 12.137502,952.36218 c -6.7024203,0 -12.13750175,5.4351 -12.13750175,12.1375 l 0,75.72502 c 0,6.7024 5.43508145,12.1375 12.13750175,12.1375 l 115.724998,0 c 6.70244,0 12.1375,-5.4351 12.1375,-12.1375 l 0,-75.72502 c 0,-6.7024 -5.43482,-12.1375 -12.1375,-12.1375 z"
       id="path3028-2-0"
       sodipodi:nodetypes="sssssssss" />
    <path
       style="fill:#ffffff;fill-opacity:1;stroke:none"
       d="m 6.1437597,953.94343 c -3.669086,2.088 -6.14375045,6.0335 -6.14375045,10.5563 l 0,8.9937 49.99374475,28.86877 -49.99374475,28.8687 0,8.9938 c 0,4.5227 2.47466445,8.4682 6.14375045,10.5562 l 63.8562423,-36.8687 63.856238,36.8687 c 3.66909,-2.088 6.14375,-6.0335 6.14375,-10.5562 l 0,-8.9938 -49.99374,-28.8687 49.99374,-28.86877 0,-8.9937 c 0,-4.5228 -2.47466,-8.4683 -6.14375,-10.5563 l -63.856238,36.8688 -63.8562423,-36.8688 z"
       id="rect3024-2-6-7-8"
       inkscape:connector-curvature="0" />
    <path
       style="fill:#b3b3b3;fill-opacity:1;stroke:none"
       d="m 2.2437597,957.47468 c -1.41023795,1.9829 -2.24375045,4.4068 -2.24375045,7.025 l 0,3.2187 60.00624375,34.64382 -60.00624375,34.6437 0,3.2188 c 0,2.6181 0.8335125,5.042 2.24375045,7.025 l 67.7562423,-39.1187 67.756238,39.1187 c 1.41024,-1.983 2.24375,-4.4069 2.24375,-7.025 l 0,-3.2188 -60.00624,-34.6437 60.00624,-34.64382 0,-3.2187 c 0,-2.6182 -0.83354,-5.0421 -2.24375,-7.025 l -67.756238,39.1187 -67.7562423,-39.1187 z"
       id="rect3024-2-6-7-4-6"
       inkscape:connector-curvature="0" />
    <rect
       style="fill:#ffffff;fill-opacity:1;stroke:none"
       id="rect3230"
       width="139.99998"
       height="29.999998"
       x="7.6293945e-06"
       y="987.36218" />
    <rect
       style="fill:#ffffff;fill-opacity:1;stroke:none"
       id="rect3232"
       width="29.999996"
       height="99.999992"
       x="55"
       y="952.36218" />
    <rect
       style="fill:#b3b3b3;fill-opacity:1;stroke:none"
       id="rect3234"
       width="14.999998"
       height="99.999992"
       x="62.5"
       y="952.36218" />
    <rect
       style="fill:#b3b3b3;fill-opacity:1;stroke:none"
       id="rect3236"
       width="139.99998"
       height="14.999999"
       x="7.6293945e-06"
       y="994.86218" />
    <path
       style="fill:#000000;fill-opacity:0.78431373;display:inline"
       d="m 12.13751,952.36218 c -6.7024162,0 -12.137520749972,5.4351 -12.1375007499724,12.1375 l 0,75.72502 c 0,6.7024 5.4350845499724,12.1375 12.1375007499724,12.1375 l 115.72498,0 c 6.70244,0 12.1375,-5.4351 12.1375,-12.1375 l 0,-75.72502 c 0,-6.7024 -5.43484,-12.1375 -12.1375,-12.1375 z m 6.056247,8 103.606233,0 c 5.63024,0 10.2,4.5637 10.2,10.1937 l 0,63.60632 c 0,5.63 -4.56995,10.2 -10.2,10.2 l -103.606233,0 c -5.630029,0 -10.1937482,-4.57 -10.1937482,-10.2 l 0,-63.60632 c -1.6e-5,-5.63 4.5637192,-10.1937 10.1937482,-10.1937 z"
       id="path7-8-6-9-2-5"
       inkscape:connector-curvature="0"
       sodipodi:nodetypes="ssssssssssssssssss" />
    <path
       inkscape:connector-curvature="0"
       style="fill:url(#linearGradient3019-5);fill-opacity:1;display:inline"
       d="M 12.13751,952.36218 C 5.43509,952.36218 0,957.79728 0,964.49968 l 0,75.72502 c 0,6.7024 5.43509,12.1375 12.13751,12.1375 l 115.72499,0 c 6.70244,0 12.1375,-5.4351 12.1375,-12.1375 l 0,-75.72502 c 0,-6.7024 -5.43482,-12.1375 -12.1375,-12.1375 z"
       id="path3028-2-9-8"
       sodipodi:nodetypes="sssssssss" />
  </g>
</svg>
