<svg xmlns="http://www.w3.org/2000/svg" viewBox="0 0 100 100"><defs><clipPath><path d="m0 595.28h841.89v-595.28h-841.89v595.28"/></clipPath><linearGradient y2="61.754" x2="48.725" y1="85.34" x1="84.49" gradientUnits="userSpaceOnUse" id="2"><stop stop-opacity=".374"/><stop offset="1" stop-opacity="0"/></linearGradient><linearGradient id="1" gradientUnits="userSpaceOnUse" y1="372.12" x2="0" y2="237.37"><stop stop-color="#abd33c"/><stop offset="1" stop-color="#6cb02f"/></linearGradient><linearGradient id="0" gradientUnits="userSpaceOnUse" y1="247.73" x2="0" y2="382.48"><stop stop-color="#ea5f29"/><stop offset="1" stop-color="#fabd1f"/></linearGradient></defs><path d="m12.138 0c-6.702 0-12.138 5.435-12.138 12.138v75.73c0 6.702 5.435 12.138 12.138 12.137h75.72c6.702 0 12.137-5.435 12.138-12.137v-75.73c0-6.702-5.435-12.138-12.138-12.138z" fill="#fff"/><path d="m135.38 382.48c-34.431 0-52-19.863-52-56.949v-25.906-51.899l33.728 33.817v39.523c0 15.364 4.065 25.14 17.702 27.336 4.764.933 14.679.606 20.983.606v-23.467c0-.214.029-.596.084-.792.264-.95 1.122-1.646 2.138-1.648.575-.001 1.113.298 1.668.846l58.45 58.52-39.23.009h-43.515" fill="url(#0)" transform="matrix(.48317 0 0-.48238-25.283 199.5)"/><path d="m194.52 338.31v-39.522c0-15.364-4.066-25.14-17.702-27.337-4.764-.932-14.679-.605-20.983-.605v23.466c0 .213-.029.596-.084.792-.264.951-1.121 1.646-2.138 1.648-.575.002-1.113-.298-1.668-.845l-58.45-58.52 39.23-.009h43.515c34.431 0 52 19.863 52 56.948v25.907 51.898l-33.728-33.817" fill="url(#1)" transform="matrix(.48317 0 0-.48238-25.283 199.5)"/><path d="m12.138 0c-6.702 0-12.138 5.435-12.138 12.137v75.73c0 6.702 5.435 12.138 12.138 12.138h75.73c6.702 0 12.137-5.435 12.137-12.138v-75.73c0-6.702-5.435-12.137-12.137-12.137z" fill="url(#2)"/></svg>