<?xml version="1.0" encoding="UTF-8" standalone="no"?>
<!-- Created with Inkscape (http://www.inkscape.org/) -->

<svg
   xmlns:dc="http://purl.org/dc/elements/1.1/"
   xmlns:cc="http://creativecommons.org/ns#"
   xmlns:rdf="http://www.w3.org/1999/02/22-rdf-syntax-ns#"
   xmlns:svg="http://www.w3.org/2000/svg"
   xmlns="http://www.w3.org/2000/svg"
   xmlns:sodipodi="http://sodipodi.sourceforge.net/DTD/sodipodi-0.dtd"
   xmlns:inkscape="http://www.inkscape.org/namespaces/inkscape"
   width="500"
   height="500"
   id="svg3932"
   version="1.1"
   inkscape:version="0.48.4 r9939"
   sodipodi:docname="G+.svg">
  <g
     transform="translate(0,-552.36218)">
    <path
       d="m 439.32025,552.36227 -378.6407,0 c -33.5121,0 -60.6795,27.1675 -60.6795,60.6796 l 0,378.64052 c 0,33.51221 27.1675,60.67971 60.6795,60.67971 l 378.6407,0 c 33.5122,0 60.6797,-27.1675 60.6797,-60.67971 l 0,-378.64052 c 0,-33.5121 -27.1662,-60.6796 -60.6797,-60.6796 z"
       style="fill:#ffffff;fill-opacity:1;display:inline" />
    <path
       style="fill:#1a1a1a;display:inline"
       d="m 60.656295,552.36217 c -33.51249,0 -60.6562900000001,27.1754 -60.6562900000001,60.6875 l 0,378.6563 c 0,33.51193 27.1440000000001,60.65623 60.6562900000001,60.65623 l 378.656195,0 c 33.5122,0 60.6875,-27.1441 60.6875,-60.65623 l 0,-378.6563 c 0,-33.5121 -27.1741,-60.6875 -60.6875,-60.6875 z m 181.593695,50.8438 c 0.1622,0 0.3093,0.029 0.4063,0.062 4.1473,1.4149 11.2812,8.3107 11.2812,10.9063 -2.4445,8.5857 -18.0995,23.2653 -18.8125,30.5937 0,1.4142 3.3758,6.4084 7.5,11.0938 15.9331,18.1009 23.2469,42.7399 19.375,65.3438 -3.3657,19.6484 -8.5544,28.1834 -29.7187,48.875 -21.4537,20.9735 -23.4688,23.922 -23.4688,34.25 0,9.504 2.8254,13.1834 21.2188,27.5624 42.096,32.909 56.5472,59.4298 49.3124,90.625 -4.1981,18.1027 -12.8508,32.9628 -26.6874,45.9063 -35.8532,29.8374 -83.1215,38.48103 -129.4063,32.06253 -36.807195,-5.88713 -63.041795,-22.15563 -74.468695,-46.18753 -12.71219,-26.7351 -2.1975,-59.2488 25.5,-78.8437 20.1999,-14.2908 41.979895,-21.5791 76.624995,-25.625 10.6545,-1.2445 20.1022,-2.8824 20.9687,-3.6563 -8.8866,-20.9988 -9.0711,-29.5031 -9.0315,-50.7187 l -13.5,0 c -41.0742,0 -73.249695,-26.3805 -79.968695,-65.5626 -6.1384,-35.7962 15.6555,-74.446 51.499995,-91.375 18.3575,-8.6698 32.8991,-12.1365 58.2813,-13.8437 21.0288,-1.4145 21.3587,-1.5105 40.9374,-11.9063 10.1765,-5.4031 19.7237,-9.5068 22.1563,-9.5624 z m 127.7813,0 20.0312,0 0,66.5 66.4688,0 0,20.2812 -66.4688,0 0,66.4688 -20.0312,0 0,-66.4688 -66.5,0 0,-20.2812 66.5,0 z m -248.4063,55.5622 c -6.9218,9.0752 -11.2307,27.6422 -9.6875,41.6876 6.7807,61.7109 45.4004,95.8183 84.5312,74.6562 22.7493,-12.3028 29.0438,-40.1065 17.5626,-77.3438 -5.5184,-17.8973 -11.9215,-29.469 -22.5313,-40.6874 -21.0403,-19.5685 -50.7621,-22.6744 -69.875,1.6874 z m 71.4687,203.4378 -17.0624,0.375 c -54.5746,1.2339 -88.012595,22.8102 -88.249995,56.9374 -0.1965,28.2067 20.254295,49.3758 55.374995,57.3438 17.9002,4.0612 52.0018,2.654 66.1874,-2.75 24.1239,-9.1896 36.1638,-24.9118 36.0626,-47.0312 -0.092,-20.2251 -8.0458,-31.6159 -37.4688,-53.7188 z" />
  </g>
</svg>
