<svg xmlns="http://www.w3.org/2000/svg" xmlns:xlink="http://www.w3.org/1999/xlink" viewBox="0 0 100 100"><defs><path id="0" d="m-420.02 391.15c0 18.14-9.426 32.839-21.05 32.839-11.628 0-21.05-14.703-21.05-32.839 0-18.14 9.426-32.839 21.05-32.839 11.628 0 21.05 14.703 21.05 32.839"/><path id="1" d="m-378.97 375.93c0 3.876-3.142 7.02-7.02 7.02-3.876 0-7.02-3.142-7.02-7.02 0-3.876 3.142-7.02 7.02-7.02 3.876 0 7.02 3.142 7.02 7.02"/><clipPath><path d="m0 0h3091v1766.7h-3091v-1766.7"/></clipPath><linearGradient id="2" gradientUnits="userSpaceOnUse" x1="84.49" y1="85.34" x2="48.725" y2="61.754" gradientTransform="matrix(1 0 0 .99995.002 0)"><stop stop-opacity=".374"/><stop offset="1" stop-opacity="0"/></linearGradient></defs><path d="m12.13.007c-6.703 0-12.13 5.435-12.13 12.137v75.73c0 6.702 5.429 12.13 12.13 12.13h75.73c6.702 0 12.138-5.429 12.138-12.13v-75.73c0-6.702-5.435-12.137-12.138-12.137z" fill="#fff"/><g transform="matrix(1.15387 0 0 1.15379-7.694-15.379)"><path d="m29.28 22c-.111 0-.217.002-.31.006-.496.023-.737.103-.737.103-2.48 6.292-.914 10.935-.439 12.09-2.922 3.199-4.705 7.273-4.705 12.26 0 4.308.652 7.796 1.777 10.619l.252.62.821 1.635.375.633c3.927 6.327 10.869 8.303 17.586 9.07-1.306 1.141-2.492 3.156-2.902 6.108-2.607 1.167-9.22 3.189-13.295-3.794 0 0-2.412-4.383-7-4.705 0 0-4.461-.063-.317 2.773 0 0 2.996 1.403 5.074 6.683 0 0 2.68 8.153 15.389 5.39.014 2.779.038 13.268.051 18.509h22.673c.016-5.724.045-17.883.045-22.535 0-4.262-1.464-7.04-3.102-8.46 6.629-.737 13.477-2.637 17.444-8.725l.394-.633.86-1.642.271-.62c1.201-2.874 1.894-6.455 1.894-10.923 0-4.987-1.775-9.06-4.705-12.26.474-1.151 2.041-5.794-.446-12.09 0 0-3.832-1.232-12.551 4.679-3.651-1.013-7.558-1.521-11.44-1.538-3.882.017-7.796.525-11.44 1.538-6.137-4.156-9.85-4.783-11.517-4.789" fill="#201f1f"/><g transform="matrix(.20682 0 0 .20682-.271-5.277)"><path d="m193.9 234.92c-3.249-.019-5.596.159-8.516.461-14.11 1.463-21.931 5.212-30.791 14.766-11.279 12.163-15.01 22.973-13.424 38.887 3.702 37.02 27.345 54.55 79.68 59.09 3.692.32 21.511.516 39.6.419 26.656-.142 34.542-.399 41.613-1.342 41.43-5.528 59.26-23.25 61.16-60.763.803-15.863-4.108-27.415-16.738-39.41-5.876-5.582-12.01-8.828-20.261-10.718-6.887-1.577-25.25-1.551-41.613.063-19.324 1.906-39.614 2.069-60.07.482-17.297-1.341-25.23-1.897-30.644-1.93" fill="#f2c8b0"/><use xlink:href="#0" transform="matrix(1.06599 0 0 .99242 661.23-104.14)" width="100" height="100" fill="#fff"/><use xlink:href="#0" transform="matrix(.68207 0 0 .64939 494.05 30.637)" width="100" height="100" fill="#a96054"/><g fill="#fff"><use xlink:href="#1" transform="matrix(.64939 0 0 .64939 437.93 30.723)" width="100" height="100"/><use xlink:href="#0" transform="matrix(1.06599 0 0 .99242 782.48-103.54)" width="100" height="100"/></g><use xlink:href="#0" transform="matrix(.68207 0 0 .64939 610.91 30.465)" width="100" height="100" fill="#a96054"/><use xlink:href="#1" transform="matrix(.64939 0 0 .64939 556.25 30.03)" width="100" height="100" fill="#fff"/><g fill="#a96054"><use xlink:href="#1" transform="matrix(.75967 0 0 .75967 543.7 27.361)" width="100" height="100"/><path transform="matrix(.64939 0 0 .64939 370.43 269.69)" d="m-192.7 101.27c-6.776-2.96-12.594-10.317-11.145-14.09.953-2.483 2.457-1.759 5.311 2.554 6.932 10.476 20.838 10.321 27.873-.31 1.416-2.14 3.111-3.713 3.768-3.497 4.262 1.403-1.448 11.174-8.533 14.603-5.03 2.435-12.652 2.763-17.274.744"/></g></g></g><path d="m12.14 0c-6.702 0-12.138 5.435-12.138 12.137v75.73c0 6.702 5.435 12.137 12.138 12.136h75.72c6.702 0 12.137-5.435 12.138-12.136v-75.73c0-6.702-5.435-12.137-12.138-12.137z" fill="url(#2)"/></svg>