<?xml version="1.0" encoding="UTF-8" standalone="no"?>
<!-- Created with Inkscape (http://www.inkscape.org/) -->

<svg
   xmlns:dc="http://purl.org/dc/elements/1.1/"
   xmlns:cc="http://creativecommons.org/ns#"
   xmlns:rdf="http://www.w3.org/1999/02/22-rdf-syntax-ns#"
   xmlns:svg="http://www.w3.org/2000/svg"
   xmlns="http://www.w3.org/2000/svg"
   xmlns:sodipodi="http://sodipodi.sourceforge.net/DTD/sodipodi-0.dtd"
   xmlns:inkscape="http://www.inkscape.org/namespaces/inkscape"
   width="500"
   height="500"
   id="svg3932"
   version="1.1"
   inkscape:version="0.48.4 r9939"
   sodipodi:docname="GitHub.svg">
  <metadata
     id="metadata13">
    <rdf:RDF>
      <cc:Work
         rdf:about="">
        <dc:format>image/svg+xml</dc:format>
        <dc:type
           rdf:resource="http://purl.org/dc/dcmitype/StillImage" />
      </cc:Work>
    </rdf:RDF>
  </metadata>
  <defs
     id="defs11">
    <clipPath
       id="clipPath3017"
       clipPathUnits="userSpaceOnUse">
      <path
         id="path3019"
         d="m 0,0 3091,0 0,1766.7 -3091,0 L 0,0 z" />
    </clipPath>
    <clipPath
       id="clipPath4573"
       clipPathUnits="userSpaceOnUse">
      <path
         id="path4575"
         d="m 0,0 3091,0 0,1766.7 -3091,0 L 0,0 z" />
    </clipPath>
  </defs>
  <sodipodi:namedview
     pagecolor="#ffffff"
     bordercolor="#666666"
     borderopacity="1"
     objecttolerance="10"
     gridtolerance="10"
     guidetolerance="10"
     inkscape:pageopacity="0"
     inkscape:pageshadow="2"
     inkscape:window-width="1920"
     inkscape:window-height="1145"
     id="namedview9"
     showgrid="false"
     inkscape:zoom="1.3350176"
     inkscape:cx="318.88956"
     inkscape:cy="202.22907"
     inkscape:window-x="-2"
     inkscape:window-y="-3"
     inkscape:window-maximized="1"
     inkscape:current-layer="svg3932" />
  <path
     style="fill:#ffffff;fill-opacity:1;display:inline"
     d="M 68.26,10 C 36.08838,10 9.9999,36.08838 10,68.26 l 0,363.48 c 0,32.17155 26.08838,58.2601 58.26,58.26 l 363.48,0 c 32.17171,0 58.2599,-26.08845 58.26,-58.26 L 490,68.26 C 490,36.08838 463.91277,10 431.74,10 z"
     id="path7-3"
     inkscape:connector-curvature="0"
     sodipodi:nodetypes="sssssssss" />
  <path
     style="fill:#201f1f;fill-opacity:1;display:inline"
     d="m 146.39409,110.0002 c -0.55564,-0.002 -1.08607,0.011 -1.55114,0.0323 -2.48042,0.11371 -3.68396,0.51705 -3.68396,0.51705 -12.40216,31.46122 -4.56895,54.67322 -2.19745,60.42989 -14.61103,15.99535 -23.52565,36.36571 -23.52565,61.30242 0,21.53869 3.26064,38.97772 8.88675,53.09429 l 1.2603,3.10228 4.10406,8.17581 1.8743,3.16697 c 19.63326,31.63639 54.3429,41.51711 87.93035,45.33858 -6.53204,5.70282 -12.45964,15.77868 -14.50964,30.5381 -13.03382,5.83628 -46.10141,15.94744 -66.47289,-18.96917 0,0 -12.06175,-21.91556 -34.99763,-23.52565 0,-1e-4 -22.306685,-0.31317 -1.58346,13.86333 0,0 14.97765,7.01313 25.36763,33.41418 0,0 13.40043,40.7669 76.94309,26.95109 0.0716,13.89608 0.18843,26.3639 0.25853,52.56835 l 113.36261,0 c 0.0804,-28.61822 0.22621,-49.44073 0.22621,-72.70088 0,-21.31083 -7.31896,-35.21376 -15.51142,-42.30093 33.14322,-3.6855 67.38314,-13.18299 87.21941,-43.62586 l 1.97124,-3.16692 4.29795,-8.20812 1.35725,-3.10228 c 6.00596,-14.37238 9.46843,-32.27535 9.46843,-54.61312 0,-24.93671 -8.87679,-45.30707 -23.52565,-61.30241 2.37151,-5.75667 10.20266,-28.96868 -2.22977,-60.4299 0,0 -19.16179,-6.15856 -62.75661,23.39639 -18.25338,-5.06452 -37.78758,-7.60422 -57.19835,-7.69108 -19.41077,0.087 -38.979,2.62656 -57.19835,7.69108 -30.68717,-20.78083 -49.25151,-23.91621 -57.58614,-23.94575 z"
     id="path7-3-0-7"
     inkscape:connector-curvature="0"
     sodipodi:nodetypes="ccccscccccccccccccscccccscccccc" />
  <g
     id="g3600"
     transform="matrix(1.0340945,0,0,1.0340945,-1.3555679,-26.385257)">
    <path
       sodipodi:nodetypes="sssssssssssss"
       inkscape:connector-curvature="0"
       id="rect3461"
       d="m 193.89987,234.9165 c -3.24865,-0.0194 -5.59589,0.15863 -8.51566,0.46144 -14.10521,1.46283 -21.93069,5.21182 -30.79061,14.76607 -11.27923,12.16315 -15.01483,22.97269 -13.4237,38.88678 3.70166,37.02289 27.34457,54.54838 79.68223,59.08524 3.69152,0.32 21.51148,0.51583 39.59991,0.41949 26.65574,-0.14197 34.54153,-0.39878 41.61346,-1.34237 41.42922,-5.52782 59.26381,-23.24943 61.16172,-60.7632 0.80258,-15.86341 -4.10833,-27.41451 -16.73767,-39.41114 -5.87604,-5.58167 -12.00969,-8.82803 -20.26139,-10.71799 -6.8866,-1.57729 -25.25163,-1.55062 -41.61347,0.0629 -19.3235,1.90563 -39.61419,2.06862 -60.07104,0.48241 -17.29749,-1.34124 -25.22938,-1.89738 -30.64378,-1.92966 z"
       style="fill:#f2c8b0;fill-opacity:1;stroke:none" />
    <path
       transform="matrix(1.0659879,0,0,0.99242206,661.23309,-104.14182)"
       d="m -420.0212,391.15466 c 0,18.13647 -9.42621,32.83898 -21.05403,32.83898 -11.62781,0 -21.05402,-14.70251 -21.05402,-32.83898 0,-18.13647 9.42621,-32.83898 21.05402,-32.83898 11.62782,0 21.05403,14.70251 21.05403,32.83898 z"
       sodipodi:ry="32.838982"
       sodipodi:rx="21.054026"
       sodipodi:cy="391.15466"
       sodipodi:cx="-441.07523"
       id="path3509-90"
       style="fill:#ffffff;fill-opacity:1;stroke:none"
       sodipodi:type="arc" />
    <path
       transform="matrix(0.68206889,0,0,0.64939491,494.04566,30.636786)"
       d="m -420.0212,391.15466 c 0,18.13647 -9.42621,32.83898 -21.05403,32.83898 -11.62781,0 -21.05402,-14.70251 -21.05402,-32.83898 0,-18.13647 9.42621,-32.83898 21.05402,-32.83898 11.62782,0 21.05403,14.70251 21.05403,32.83898 z"
       sodipodi:ry="32.838982"
       sodipodi:rx="21.054026"
       sodipodi:cy="391.15466"
       sodipodi:cx="-441.07523"
       id="path3509"
       style="fill:#a96054;fill-opacity:1;stroke:none"
       sodipodi:type="arc" />
    <path
       d="m -378.97247,375.92691 c 0,3.87594 -3.14207,7.01801 -7.01801,7.01801 -3.87594,0 -7.01801,-3.14207 -7.01801,-7.01801 0,-3.87594 3.14207,-7.01801 7.01801,-7.01801 3.87594,0 7.01801,3.14207 7.01801,7.01801 z"
       sodipodi:ry="7.0180087"
       sodipodi:rx="7.0180087"
       sodipodi:cy="375.92691"
       sodipodi:cx="-385.99048"
       id="path3464-3"
       style="fill:#ffffff;fill-opacity:1;stroke:none"
       sodipodi:type="arc"
       transform="matrix(0.64939491,0,0,0.64939491,437.92894,30.722776)" />
    <path
       transform="matrix(1.0659879,0,0,0.99242206,782.47871,-103.53988)"
       d="m -420.0212,391.15466 c 0,18.13647 -9.42621,32.83898 -21.05403,32.83898 -11.62781,0 -21.05402,-14.70251 -21.05402,-32.83898 0,-18.13647 9.42621,-32.83898 21.05402,-32.83898 11.62782,0 21.05403,14.70251 21.05403,32.83898 z"
       sodipodi:ry="32.838982"
       sodipodi:rx="21.054026"
       sodipodi:cy="391.15466"
       sodipodi:cx="-441.07523"
       id="path3509-90-5"
       style="fill:#ffffff;fill-opacity:1;stroke:none"
       sodipodi:type="arc" />
    <path
       transform="matrix(0.68206889,0,0,0.64939491,610.9058,30.464806)"
       d="m -420.0212,391.15466 c 0,18.13647 -9.42621,32.83898 -21.05403,32.83898 -11.62781,0 -21.05402,-14.70251 -21.05402,-32.83898 0,-18.13647 9.42621,-32.83898 21.05402,-32.83898 11.62782,0 21.05403,14.70251 21.05403,32.83898 z"
       sodipodi:ry="32.838982"
       sodipodi:rx="21.054026"
       sodipodi:cy="391.15466"
       sodipodi:cx="-441.07523"
       id="path3509-9"
       style="fill:#a96054;fill-opacity:1;stroke:none"
       sodipodi:type="arc" />
    <path
       d="m -378.97247,375.92691 c 0,3.87594 -3.14207,7.01801 -7.01801,7.01801 -3.87594,0 -7.01801,-3.14207 -7.01801,-7.01801 0,-3.87594 3.14207,-7.01801 7.01801,-7.01801 3.87594,0 7.01801,3.14207 7.01801,7.01801 z"
       sodipodi:ry="7.0180087"
       sodipodi:rx="7.0180087"
       sodipodi:cy="375.92691"
       sodipodi:cx="-385.99048"
       id="path3464-5"
       style="fill:#ffffff;fill-opacity:1;stroke:none"
       sodipodi:type="arc"
       transform="matrix(0.64939491,0,0,0.64939491,556.2509,30.034856)" />
    <path
       d="m -378.97247,375.92691 c 0,3.87594 -3.14207,7.01801 -7.01801,7.01801 -3.87594,0 -7.01801,-3.14207 -7.01801,-7.01801 0,-3.87594 3.14207,-7.01801 7.01801,-7.01801 3.87594,0 7.01801,3.14207 7.01801,7.01801 z"
       sodipodi:ry="7.0180087"
       sodipodi:rx="7.0180087"
       sodipodi:cy="375.92691"
       sodipodi:cx="-385.99048"
       id="path3464-3-5"
       style="fill:#a96054;fill-opacity:1;stroke:none"
       sodipodi:type="arc"
       transform="matrix(0.7596695,0,0,0.7596695,543.69639,27.361056)" />
    <g
       transform="matrix(0.64939491,0,0,0.64939491,370.42695,269.68842)"
       id="g3419">
      <path
         inkscape:connector-curvature="0"
         style="fill:#a96054"
         d="m -192.7033,101.27216 c -6.77597,-2.960108 -12.59422,-10.317278 -11.14527,-14.093188 0.95266,-2.48258 2.45727,-1.75917 5.31139,2.5537 6.93239,10.475548 20.83782,10.320728 27.87313,-0.31033 1.4159,-2.13957 3.1113,-3.7134 3.76756,-3.4974 4.26153,1.40264 -1.44754,11.17351 -8.53267,14.603358 -5.03012,2.43504 -12.6516,2.76324 -17.27414,0.74386 z"
         id="path3395" />
    </g>
  </g>
  <path
     style="fill:#000000;fill-opacity:0.78431373;display:inline"
     d="M 60.6875,0 C 27.17542,0 -9.9999724e-5,27.17541 0,60.6875 l 0,378.625 C 0,472.82453 27.17542,500.0001 60.6875,500 l 378.625,0 c 33.5122,0 60.6874,-27.17547 60.6875,-60.6875 l 0,-378.625 C 500,27.17541 472.8258,0 439.3125,0 L 60.6875,0 z M 90.96875,40 409,40 c 28.15118,0 51,22.81859 51,50.96875 L 460,409 c -8e-5,28.15011 -22.84975,51 -51,51 L 90.96875,460 C 62.8186,460.00008 40,437.15011 40,409 L 40,90.96875 C 39.99992,62.81859 62.8186,40 90.96875,40 z"
     id="path7-8-6-9"
     inkscape:connector-curvature="0" />
</svg>
