<?xml version="1.0" encoding="UTF-8" standalone="no"?>
<!-- Created with Inkscape (http://www.inkscape.org/) -->

<svg
   xmlns:dc="http://purl.org/dc/elements/1.1/"
   xmlns:cc="http://creativecommons.org/ns#"
   xmlns:rdf="http://www.w3.org/1999/02/22-rdf-syntax-ns#"
   xmlns:svg="http://www.w3.org/2000/svg"
   xmlns="http://www.w3.org/2000/svg"
   xmlns:xlink="http://www.w3.org/1999/xlink"
   xmlns:sodipodi="http://sodipodi.sourceforge.net/DTD/sodipodi-0.dtd"
   xmlns:inkscape="http://www.inkscape.org/namespaces/inkscape"
   width="100"
   height="100"
   id="svg3932"
   version="1.1"
   inkscape:version="0.48.4 r9939"
   sodipodi:docname="GitHub.svg">
  <metadata
     id="metadata13">
    <rdf:RDF>
      <cc:Work
         rdf:about="">
        <dc:format>image/svg+xml</dc:format>
        <dc:type
           rdf:resource="http://purl.org/dc/dcmitype/StillImage" />
      </cc:Work>
    </rdf:RDF>
  </metadata>
  <defs
     id="defs11">
    <clipPath
       id="clipPath3017"
       clipPathUnits="userSpaceOnUse">
      <path
         id="path3019"
         d="m 0,0 3091,0 0,1766.7 -3091,0 L 0,0 z"
         inkscape:connector-curvature="0" />
    </clipPath>
    <clipPath
       id="clipPath4573"
       clipPathUnits="userSpaceOnUse">
      <path
         id="path4575"
         d="m 0,0 3091,0 0,1766.7 -3091,0 L 0,0 z"
         inkscape:connector-curvature="0" />
    </clipPath>
    <linearGradient
       y2="796.64795"
       x2="334.28577"
       y1="1009.505"
       x1="644.28564"
       gradientTransform="matrix(0.14285713,0,0,0.19999998,0,-110.4725)"
       gradientUnits="userSpaceOnUse"
       id="linearGradient3058"
       xlink:href="#linearGradient5322-1"
       inkscape:collect="always" />
    <linearGradient
       id="linearGradient5322-1">
      <stop
         style="stop-color:#000000;stop-opacity:0.37391305;"
         offset="0"
         id="stop5324-6" />
      <stop
         style="stop-color:#000000;stop-opacity:0;"
         offset="1"
         id="stop5326-3" />
    </linearGradient>
    <linearGradient
       y2="796.64795"
       x2="334.28577"
       y1="1009.505"
       x1="644.28564"
       gradientTransform="matrix(0.14285713,0,0,0.19999998,0,-110.4725)"
       gradientUnits="userSpaceOnUse"
       id="linearGradient3033"
       xlink:href="#linearGradient5322-1"
       inkscape:collect="always" />
    <linearGradient
       inkscape:collect="always"
       xlink:href="#linearGradient5322"
       id="linearGradient3799"
       x1="-72.770866"
       y1="98.260445"
       x2="-108.53157"
       y2="74.678169"
       gradientUnits="userSpaceOnUse"
       gradientTransform="translate(157.25636,-12.92373)" />
    <linearGradient
       id="linearGradient5322">
      <stop
         style="stop-color:#000000;stop-opacity:0.37391305;"
         offset="0"
         id="stop5324" />
      <stop
         style="stop-color:#000000;stop-opacity:0;"
         offset="1"
         id="stop5326" />
    </linearGradient>
    <linearGradient
       y2="74.678169"
       x2="-108.53157"
       y1="98.260445"
       x1="-72.770866"
       gradientTransform="translate(157.25636,-12.923733)"
       gradientUnits="userSpaceOnUse"
       id="linearGradient3850"
       xlink:href="#linearGradient5322"
       inkscape:collect="always" />
  </defs>
  <sodipodi:namedview
     pagecolor="#ffffff"
     bordercolor="#666666"
     borderopacity="1"
     objecttolerance="10"
     gridtolerance="10"
     guidetolerance="10"
     inkscape:pageopacity="0"
     inkscape:pageshadow="2"
     inkscape:window-width="1920"
     inkscape:window-height="1145"
     id="namedview9"
     showgrid="false"
     inkscape:zoom="0.944"
     inkscape:cx="415.60736"
     inkscape:cy="200.05079"
     inkscape:window-x="-2"
     inkscape:window-y="-3"
     inkscape:window-maximized="1"
     inkscape:current-layer="svg3932" />
  <path
     style="fill:#ffffff;fill-opacity:1;display:inline"
     d="M 13.652,2 C 7.217676,2 1.99998,7.217676 2,13.652 L 2,86.348 C 2,92.78231 7.217676,98.00002 13.652,98 l 72.696,0 C 92.782342,98 97.99998,92.78231 98,86.348 L 98,13.652 C 98,7.217676 92.782554,2 86.348,2 z"
     id="path7-3"
     inkscape:connector-curvature="0"
     sodipodi:nodetypes="sssssssss" />
  <path
     style="fill:#201f1f;fill-opacity:1;display:inline"
     d="m 29.278818,22.00004 c -0.111128,-4e-4 -0.217214,0.0022 -0.310228,0.0065 -0.496084,0.02274 -0.736792,0.10341 -0.736792,0.10341 -2.480432,6.292244 -0.91379,10.934644 -0.43949,12.085978 -2.922206,3.19907 -4.70513,7.273142 -4.70513,12.260484 0,4.307738 0.652128,7.795544 1.77735,10.618858 l 0.25206,0.620456 0.820812,1.635162 0.37486,0.633394 c 3.926652,6.327278 10.86858,8.303422 17.58607,9.067716 -1.306408,1.140564 -2.491928,3.155736 -2.901928,6.10762 -2.606764,1.167256 -9.220282,3.189488 -13.294578,-3.793834 0,0 -2.41235,-4.383112 -6.999526,-4.70513 0,-2e-5 -4.461337,-0.06263 -0.316692,2.772666 0,0 2.99553,1.402626 5.073526,6.682836 0,0 2.680086,8.15338 15.388618,5.390218 0.01432,2.779216 0.03769,5.27278 0.05171,10.51367 l 22.672522,0 c 0.01608,-5.723644 0.04524,-9.888146 0.04524,-14.540176 0,-4.262166 -1.463792,-7.042752 -3.102284,-8.460186 6.628644,-0.7371 13.476628,-2.636598 17.443882,-8.725172 l 0.394248,-0.633384 0.85959,-1.641624 0.27145,-0.620456 c 1.201192,-2.874476 1.893686,-6.45507 1.893686,-10.922624 0,-4.987342 -1.775358,-9.061414 -4.70513,-12.260482 0.474302,-1.151334 2.040532,-5.793736 -0.445954,-12.08598 0,0 -3.832358,-1.231712 -12.551322,4.679278 -3.650676,-1.012904 -7.557516,-1.520844 -11.43967,-1.538216 -3.882154,0.0174 -7.7958,0.525312 -11.43967,1.538216 -6.137434,-4.156166 -9.850302,-4.783242 -11.517228,-4.78915 z"
     id="path7-3-0-7"
     inkscape:connector-curvature="0"
     sodipodi:nodetypes="ccccscccccccccccccscccccscccccc" />
  <g
     id="g3600"
     transform="matrix(0.2068189,0,0,0.2068189,-0.27111358,-5.277052)">
    <path
       sodipodi:nodetypes="sssssssssssss"
       inkscape:connector-curvature="0"
       id="rect3461"
       d="m 193.89987,234.9165 c -3.24865,-0.0194 -5.59589,0.15863 -8.51566,0.46144 -14.10521,1.46283 -21.93069,5.21182 -30.79061,14.76607 -11.27923,12.16315 -15.01483,22.97269 -13.4237,38.88678 3.70166,37.02289 27.34457,54.54838 79.68223,59.08524 3.69152,0.32 21.51148,0.51583 39.59991,0.41949 26.65574,-0.14197 34.54153,-0.39878 41.61346,-1.34237 41.42922,-5.52782 59.26381,-23.24943 61.16172,-60.7632 0.80258,-15.86341 -4.10833,-27.41451 -16.73767,-39.41114 -5.87604,-5.58167 -12.00969,-8.82803 -20.26139,-10.71799 -6.8866,-1.57729 -25.25163,-1.55062 -41.61347,0.0629 -19.3235,1.90563 -39.61419,2.06862 -60.07104,0.48241 -17.29749,-1.34124 -25.22938,-1.89738 -30.64378,-1.92966 z"
       style="fill:#f2c8b0;fill-opacity:1;stroke:none" />
    <path
       transform="matrix(1.0659879,0,0,0.99242206,661.23309,-104.14182)"
       d="m -420.0212,391.15466 c 0,18.13647 -9.42621,32.83898 -21.05403,32.83898 -11.62781,0 -21.05402,-14.70251 -21.05402,-32.83898 0,-18.13647 9.42621,-32.83898 21.05402,-32.83898 11.62782,0 21.05403,14.70251 21.05403,32.83898 z"
       sodipodi:ry="32.838982"
       sodipodi:rx="21.054026"
       sodipodi:cy="391.15466"
       sodipodi:cx="-441.07523"
       id="path3509-90"
       style="fill:#ffffff;fill-opacity:1;stroke:none"
       sodipodi:type="arc" />
    <path
       transform="matrix(0.68206889,0,0,0.64939491,494.04566,30.636786)"
       d="m -420.0212,391.15466 c 0,18.13647 -9.42621,32.83898 -21.05403,32.83898 -11.62781,0 -21.05402,-14.70251 -21.05402,-32.83898 0,-18.13647 9.42621,-32.83898 21.05402,-32.83898 11.62782,0 21.05403,14.70251 21.05403,32.83898 z"
       sodipodi:ry="32.838982"
       sodipodi:rx="21.054026"
       sodipodi:cy="391.15466"
       sodipodi:cx="-441.07523"
       id="path3509"
       style="fill:#a96054;fill-opacity:1;stroke:none"
       sodipodi:type="arc" />
    <path
       d="m -378.97247,375.92691 c 0,3.87594 -3.14207,7.01801 -7.01801,7.01801 -3.87594,0 -7.01801,-3.14207 -7.01801,-7.01801 0,-3.87594 3.14207,-7.01801 7.01801,-7.01801 3.87594,0 7.01801,3.14207 7.01801,7.01801 z"
       sodipodi:ry="7.0180087"
       sodipodi:rx="7.0180087"
       sodipodi:cy="375.92691"
       sodipodi:cx="-385.99048"
       id="path3464-3"
       style="fill:#ffffff;fill-opacity:1;stroke:none"
       sodipodi:type="arc"
       transform="matrix(0.64939491,0,0,0.64939491,437.92894,30.722776)" />
    <path
       transform="matrix(1.0659879,0,0,0.99242206,782.47871,-103.53988)"
       d="m -420.0212,391.15466 c 0,18.13647 -9.42621,32.83898 -21.05403,32.83898 -11.62781,0 -21.05402,-14.70251 -21.05402,-32.83898 0,-18.13647 9.42621,-32.83898 21.05402,-32.83898 11.62782,0 21.05403,14.70251 21.05403,32.83898 z"
       sodipodi:ry="32.838982"
       sodipodi:rx="21.054026"
       sodipodi:cy="391.15466"
       sodipodi:cx="-441.07523"
       id="path3509-90-5"
       style="fill:#ffffff;fill-opacity:1;stroke:none"
       sodipodi:type="arc" />
    <path
       transform="matrix(0.68206889,0,0,0.64939491,610.9058,30.464806)"
       d="m -420.0212,391.15466 c 0,18.13647 -9.42621,32.83898 -21.05403,32.83898 -11.62781,0 -21.05402,-14.70251 -21.05402,-32.83898 0,-18.13647 9.42621,-32.83898 21.05402,-32.83898 11.62782,0 21.05403,14.70251 21.05403,32.83898 z"
       sodipodi:ry="32.838982"
       sodipodi:rx="21.054026"
       sodipodi:cy="391.15466"
       sodipodi:cx="-441.07523"
       id="path3509-9"
       style="fill:#a96054;fill-opacity:1;stroke:none"
       sodipodi:type="arc" />
    <path
       d="m -378.97247,375.92691 c 0,3.87594 -3.14207,7.01801 -7.01801,7.01801 -3.87594,0 -7.01801,-3.14207 -7.01801,-7.01801 0,-3.87594 3.14207,-7.01801 7.01801,-7.01801 3.87594,0 7.01801,3.14207 7.01801,7.01801 z"
       sodipodi:ry="7.0180087"
       sodipodi:rx="7.0180087"
       sodipodi:cy="375.92691"
       sodipodi:cx="-385.99048"
       id="path3464-5"
       style="fill:#ffffff;fill-opacity:1;stroke:none"
       sodipodi:type="arc"
       transform="matrix(0.64939491,0,0,0.64939491,556.2509,30.034856)" />
    <path
       d="m -378.97247,375.92691 c 0,3.87594 -3.14207,7.01801 -7.01801,7.01801 -3.87594,0 -7.01801,-3.14207 -7.01801,-7.01801 0,-3.87594 3.14207,-7.01801 7.01801,-7.01801 3.87594,0 7.01801,3.14207 7.01801,7.01801 z"
       sodipodi:ry="7.0180087"
       sodipodi:rx="7.0180087"
       sodipodi:cy="375.92691"
       sodipodi:cx="-385.99048"
       id="path3464-3-5"
       style="fill:#a96054;fill-opacity:1;stroke:none"
       sodipodi:type="arc"
       transform="matrix(0.7596695,0,0,0.7596695,543.69639,27.361056)" />
    <g
       transform="matrix(0.64939491,0,0,0.64939491,370.42695,269.68842)"
       id="g3419">
      <path
         inkscape:connector-curvature="0"
         style="fill:#a96054"
         d="m -192.7033,101.27216 c -6.77597,-2.960108 -12.59422,-10.317278 -11.14527,-14.093188 0.95266,-2.48258 2.45727,-1.75917 5.31139,2.5537 6.93239,10.475548 20.83782,10.320728 27.87313,-0.31033 1.4159,-2.13957 3.1113,-3.7134 3.76756,-3.4974 4.26153,1.40264 -1.44754,11.17351 -8.53267,14.603358 -5.03012,2.43504 -12.6516,2.76324 -17.27414,0.74386 z"
         id="path3395" />
    </g>
  </g>
  <path
     style="fill:#000000;fill-opacity:0.78431373;display:inline"
     d="M 12.1375,0 C 5.435084,0 -2.0000166e-5,5.435082 0,12.1375 l 0,75.725 C 0,94.564906 5.435084,100.00002 12.1375,100 l 75.725,0 C 94.56494,100 99.99998,94.564906 100,87.8625 l 0,-75.725 C 100,5.435082 94.56516,0 87.8625,0 L 12.1375,0 z M 18.19375,8 81.8,8 C 87.430236,8 92,12.563718 92,18.19375 L 92,81.8 C 91.999984,87.430022 87.43005,92 81.8,92 L 18.19375,92 C 12.56372,92.000016 8,87.430022 8,81.8 L 8,18.19375 C 7.999984,12.563718 12.56372,8 18.19375,8 z"
     id="path7-8-6-9"
     inkscape:connector-curvature="0" />
  <path
     style="fill:url(#linearGradient3850);fill-opacity:1;display:inline"
     d="M 12.1375,-3.0000552e-6 C 5.43509,-3.0000552e-6 -1.9999945e-5,5.435077 0,12.137497 L 0,87.862501 C 0,94.564901 5.43509,100.00002 12.1375,100 l 75.725,0 C 94.56494,100 99.99998,94.564901 100,87.862501 l 0,-75.725004 C 100,5.435077 94.56516,-3.0000552e-6 87.8625,-3.0000552e-6 z"
     id="path7-8-6-9-9"
     inkscape:connector-curvature="0"
     sodipodi:nodetypes="sssssssss" />
</svg>
