<?xml version="1.0" encoding="UTF-8" standalone="no"?>
<!-- Created with Inkscape (http://www.inkscape.org/) -->

<svg
   xmlns:dc="http://purl.org/dc/elements/1.1/"
   xmlns:cc="http://creativecommons.org/ns#"
   xmlns:rdf="http://www.w3.org/1999/02/22-rdf-syntax-ns#"
   xmlns:svg="http://www.w3.org/2000/svg"
   xmlns="http://www.w3.org/2000/svg"
   xmlns:sodipodi="http://sodipodi.sourceforge.net/DTD/sodipodi-0.dtd"
   xmlns:inkscape="http://www.inkscape.org/namespaces/inkscape"
   width="500"
   height="500"
   id="svg3932"
   version="1.1"
   inkscape:version="0.48.4 r9939"
   sodipodi:docname="G+.svg">
  <defs
     id="defs3934" />
  <sodipodi:namedview
     id="base"
     pagecolor="#ffffff"
     bordercolor="#666666"
     borderopacity="1.0"
     inkscape:pageopacity="0.0"
     inkscape:pageshadow="2"
     inkscape:zoom="0.35"
     inkscape:cx="-305"
     inkscape:cy="520"
     inkscape:document-units="px"
     inkscape:current-layer="layer1"
     showgrid="false"
     inkscape:window-width="1920"
     inkscape:window-height="1145"
     inkscape:window-x="-2"
     inkscape:window-y="-3"
     inkscape:window-maximized="1" />
  <metadata
     id="metadata3937">
    <rdf:RDF>
      <cc:Work
         rdf:about="">
        <dc:format>image/svg+xml</dc:format>
        <dc:type
           rdf:resource="http://purl.org/dc/dcmitype/StillImage" />
        <dc:title></dc:title>
      </cc:Work>
    </rdf:RDF>
  </metadata>
  <g
     inkscape:label="Layer 1"
     inkscape:groupmode="layer"
     id="layer1"
     transform="translate(0,-552.36218)">
    <path
       d="m 439.32025,552.36227 -378.6407,0 c -33.5121,0 -60.6795,27.1675 -60.6795,60.6796 l 0,378.64052 c 0,33.51221 27.1675,60.67971 60.6795,60.67971 l 378.6407,0 c 33.5122,0 60.6797,-27.1675 60.6797,-60.67971 l 0,-378.64052 c 0,-33.5121 -27.1662,-60.6796 -60.6797,-60.6796 z"
       id="linkedin-square-rounded-icon-0-4-7-3-5"
       inkscape:connector-curvature="0"
       sodipodi:nodetypes="sssssssss"
       style="fill:#ffffff;fill-opacity:1;display:inline" />
    <path
       style="fill:#1a1a1a;display:inline"
       d="m 60.687515,552.36217 c -33.5121,0 -60.687599999862,27.1754 -60.687499999862,60.6875 l 0,378.625 c 0,33.51203 27.175399999862,60.68763 60.687499999862,60.68753 l 378.624975,0 c 33.5122,0 60.6874,-27.1755 60.6875,-60.68753 l 0,-378.625 c 0,-33.5121 -27.1742,-60.6875 -60.6875,-60.6875 l -378.624975,0 z m 189.312505,33.6875 c 122.47877,0 221.78117,99.29511 221.78117,221.78125 0,97.95368 -63.4603,181.04915 -151.5312,210.40628 -11.24167,2.1778 -15.24997,-4.7229 -15.24997,-10.625 -1e-4,-7.3047 0.25,-31.20209 0.25,-60.87503 0,-20.69249 -7.0766,-34.18093 -15.0313,-41.0625 49.38447,-5.49154 101.28127,-24.25542 101.28127,-109.4375 0,-24.21298 -8.6201,-43.96887 -22.8438,-59.5 2.3027,-5.58957 9.8841,-28.13937 -2.1875,-58.6875 0,0 -18.5767,-5.9784 -60.90617,22.71875 -17.7237,-4.91752 -36.7151,-7.38425 -55.5625,-7.46875 -18.8475,0.0845 -37.8095,2.55123 -55.5,7.46875 -42.3774,-28.69715 -61,-22.71875 -61,-22.71875 -12.0423,30.54813 -4.459,53.09793 -2.1563,58.6875 -14.187,15.53113 -22.875,35.28702 -22.875,59.5 0,84.97679 51.8029,104.02033 101.0625,109.625 -6.3425,5.53741 -12.1032,15.32494 -14.0937,29.65625 -12.6555,5.6667 -44.7511,15.4658 -64.5313,-18.4375 0,4e-5 -11.7298,-21.31161 -34.000005,-22.875 0,0 -21.6218,-0.26504 -1.5,13.5 0,0 14.536605,6.83409 24.625005,32.46875 0,0 13.0203,39.57085 74.7188,26.15625 0.096,18.5319 0.2812,35.99208 0.2812,41.28128 0,5.8577 -4.0413,12.7404 -15.125,10.6875 C 91.787615,988.97417 28.218715,905.81767 28.218715,807.83092 c 0,-122.48614 99.313405,-221.78125 221.781305,-221.78125 z m -141.5313,314.6875 c 0.5656,-0.004 1.1794,0.12266 1.7813,0.40625 1.6122,0.7242 2.5269,2.23904 1.9687,3.34375 -0.4885,1.10469 -2.2021,1.44479 -3.7812,0.6875 -1.6086,-0.72457 -2.5179,-2.23907 -2,-3.34375 0.2984,-0.70833 1.0885,-1.08675 2.0312,-1.09375 z m 8.6563,7.625 c 0.1387,-0.0189 0.2902,-0.005 0.4375,0 0.9815,0.0314 2.091,0.56563 3,1.53125 1.4506,1.56381 1.7579,3.63082 0.6562,4.625 -1.0613,0.97836 -3.1284,0.51816 -4.5312,-1.03125 -1.4507,-1.54653 -1.7287,-3.63086 -0.6563,-4.625 0.3068,-0.27517 0.6775,-0.44335 1.0938,-0.5 z m 9.0625,11.34375 c 1.2603,-0.0678 2.7373,0.75338 3.7812,2.21875 1.3552,2.00554 1.357,4.37974 -0.031,5.34375 -1.3588,0.94681 -3.564,0.0666 -4.9375,-1.90625 -1.3589,-1.97251 -1.3606,-4.33448 0.031,-5.28125 0.3434,-0.2367 0.7362,-0.3524 1.1563,-0.375 z m 10.625,12.59375 c 1.2315,-0.0579 2.7149,0.52305 3.9062,1.65625 1.9244,1.78631 2.5152,4.33084 1.2188,5.65625 -1.2157,1.3412 -3.8238,0.98516 -5.7188,-0.84375 -1.9391,-1.78927 -2.4656,-4.31648 -1.25,-5.65625 0.4628,-0.50406 1.1047,-0.7777 1.8438,-0.8125 z m 16.1562,9.625 c 0.5988,0.007 1.2111,0.11521 1.8438,0.3125 2.5046,0.75729 4.1777,2.79634 3.6562,4.5625 -0.5361,1.73706 -3.0505,2.5187 -5.5625,1.78125 -2.5083,-0.76023 -4.1318,-2.80632 -3.625,-4.5625 0.3911,-1.31139 1.8911,-2.11345 3.6875,-2.09375 z m 36.1875,0.78125 c 2.2104,-0.0755 4.0513,0.94441 4.3438,2.53125 0.3158,1.78451 -1.5378,3.60566 -4.1563,4.09375 -2.5744,0.47043 -4.9507,-0.6361 -5.2812,-2.40625 -0.3196,-1.82929 1.5542,-3.65163 4.125,-4.125 0.3277,-0.057 0.6529,-0.0829 0.9687,-0.0937 z m -17.3437,2.15625 c 2.6368,-0.0499 4.7812,1.43248 4.7812,3.25 0.059,1.82891 -2.0507,3.3419 -4.6875,3.375 -2.6479,0.0588 -4.8144,-1.41994 -4.8437,-3.21875 0,-1.848 2.0983,-3.36135 4.75,-3.40625 z"
       id="linkedin-square-rounded-icon-0-4-3"
       inkscape:connector-curvature="0" />
  </g>
</svg>
