<svg xmlns="http://www.w3.org/2000/svg" viewBox="0 0 100 100"><defs><clipPath><path d="m840 415.29h-10v177.55h10v-177.55m0 236.32h-10v140c0 .496-.02 1-.055 1.507.836-3.668 1.278-7.515 1.278-11.507v8.789c.195 6.66-.793 12.867-2.758 18.496h7.719c2.472-7.867 3.816-16.934 3.816-27.28v-130"/></clipPath><clipPath><path d="m90 203.94l-10-17.285-.156 69.14 10.156 4.551v-56.41"/></clipPath><clipPath><path d="m90 442.07l-10 7.969v272.42l10 8.652v-289.04"/></clipPath><clipPath><path d="m770.28 101.6h-230.61v313.68h290.32v-253.65c0-30.12-30.09-60.03-59.719-60.03m52.996 707.28h-349.21-376.77c8.422 13.914 23.511 22.715 41.969 22.715h640.49c18.445 0 34.445-8.801 43.519-22.715m-42.933 32.711c-.199.004-.391.004-.586.004h-639.76 20 600 20c.113 0 .227 0 .344-.004"/></clipPath><clipPath><path d="m831.22 781.6c0 3.992-.442 7.839-1.278 11.507-1.308 5.754-3.59 11.06-6.668 15.778h5.188c1.965-5.629 2.953-11.836 2.758-18.496v-8.789"/></clipPath><clipPath><path d="m90 781.6v10c-.184 6.128.84 11.941 2.816 17.285h4.484c-4.68-7.727-7.301-17.03-7.301-27.28"/></clipPath><clipPath><path d="m539.68 91.6h-389.68c-38.66 0-70 31.34-70 70v620c0 10.351 1.344 19.418 3.816 27.28h9c-1.977-5.344-3-11.157-2.816-17.285v-20-600-10c0-27.618 32.383-60 60-60h389.68v-10"/></clipPath><clipPath><path d="m539.68 415.29h-65.61v393.6h65.61v-157.28h-39.676v-58.77h39.676v-177.55"/></clipPath><clipPath><path d="m539.68 101.6h-389.68c-27.617 0-60 32.382-60 60v10 600 20-10c0 10.25 2.621 19.558 7.301 27.28h376.77v-393.6h65.61v-313.68"/></clipPath><clipPath><path d="m0 921.6v-921.6h921.6v921.6h-921.6"/></clipPath><clipPath><path d="m539.68 64.887h-477.6v744h21.742c-2.473-7.867-3.816-16.934-3.816-27.29v-620c0-38.661 31.34-70 70-70h389.68v-26.715"/></clipPath><clipPath><path d="m830 415.29h-290.32v177.55h100.32v-141.23h60v141.23h130v-177.55m0 236.32h-130v140h-60v-140h-100.32v157.28h-65.61 349.21c3.078-4.719 5.36-10.02 6.668-15.778.035-.507.055-1.01.055-1.507v-140"/></clipPath><clipPath><path d="m257.13 451.6c-94.95 0-133.93 109.76-133.93 183.96 0 28.868 2.891 58.731 21.66 82.01 17.696 22.16 48.575 36.563 77.31 36.563 91.58 0 137.83-124.08 137.83-203.87 0-15.976-8.125-47.21-28.84-70.945-18.16-20.703-46.45-27.726-74.03-27.726m140.87-140.59l-39.793 30.957c-12.12 9.988-28.672 23.281-28.672 47.625 0 24.414 16.555 39.961 30.899 54.34 46.37 36.504 89.57 75.35 89.57 157.32 0 74.836-40.43 116.86-67.53 140.35 9.09 0 67.64 0 67.64 0l61.985 50h-233.33c-57.891-1.075-126.93-9.766-189.86-61.856-2.949-2.539 2.5-5.156-.262-7.812v-278.71c30.26-25.16 62.742-35.868 112.84-35.868 11.07 0 23.16 1.141 35.33 2.227-5.507-13.312-11.03-24.406-11.03-43.24 0-34.32 17.637-55.33 33.11-75.31-42.2-2.851-107.04-4.113-170.07-31.18l-.184-58.09c22.781 30.965 50.54 34.668 66.48 40.496 46.35 15.527 105.98 17.754 115.97 17.754 10.976 0 16.504 0 25.301-1.141 83.949-59.855 137.92-89.68 137.92-146.29 0-5.976.008-8.05-.207-11.172l66.05.047c6.485 20.918 9.844 33.879 9.844 54.37 0 76.47-63.46 114.18-112 155.2"/></clipPath><clipPath><path d="m867.67 415.29h-27.672v177.55h.496v58.77h-.496v130c0 10.351-1.344 19.418-3.816 27.28h31.488v-393.6"/></clipPath><clipPath><path d="m539.68 592.83h-39.676v58.77h39.676v-58.77"/></clipPath><clipPath><path d="m177.13 360c-94.95 0-133.93 109.77-133.93 183.97 0 28.867 2.891 58.73 21.66 82.01 17.695 22.16 48.575 36.562 77.3 36.562 91.58 0 137.83-124.08 137.83-203.87 0-15.977-8.125-47.22-28.84-70.945-18.16-20.707-46.45-27.727-74.03-27.727m140.87-140.6l-39.793 30.957c-12.12 9.993-28.672 23.286-28.672 47.629 0 24.414 16.555 39.961 30.899 54.34 46.37 36.504 89.57 75.35 89.57 157.32 0 74.832-40.43 116.86-67.53 140.35 9.09 0 67.64 0 67.64 0l61.985 50h-233.33c-57.891-1.074-126.93-9.766-189.86-61.855-2.949-2.54-6.145-5.489-8.906-8.145v-270c30.27-25.16 71.39-44.25 121.48-44.25 11.07 0 23.16 1.141 35.33 2.226-5.507-13.312-11.03-24.406-11.03-43.25 0-34.31 17.637-55.33 33.11-75.31-42.2-2.856-128.9 4.324-178.9-35.676v-63.75c22.781 30.969 59.18 44.812 75.13 50.645 46.36 15.527 105.98 17.753 115.97 17.753 10.976 0 16.504 0 25.301-1.14 83.949-59.856 144.09-90.65 144.72-147.26.117-10.969-2.988-14.375-4.629-20h64.63c6.66 15.559 8.887 33.953 8.887 54.44 0 76.46-63.46 123.95-112 164.96"/></clipPath><clipPath><path d="m770 91.6h-230.32v10h230.61c29.629 0 59.719 29.914 59.719 60.03v253.65h10v-253.68c0-38.661-31.34-70-70-70m66.18 717.29h-7.719c-6.926 19.82-25.985 32.492-48.12 32.711-.117.004-.231.004-.344.004h-20-600-20-.73c-19.571 0-39.27-13.286-46.45-32.715h-9c9.473 30.14 35.528 42.715 66.18 42.715h620c30.656 0 56.711-12.575 66.18-42.715"/></clipPath><clipPath><path d="m830 151.6c0-27.618-22.383-50-50-50h-630c-29.922 0-60 30.3-60 60v630c0 27.617 22.383 50 50 50h640c27.617 0 50-22.383 50-50v-640"/></clipPath><clipPath><path d="m921.6.004h-921.6v921.6h921.6v-921.6m-859.53 808.88v-744h477.6v26.715h230.32c38.66 0 70 31.34 70 70v253.68h27.672v393.6h-31.488c-9.473 30.14-35.528 42.715-66.18 42.715h-620c-30.656 0-56.711-12.575-66.18-42.715h-21.742"/></clipPath><linearGradient id="0" gradientUnits="userSpaceOnUse" gradientTransform="matrix(0-8.99929 9.0033 0 2.779 100)" x1="0" x2="1"><stop stop-color="#f5f6f5"/><stop offset="1" stop-color="#fff"/></linearGradient><linearGradient y2="61.754" x2="48.725" y1="85.34" x1="84.49" gradientUnits="userSpaceOnUse" id="1" gradientTransform="matrix(.9999 0 0 .99995-.003.003)"><stop stop-opacity=".374"/><stop offset="1" stop-opacity="0"/></linearGradient></defs><path d="m87.85.005h-75.72c-6.701 0-12.135 5.433-12.135 12.135v75.73c0 6.702 5.433 12.135 12.135 12.135h75.72c6.701 0 12.135-5.433 12.135-12.135v-75.73c0-6.702-5.432-12.135-12.135-12.135" fill="#fff"/><path d="m12.13.005c-6.701 0-12.13 5.435-12.13 12.137v75.73c0 6.702 5.428 12.13 12.13 12.13h75.72c6.701 0 12.137-5.429 12.137-12.13v-75.73c0-6.702-5.434-12.137-12.137-12.137z" fill="#df3833"/><path d="m73.63 10.01h7.889v18.42h18.472v7.733h-18.472v18.582h-7.889v-18.582h-18.407v-7.733h18.407v-18.42" fill="#fff"/><path d="m22.782 53.718c-12.213 0-17.225-14.11-17.225-23.653 0-3.711.372-7.551 2.786-10.544 2.276-2.848 6.247-4.7 9.943-4.7 11.777 0 17.724 15.952 17.724 26.21 0 2.054-1.045 6.071-3.709 9.121-2.336 2.662-5.974 3.565-9.522 3.565m18.12 18.08l-5.119-3.98c-1.558-1.284-3.688-2.993-3.688-6.123 0-3.139 2.129-5.137 3.974-6.985 5.964-4.693 11.521-9.687 11.521-20.226 0-9.621-5.2-15.02-8.685-18.04 1.169 0 8.701 0 8.701 0l7.973-6.428h-30.01c-7.446.138-16.326 1.256-24.42 7.953-.38.327-.79.705-1.145 1.047v34.712c3.893 3.234 9.182 5.688 15.625 5.688 1.423 0 2.979-.147 4.544-.287-.708 1.712-1.419 3.138-1.419 5.56 0 4.412 2.268 7.113 4.259 9.682-5.427.367-16.579-.556-23.01 4.587v8.196c2.931-3.981 7.612-5.762 9.663-6.511 5.962-1.996 13.631-2.282 14.916-2.282 1.411 0 2.123 0 3.254.147 10.799 7.695 18.533 11.654 18.614 18.932.015 1.411-.384 1.848-.596 2.572h8.312c.857-2 1.143-4.365 1.143-6.999 0-9.831-8.162-15.936-14.406-21.21" fill="url(#0)"/><path d="m12.134.003c-6.701 0-12.137 5.435-12.137 12.137v75.73c0 6.702 5.434 12.137 12.137 12.136h75.72c6.701 0 12.136-5.435 12.136-12.136v-75.73c0-6.702-5.434-12.137-12.136-12.137z" fill="url(#1)"/></svg>