<?xml version="1.0" encoding="UTF-8" standalone="no"?>
<!-- Created with Inkscape (http://www.inkscape.org/) -->

<svg
   xmlns:dc="http://purl.org/dc/elements/1.1/"
   xmlns:cc="http://creativecommons.org/ns#"
   xmlns:rdf="http://www.w3.org/1999/02/22-rdf-syntax-ns#"
   xmlns:svg="http://www.w3.org/2000/svg"
   xmlns="http://www.w3.org/2000/svg"
   xmlns:xlink="http://www.w3.org/1999/xlink"
   xmlns:sodipodi="http://sodipodi.sourceforge.net/DTD/sodipodi-0.dtd"
   xmlns:inkscape="http://www.inkscape.org/namespaces/inkscape"
   width="100"
   height="100"
   id="svg3932"
   version="1.1"
   inkscape:version="0.48.4 r9939"
   sodipodi:docname="gScholar.svg">
  <metadata
     id="metadata13">
    <rdf:RDF>
      <cc:Work
         rdf:about="">
        <dc:format>image/svg+xml</dc:format>
        <dc:type
           rdf:resource="http://purl.org/dc/dcmitype/StillImage" />
      </cc:Work>
    </rdf:RDF>
  </metadata>
  <defs
     id="defs11">
    <clipPath
       clipPathUnits="userSpaceOnUse"
       id="clipPath3411-7-0">
      <path
         d="M 177.129,360 C 82.1758,360 43.2031,469.766 43.2031,543.965 c 0,28.867 2.8907,58.73 21.6602,82.012 17.6953,22.16 48.5747,36.562 77.3047,36.562 C 233.75,662.539 280,538.457 280,458.672 280,442.695 271.875,411.453 251.16,387.727 232.996,367.02 204.707,360 177.129,360 z m 140.867,-140.598 -39.793,30.957 c -12.117,9.993 -28.672,23.286 -28.672,47.629 0,24.414 16.555,39.961 30.899,54.336 46.367,36.504 89.57,75.352 89.57,157.324 0,74.832 -40.43,116.856 -67.527,140.352 9.089,0 67.644,0 67.644,0 l 61.985,50 -233.332,0 C 140.879,698.926 71.8359,690.234 8.90625,638.145 5.95703,635.605 2.76172,632.656 0,630 L 0,360 c 30.2656,-25.156 71.3867,-44.246 121.484,-44.246 11.067,0 23.164,1.141 35.332,2.226 -5.507,-13.312 -11.035,-24.406 -11.035,-43.246 0,-34.312 17.637,-55.332 33.114,-75.308 C 136.699,196.57 50,203.75 0,163.75 L 0,100 c 22.7812,30.969 59.1797,44.812 75.1289,50.645 46.3551,15.527 105.9841,17.753 115.9651,17.753 10.976,0 16.504,0 25.301,-1.14 C 300.344,107.402 360.488,76.6094 361.113,20 361.23,9.03125 358.125,5.625 356.484,0 l 64.629,0 C 427.773,15.5586 430,33.9531 430,54.4414 430,130.906 366.543,178.391 317.996,219.402 z"
         id="path3413-3-7"
         inkscape:connector-curvature="0" />
    </clipPath>
    <linearGradient
       x1="0"
       y1="0"
       x2="1"
       y2="0"
       gradientUnits="userSpaceOnUse"
       gradientTransform="matrix(-3.06e-6,69.9995,69.9995,3.06e-6,21.6055,0)"
       spreadMethod="pad"
       id="linearGradient3415-2">
      <stop
         style="stop-opacity:1;stop-color:#f5f6f5"
         offset="0"
         id="stop3417-1" />
      <stop
         style="stop-opacity:1;stop-color:#ffffff"
         offset="1"
         id="stop3419-1" />
    </linearGradient>
    <clipPath
       clipPathUnits="userSpaceOnUse"
       id="clipPath3411-7">
      <path
         d="M 177.129,360 C 82.1758,360 43.2031,469.766 43.2031,543.965 c 0,28.867 2.8907,58.73 21.6602,82.012 17.6953,22.16 48.5747,36.562 77.3047,36.562 C 233.75,662.539 280,538.457 280,458.672 280,442.695 271.875,411.453 251.16,387.727 232.996,367.02 204.707,360 177.129,360 z m 140.867,-140.598 -39.793,30.957 c -12.117,9.993 -28.672,23.286 -28.672,47.629 0,24.414 16.555,39.961 30.899,54.336 46.367,36.504 89.57,75.352 89.57,157.324 0,74.832 -40.43,116.856 -67.527,140.352 9.089,0 67.644,0 67.644,0 l 61.985,50 -233.332,0 C 140.879,698.926 71.8359,690.234 8.90625,638.145 5.95703,635.605 2.76172,632.656 0,630 L 0,360 c 30.2656,-25.156 71.3867,-44.246 121.484,-44.246 11.067,0 23.164,1.141 35.332,2.226 -5.507,-13.312 -11.035,-24.406 -11.035,-43.246 0,-34.312 17.637,-55.332 33.114,-75.308 C 136.699,196.57 50,203.75 0,163.75 L 0,100 c 22.7812,30.969 59.1797,44.812 75.1289,50.645 46.3551,15.527 105.9841,17.753 115.9651,17.753 10.976,0 16.504,0 25.301,-1.14 C 300.344,107.402 360.488,76.6094 361.113,20 361.23,9.03125 358.125,5.625 356.484,0 l 64.629,0 C 427.773,15.5586 430,33.9531 430,54.4414 430,130.906 366.543,178.391 317.996,219.402 z"
         id="path3413-3"
         inkscape:connector-curvature="0" />
    </clipPath>
    <clipPath
       clipPathUnits="userSpaceOnUse"
       id="clipPath3474">
      <path
         d="M 921.602,0.00390625 0,0.00390625 0,921.602 l 921.602,0 0,-921.59809375 M 62.0742,808.887 l 0,-744.0003 477.6018,0 0,26.7149 230.324,0 c 38.66,0 70,31.3394 70,70.0004 l 0,253.683 27.672,0 0,393.602 -31.488,0 c -9.473,30.14 -35.528,42.715 -66.184,42.715 l -620,0 c -30.656,0 -56.7109,-12.575 -66.1836,-42.715 l -21.7422,0"
         id="path3476"
         inkscape:connector-curvature="0" />
    </clipPath>
    <clipPath
       clipPathUnits="userSpaceOnUse"
       id="clipPath3486">
      <path
         d="m 830,151.602 c 0,-27.618 -22.383,-50 -50,-50 l -630,0 c -29.922,0 -60,30.304 -60,60 l 0,630 c 0,27.617 22.383,50 50,50 l 640,0 c 27.617,0 50,-22.383 50,-50 l 0,-640"
         id="path3488"
         inkscape:connector-curvature="0" />
    </clipPath>
    <linearGradient
       x1="0"
       y1="0"
       x2="1"
       y2="0"
       gradientUnits="userSpaceOnUse"
       gradientTransform="matrix(-3.23e-6,73.9995,73.9995,3.23e-6,46,10.1602)"
       spreadMethod="pad"
       id="linearGradient3490">
      <stop
         style="stop-opacity:1;stop-color:#b62523"
         offset="0"
         id="stop3492" />
      <stop
         style="stop-opacity:1;stop-color:#e93820"
         offset="1"
         id="stop3494" />
    </linearGradient>
    <clipPath
       clipPathUnits="userSpaceOnUse"
       id="clipPath3502">
      <path
         d="m 770,91.6016 -230.324,0 0,10.0004 230.605,0 c 29.629,0 59.719,29.914 59.719,60.031 l 0,253.652 10,0 0,-253.683 c 0,-38.661 -31.34,-70.0004 -70,-70.0004 m 66.184,717.2854 -7.719,0 c -6.926,19.82 -25.985,32.492 -48.121,32.711 -0.117,0.004 -0.231,0.004 -0.344,0.004 l -20,0 0,0 -600,0 0,0 -20,0 0,0 -0.73,0 c -19.571,0 -39.2739,-13.286 -46.4536,-32.715 l -9,0 c 9.4727,30.14 35.5276,42.715 66.1836,42.715 l 620,0 c 30.656,0 56.711,-12.575 66.184,-42.715"
         id="path3504"
         inkscape:connector-curvature="0" />
    </clipPath>
    <linearGradient
       x1="0"
       y1="0"
       x2="1"
       y2="0"
       gradientUnits="userSpaceOnUse"
       gradientTransform="matrix(-3.32e-6,75.9995,75.9995,3.32e-6,46,9.1602)"
       spreadMethod="pad"
       id="linearGradient3506">
      <stop
         style="stop-opacity:1;stop-color:#7a2019"
         offset="0"
         id="stop3508" />
      <stop
         style="stop-opacity:1;stop-color:#bf2f22"
         offset="1"
         id="stop3510" />
    </linearGradient>
    <clipPath
       clipPathUnits="userSpaceOnUse"
       id="clipPath3518">
      <path
         d="m 770.281,101.602 -230.605,0 0,313.683 290.324,0 0,-253.652 c 0,-30.117 -30.09,-60.031 -59.719,-60.031 m 52.996,707.285 -349.207,0 -376.7692,0 c 8.4222,13.914 23.5112,22.715 41.9692,22.715 l 640.488,0 c 18.445,0 34.445,-8.801 43.519,-22.715 m -42.933,32.711 c -0.199,0.004 -0.391,0.004 -0.586,0.004 l -639.758,0 0,0 20,0 600,0 20,0 c 0.113,0 0.227,0 0.344,-0.004"
         id="path3520"
         inkscape:connector-curvature="0" />
    </clipPath>
    <linearGradient
       x1="0"
       y1="0"
       x2="1"
       y2="0"
       gradientUnits="userSpaceOnUse"
       gradientTransform="matrix(-3.23e-6,73.9995,73.9995,3.23e-6,46,10.1602)"
       spreadMethod="pad"
       id="linearGradient3522">
      <stop
         style="stop-opacity:1;stop-color:#b62523"
         offset="0"
         id="stop3524" />
      <stop
         style="stop-opacity:1;stop-color:#e93820"
         offset="1"
         id="stop3526" />
    </linearGradient>
    <clipPath
       clipPathUnits="userSpaceOnUse"
       id="clipPath3534">
      <path
         d="M 0,921.602 0,0 l 921.602,0 0,921.602 -921.602,0 z"
         id="path3536"
         inkscape:connector-curvature="0" />
    </clipPath>
    <clipPath
       clipPathUnits="userSpaceOnUse"
       id="clipPath3544">
      <path
         d="m 867.672,415.285 -27.672,0 0,177.547 0.496,0 0,58.77 -0.496,0 0,130 c 0,10.351 -1.344,19.418 -3.816,27.285 l 31.488,0 0,-393.602"
         id="path3546"
         inkscape:connector-curvature="0" />
    </clipPath>
    <clipPath
       clipPathUnits="userSpaceOnUse"
       id="clipPath3556">
      <path
         d="m 840,415.285 -10,0 0,177.547 10,0 0,-177.547 m 0,236.317 -10,0 0,140 c 0,0.496 -0.02,1 -0.055,1.507 0.836,-3.668 1.278,-7.515 1.278,-11.507 l 0,8.789 c 0.195,6.66 -0.793,12.867 -2.758,18.496 l 7.719,0 C 838.656,801.02 840,791.953 840,781.602 l 0,-130"
         id="path3558"
         inkscape:connector-curvature="0" />
    </clipPath>
    <clipPath
       clipPathUnits="userSpaceOnUse"
       id="clipPath3568">
      <path
         d="m 830,415.285 -290.324,0 0,177.547 100.324,0 0,-141.23 60,0 0,141.23 130,0 0,-177.547 m 0,236.317 -130,0 0,140 -60,0 0,-140 -100.324,0 0,157.285 -65.606,0 349.207,0 c 3.078,-4.719 5.36,-10.024 6.668,-15.778 0.035,-0.507 0.055,-1.011 0.055,-1.507 l 0,-140"
         id="path3570"
         inkscape:connector-curvature="0" />
    </clipPath>
    <clipPath
       clipPathUnits="userSpaceOnUse"
       id="clipPath3580">
      <path
         d="m 831.223,781.602 c 0,3.992 -0.442,7.839 -1.278,11.507 -1.308,5.754 -3.59,11.059 -6.668,15.778 l 5.188,0 c 1.965,-5.629 2.953,-11.836 2.758,-18.496 l 0,-8.789"
         id="path3582"
         inkscape:connector-curvature="0" />
    </clipPath>
    <clipPath
       clipPathUnits="userSpaceOnUse"
       id="clipPath3592">
      <path
         d="M 0,921.602 0,0 l 921.602,0 0,921.602 -921.602,0 z"
         id="path3594"
         inkscape:connector-curvature="0" />
    </clipPath>
    <clipPath
       clipPathUnits="userSpaceOnUse"
       id="clipPath3602">
      <path
         d="m 539.676,64.8867 -477.6018,0 0,744.0003 21.7422,0 C 81.3438,801.02 80,791.953 80,781.602 l 0,-620 c 0,-38.661 31.34,-70.0004 70,-70.0004 l 389.676,0 0,-26.7149"
         id="path3604"
         inkscape:connector-curvature="0" />
    </clipPath>
    <clipPath
       clipPathUnits="userSpaceOnUse"
       id="clipPath3614">
      <path
         d="m 539.676,91.6016 -389.676,0 c -38.66,0 -70,31.3394 -70,70.0004 l 0,620 c 0,10.351 1.3438,19.418 3.8164,27.285 l 9,0 c -1.9766,-5.344 -3,-11.157 -2.8164,-17.285 l 0,-20 0,0 0,-600 0,0 0,-10 c 0,-27.618 32.383,-60 60,-60 l 389.676,0 0,-10.0004"
         id="path3616"
         inkscape:connector-curvature="0" />
    </clipPath>
    <clipPath
       clipPathUnits="userSpaceOnUse"
       id="clipPath3626">
      <path
         d="m 539.676,101.602 -389.676,0 c -27.617,0 -60,32.382 -60,60 l 0,10 0,600 0,20 0,0 0,-10 c 0,10.25 2.6211,19.558 7.3008,27.285 l 376.7692,0 0,-393.602 65.606,0 0,-313.683"
         id="path3628"
         inkscape:connector-curvature="0" />
    </clipPath>
    <clipPath
       clipPathUnits="userSpaceOnUse"
       id="clipPath3638">
      <path
         d="m 90,781.602 0,10 0,0 c -0.1836,6.128 0.8398,11.941 2.8164,17.285 l 4.4844,0 C 92.6211,801.16 90,791.852 90,781.602"
         id="path3640"
         inkscape:connector-curvature="0" />
    </clipPath>
    <clipPath
       clipPathUnits="userSpaceOnUse"
       id="clipPath3650">
      <path
         d="m 539.676,415.285 -65.606,0 0,393.602 65.606,0 0,-157.285 -39.676,0 0,-58.77 39.676,0 0,-177.547"
         id="path3652"
         inkscape:connector-curvature="0" />
    </clipPath>
    <clipPath
       clipPathUnits="userSpaceOnUse"
       id="clipPath3662">
      <path
         d="m 539.676,592.832 -39.676,0 0,58.77 39.676,0 0,-58.77"
         id="path3664"
         inkscape:connector-curvature="0" />
    </clipPath>
    <clipPath
       clipPathUnits="userSpaceOnUse"
       id="clipPath3674">
      <path
         d="m 257.129,451.602 c -94.949,0 -133.926,109.765 -133.926,183.964 0,28.868 2.891,58.731 21.66,82.012 17.696,22.16 48.575,36.563 77.305,36.563 91.582,0 137.832,-124.082 137.832,-203.868 0,-15.976 -8.125,-47.214 -28.84,-70.945 -18.164,-20.703 -46.453,-27.726 -74.031,-27.726 z m 140.867,-140.594 -39.793,30.957 c -12.117,9.988 -28.672,23.281 -28.672,47.625 0,24.414 16.555,39.961 30.899,54.336 46.367,36.504 89.57,75.351 89.57,157.324 0,74.836 -40.43,116.855 -67.527,140.352 9.089,0 67.644,0 67.644,0 l 61.985,50 -233.332,0 c -57.891,-1.075 -126.934,-9.766 -189.8638,-61.856 -2.9492,-2.539 2.5,-5.156 -0.2617,-7.812 l 0,-278.711 c 30.2615,-25.157 62.7425,-35.868 112.8395,-35.868 11.067,0 23.164,1.141 35.332,2.227 -5.507,-13.312 -11.035,-24.406 -11.035,-43.242 0,-34.317 17.637,-55.332 33.114,-75.313 -42.196,-2.851 -107.04,-4.113 -170.0669,-31.183 L 88.6445,201.75 c 22.7815,30.965 50.5355,34.668 66.4845,40.496 46.355,15.527 105.984,17.754 115.965,17.754 10.976,0 16.504,0 25.301,-1.141 83.949,-59.855 137.921,-89.679 137.921,-146.289 0,-5.976 0.008,-8.047 -0.207,-11.172 l 66.047,0.047 c 6.485,20.918 9.844,33.879 9.844,54.367 0,76.465 -63.457,114.18 -112.004,155.196 z"
         id="path3676"
         inkscape:connector-curvature="0" />
    </clipPath>
    <linearGradient
       x1="0"
       y1="0"
       x2="1"
       y2="0"
       gradientUnits="userSpaceOnUse"
       gradientTransform="matrix(-3.02e-6,69.02,69.02,3.02e-6,30.0054,10.1397)"
       spreadMethod="pad"
       id="linearGradient3678">
      <stop
         style="stop-opacity:1;stop-color:#f5f6f5"
         offset="0"
         id="stop3680" />
      <stop
         style="stop-opacity:1;stop-color:#ffffff"
         offset="1"
         id="stop3682" />
    </linearGradient>
    <clipPath
       clipPathUnits="userSpaceOnUse"
       id="clipPath3690">
      <path
         d="m 90,442.07 -10,7.969 0,272.422 10,8.652 0,-289.043 z"
         id="path3692"
         inkscape:connector-curvature="0" />
    </clipPath>
    <linearGradient
       x1="0"
       y1="0"
       x2="1"
       y2="0"
       gradientUnits="userSpaceOnUse"
       gradientTransform="matrix(1,0,0,-1,8,58.6592)"
       spreadMethod="pad"
       id="linearGradient3694">
      <stop
         style="stop-opacity:1;stop-color:#f5f6f5"
         offset="0"
         id="stop3696" />
      <stop
         style="stop-opacity:1;stop-color:#f5f6f5"
         offset="1"
         id="stop3698" />
    </linearGradient>
    <clipPath
       clipPathUnits="userSpaceOnUse"
       id="clipPath3706">
      <path
         d="M 90,203.945 80,186.66 79.8438,255.801 90,260.352 90,203.945 z"
         id="path3708"
         inkscape:connector-curvature="0" />
    </clipPath>
    <linearGradient
       x1="0"
       y1="0"
       x2="1"
       y2="0"
       gradientUnits="userSpaceOnUse"
       gradientTransform="matrix(1.01563,0,0,-1.01563,7.98438,22.3506)"
       spreadMethod="pad"
       id="linearGradient3710">
      <stop
         style="stop-opacity:1;stop-color:#e9e9e9"
         offset="0"
         id="stop3712" />
      <stop
         style="stop-opacity:1;stop-color:#f5f6f5"
         offset="1"
         id="stop3714" />
    </linearGradient>
    <clipPath
       clipPathUnits="userSpaceOnUse"
       id="clipPath3722">
      <path
         d="M 0,921.602 0,0 l 921.602,0 0,921.602 -921.602,0 z"
         id="path3724"
         inkscape:connector-curvature="0" />
    </clipPath>
    <clipPath
       clipPathUnits="userSpaceOnUse"
       id="clipPath3411">
      <path
         d="M 177.129,360 C 82.1758,360 43.2031,469.766 43.2031,543.965 c 0,28.867 2.8907,58.73 21.6602,82.012 17.6953,22.16 48.5747,36.562 77.3047,36.562 C 233.75,662.539 280,538.457 280,458.672 280,442.695 271.875,411.453 251.16,387.727 232.996,367.02 204.707,360 177.129,360 z m 140.867,-140.598 -39.793,30.957 c -12.117,9.993 -28.672,23.286 -28.672,47.629 0,24.414 16.555,39.961 30.899,54.336 46.367,36.504 89.57,75.352 89.57,157.324 0,74.832 -40.43,116.856 -67.527,140.352 9.089,0 67.644,0 67.644,0 l 61.985,50 -233.332,0 C 140.879,698.926 71.8359,690.234 8.90625,638.145 5.95703,635.605 2.76172,632.656 0,630 L 0,360 c 30.2656,-25.156 71.3867,-44.246 121.484,-44.246 11.067,0 23.164,1.141 35.332,2.226 -5.507,-13.312 -11.035,-24.406 -11.035,-43.246 0,-34.312 17.637,-55.332 33.114,-75.308 C 136.699,196.57 50,203.75 0,163.75 L 0,100 c 22.7812,30.969 59.1797,44.812 75.1289,50.645 46.3551,15.527 105.9841,17.753 115.9651,17.753 10.976,0 16.504,0 25.301,-1.14 C 300.344,107.402 360.488,76.6094 361.113,20 361.23,9.03125 358.125,5.625 356.484,0 l 64.629,0 C 427.773,15.5586 430,33.9531 430,54.4414 430,130.906 366.543,178.391 317.996,219.402 z"
         id="path3413"
         inkscape:connector-curvature="0" />
    </clipPath>
    <linearGradient
       x1="0"
       y1="0"
       x2="1"
       y2="0"
       gradientUnits="userSpaceOnUse"
       gradientTransform="matrix(-3.06e-6,69.9995,69.9995,3.06e-6,21.6055,0)"
       spreadMethod="pad"
       id="linearGradient3415">
      <stop
         style="stop-opacity:1;stop-color:#f5f6f5"
         offset="0"
         id="stop3417" />
      <stop
         style="stop-opacity:1;stop-color:#ffffff"
         offset="1"
         id="stop3419" />
    </linearGradient>
    <clipPath
       clipPathUnits="userSpaceOnUse"
       id="clipPath3006">
      <path
         d="M 921.602,0.00390625 0,0.00390625 0,921.602 l 921.602,0 0,-921.59809375 M 62.0742,808.887 l 0,-744.0003 477.6018,0 0,26.7149 230.324,0 c 38.66,0 70,31.3394 70,70.0004 l 0,253.683 27.672,0 0,393.602 -31.488,0 c -9.473,30.14 -35.528,42.715 -66.184,42.715 l -620,0 c -30.656,0 -56.7109,-12.575 -66.1836,-42.715 l -21.7422,0"
         id="path3008"
         inkscape:connector-curvature="0" />
    </clipPath>
    <clipPath
       clipPathUnits="userSpaceOnUse"
       id="clipPath3018">
      <path
         d="m 830,151.602 c 0,-27.618 -22.383,-50 -50,-50 l -630,0 c -29.922,0 -60,30.304 -60,60 l 0,630 c 0,27.617 22.383,50 50,50 l 640,0 c 27.617,0 50,-22.383 50,-50 l 0,-640"
         id="path3020"
         inkscape:connector-curvature="0" />
    </clipPath>
    <linearGradient
       x1="0"
       y1="0"
       x2="1"
       y2="0"
       gradientUnits="userSpaceOnUse"
       gradientTransform="matrix(-3.23e-6,73.9995,73.9995,3.23e-6,46,10.1602)"
       spreadMethod="pad"
       id="linearGradient3022">
      <stop
         style="stop-opacity:1;stop-color:#b62523"
         offset="0"
         id="stop3024" />
      <stop
         style="stop-opacity:1;stop-color:#e93820"
         offset="1"
         id="stop3026" />
    </linearGradient>
    <clipPath
       clipPathUnits="userSpaceOnUse"
       id="clipPath3034">
      <path
         d="m 770,91.6016 -230.324,0 0,10.0004 230.605,0 c 29.629,0 59.719,29.914 59.719,60.031 l 0,253.652 10,0 0,-253.683 c 0,-38.661 -31.34,-70.0004 -70,-70.0004 m 66.184,717.2854 -7.719,0 c -6.926,19.82 -25.985,32.492 -48.121,32.711 -0.117,0.004 -0.231,0.004 -0.344,0.004 l -20,0 0,0 -600,0 0,0 -20,0 0,0 -0.73,0 c -19.571,0 -39.2739,-13.286 -46.4536,-32.715 l -9,0 c 9.4727,30.14 35.5276,42.715 66.1836,42.715 l 620,0 c 30.656,0 56.711,-12.575 66.184,-42.715"
         id="path3036"
         inkscape:connector-curvature="0" />
    </clipPath>
    <linearGradient
       x1="0"
       y1="0"
       x2="1"
       y2="0"
       gradientUnits="userSpaceOnUse"
       gradientTransform="matrix(-3.32e-6,75.9995,75.9995,3.32e-6,46,9.1602)"
       spreadMethod="pad"
       id="linearGradient3038">
      <stop
         style="stop-opacity:1;stop-color:#7a2019"
         offset="0"
         id="stop3040" />
      <stop
         style="stop-opacity:1;stop-color:#bf2f22"
         offset="1"
         id="stop3042" />
    </linearGradient>
    <clipPath
       clipPathUnits="userSpaceOnUse"
       id="clipPath3050">
      <path
         d="m 770.281,101.602 -230.605,0 0,313.683 290.324,0 0,-253.652 c 0,-30.117 -30.09,-60.031 -59.719,-60.031 m 52.996,707.285 -349.207,0 -376.7692,0 c 8.4222,13.914 23.5112,22.715 41.9692,22.715 l 640.488,0 c 18.445,0 34.445,-8.801 43.519,-22.715 m -42.933,32.711 c -0.199,0.004 -0.391,0.004 -0.586,0.004 l -639.758,0 0,0 20,0 600,0 20,0 c 0.113,0 0.227,0 0.344,-0.004"
         id="path3052"
         inkscape:connector-curvature="0" />
    </clipPath>
    <linearGradient
       x1="0"
       y1="0"
       x2="1"
       y2="0"
       gradientUnits="userSpaceOnUse"
       gradientTransform="matrix(-3.23e-6,73.9995,73.9995,3.23e-6,46,10.1602)"
       spreadMethod="pad"
       id="linearGradient3054">
      <stop
         style="stop-opacity:1;stop-color:#b62523"
         offset="0"
         id="stop3056" />
      <stop
         style="stop-opacity:1;stop-color:#e93820"
         offset="1"
         id="stop3058" />
    </linearGradient>
    <clipPath
       clipPathUnits="userSpaceOnUse"
       id="clipPath3066">
      <path
         d="M 0,921.602 0,0 l 921.602,0 0,921.602 -921.602,0 z"
         id="path3068"
         inkscape:connector-curvature="0" />
    </clipPath>
    <clipPath
       clipPathUnits="userSpaceOnUse"
       id="clipPath3076">
      <path
         d="m 867.672,415.285 -27.672,0 0,177.547 0.496,0 0,58.77 -0.496,0 0,130 c 0,10.351 -1.344,19.418 -3.816,27.285 l 31.488,0 0,-393.602"
         id="path3078"
         inkscape:connector-curvature="0" />
    </clipPath>
    <clipPath
       clipPathUnits="userSpaceOnUse"
       id="clipPath3088">
      <path
         d="m 840,415.285 -10,0 0,177.547 10,0 0,-177.547 m 0,236.317 -10,0 0,140 c 0,0.496 -0.02,1 -0.055,1.507 0.836,-3.668 1.278,-7.515 1.278,-11.507 l 0,8.789 c 0.195,6.66 -0.793,12.867 -2.758,18.496 l 7.719,0 C 838.656,801.02 840,791.953 840,781.602 l 0,-130"
         id="path3090"
         inkscape:connector-curvature="0" />
    </clipPath>
    <clipPath
       clipPathUnits="userSpaceOnUse"
       id="clipPath3100">
      <path
         d="m 830,415.285 -290.324,0 0,177.547 100.324,0 0,-141.23 60,0 0,141.23 130,0 0,-177.547 m 0,236.317 -130,0 0,140 -60,0 0,-140 -100.324,0 0,157.285 -65.606,0 349.207,0 c 3.078,-4.719 5.36,-10.024 6.668,-15.778 0.035,-0.507 0.055,-1.011 0.055,-1.507 l 0,-140"
         id="path3102"
         inkscape:connector-curvature="0" />
    </clipPath>
    <clipPath
       clipPathUnits="userSpaceOnUse"
       id="clipPath3112">
      <path
         d="m 831.223,781.602 c 0,3.992 -0.442,7.839 -1.278,11.507 -1.308,5.754 -3.59,11.059 -6.668,15.778 l 5.188,0 c 1.965,-5.629 2.953,-11.836 2.758,-18.496 l 0,-8.789"
         id="path3114"
         inkscape:connector-curvature="0" />
    </clipPath>
    <clipPath
       clipPathUnits="userSpaceOnUse"
       id="clipPath3124">
      <path
         d="M 0,921.602 0,0 l 921.602,0 0,921.602 -921.602,0 z"
         id="path3126"
         inkscape:connector-curvature="0" />
    </clipPath>
    <clipPath
       clipPathUnits="userSpaceOnUse"
       id="clipPath3134">
      <path
         d="m 539.676,64.8867 -477.6018,0 0,744.0003 21.7422,0 C 81.3438,801.02 80,791.953 80,781.602 l 0,-620 c 0,-38.661 31.34,-70.0004 70,-70.0004 l 389.676,0 0,-26.7149"
         id="path3136"
         inkscape:connector-curvature="0" />
    </clipPath>
    <clipPath
       clipPathUnits="userSpaceOnUse"
       id="clipPath3146">
      <path
         d="m 539.676,91.6016 -389.676,0 c -38.66,0 -70,31.3394 -70,70.0004 l 0,620 c 0,10.351 1.3438,19.418 3.8164,27.285 l 9,0 c -1.9766,-5.344 -3,-11.157 -2.8164,-17.285 l 0,-20 0,0 0,-600 0,0 0,-10 c 0,-27.618 32.383,-60 60,-60 l 389.676,0 0,-10.0004"
         id="path3148"
         inkscape:connector-curvature="0" />
    </clipPath>
    <clipPath
       clipPathUnits="userSpaceOnUse"
       id="clipPath3158">
      <path
         d="m 539.676,101.602 -389.676,0 c -27.617,0 -60,32.382 -60,60 l 0,10 0,600 0,20 0,0 0,-10 c 0,10.25 2.6211,19.558 7.3008,27.285 l 376.7692,0 0,-393.602 65.606,0 0,-313.683"
         id="path3160"
         inkscape:connector-curvature="0" />
    </clipPath>
    <clipPath
       clipPathUnits="userSpaceOnUse"
       id="clipPath3170">
      <path
         d="m 90,781.602 0,10 0,0 c -0.1836,6.128 0.8398,11.941 2.8164,17.285 l 4.4844,0 C 92.6211,801.16 90,791.852 90,781.602"
         id="path3172"
         inkscape:connector-curvature="0" />
    </clipPath>
    <clipPath
       clipPathUnits="userSpaceOnUse"
       id="clipPath3182">
      <path
         d="m 539.676,415.285 -65.606,0 0,393.602 65.606,0 0,-157.285 -39.676,0 0,-58.77 39.676,0 0,-177.547"
         id="path3184"
         inkscape:connector-curvature="0" />
    </clipPath>
    <clipPath
       clipPathUnits="userSpaceOnUse"
       id="clipPath3194">
      <path
         d="m 539.676,592.832 -39.676,0 0,58.77 39.676,0 0,-58.77"
         id="path3196"
         inkscape:connector-curvature="0" />
    </clipPath>
    <clipPath
       clipPathUnits="userSpaceOnUse"
       id="clipPath3206">
      <path
         d="m 257.129,451.602 c -94.949,0 -133.926,109.765 -133.926,183.964 0,28.868 2.891,58.731 21.66,82.012 17.696,22.16 48.575,36.563 77.305,36.563 91.582,0 137.832,-124.082 137.832,-203.868 0,-15.976 -8.125,-47.214 -28.84,-70.945 -18.164,-20.703 -46.453,-27.726 -74.031,-27.726 z m 140.867,-140.594 -39.793,30.957 c -12.117,9.988 -28.672,23.281 -28.672,47.625 0,24.414 16.555,39.961 30.899,54.336 46.367,36.504 89.57,75.351 89.57,157.324 0,74.836 -40.43,116.855 -67.527,140.352 9.089,0 67.644,0 67.644,0 l 61.985,50 -233.332,0 c -57.891,-1.075 -126.934,-9.766 -189.8638,-61.856 -2.9492,-2.539 2.5,-5.156 -0.2617,-7.812 l 0,-278.711 c 30.2615,-25.157 62.7425,-35.868 112.8395,-35.868 11.067,0 23.164,1.141 35.332,2.227 -5.507,-13.312 -11.035,-24.406 -11.035,-43.242 0,-34.317 17.637,-55.332 33.114,-75.313 -42.196,-2.851 -107.04,-4.113 -170.0669,-31.183 L 88.6445,201.75 c 22.7815,30.965 50.5355,34.668 66.4845,40.496 46.355,15.527 105.984,17.754 115.965,17.754 10.976,0 16.504,0 25.301,-1.141 83.949,-59.855 137.921,-89.679 137.921,-146.289 0,-5.976 0.008,-8.047 -0.207,-11.172 l 66.047,0.047 c 6.485,20.918 9.844,33.879 9.844,54.367 0,76.465 -63.457,114.18 -112.004,155.196 z"
         id="path3208"
         inkscape:connector-curvature="0" />
    </clipPath>
    <linearGradient
       x1="0"
       y1="0"
       x2="1"
       y2="0"
       gradientUnits="userSpaceOnUse"
       gradientTransform="matrix(-3.02e-6,69.02,69.02,3.02e-6,30.0054,10.1397)"
       spreadMethod="pad"
       id="linearGradient3210">
      <stop
         style="stop-opacity:1;stop-color:#f5f6f5"
         offset="0"
         id="stop3212" />
      <stop
         style="stop-opacity:1;stop-color:#ffffff"
         offset="1"
         id="stop3214" />
    </linearGradient>
    <clipPath
       clipPathUnits="userSpaceOnUse"
       id="clipPath3222">
      <path
         d="m 90,442.07 -10,7.969 0,272.422 10,8.652 0,-289.043 z"
         id="path3224"
         inkscape:connector-curvature="0" />
    </clipPath>
    <linearGradient
       x1="0"
       y1="0"
       x2="1"
       y2="0"
       gradientUnits="userSpaceOnUse"
       gradientTransform="matrix(1,0,0,-1,8,58.6592)"
       spreadMethod="pad"
       id="linearGradient3226">
      <stop
         style="stop-opacity:1;stop-color:#f5f6f5"
         offset="0"
         id="stop3228" />
      <stop
         style="stop-opacity:1;stop-color:#f5f6f5"
         offset="1"
         id="stop3230" />
    </linearGradient>
    <clipPath
       clipPathUnits="userSpaceOnUse"
       id="clipPath3238">
      <path
         d="M 90,203.945 80,186.66 79.8438,255.801 90,260.352 90,203.945 z"
         id="path3240"
         inkscape:connector-curvature="0" />
    </clipPath>
    <linearGradient
       x1="0"
       y1="0"
       x2="1"
       y2="0"
       gradientUnits="userSpaceOnUse"
       gradientTransform="matrix(1.01563,0,0,-1.01563,7.98438,22.3506)"
       spreadMethod="pad"
       id="linearGradient3242">
      <stop
         style="stop-opacity:1;stop-color:#e9e9e9"
         offset="0"
         id="stop3244" />
      <stop
         style="stop-opacity:1;stop-color:#f5f6f5"
         offset="1"
         id="stop3246" />
    </linearGradient>
    <clipPath
       clipPathUnits="userSpaceOnUse"
       id="clipPath3254">
      <path
         d="M 0,921.602 0,0 l 921.602,0 0,921.602 -921.602,0 z"
         id="path3256"
         inkscape:connector-curvature="0" />
    </clipPath>
    <linearGradient
       y2="670.00012"
       x2="427.63419"
       y1="238.4048"
       x1="427.63431"
       gradientUnits="userSpaceOnUse"
       id="SVGID_1_">
      <stop
         id="stop4337"
         style="stop-color:#FFFFFF"
         offset="0" />
      <stop
         id="stop4339"
         style="stop-color:#C9C9C9"
         offset="1" />
    </linearGradient>
    <defs
       id="defs4895">
      <path
         inkscape:connector-curvature="0"
         id="SVGID_29_"
         d="m 317.959,404.66 c 0,-20.762 24.955,-38.043 52.813,-37.739 6.501,0.066 12.556,1.115 18.057,2.893 15.126,10.517 25.971,16.459 29.029,28.445 0.575,2.431 0.891,4.928 0.891,7.481 0,21.183 -13.651,37.739 -52.814,37.739 -27.858,0 -47.976,-17.639 -47.976,-38.819 m 55.3,-85.412 c -18.7,-0.56 -36.473,-20.922 -39.699,-45.47 -3.225,-24.56 9.312,-43.352 28.004,-42.792 18.695,0.559 36.473,20.263 39.702,44.815 3.179,24.21 -8.97,43.457 -27.228,43.457 -0.26,0.001 -0.518,-0.002 -0.779,-0.01 m -2.624,-98.538 c -32.541,0 -63.162,24.651 -63.162,53.206 0,29.18 22.177,52.727 55.281,52.727 2.303,0 4.541,-0.043 6.73,-0.2 -2.148,4.11 -3.683,8.745 -3.683,13.555 0,8.109 4.361,14.685 9.876,20.051 -4.165,0 -8.192,0.117 -12.583,0.117 -40.3,0 -71.321,25.671 -71.321,52.288 0,26.214 34.007,42.612 74.31,42.612 45.948,0 71.325,-26.07 71.325,-52.286 0,-21.019 -6.202,-33.605 -25.377,-47.169 -6.561,-4.644 -19.105,-15.937 -19.105,-22.578 0,-7.776 2.221,-11.612 13.933,-20.759 12.001,-9.379 20.497,-22.563 20.497,-37.899 0,-18.259 -8.131,-36.053 -23.393,-41.923 h 23.009 l 16.241,-11.741 h -72.578 z" />
    </defs>
    <clipPath
       id="SVGID_30_">
      <use
         height="1"
         width="1"
         y="0"
         x="0"
         style="overflow:visible"
         xlink:href="#SVGID_29_"
         overflow="visible"
         id="use4899" />
    </clipPath>
    <linearGradient
       id="SVGID_31_"
       gradientUnits="userSpaceOnUse"
       x1="352.9614"
       y1="379.20901"
       x2="355.896"
       y2="379.20901"
       gradientTransform="matrix(0,82.3042,82.3042,0,-30843.037,-28830.512)">
      <stop
         offset="0"
         style="stop-color:#F8F9FA"
         id="stop4902" />
      <stop
         offset="1"
         style="stop-color:#D2D2D4"
         id="stop4904" />
    </linearGradient>
    <defs
       id="defs4886">
      <rect
         id="SVGID_27_"
         x="205.188"
         y="85.692001"
         width="440.27499"
         height="440.27499" />
    </defs>
    <clipPath
       id="SVGID_28_">
      <use
         height="1"
         width="1"
         y="0"
         x="0"
         style="overflow:visible"
         xlink:href="#SVGID_27_"
         overflow="visible"
         id="use4890" />
    </clipPath>
    <defs
       id="defs4869">
      <polygon
         id="SVGID_24_"
         points="463.482,279.413 510.445,279.413 510.445,326.376 522.186,326.376 522.186,279.413 569.148,279.413 569.148,267.673 522.186,267.673 522.186,220.71 510.445,220.71 510.445,267.673 463.482,267.673 " />
    </defs>
    <clipPath
       id="SVGID_25_">
      <use
         height="1"
         width="1"
         y="0"
         x="0"
         style="overflow:visible"
         xlink:href="#SVGID_24_"
         overflow="visible"
         id="use4873" />
    </clipPath>
    <defs
       id="defs4723">
      <filter
         color-interpolation-filters="sRGB"
         id="Adobe_OpacityMaskFilter"
         filterUnits="userSpaceOnUse"
         x="205.188"
         y="85.692001"
         width="440.27499"
         height="440.27499">
        <feColorMatrix
           type="matrix"
           values="1 0 0 0 0  0 1 0 0 0  0 0 1 0 0  0 0 0 1 0"
           id="feColorMatrix4726" />
      </filter>
    </defs>
    <mask
       maskUnits="userSpaceOnUse"
       x="205.188"
       y="85.692"
       width="440.275"
       height="440.275"
       id="FreeVector.com_BG_2_">
      <g
         style="filter:url(#Adobe_OpacityMaskFilter)"
         id="g4729">
        <rect
           x="205.188"
           y="85.692001"
           width="440.27499"
           height="440.27499"
           id="rect4731" />
        <g
           enable-background="new    "
           id="g4733">
          <rect
             style="fill:#ffffff"
             x="205.188"
             y="150.26601"
             width="440.27499"
             height="375.702"
             id="rect4735" />
        </g>
      </g>
    </mask>
    <linearGradient
       gradientTransform="matrix(0,36.2061,36.2061,0,-13287.815,-12527.596)"
       y2="381.26459"
       x2="355.04349"
       y1="381.26459"
       x1="352.10791"
       gradientUnits="userSpaceOnUse"
       id="SVGID_26_">
      <stop
         id="stop4878"
         style="stop-color:#F8F9FA"
         offset="0" />
      <stop
         id="stop4880"
         style="stop-color:#D2D2D4"
         offset="1" />
    </linearGradient>
    <linearGradient
       inkscape:collect="always"
       xlink:href="#SVGID_31_"
       id="linearGradient6505"
       gradientUnits="userSpaceOnUse"
       gradientTransform="matrix(0,82.3042,82.3042,0,-30843.037,-28830.512)"
       x1="352.9614"
       y1="379.20901"
       x2="355.896"
       y2="379.20901" />
    <clipPath
       id="SVGID_28_-9">
      <use
         height="1"
         width="1"
         y="0"
         x="0"
         style="overflow:visible"
         xlink:href="#SVGID_27_"
         overflow="visible"
         id="use4890-5" />
    </clipPath>
    <clipPath
       id="SVGID_28_-0">
      <use
         height="1"
         width="1"
         y="0"
         x="0"
         style="overflow:visible"
         xlink:href="#SVGID_27_"
         overflow="visible"
         id="use4890-8" />
    </clipPath>
    <clipPath
       id="SVGID_28_-4">
      <use
         height="1"
         width="1"
         y="0"
         x="0"
         style="overflow:visible"
         xlink:href="#SVGID_27_"
         overflow="visible"
         id="use4890-0" />
    </clipPath>
    <clipPath
       id="SVGID_28_-4-2">
      <use
         height="1"
         width="1"
         y="0"
         x="0"
         style="overflow:visible"
         xlink:href="#SVGID_27_"
         overflow="visible"
         id="use4890-0-0" />
    </clipPath>
  </defs>
  <sodipodi:namedview
     pagecolor="#ffffff"
     bordercolor="#666666"
     borderopacity="1"
     objecttolerance="10"
     gridtolerance="10"
     guidetolerance="10"
     inkscape:pageopacity="0"
     inkscape:pageshadow="2"
     inkscape:window-width="1920"
     inkscape:window-height="1145"
     id="namedview9"
     showgrid="false"
     inkscape:zoom="0.944"
     inkscape:cx="228.34952"
     inkscape:cy="224.87069"
     inkscape:window-x="-2"
     inkscape:window-y="-3"
     inkscape:window-maximized="1"
     inkscape:current-layer="svg3932" />
  <path
     inkscape:connector-curvature="0"
     id="path5-5"
     style="fill:#ffffff;fill-opacity:1;display:inline"
     d="m 87.86405,2e-5 -75.72814,0 C 5.43349,2e-5 9.9997792e-6,5.43352 9.9997792e-6,12.13594 l 0,75.7281 C 9.9997792e-6,94.56648 5.43351,99.99998 12.13591,99.99998 l 75.72814,0 c 6.70244,0 12.13594,-5.4335 12.13594,-12.13594 l 0,-75.7281 C 99.99999,5.43352 94.56675,2e-5 87.86405,2e-5 z"
     sodipodi:nodetypes="sssssssss" />
  <path
     inkscape:connector-curvature="0"
     id="path7-7"
     d="M 12.131258,0 C 5.4287604,0 0,5.43508 0,12.1375 L 0,87.86875 C 0,94.57114 5.4288,100 12.131258,100 L 87.8625,100 C 94.56494,100 100,94.57118 100,87.86875 L 100,12.1375 C 100,5.43508 94.56518,0 87.8625,0 z"
     style="fill:#4285f4;fill-opacity:1;display:inline"
     sodipodi:nodetypes="sssssssss" />
  <path
     style="fill:#000000;fill-opacity:0.78431373;display:inline"
     d="M 12.1375,0 C 5.435084,0 -2.0000166e-5,5.43508 0,12.1375 l 0,75.725 C 0,94.56491 5.435084,100.00002 12.1375,100 l 75.725,0 C 94.56494,100 99.99998,94.56491 100,87.8625 l 0,-75.725 C 100,5.43508 94.56516,0 87.8625,0 L 12.1375,0 z M 18.19375,8 81.8,8 C 87.430236,8 92,12.56372 92,18.19375 L 92,81.8 C 91.999984,87.43002 87.43005,92 81.8,92 L 18.19375,92 C 12.56372,92.00002 8,87.43002 8,81.8 L 8,18.19375 C 7.999984,12.56372 12.56372,8 18.19375,8 z"
     id="path7-8-6-9"
     inkscape:connector-curvature="0" />
  <g
     id="g3224"
     transform="scale(0.2,0.2)">
    <path
       inkscape:connector-curvature="0"
       id="rect6540-46-8"
       d="M 203.08643,98.774073 82.148997,245.16273 l 99.581003,0 c -0.0798,-0.53994 -0.14056,-1.08131 -0.21181,-1.62378 -5.15185,-39.18534 14.08028,-69.43752 43.27768,-70.4586 0.94186,-0.033 1.86186,-0.0286 2.82399,0 30.21882,0.9085 58.97758,32.19324 65.05771,71.58819 l 90.68543,-109.74737 0,43.17176 -13.73166,0 0,132.83351 48.21966,0 0,-132.83351 -13.76697,0 0,-68.23469 9.14268,-11.084167 -210.14028,0 z"
       style="fill:#f9f9f9;stroke:none" />
    <path
       id="rect3216"
       d="m 242.59375,156.15625 c -53.59046,0 -104.03125,40.59603 -104.03125,87.625 0,48.05832 36.5448,86.84375 91.0625,86.84375 3.7913,0 7.45566,-0.0835 11.0625,-0.34375 -3.53767,6.77395 -6.0625,14.42187 -6.0625,22.34375 0,13.35356 7.19826,24.1953 16.28125,33.03125 -6.86453,0 -13.49353,0.1875 -20.71875,0.1875 -66.37912,0 -117.46875,42.28784 -117.46875,86.125 0,10.31064 3.2021,19.71431 8.96875,28.03125 l 51.90625,0 c -11.23011,-11.13938 -17.75,-25.41995 -17.75,-40.875 0,-34.19256 41.0943,-62.65199 86.96875,-62.15625 10.70689,0.11199 20.69007,1.81841 29.75,4.75 24.90699,17.32274 42.77609,27.10657 47.8125,46.84375 0.95359,4.00376 1.46875,8.13906 1.46875,12.34375 C 321.84304,475.86388 317.6844,489.39813 307.875,500 l 29.25,0 c 10.178,-13.35281 15.4375,-28.64267 15.4375,-43.96875 -0.003,-34.61912 -10.20077,-55.35471 -41.78125,-77.6875 -10.80571,-7.64849 -31.46875,-26.25497 -31.46875,-37.1875 0,-12.81171 3.65488,-19.11781 22.9375,-34.1875 C 322.02012,291.5219 336,269.7874 336,244.53125 336,214.45939 322.60467,185.16931 297.46875,175.5 l 37.90625,0 26.75,-19.34375 -119.53125,0 z m -17.78125,16.9375 c 0.94185,-0.0329 1.88162,-0.0286 2.84375,0 30.78664,0.92559 60.05696,33.37467 65.375,73.8125 5.30651,40.44277 -15.3433,72.45025 -46.125,71.53125 -30.79817,-0.92065 -60.06355,-34.44211 -65.375,-74.875 -5.15185,-39.18532 14.08384,-69.44765 43.28125,-70.46875 z"
       style="fill:#f9f9f9;fill-opacity:1;stroke:none"
       inkscape:connector-curvature="0" />
  </g>
</svg>
