<svg xmlns="http://www.w3.org/2000/svg" xmlns:xlink="http://www.w3.org/1999/xlink" viewBox="0 0 100 100"><defs><path id="0" d="m317.96 404.66c0-20.762 24.955-38.04 52.813-37.739 6.501.066 12.556 1.115 18.06 2.893 15.13 10.517 25.971 16.459 29.03 28.445.575 2.431.891 4.928.891 7.481 0 21.18-13.651 37.739-52.814 37.739-27.858 0-47.976-17.639-47.976-38.819m55.3-85.41c-18.7-.56-36.473-20.922-39.699-45.47-3.225-24.56 9.312-43.35 28-42.792 18.695.559 36.473 20.263 39.702 44.815 3.179 24.21-8.97 43.46-27.23 43.46-.26.001-.518-.002-.779-.01m-2.624-98.54c-32.541 0-63.16 24.651-63.16 53.21 0 29.18 22.18 52.727 55.28 52.727 2.303 0 4.541-.043 6.73-.2-2.148 4.11-3.683 8.745-3.683 13.555 0 8.109 4.361 14.685 9.876 20.05-4.165 0-8.192.117-12.583.117-40.3 0-71.32 25.671-71.32 52.29 0 26.21 34.01 42.612 74.31 42.612 45.948 0 71.32-26.07 71.32-52.29 0-21.02-6.202-33.605-25.377-47.17-6.561-4.644-19.11-15.937-19.11-22.578 0-7.776 2.221-11.612 13.933-20.759 12-9.379 20.497-22.563 20.497-37.899 0-18.259-8.131-36.05-23.393-41.923h23.01l16.241-11.741h-72.58z"/><path id="1" d="m205.19 85.69h440.27v440.27h-440.27z"/><path id="2" d="m463.48 279.41h46.96v46.97h11.75v-46.97h46.96v-11.74h-46.96v-46.96h-11.75v46.96h-46.96z"/><clipPath><path d="m177.13 360c-94.95 0-133.93 109.77-133.93 183.97 0 28.867 2.891 58.73 21.66 82.01 17.695 22.16 48.575 36.562 77.3 36.562 91.58 0 137.83-124.08 137.83-203.87 0-15.977-8.125-47.22-28.84-70.945-18.16-20.707-46.45-27.727-74.03-27.727m140.87-140.6l-39.793 30.957c-12.12 9.993-28.672 23.286-28.672 47.629 0 24.414 16.555 39.961 30.899 54.34 46.37 36.504 89.57 75.35 89.57 157.32 0 74.832-40.43 116.86-67.53 140.35 9.09 0 67.64 0 67.64 0l61.985 50h-233.33c-57.891-1.074-126.93-9.766-189.86-61.855-2.949-2.54-6.145-5.489-8.906-8.145v-270c30.27-25.16 71.39-44.25 121.48-44.25 11.07 0 23.16 1.141 35.33 2.226-5.507-13.312-11.03-24.406-11.03-43.25 0-34.31 17.637-55.33 33.11-75.31-42.2-2.856-128.9 4.324-178.9-35.676v-63.75c22.781 30.969 59.18 44.812 75.13 50.645 46.36 15.527 105.98 17.753 115.97 17.753 10.976 0 16.504 0 25.301-1.14 83.949-59.856 144.09-90.65 144.72-147.26.117-10.969-2.988-14.375-4.629-20h64.63c6.66 15.559 8.887 33.953 8.887 54.44 0 76.46-63.46 123.95-112 164.96"/></clipPath><clipPath><path d="m539.68 91.6h-389.68c-38.66 0-70 31.34-70 70v620c0 10.351 1.344 19.418 3.816 27.28h9c-1.977-5.344-3-11.157-2.816-17.285v-20-600-10c0-27.618 32.383-60 60-60h389.68v-10"/></clipPath><clipPath><path d="m830 151.6c0-27.618-22.383-50-50-50h-630c-29.922 0-60 30.3-60 60v630c0 27.617 22.383 50 50 50h640c27.617 0 50-22.383 50-50v-640"/></clipPath><clipPath><path d="m770 91.6h-230.32v10h230.61c29.629 0 59.719 29.914 59.719 60.03v253.65h10v-253.68c0-38.661-31.34-70-70-70m66.18 717.29h-7.719c-6.926 19.82-25.985 32.492-48.12 32.711-.117.004-.231.004-.344.004h-20-600-20-.73c-19.571 0-39.27-13.286-46.45-32.715h-9c9.473 30.14 35.528 42.715 66.18 42.715h620c30.656 0 56.711-12.575 66.18-42.715"/></clipPath><clipPath><path d="m539.68 64.887h-477.6v744h21.742c-2.473-7.867-3.816-16.934-3.816-27.29v-620c0-38.661 31.34-70 70-70h389.68v-26.715"/></clipPath><clipPath><path d="m0 921.6v-921.6h921.6v921.6h-921.6"/></clipPath><clipPath><path d="m830 415.29h-290.32v177.55h100.32v-141.23h60v141.23h130v-177.55m0 236.32h-130v140h-60v-140h-100.32v157.28h-65.61 349.21c3.078-4.719 5.36-10.02 6.668-15.778.035-.507.055-1.01.055-1.507v-140"/></clipPath><clipPath><path d="m867.67 415.29h-27.672v177.55h.496v58.77h-.496v130c0 10.351-1.344 19.418-3.816 27.28h31.488v-393.6"/></clipPath><clipPath><path d="m921.6.004h-921.6v921.6h921.6v-921.6m-859.53 808.88v-744h477.6v26.715h230.32c38.66 0 70 31.34 70 70v253.68h27.672v393.6h-31.488c-9.473 30.14-35.528 42.715-66.18 42.715h-620c-30.656 0-56.711-12.575-66.18-42.715h-21.742"/></clipPath><clipPath><path d="m840 415.29h-10v177.55h10v-177.55m0 236.32h-10v140c0 .496-.02 1-.055 1.507.836-3.668 1.278-7.515 1.278-11.507v8.789c.195 6.66-.793 12.867-2.758 18.496h7.719c2.472-7.867 3.816-16.934 3.816-27.28v-130"/></clipPath><clipPath><path d="m539.68 101.6h-389.68c-27.617 0-60 32.382-60 60v10 600 20-10c0 10.25 2.621 19.558 7.301 27.28h376.77v-393.6h65.61v-313.68"/></clipPath><clipPath><path d="m770.28 101.6h-230.61v313.68h290.32v-253.65c0-30.12-30.09-60.03-59.719-60.03m52.996 707.28h-349.21-376.77c8.422 13.914 23.511 22.715 41.969 22.715h640.49c18.445 0 34.445-8.801 43.519-22.715m-42.933 32.711c-.199.004-.391.004-.586.004h-639.76 20 600 20c.113 0 .227 0 .344-.004"/></clipPath><clipPath><path d="m831.22 781.6c0 3.992-.442 7.839-1.278 11.507-1.308 5.754-3.59 11.06-6.668 15.778h5.188c1.965-5.629 2.953-11.836 2.758-18.496v-8.789"/></clipPath><clipPath><use xlink:href="#1"/></clipPath><clipPath><use xlink:href="#1"/></clipPath><clipPath><path d="m539.68 592.83h-39.676v58.77h39.676v-58.77"/></clipPath><clipPath><use xlink:href="#2"/></clipPath><clipPath><path d="m90 442.07l-10 7.969v272.42l10 8.652v-289.04"/></clipPath><clipPath><path d="m90 203.94l-10-17.285-.156 69.14 10.156 4.551v-56.41"/></clipPath><clipPath><use xlink:href="#0"/></clipPath><clipPath><use xlink:href="#1"/></clipPath><clipPath><path d="m90 781.6v10c-.184 6.128.84 11.941 2.816 17.285h4.484c-4.68-7.727-7.301-17.03-7.301-27.28"/></clipPath><clipPath><use xlink:href="#1"/></clipPath><clipPath><path d="m257.13 451.6c-94.95 0-133.93 109.76-133.93 183.96 0 28.868 2.891 58.731 21.66 82.01 17.696 22.16 48.575 36.563 77.31 36.563 91.58 0 137.83-124.08 137.83-203.87 0-15.976-8.125-47.21-28.84-70.945-18.16-20.703-46.45-27.726-74.03-27.726m140.87-140.59l-39.793 30.957c-12.12 9.988-28.672 23.281-28.672 47.625 0 24.414 16.555 39.961 30.899 54.34 46.37 36.504 89.57 75.35 89.57 157.32 0 74.836-40.43 116.86-67.53 140.35 9.09 0 67.64 0 67.64 0l61.985 50h-233.33c-57.891-1.075-126.93-9.766-189.86-61.856-2.949-2.539 2.5-5.156-.262-7.812v-278.71c30.26-25.16 62.742-35.868 112.84-35.868 11.07 0 23.16 1.141 35.33 2.227-5.507-13.312-11.03-24.406-11.03-43.24 0-34.32 17.637-55.33 33.11-75.31-42.2-2.851-107.04-4.113-170.07-31.18l-.184-58.09c22.781 30.965 50.54 34.668 66.48 40.496 46.35 15.527 105.98 17.754 115.97 17.754 10.976 0 16.504 0 25.301-1.141 83.949-59.855 137.92-89.68 137.92-146.29 0-5.976.008-8.05-.207-11.172l66.05.047c6.485 20.918 9.844 33.879 9.844 54.37 0 76.47-63.46 114.18-112 155.2"/></clipPath><clipPath><path d="m539.68 415.29h-65.61v393.6h65.61v-157.28h-39.676v-58.77h39.676v-177.55"/></clipPath><clipPath><use xlink:href="#1"/></clipPath><linearGradient y2="61.754" x2="48.725" y1="85.34" x1="84.49" gradientUnits="userSpaceOnUse" id="3" gradientTransform="matrix(.99987 0 0 .9999.005.001)"><stop stop-opacity=".374"/><stop offset="1" stop-opacity="0"/></linearGradient></defs><path d="m12.133.004c-6.702 0-12.13 5.435-12.13 12.136v75.73c0 6.702 5.429 12.13 12.13 12.13h75.73c6.702 0 12.137-5.429 12.137-12.13v-75.73c0-6.702-5.435-12.136-12.137-12.136" fill="#4285f4"/><path d="m12.142.001c-6.701 0-12.137 5.435-12.137 12.136v75.73c0 6.702 5.434 12.136 12.137 12.135h75.72c6.701 0 12.136-5.435 12.136-12.135v-75.73c0-6.702-5.434-12.136-12.136-12.136z" fill="url(#3)"/><g transform="matrix(.99997 0 0 .99995.002.003)" fill="#fff"><path d="m45.722 13.719l-38.822 25.976 23.689 4.712c7.289.085 13.09-3.467 23.689 4.712l38.822-25.976"/><path d="m44.45 35.22c-14.1 0-25.529 11.43-25.529 25.529 0 14.1 11.43 25.529 25.529 25.529 14.1.001 25.531-11.429 25.531-25.529-.004-1.78-.194-3.555-.566-5.295h-10.781l.006.018h-14.295v10.318h14.371c-2.135 6.05-7.85 10.1-14.266 10.11-8.366-.001-15.15-6.783-15.15-15.15 0-8.366 6.781-15.15 15.15-15.15 3.554.003 6.993 1.256 9.717 3.539l7.344-7.344c-4.68-4.223-10.757-6.566-17.06-6.576"/><path d="m80.56 29.685v9.683h-3.08v29.792h10.815v-29.792h-3.088v-15.303"/></g></svg>