<?xml version="1.0" encoding="UTF-8" standalone="no"?>
<!-- Created with Inkscape (http://www.inkscape.org/) -->

<svg
   xmlns:dc="http://purl.org/dc/elements/1.1/"
   xmlns:cc="http://creativecommons.org/ns#"
   xmlns:rdf="http://www.w3.org/1999/02/22-rdf-syntax-ns#"
   xmlns:svg="http://www.w3.org/2000/svg"
   xmlns="http://www.w3.org/2000/svg"
   xmlns:sodipodi="http://sodipodi.sourceforge.net/DTD/sodipodi-0.dtd"
   xmlns:inkscape="http://www.inkscape.org/namespaces/inkscape"
   width="500"
   height="500"
   id="svg3932"
   version="1.1"
   inkscape:version="0.48.4 r9939"
   sodipodi:docname="GitHub.svg">
  <defs
     id="defs3934" />
  <sodipodi:namedview
     id="base"
     pagecolor="#ffffff"
     bordercolor="#666666"
     borderopacity="1.0"
     inkscape:pageopacity="0.0"
     inkscape:pageshadow="2"
     inkscape:zoom="1.4142136"
     inkscape:cx="-580.15325"
     inkscape:cy="235.97378"
     inkscape:document-units="px"
     inkscape:current-layer="layer1"
     showgrid="false"
     inkscape:window-width="1920"
     inkscape:window-height="1145"
     inkscape:window-x="-2"
     inkscape:window-y="-3"
     inkscape:window-maximized="1" />
  <metadata
     id="metadata3937">
    <rdf:RDF>
      <cc:Work
         rdf:about="">
        <dc:format>image/svg+xml</dc:format>
        <dc:type
           rdf:resource="http://purl.org/dc/dcmitype/StillImage" />
        <dc:title></dc:title>
      </cc:Work>
    </rdf:RDF>
  </metadata>
  <g
     inkscape:label="Layer 1"
     inkscape:groupmode="layer"
     id="layer1"
     transform="translate(0,-552.36218)">
    <path
       d="m 439.32025,552.36227 -378.6407,0 c -33.5121,0 -60.6795,27.1675 -60.6795,60.6796 l 0,378.64052 c 0,33.51221 27.1675,60.67971 60.6795,60.67971 l 378.6407,0 c 33.5122,0 60.6797,-27.1675 60.6797,-60.67971 l 0,-378.64052 c 0,-33.5121 -27.1662,-60.6796 -60.6797,-60.6796 z"
       id="linkedin-square-rounded-icon-0-4-7-3-5"
       inkscape:connector-curvature="0"
       sodipodi:nodetypes="sssssssss"
       style="fill:#ffffff;fill-opacity:1;display:inline" />
    <path
       style="fill:#1a1a1a"
       d="m -900.74554,562.37111 c -33.5121,0 -60.6875,27.14412 -60.6875,60.65625 l 0,378.65624 c 0,33.5121 27.1754,60.6875 60.6875,60.6875 l 378.625,0 c 33.5122,0 60.6875,-27.1754 60.6875,-60.6875 l 0,-378.65624 c 0,-33.51213 -27.1741,-60.65625 -60.6875,-60.65625 z m 207.40625,55.8125 56.9375,49.21875 c 12.83967,-5.3989 24.84769,2.99525 21.90625,16.53125 l -0.4375,2.0625 27.5625,23.84375 -1.78125,7.25 -0.0625,0.21875 -0.15625,-0.125 c -10.72057,4.49192 -19.6522,8.05447 -27.6875,11.0625 0.0442,0.15097 0.0924,0.31204 0.125,0.46875 1.10415,1.56869 2.37952,3.60814 3.78125,5.875 0.70087,1.13343 1.43115,2.35287 2.1875,3.5625 3.78133,6.04813 8.16064,12.6207 12.375,15.65625 4.20731,2.59178 5.9408,5.3541 9.65625,4.90625 0.28581,-0.0344 0.59491,-0.0506 0.90625,-0.125 0.6229,-0.14872 1.31267,-0.3916 2.0625,-0.71875 0,0 2.21343,-0.9149 2.40625,1.25 -13.08408,10.10973 -27.12366,-15.36228 -30.59375,-20.125 -0.42157,-0.51266 -0.63835,-0.53115 -0.65625,-0.1875 -0.0613,-0.11093 -0.0964,-0.2334 -0.15625,-0.34375 0.0185,0.32305 0.1685,0.89215 0.4375,1.84375 22.98104,49.11141 28.22308,38.78729 29.40625,40.625 1.18307,1.83773 -0.1875,3.375 -0.1875,3.375 l -1.8125,-0.0312 1.09375,0.96875 -0.78125,1.15625 -0.0937,0.0937 -1.28125,1.875 -4.90625,-1.5 0.96875,0.59375 2.875,1.78125 -0.4375,0.75 -0.40625,0.71875 -0.9375,1.78125 -3.125,-0.3125 2.03125,1.125 -0.375,1.6875 -2,0.34375 0.0312,0.0312 -0.3125,0.0312 -0.78125,0.125 0.9375,1.40625 -1.34375,1.53125 -2.375,-1.875 1.65625,1.59375 -2.59375,3.375 -3.5,-0.4375 0.8125,1.75 -3.5625,3.8125 -3.875,-1.15625 c 0,0 -21.03027,-41.95605 -23.59375,-56.0625 -1.05708,-5.81713 -0.68778,-11.25009 0.125,-15.6875 -6.06499,1.93379 -11.79856,3.55848 -17.71875,4.96875 l 0.0937,1.375 c 1.58606,7.87111 1.80102,15.941 0.46875,23.71875 -2.91412,17.01252 -7.42486,24.39706 -25.75,42.3125 -18.57534,18.15987 -20.3125,20.68257 -20.3125,29.625 0,8.22907 2.4493,11.42496 18.375,23.875 36.44844,28.49384 48.95161,51.45861 42.6875,78.46875 -3.63495,15.67403 -11.11341,28.54303 -23.09375,39.75 -11.67141,10.918 -30.88644,21.06061 -47.71875,25.21879 -12.04801,2.9763 -51.7857,4.5398 -64.34375,2.5312 -31.86925,-5.0973 -54.57473,-19.19217 -64.46875,-39.99999 -11.0068,-23.14833 -1.91899,-51.28393 22.0625,-68.25 17.48999,-12.37344 36.37792,-18.6842 66.375,-22.1875 9.2251,-1.07736 17.37464,-2.48617 18.125,-3.15625 -8.60964,-18.66171 -7.82534,-23.65832 -7.7813,-43.90625 l -11.6875,0 c -35.56369,0 -63.43237,-22.85583 -69.25,-56.78125 -3.36991,-19.65193 2.99127,-40.28352 16,-56.5 0.10235,-0.26885 0.20626,-0.53114 0.21875,-0.5625 0.0105,-10e-4 0.0208,0.001 0.0312,0 0.43555,-1.08549 2.18255,-5.52281 4.84375,-12.0625 0.0616,-0.15109 0.15675,-0.31672 0.21875,-0.46875 -12.17357,-9.46917 -25.05891,-20.25907 -42.2344,-34.90627 0.63828,-2.53502 1.28032,-5.12012 1.8281,-7.31248 l 142.5625,-41.34375 z m 65.65625,53.71875 c -0.56134,0.0235 -1.11172,0.13855 -1.6875,0.3125 -0.33331,0.11185 -0.68827,0.24137 -1.03125,0.40625 l 9.90625,8.59375 c 0.0318,-0.21266 0.1612,-0.82266 0.1875,-1 0.3269,-2.23909 -0.54762,-4.66742 -2.15625,-6.34375 -1.3326,-1.11372 -2.93055,-1.88125 -4.65625,-1.96875 -0.18491,-0.009 -0.37539,-0.008 -0.5625,0 z m -148.625,46.84375 c -3.06416,8.18238 -4.59064,18.59021 -3.65625,27.09375 5.87101,53.43195 39.30621,82.94804 73.1875,64.625 19.69725,-10.65226 25.15984,-34.69606 15.21875,-66.9375 -1.09021,-3.53591 -2.23325,-6.78617 -3.4375,-9.8125 -26.90648,-6.71427 -54.0642,-11.32122 -81.3125,-14.96875 z m 66.59375,167.15625 -14.75,0.3125 c -47.25286,1.06853 -76.20062,19.76368 -76.40625,49.3125 -0.16991,24.4225 17.52883,42.75726 47.9375,49.65625 15.49877,3.51632 45.03006,2.27275 57.3125,-2.40625 20.88726,-7.95681 31.30638,-21.53549 31.21875,-40.6875 -0.0799,-17.51163 -6.96191,-27.39364 -32.4375,-46.53125 z"
       id="linkedin-square-rounded-icon-0-4"
       inkscape:connector-curvature="0"
       sodipodi:nodetypes="sssssssssccccccccccscccccccccccccccccccccccccccccccccccccccscccsssssssssssccssccccccccccccccccccsssccccsssccc" />
  </g>
</svg>
