<svg xmlns="http://www.w3.org/2000/svg" viewBox="0 0 100 100"><defs><linearGradient y2="61.748" x2="48.72" y1="85.34" x1="84.48" gradientUnits="userSpaceOnUse" id="0"><stop stop-opacity=".374"/><stop offset="1" stop-opacity="0"/></linearGradient></defs><path d="m12.135.003c-6.702 0-12.137 5.435-12.136 12.137v75.72c0 6.702 5.435 12.137 12.136 12.137h75.73c6.702 0 12.136-5.435 12.136-12.137v-75.72c0-6.702-5.435-12.137-12.136-12.137z"/><g transform="translate(.052.035)"><path d="m56.967 88.987c2.644-.989 4.995-3.263 5.668-5.483.68-2.246.673-34.07-.008-36.33-.304-1.01-1.107-2.207-2.217-3.317-2.459-2.459-4.558-3.054-10.661-3.02-5.727.03-8.125.772-10.54 3.262-2.446 2.522-2.453 2.583-2.453 21.438 0 16.726.002 16.79.826 18.575 1.016 2.203 1.639 2.909 3.565 4.04 3.527 2.067 11.417 2.485 15.822.838" fill="#fff"/><circle r="13" cy="22.93" cx="50" fill="#87c421"/></g><path d="m12.136-.002c-6.702 0-12.137 5.435-12.137 12.137v75.73c0 6.702 5.435 12.137 12.137 12.136h75.73c6.702 0 12.136-5.435 12.136-12.136v-75.73c0-6.702-5.435-12.136-12.136-12.136z" fill="url(#0)"/></svg>