<svg xmlns="http://www.w3.org/2000/svg" xmlns:xlink="http://www.w3.org/1999/xlink" viewBox="0 0 100 100"><defs><clipPath><path d="m4282.08 936.13c0-517.01-417.11-936.13-931.65-936.13h-2418.77c-514.54 0-931.66 419.12-931.66 936.13v2400.98c0 517 417.12 936.12 931.66 936.12h2418.77c514.54 0 931.65-419.12 931.65-936.12v-2400.98"/></clipPath><clipPath><path d="m0 0v4273h4282v-4273h-4282"/></clipPath><linearGradient y2="61.751" x2="48.727" y1="85.34" x1="84.49" gradientUnits="userSpaceOnUse" id="0"><stop stop-opacity=".374"/><stop offset="1" stop-opacity="0"/></linearGradient><radialGradient cx="0" cy="0" r="1" gradientUnits="userSpaceOnUse" gradientTransform="matrix(1400.92 4083.18 4083.18-1400.92 1244.54 10.58)" id="1"><stop stop-color="#fbd459"/><stop offset=".246" stop-color="#f29b3e"/><stop offset=".379" stop-color="#f14534"/><stop offset=".7" stop-color="#c21889"/><stop offset=".985" stop-color="#5a63b8"/><stop offset="1" stop-color="#5a63b8"/></radialGradient><radialGradient xlink:href="#1" id="2" gradientUnits="userSpaceOnUse" gradientTransform="matrix(32.71648-95.3568 95.3568 32.71648 29.06 99.65)" cx="0" cy="0" r="1"/></defs><path d="m12.137 0c-6.701 0-12.137 5.435-12.137 12.139v8.893 57.939 8.891c0 6.703 5.435 12.139 12.137 12.139h75.73c6.701 0 12.137-5.435 12.137-12.139v-75.72c0-6.703-5.435-12.139-12.137-12.139h-75.73" fill="url(#2)"/><g transform="matrix(.02416 0 0-.02416-1.718 101.5)"><g fill="none" stroke="#fff" stroke-miterlimit="10"><path d="m3578.6 1447.28c0-439.45-356.25-795.7-795.7-795.7h-1283.71c-439.46 0-795.71 356.25-795.71 795.7v1369.79c0 439.45 356.25 795.7 795.71 795.7h1283.71c439.45 0 795.7-356.25 795.7-795.7v-1369.79z" stroke-width="350.65"/><path d="m2846.91 2136.62c-8.52-389.75-316.03-705.87-705.87-705.87-389.84 0-705.86 316.03-705.86 705.87 0 389.84 316.19 717.23 705.86 705.86 474.67-13.84 714.35-317.41 705.87-705.86z" stroke-width="428.57"/></g><path d="m3208.45 3009.44c0-109.34-88.64-197.99-197.99-197.99-109.34 0-197.99 88.65-197.99 197.99 0 109.35 88.65 197.99 197.99 197.99 109.35 0 197.99-88.64 197.99-197.99" fill="#fff"/></g><path d="m12.14-.003c-6.702 0-12.138 5.435-12.138 12.138v75.73c0 6.702 5.435 12.138 12.138 12.137h75.72c6.702 0 12.137-5.435 12.138-12.137v-75.73c0-6.702-5.435-12.138-12.138-12.138z" fill="url(#0)"/></svg>