<svg xmlns="http://www.w3.org/2000/svg" viewBox="0 0 100 100"><defs><linearGradient y2="61.751" x2="48.727" y1="85.34" x1="84.49" gradientUnits="userSpaceOnUse" id="0"><stop stop-opacity=".374"/><stop offset="1" stop-opacity="0"/></linearGradient></defs><g transform="matrix(.19531 0 0 .19531 184.08-38.549)"><path d="m-880.37 197.37c-34.31 0-62.14 27.828-62.14 62.15v387.7c0 34.32 27.826 62.15 62.14 62.15h387.72c34.31 0 62.14-27.828 62.14-62.15v-387.7c0-34.32-27.826-62.15-62.14-62.15h-387.72" fill="#231f20"/><g transform="translate(161.8-69.51)" fill="#fff"><path d="m-1044.81 484.47l-.281 112.5c-.207 79.85-.01 109.56.844 112.5 1.741 6.03 4.699 9.465 10.344 12.09l5.094 2.375h180.5 180.5l5.094-2.375c5.645-2.629 8.603-6.067 10.344-12.09.85-2.944 1.09-32.654.875-112.5l-.313-112.5h-46.16c3.131 12.287 4.781 25.14 4.781 38.41 0 85.67-69.45 155.13-155.12 155.13-85.67 0-155.12-69.45-155.12-155.12 0-13.262 1.65-26.12 4.781-38.41h-46.16"/><path d="m318.86 20.13c0 17.08-13.849 30.932-30.932 30.932-17.08 0-30.932-13.849-30.932-30.932 0-17.08 13.849-30.932 30.932-30.932 17.08 0 30.932 13.849 30.932 30.932" transform="matrix(3.15205 0 0 3.15205-1755.86 459.44)"/><rect width="97.98" height="97.98" x="-749.56" y="326.51" rx="20.374"/></g></g><path d="m12.14-.003c-6.702 0-12.138 5.435-12.138 12.138v75.73c0 6.702 5.435 12.138 12.138 12.137h75.72c6.702 0 12.137-5.435 12.138-12.137v-75.73c0-6.702-5.435-12.138-12.138-12.138z" fill="url(#0)"/></svg>