<svg xmlns="http://www.w3.org/2000/svg" xmlns:xlink="http://www.w3.org/1999/xlink" viewBox="0 0 100 100"><defs><clipPath><path transform="scale(1-1)" fill="#abbf00" stroke="#000" stroke-linejoin="round" stroke-linecap="round" stroke-width="2.999" d="m1056.75-621.13h165.87v147.92h-165.87z"/></clipPath><clipPath><path d="m4282.08 936.13c0-517.01-417.11-936.13-931.65-936.13h-2418.77c-514.54 0-931.66 419.12-931.66 936.13v2400.98c0 517 417.12 936.12 931.66 936.12h2418.77c514.54 0 931.65-419.12 931.65-936.12v-2400.98"/></clipPath><clipPath><ellipse transform="matrix(.86198 0 0 .89126 564.19 80.69)" cx="418.2" cy="789.72" rx="181.83" ry="176.78" fill="#f00"/></clipPath><clipPath><path transform="scale(1-1)" fill="#abbf00" stroke="#000" stroke-linejoin="round" stroke-linecap="round" stroke-width="2.999" d="m1056.75-621.13h165.87v147.92h-165.87z"/></clipPath><clipPath><path d="m0 0v4273h4282v-4273h-4282"/></clipPath><linearGradient xlink:href="#1" id="8" gradientUnits="userSpaceOnUse" gradientTransform="matrix(1.09978 0 0 1.09404 750.31 452.64)" x1="-1218.55" y1="649.49" x2="-1196.09" y2="638.07"/><linearGradient xlink:href="#1" id="7" gradientUnits="userSpaceOnUse" gradientTransform="matrix(1.09978 0 0 1.09404 752.64 470.44)" x1="-1209.14" y1="644.85" x2="-1196.09" y2="638.07"/><linearGradient y2="744.67" x2="192.04" y1="768.26" x1="227.81" gradientUnits="userSpaceOnUse" id="6"><stop stop-opacity=".374"/><stop offset="1" stop-opacity="0"/></linearGradient><linearGradient id="5" gradientUnits="userSpaceOnUse" x1="-526.02" y1="1089.66" x2="-485.45" y2="1205.67"><stop stop-color="#2c1200"/><stop offset=".452" stop-color="#736b64"/><stop offset=".825" stop-color="#a09b96"/><stop offset="1" stop-color="#fff"/></linearGradient><linearGradient id="0"><stop stop-color="#999" stop-opacity=".298"/><stop offset="1" stop-color="#999" stop-opacity="0"/></linearGradient><linearGradient xlink:href="#0" id="A" gradientUnits="userSpaceOnUse" x1="-1438.62" y1="462.53" x2="-1431.89" y2="467.5"/><linearGradient id="1"><stop stop-color="#78360f"/><stop offset="1" stop-color="#f1c3a9"/></linearGradient><linearGradient xlink:href="#0" id="4" gradientUnits="userSpaceOnUse" x1="-1431.56" y1="467.37" x2="-1438.44" y2="462.77"/><linearGradient id="2" gradientUnits="userSpaceOnUse" x1="-527.13" y1="1090.77" x2="-485.45" y2="1205.67"><stop stop-color="#2c1200"/><stop offset=".452" stop-color="#736b64"/><stop offset=".547" stop-color="#a09b96"/><stop offset="1" stop-color="#fff"/></linearGradient><linearGradient xlink:href="#1" id="3" gradientUnits="userSpaceOnUse" x1="-306.37" y1="166.54" x2="-488.19" y2="201.3"/><radialGradient id="9" gradientUnits="userSpaceOnUse" gradientTransform="matrix(.6952.01009-.01065.72802 261.21 827.31)" cx="-1139.74" cy="454.22" r="28.461"><stop stop-color="#ffc800"/><stop offset="1" stop-color="#fff"/></radialGradient></defs><g transform="translate(-143.32-682.92)"><g text-anchor="middle" text-align="center" word-spacing="0" line-height="125%" letter-spacing="0"><flowRoot transform="translate(272.2 376.19)" font-family="&apos;Source Code Pro&apos;" font-size="56"><flowRegion><path d="m1916.19 35.984h613.85v559.1h-613.85z"/></flowRegion><flowPara/></flowRoot><flowRoot font-family="Sans" font-size="4"><flowRegion><path d="m2261.27-108.35h164.25v214.02h-164.25z"/></flowRegion><flowPara/></flowRoot></g><path d="m155.45 682.92c-6.701 0-12.137 5.435-12.137 12.139v8.893 57.939 8.891c0 6.703 5.435 12.139 12.137 12.139h75.73c6.701 0 12.137-5.435 12.137-12.139v-75.72c0-6.703-5.435-12.139-12.137-12.139h-75.73" fill="#fff"/><g transform="matrix(.42055 0 0 .42055 424.32 252.84)"><g stroke="#000"><path d="m-563.99 1048.43c20.682 43.42 53.13 36.27 75.875 67.912 22.835 31.767-11.07 78.6-24.941 98.52 16.528-118.08-56.58-85.37-50.934-166.44z" fill="url(#2)" stroke-linejoin="round" stroke-width="4"/><ellipse ry="112.11" rx="109.48" cy="186.35" cx="-376.95" transform="matrix(.51317-.34038.30243.45596-417.45 957.19)" fill="url(#3)" stroke-width="10.337"/></g><path d="m-600.85 1194.12c14.452-14.541 34.53-12.154 42.787-28.17-7.07.361-44.736 9.423-42.787 28.17" fill="url(#7)"/><path d="m-603.18 1176.32c14.452-14.541 34.53-12.154 42.787-28.17-7.07.361-44.736 9.423-42.787 28.17" fill="url(#8)"/><path d="m-535.97 1129.21c11.06-1.01 20.19 10.655 17.14 21.11-1.959 9.535-9.897 15.15-22.19 13.488-10.01-2.96-16.234-15.764-10.513-24.964 3.104-5.523 9.09-9.429 15.561-9.633m-.049 5.224c-9.01-.847-13.594 11.645-8.08 17.911 4.767 6.145 15.97 4.439 18.208-3.17 2.551-6.555-2.514-15.57-10.129-14.741" fill="url(#9)"/><path d="m-534.66 1127.19c-.451-.035-.907-.057-1.366-.058-11.03 0-19.94 8.563-19.94 19.475 0 10.913 8.913 19.475 19.94 19.475 10.5-.03 18.952-9.04 18.952-19.504 0-2.574-.525-5.04-1.453-7.325-1.923-7.619-7.975-10.938-16.13-12.06m-1.366 2.645c3.218.011 6.216.874 8.778 2.383.053.031.122.084.174.116.929.677 1.827 1.362 2.732 2.064 3.234 3.01 5.261 7.286 5.261 12.179 0 9.494-7.584 16.713-16.946 16.743-8.886 0-16.16-7.63-16.16-16.714 0-9.08 7.276-16.772 16.16-16.772m.175 2.994c-6.76 0-12.266 5.509-12.266 12.295 0 6.786 5.506 12.296 12.266 12.296 6.76 0 12.208-5.509 12.208-12.296 0-6.786-5.448-12.295-12.208-12.295"/><ellipse ry="3.889" rx="4.596" cy="465.11" cx="-1435.07" transform="matrix(.61468 0 0 .71953 353.09 816.26)" fill="url(#4)"/><path d="m-1430.516 465.11002a4.55723 3.889087 0 0 1 -4.5519 3.88908 4.55723 3.889087 0 0 1 -4.5626 -3.88003 4.55723 3.889087 0 0 1 4.5414 -3.89812 4.55723 3.889087 0 0 1 4.573 3.87097l-4.557.018z" transform="matrix(1.99912 0 0 2.34009 2330.92 54.712)" fill="url(#A)"/><path d="m-613.99 1048.43c20.682 43.42 91.14 46.12 123.44 67.912 19.244 12.985 15.365 78.6 1.496 98.52 16.528-118.08-136.93-85.65-124.93-166.44z" fill="url(#5)" stroke="#000" stroke-linejoin="round" stroke-width="4"/></g><path d="m155.46 682.92c-6.702 0-12.138 5.435-12.138 12.138v75.73c0 6.702 5.435 12.138 12.138 12.137h75.72c6.702 0 12.137-5.435 12.138-12.137v-75.73c0-6.702-5.435-12.138-12.138-12.138z" fill="url(#6)"/></g></svg>