<svg xmlns="http://www.w3.org/2000/svg" viewBox="0 0 100 100"><defs><linearGradient y2="61.751" x2="48.727" y1="85.34" x1="84.49" gradientUnits="userSpaceOnUse" id="0" gradientTransform="matrix(.99998 0 0 .99995 0 .005)"><stop stop-opacity=".374"/><stop offset="1" stop-opacity="0"/></linearGradient></defs><g transform="matrix(.99998 0 0 .99995.005.004)" fill="#fff"><path d="m87.86 0h-75.73c-6.702 0-12.136 5.434-12.136 12.136v75.73c0 6.702 5.433 12.136 12.136 12.136h75.73c6.702 0 12.136-5.433 12.136-12.136v-75.73c0-6.702-5.433-12.136-12.136-12.136"/><path d="m12.138 0c-6.702 0-12.138 5.435-12.138 12.138v75.72c0 6.702 5.435 12.138 12.138 12.138h75.72c6.702 0 12.138-5.435 12.138-12.138v-75.72c0-6.702-5.435-12.137-12.138-12.137h-75.72"/></g><path d="m36.775 79.68c-1.779-.186-4.755-.854-6.544-1.471-2.063-.71-5.781-2.608-7.409-3.783-4.413-3.183-7.42-6.686-9.728-11.337-4.052-8.163-4.126-17.54-.205-25.778 2.916-6.126 7.623-10.924 13.649-13.912 2.675-1.327 4.387-1.945 6.97-2.518 9.06-2.01 18.475.147 25.606 5.862 1.33 1.066 2.865 2.573 2.865 2.812 0 .108-4.641 4.785-10.313 10.394-5.672 5.609-10.313 10.285-10.313 10.392 0 .107 4.567 4.722 10.149 10.258 5.582 5.536 10.149 10.131 10.149 10.213 0 .195-1.306 1.447-2.537 2.435-6.182 4.955-14.247 7.279-22.336 6.434m41.701-9.486c-1.381-.176-3.058-.799-4.225-1.569-.957-.633-18.662-17.979-18.662-18.284 0-.099 2.891-3.055 6.425-6.568 12.373-12.302 12.12-12.07 14.695-12.97 1.71-.594 4.262-.622 6.06-.067 1.733.537 3.202 1.457 4.471 2.803 4.291 4.549 3.472 11.712-1.735 15.185-.65.433-1.605.931-2.124 1.107-.519.176-.921.386-.894.468.027.082.503.319 1.056.527 2.942 1.107 5.355 3.787 6.185 6.872.342 1.27.343 3.789.002 5.05-.728 2.707-2.84 5.261-5.326 6.442-2.031.965-3.826 1.269-5.926 1" fill="#1d1d1b"/><path d="m12.14.003c-6.702 0-12.138 5.435-12.138 12.137v75.73c0 6.702 5.435 12.137 12.138 12.136h75.72c6.702 0 12.137-5.435 12.138-12.136v-75.73c0-6.702-5.435-12.137-12.138-12.137z" fill="url(#0)"/></svg>