<svg xmlns="http://www.w3.org/2000/svg" viewBox="0 0 100 100"><defs><linearGradient y2="61.751" x2="48.727" y1="85.34" x1="84.49" gradientUnits="userSpaceOnUse" id="0"><stop stop-opacity=".374"/><stop offset="1" stop-opacity="0"/></linearGradient></defs><g fill="#fff"><path d="m87.86 0h-75.73c-6.702 0-12.136 5.434-12.136 12.136v75.73c0 6.702 5.433 12.136 12.136 12.136h75.73c6.702 0 12.136-5.433 12.136-12.136v-75.73c0-6.702-5.433-12.136-12.136-12.136"/><path d="m12.138 0c-6.702 0-12.138 5.435-12.138 12.138v75.72c0 6.702 5.435 12.138 12.138 12.138h75.72c6.702 0 12.138-5.435 12.138-12.138v-75.72c0-6.702-5.435-12.137-12.138-12.137h-75.72"/></g><path d="m12.138 0c-6.702 0-12.138 5.435-12.138 12.138v75.72c0 6.702 5.435 12.138 12.138 12.138h75.72c6.702 0 12.137-5.435 12.138-12.138v-75.72c0-6.702-5.435-12.137-12.138-12.137h-75.72m6.06 8h63.61c5.63 0 10.2 4.564 10.2 10.194v63.61c0 5.63-4.57 10.2-10.2 10.2h-63.61c-5.63 0-10.194-4.57-10.194-10.2v-63.61c0-5.63 4.564-10.194 10.194-10.194" fill-opacity=".784"/><path d="m37.36 78.38c-1.701-.178-4.546-.817-6.257-1.406-1.972-.679-5.527-2.494-7.084-3.617-4.219-3.043-7.094-6.393-9.301-10.84-3.874-7.805-3.945-16.771-.196-24.647 2.788-5.857 7.288-10.445 13.05-13.302 2.558-1.269 4.194-1.86 6.664-2.408 8.658-1.92 17.664.141 24.482 5.605 1.272 1.019 2.739 2.46 2.739 2.689 0 .103-4.437 4.575-9.86 9.938-5.423 5.363-9.86 9.834-9.86 9.936 0 .102 4.367 4.515 9.704 9.808 5.337 5.293 9.704 9.687 9.704 9.765 0 .186-1.249 1.384-2.426 2.328-5.911 4.738-13.622 6.96-21.356 6.152m39.871-9.07c-1.32-.168-2.924-.764-4.04-1.5-.915-.605-17.843-17.19-17.843-17.482 0-.095 2.764-2.921 6.143-6.28 11.83-11.762 11.584-11.545 14.05-12.401 1.635-.568 4.075-.595 5.791-.064 1.657.513 3.061 1.393 4.275 2.68 4.103 4.349 3.32 11.198-1.659 14.519-.621.414-1.535.89-2.031 1.058-.496.168-.881.369-.855.447.026.078.481.305 1.01.504 2.813 1.058 5.12 3.621 5.914 6.571.327 1.214.328 3.623.002 4.832-.696 2.588-2.715 5.03-5.092 6.159-1.942.923-3.658 1.213-5.666.957" fill="#1d1d1b"/><path d="m12.14-.003c-6.702 0-12.138 5.435-12.138 12.138v75.73c0 6.702 5.435 12.138 12.138 12.137h75.72c6.702 0 12.137-5.435 12.138-12.137v-75.73c0-6.702-5.435-12.138-12.138-12.138z" fill="url(#0)"/></svg>