<svg xmlns="http://www.w3.org/2000/svg" viewBox="0 0 100 100"><defs><linearGradient y2="61.751" x2="48.727" y1="85.34" x1="84.49" gradientUnits="userSpaceOnUse" id="0" gradientTransform="matrix(.99998 0 0 .99995 0 .005)"><stop stop-opacity=".374"/><stop offset="1" stop-opacity="0"/></linearGradient></defs><g transform="matrix(.99998 0 0 .99995.005.004)" fill="#fff"><path d="m87.86 0h-75.73c-6.702 0-12.136 5.434-12.136 12.136v75.73c0 6.702 5.433 12.136 12.136 12.136h75.73c6.702 0 12.136-5.433 12.136-12.136v-75.73c0-6.702-5.433-12.136-12.136-12.136"/><path d="m12.138 0c-6.702 0-12.138 5.435-12.138 12.138v75.72c0 6.702 5.435 12.138 12.138 12.138h75.72c6.702 0 12.138-5.435 12.138-12.138v-75.72c0-6.702-5.435-12.137-12.138-12.137h-75.72"/></g><g transform="matrix(.55723 0 0 .55721-259.86-59.56)"><path d="m584.28 213.32v-33.473l-28.342-16.203-28.342 16.203v33.473l28.342 16.238z" fill="#f6c215"/><path d="m516.03 213.32v-33.473l-25.21-13.571-.119 60.701z" fill="#4650a2"/><path d="m550.5 239.64l-28.989-16.737-24.36 15.05 52.51 30.454z" fill="#bc3c85"/><path d="m590.53 222.95l-28.989 16.737.855 28.621 52.628-30.25z" fill="#a02d36"/><path d="m561.62 153.61l28.989 16.737 24.36-15.05-52.51-30.454z" fill="#90b73e"/><path d="m521.59 170.3l28.989-16.737-.855-28.621-52.628 30.25z" fill="#3995bd"/><path d="m596.09 179.93v33.473l25.21 13.571.119-60.701z" fill="#d18c39"/></g><path d="m12.14.003c-6.702 0-12.138 5.435-12.138 12.137v75.73c0 6.702 5.435 12.137 12.138 12.136h75.72c6.702 0 12.137-5.435 12.138-12.136v-75.73c0-6.702-5.435-12.137-12.138-12.137z" fill="url(#0)"/></svg>