<?xml version="1.0" encoding="UTF-8" standalone="no"?>
<!-- Created with Inkscape (http://www.inkscape.org/) -->

<svg
   xmlns:dc="http://purl.org/dc/elements/1.1/"
   xmlns:cc="http://creativecommons.org/ns#"
   xmlns:rdf="http://www.w3.org/1999/02/22-rdf-syntax-ns#"
   xmlns:svg="http://www.w3.org/2000/svg"
   xmlns="http://www.w3.org/2000/svg"
   xmlns:sodipodi="http://sodipodi.sourceforge.net/DTD/sodipodi-0.dtd"
   xmlns:inkscape="http://www.inkscape.org/namespaces/inkscape"
   width="500"
   height="500"
   id="svg3932"
   version="1.1"
   inkscape:version="0.48.4 r9939"
   sodipodi:docname="LinkedIn.svg">
  <g
     transform="translate(0,-552.36218)">
    <path
       d="m 439.32025,552.36227 -378.6407,0 c -33.5121,0 -60.6795,27.1675 -60.6795,60.6796 l 0,378.64052 c 0,33.51221 27.1675,60.67971 60.6795,60.67971 l 378.6407,0 c 33.5122,0 60.6797,-27.1675 60.6797,-60.67971 l 0,-378.64052 c 0,-33.5121 -27.1662,-60.6796 -60.6797,-60.6796 z"
       style="fill:#ffffff;fill-opacity:1;display:inline" />
    <path
       d="M 439.32035,552.36217 H 60.67965 c -33.5121,0 -60.6796,27.16747 -60.6796,60.67961 v 378.64079 c 0,33.51213 27.1675,60.67963 60.6796,60.67963 h 378.6407 c 33.5122,0 60.6796,-27.1675 60.6796,-60.67963 V 613.04178 c 0,-33.51214 -27.1662,-60.67961 -60.6796,-60.67961 z m -280.2778,416.25 h -68.6129 v -221.6675 h 68.6129 v 221.6675 z m -34.6348,-250.6954 c -22.4089,0 -40.5728,-18.3131 -40.5728,-40.90166 0,-22.5898 18.1639,-40.90291 40.5728,-40.90291 22.4066,0 40.5729,18.31311 40.5729,40.90291 0,22.58856 -18.1663,40.90166 -40.5729,40.90166 z m 291.7573,250.6954 h -68.2791 c 0,0 0,-84.4442 0,-116.3604 0,-31.9126 -12.1214,-49.7257 -37.3556,-49.7257 -27.4624,0 -41.8119,18.5546 -41.8119,49.7257 0,34.142 0,116.3604 0,116.3604 h -65.8046 v -221.6675 h 65.8046 v 29.8532 c 0,0 19.7925,-36.6153 66.7973,-36.6153 47.0049,0 80.6493,28.699 80.6493,88.0728 0,59.3762 0,140.3568 0,140.3568 z" />
  </g>
</svg>
