<?xml version="1.0" encoding="UTF-8" standalone="no"?>
<!-- Created with Inkscape (http://www.inkscape.org/) -->

<svg
   xmlns:dc="http://purl.org/dc/elements/1.1/"
   xmlns:cc="http://creativecommons.org/ns#"
   xmlns:rdf="http://www.w3.org/1999/02/22-rdf-syntax-ns#"
   xmlns:svg="http://www.w3.org/2000/svg"
   xmlns="http://www.w3.org/2000/svg"
   xmlns:sodipodi="http://sodipodi.sourceforge.net/DTD/sodipodi-0.dtd"
   xmlns:inkscape="http://www.inkscape.org/namespaces/inkscape"
   width="100"
   height="100"
   id="svg3932"
   version="1.1"
   inkscape:version="0.48.4 r9939"
   sodipodi:docname="LinkedIn.svg">
  <metadata
     id="metadata13">
    <rdf:RDF>
      <cc:Work
         rdf:about="">
        <dc:format>image/svg+xml</dc:format>
        <dc:type
           rdf:resource="http://purl.org/dc/dcmitype/StillImage" />
        <dc:title />
      </cc:Work>
    </rdf:RDF>
  </metadata>
  <defs
     id="defs11" />
  <sodipodi:namedview
     pagecolor="#ffffff"
     bordercolor="#666666"
     borderopacity="1"
     objecttolerance="10"
     gridtolerance="10"
     guidetolerance="10"
     inkscape:pageopacity="0"
     inkscape:pageshadow="2"
     inkscape:window-width="1920"
     inkscape:window-height="1145"
     id="namedview9"
     showgrid="false"
     inkscape:zoom="0.6675088"
     inkscape:cx="263.1413"
     inkscape:cy="82.564909"
     inkscape:window-x="-2"
     inkscape:window-y="-3"
     inkscape:window-maximized="1"
     inkscape:current-layer="svg3932" />
  <path
     style="fill:#1985bc;fill-opacity:1"
     d="M 87.864076,0 H 12.135922 C 5.4335009,0 0,5.43349 0,12.13592 V 87.86407 C 0,94.5665 5.4335009,100 12.135922,100 h 75.728154 c 6.70244,0 12.135922,-5.4335 12.135922,-12.13593 V 12.13592 C 99.999998,5.43349 94.566756,0 87.864076,0 z"
     id="path2991"
     inkscape:connector-curvature="0" />
  <path
     style="fill:#ffffff;fill-opacity:1"
     d="M 31.808509,83.25 H 18.08593 V 38.9165 H 31.808509 V 83.25 z"
     id="path2989"
     inkscape:connector-curvature="0" />
  <path
     style="fill:#ffffff;fill-opacity:1"
     d="m 24.88155,33.11092 c -4.48178,0 -8.11456,-3.66262 -8.11456,-8.18033 0,-4.51796 3.63278,-8.18059 8.11456,-8.18059 4.481319,0 8.114579,3.66263 8.114579,8.18059 0,4.51771 -3.63326,8.18033 -8.114579,8.18033 z"
     id="path2987"
     inkscape:connector-curvature="0" />
  <path
     style="fill:#ffffff;fill-opacity:1"
     d="M 83.233008,83.25 H 69.577189 c 0,0 0,-16.88884 0,-23.27208 0,-6.38252 -2.42428,-9.94514 -7.47112,-9.94514 -5.49248,0 -8.36238,3.71092 -8.36238,9.94514 0,6.8284 0,23.27208 0,23.27208 H 40.582769 V 38.9165 h 13.16092 v 5.97064 c 0,0 3.9585,-7.32306 13.35946,-7.32306 9.400979,0 16.129859,5.7398 16.129859,17.61456 0,11.87524 0,28.07136 0,28.07136 z"
     id="path7"
     inkscape:connector-curvature="0" />
  <path
     style="fill:#000000;fill-opacity:0.78431373;display:inline"
     d="M 12.1375,0 C 5.4350839,0 -2.0000165e-5,5.43508 0,12.1375 l 0,75.725 C 0,94.56491 5.4350839,100.00002 12.1375,100 l 75.725,0 C 94.56494,100 99.99998,94.56491 100,87.8625 l 0,-75.725 C 100,5.43508 94.56516,0 87.8625,0 L 12.1375,0 z M 18.19375,8 81.8,8 C 87.430236,8 92,12.56372 92,18.19375 L 92,81.8 C 91.999984,87.43002 87.43005,92 81.8,92 L 18.19375,92 C 12.56372,92.00002 7.9999998,87.43002 7.9999998,81.8 l 0,-63.60625 C 7.9999838,12.56372 12.56372,8 18.19375,8 z"
     id="path7-8-6-9"
     inkscape:connector-curvature="0" />
</svg>
