<svg xmlns="http://www.w3.org/2000/svg" viewBox="0 0 100 100"><defs><linearGradient y2="61.754" x2="48.725" y1="85.34" x1="84.49" gradientUnits="userSpaceOnUse" id="0" gradientTransform="matrix(.99995 0 0 .99998-.003.004)"><stop stop-opacity=".374"/><stop offset="1" stop-opacity="0"/></linearGradient></defs><path d="m87.86.001h-75.73c-6.702 0-12.135 5.433-12.135 12.136v75.73c0 6.702 5.434 12.136 12.135 12.136h75.73c6.702 0 12.135-5.433 12.135-12.136v-75.73c0-6.702-5.433-12.136-12.135-12.136" fill="#1985bc"/><g transform="matrix(1.20362 0 0 1.20291-10.182-10.146)" fill="#fff"><path d="m31.809 83.25h-13.723v-44.33h13.723v44.33"/><path d="m24.882 33.11c-4.482 0-8.115-3.663-8.115-8.18 0-4.518 3.633-8.181 8.115-8.181 4.481 0 8.115 3.663 8.115 8.181 0 4.518-3.633 8.18-8.115 8.18"/><path d="m83.23 83.25h-13.656c0 0 0-16.889 0-23.272 0-6.383-2.424-9.945-7.471-9.945-5.492 0-8.362 3.711-8.362 9.945 0 6.828 0 23.272 0 23.272h-13.161v-44.33h13.161v5.971c0 0 3.959-7.323 13.359-7.323 9.401 0 16.13 5.74 16.13 17.615 0 11.875 0 28.07 0 28.07"/></g><path d="m12.135.004c-6.702 0-12.137 5.435-12.137 12.138v75.72c0 6.702 5.435 12.138 12.137 12.137h75.73c6.702 0 12.136-5.435 12.136-12.137v-75.72c0-6.702-5.435-12.138-12.136-12.138z" fill="url(#0)"/></svg>