<?xml version="1.0" encoding="UTF-8" standalone="no"?>
<!-- Created with Inkscape (http://www.inkscape.org/) -->

<svg
   xmlns:dc="http://purl.org/dc/elements/1.1/"
   xmlns:cc="http://creativecommons.org/ns#"
   xmlns:rdf="http://www.w3.org/1999/02/22-rdf-syntax-ns#"
   xmlns:svg="http://www.w3.org/2000/svg"
   xmlns="http://www.w3.org/2000/svg"
   xmlns:sodipodi="http://sodipodi.sourceforge.net/DTD/sodipodi-0.dtd"
   xmlns:inkscape="http://www.inkscape.org/namespaces/inkscape"
   width="500"
   height="500"
   id="svg3932"
   version="1.1"
   inkscape:version="0.48.4 r9939"
   sodipodi:docname="LinkedIn.svg">
  <metadata
     id="metadata13">
    <rdf:RDF>
      <cc:Work
         rdf:about="">
        <dc:format>image/svg+xml</dc:format>
        <dc:type
           rdf:resource="http://purl.org/dc/dcmitype/StillImage" />
        <dc:title />
      </cc:Work>
    </rdf:RDF>
  </metadata>
  <defs
     id="defs11" />
  <sodipodi:namedview
     pagecolor="#ffffff"
     bordercolor="#666666"
     borderopacity="1"
     objecttolerance="10"
     gridtolerance="10"
     guidetolerance="10"
     inkscape:pageopacity="0"
     inkscape:pageshadow="2"
     inkscape:window-width="1920"
     inkscape:window-height="1145"
     id="namedview9"
     showgrid="false"
     inkscape:zoom="0.6675088"
     inkscape:cx="263.1413"
     inkscape:cy="82.564909"
     inkscape:window-x="-2"
     inkscape:window-y="-3"
     inkscape:window-maximized="1"
     inkscape:current-layer="svg3932" />
  <path
     style="fill:#1985bc;fill-opacity:1"
     d="M 439.32039,0 H 60.679612 C 27.167505,0 0,27.167469 0,60.679606 V 439.32037 C 0,472.8325 27.167505,500 60.679612,500 H 439.32039 C 472.83259,500 500,472.8325 500,439.32037 V 60.679606 C 500,27.167469 472.83379,0 439.32039,0 z"
     id="path2991"
     inkscape:connector-curvature="0" />
  <path
     style="fill:#ffffff;fill-opacity:1"
     d="m 159.04255,416.24999 h -68.6129 v -221.6675 h 68.6129 v 221.6675 z"
     id="path2989" />
  <path
     style="fill:#ffffff;fill-opacity:1"
     d="m 124.40775,165.55459 c -22.4089,0 -40.5728,-18.3131 -40.5728,-40.90166 0,-22.5898 18.1639,-40.90291 40.5728,-40.90291 22.4066,0 40.5729,18.31311 40.5729,40.90291 0,22.58856 -18.1663,40.90166 -40.5729,40.90166 z"
     id="path2987" />
  <path
     style="fill:#ffffff;fill-opacity:1"
     d="m 416.16505,416.24999 h -68.2791 c 0,0 0,-84.4442 0,-116.3604 0,-31.9126 -12.1214,-49.7257 -37.3556,-49.7257 -27.4624,0 -41.8119,18.5546 -41.8119,49.7257 0,34.142 0,116.3604 0,116.3604 h -65.8046 v -221.6675 h 65.8046 v 29.8532 c 0,0 19.7925,-36.6153 66.7973,-36.6153 47.0049,0 80.6493,28.699 80.6493,88.0728 0,59.3762 0,140.3568 0,140.3568 z"
     id="path7" />
  <path
     style="fill:#000000;fill-opacity:0.78431373;display:inline"
     d="M 60.6875,2.999724e-6 C 27.17542,2.999724e-6 -9.9999724e-5,27.175405 0,60.687503 L 0,439.3125 C 0,472.82453 27.17542,500.0001 60.6875,500 l 378.62501,0 c 33.5122,0 60.6874,-27.17547 60.6875,-60.6875 l 0,-378.624997 C 500.00001,27.175405 472.82581,2.999724e-6 439.31251,2.999724e-6 l -378.62501,0 z M 90.96875,40.000003 l 318.03126,0 c 28.15118,0 51,22.818589 51,50.96875 l 0,318.031247 c -8e-5,28.15011 -22.84975,51 -51,51 L 90.96875,460 C 62.8186,460.00008 40,437.15011 40,409 L 40,90.968753 c -8e-5,-28.150161 22.8186,-50.96875 50.96875,-50.96875 z"
     id="path7-8-6-9"
     inkscape:connector-curvature="0" />
</svg>
