<?xml version="1.0" encoding="UTF-8" standalone="no"?>
<!-- Created with Inkscape (http://www.inkscape.org/) -->

<svg
   xmlns:dc="http://purl.org/dc/elements/1.1/"
   xmlns:cc="http://creativecommons.org/ns#"
   xmlns:rdf="http://www.w3.org/1999/02/22-rdf-syntax-ns#"
   xmlns:svg="http://www.w3.org/2000/svg"
   xmlns="http://www.w3.org/2000/svg"
   xmlns:sodipodi="http://sodipodi.sourceforge.net/DTD/sodipodi-0.dtd"
   xmlns:inkscape="http://www.inkscape.org/namespaces/inkscape"
   width="500"
   height="500"
   id="svg3932"
   version="1.1"
   inkscape:version="0.48.4 r9939"
   sodipodi:docname="Mendeley.svg">
  <metadata
     id="metadata13">
    <rdf:RDF>
      <cc:Work
         rdf:about="">
        <dc:format>image/svg+xml</dc:format>
        <dc:type
           rdf:resource="http://purl.org/dc/dcmitype/StillImage" />
      </cc:Work>
    </rdf:RDF>
  </metadata>
  <defs
     id="defs11" />
  <sodipodi:namedview
     pagecolor="#ffffff"
     bordercolor="#666666"
     borderopacity="1"
     objecttolerance="10"
     gridtolerance="10"
     guidetolerance="10"
     inkscape:pageopacity="0"
     inkscape:pageshadow="2"
     inkscape:window-width="1920"
     inkscape:window-height="1145"
     id="namedview9"
     showgrid="false"
     inkscape:zoom="0.944"
     inkscape:cx="-2.954142"
     inkscape:cy="213.47941"
     inkscape:window-x="-2"
     inkscape:window-y="-3"
     inkscape:window-maximized="1"
     inkscape:current-layer="svg3932" />
  <path
     style="fill:#a91b26;fill-opacity:1;display:inline"
     d="M 60.687497,0 C 27.175399,0 -9.8999861e-5,27.175398 1.5001394e-6,60.687497 l 0,378.624973 C 1.5001394e-6,472.8245 27.175399,500.0001 60.687497,500 l 378.625023,0 C 472.82471,500 499.99991,472.8245 500,439.31247 L 500,60.687497 C 500,27.175398 472.82582,0 439.31252,0 L 60.687497,0 z"
     id="path2987"
     inkscape:connector-curvature="0" />
  <path
     style="fill:#ffffff;fill-opacity:1;display:inline"
     d="m 167.15153,139.12919 c -16.59039,0.32056 -33.53009,8.08659 -44.26667,21.0339 -5.03444,6.07102 -10.29015,17.27961 -11.86231,25.31591 -1.75243,8.9573 -1.17818,23.83537 1.18623,31.27599 2.16554,6.81428 4.00564,18.34123 4.62919,28.84567 1.10314,18.58074 -3.53392,29.66 -14.52409,34.54536 -3.09962,1.37786 -6.283163,1.8867 -14.032249,2.3146 -12.086178,0.66741 -16.432899,2.12334 -24.418999,8.21682 -10.184413,7.77082 -13.119368,13.55366 -13.800786,27.08078 -0.443384,8.80269 1.528282,18.51058 4.918519,24.24541 4.300059,7.27376 13.678436,14.73097 21.815078,17.33054 6.328571,2.02204 16.244676,2.07272 22.625187,0.0868 13.56576,-4.2222 23.56181,-16.12251 25.83669,-30.75521 1.16517,-7.49476 0.15813,-14.60095 -3.35617,-23.37743 -1.35144,-3.37517 -2.86098,-8.3185 -3.32723,-10.9654 -2.89315,-16.42515 8.79718,-30.01017 30.98667,-36.02092 9.18627,-2.48831 28.3989,-2.50441 37.49647,-0.0289 25.69962,6.99277 35.27483,23.90458 25.28698,44.61386 -4.79538,9.94285 -5.89431,18.78818 -3.50083,27.97769 3.37746,12.96693 13.16427,23.18916 26.6468,27.8041 3.70215,1.26719 9.01827,1.90329 14.37943,1.93847 0.084,-2.8e-4 0.17614,5.6e-4 0.2604,0 5.36023,-0.0352 10.67802,-0.67146 14.37943,-1.93847 13.48253,-4.61494 23.26934,-14.83717 26.6468,-27.8041 2.39357,-9.18951 1.29455,-18.03484 -3.50083,-27.97769 -9.98786,-20.70928 -0.41264,-37.62109 25.28698,-44.61386 9.09757,-2.47555 28.3102,-2.45946 37.49647,0.0289 22.18958,6.01075 33.90885,19.59577 31.0156,36.02092 -0.46616,2.6469 -1.97579,7.59023 -3.32723,10.9654 -3.5143,8.77648 -4.55027,15.88267 -3.3851,23.37743 2.27488,14.6327 12.27102,26.53301 25.83669,30.75521 6.38051,1.98565 16.29671,1.93496 22.62519,-0.0868 8.13664,-2.59957 17.54395,-10.05678 21.84401,-17.33054 3.39033,-5.73483 5.33297,-15.44272 4.88958,-24.24541 -0.68141,-13.52712 -3.58753,-19.30996 -13.77185,-27.08078 -7.9861,-6.09348 -12.36175,-7.54941 -24.44793,-8.21682 -7.749,-0.4279 -10.90361,-0.93674 -14.00331,-2.3146 -10.99008,-4.88536 -15.65617,-15.96462 -14.55303,-34.54536 0.62364,-10.50444 2.46375,-22.03139 4.62919,-28.84567 2.3645,-7.44062 2.93866,-22.31869 1.18623,-31.27599 -1.57217,-8.0363 -6.82788,-19.24489 -11.86231,-25.31591 -10.73658,-12.94731 -27.64735,-20.71334 -44.23774,-21.0339 -4.6453,-0.0897 -9.26718,0.41234 -13.71398,1.53342 -13.83278,3.48734 -25.23184,11.2806 -34.34284,23.55102 -6.78427,9.13701 -18.77166,20.7471 -24.18754,23.40637 -3.83075,1.88098 -5.56517,2.28571 -10.50248,2.3146 -0.0906,-3e-4 -0.17152,5.1e-4 -0.2604,0 -4.93722,-0.0289 -6.67173,-0.43362 -10.50248,-2.3146 -5.41588,-2.65927 -17.40327,-14.26936 -24.18754,-23.40637 -9.1109,-12.27042 -20.48113,-20.06368 -34.3139,-23.55102 -4.44681,-1.12108 -9.06869,-1.62314 -13.71399,-1.53342 z m 82.71791,64.11434 c 0.0842,-2e-5 0.17614,-3.7e-4 0.2604,0 3.96018,0.0177 7.86,0.48945 10.82074,1.38876 23.57417,7.16043 34.91458,33.52272 23.84035,55.37673 -2.86047,5.64486 -10.73853,13.72749 -16.20218,16.63617 -5.60151,2.9821 -11.93448,4.50796 -18.45891,4.5424 -0.0834,4e-5 -0.17707,4.3e-4 -0.2604,0 -6.52429,-0.0344 -12.8574,-1.5603 -18.45891,-4.5424 -5.46356,-2.90868 -13.31277,-10.99131 -16.17325,-16.63617 -11.07423,-21.85401 0.26618,-48.2163 23.84035,-55.37673 2.96176,-0.89962 6.83033,-1.37136 10.79181,-1.38876 z"
     id="path2985"
     inkscape:connector-curvature="0" />
  <path
     style="fill:#000000;fill-opacity:0.78431373;display:inline"
     d="M 60.6875,0 C 27.17542,0 -9.9999724e-5,27.175402 0,60.6875 l 0,378.625 C 0,472.82453 27.17542,500.0001 60.6875,500 l 378.625,0 c 33.5122,0 60.6874,-27.17547 60.6875,-60.6875 l 0,-378.625 C 500,27.175402 472.8258,0 439.3125,0 L 60.6875,0 z M 90.96875,40 409,40 c 28.15118,0 51,22.818589 51,50.96875 L 460,409 c -8e-5,28.15011 -22.84975,51 -51,51 L 90.96875,460 C 62.8186,460.00008 40,437.15011 40,409 L 40,90.96875 C 39.99992,62.818589 62.8186,40 90.96875,40 z"
     id="path7-8-6-9"
     inkscape:connector-curvature="0" />
</svg>
