<?xml version="1.0" encoding="UTF-8" standalone="no"?>
<!-- Created with Inkscape (http://www.inkscape.org/) -->

<svg
   xmlns:dc="http://purl.org/dc/elements/1.1/"
   xmlns:cc="http://creativecommons.org/ns#"
   xmlns:rdf="http://www.w3.org/1999/02/22-rdf-syntax-ns#"
   xmlns:svg="http://www.w3.org/2000/svg"
   xmlns="http://www.w3.org/2000/svg"
   xmlns:sodipodi="http://sodipodi.sourceforge.net/DTD/sodipodi-0.dtd"
   xmlns:inkscape="http://www.inkscape.org/namespaces/inkscape"
   width="100"
   height="100"
   id="svg3932"
   version="1.1"
   inkscape:version="0.48.4 r9939"
   sodipodi:docname="Mendeley.svg">
  <metadata
     id="metadata13">
    <rdf:RDF>
      <cc:Work
         rdf:about="">
        <dc:format>image/svg+xml</dc:format>
        <dc:type
           rdf:resource="http://purl.org/dc/dcmitype/StillImage" />
      </cc:Work>
    </rdf:RDF>
  </metadata>
  <defs
     id="defs11" />
  <sodipodi:namedview
     pagecolor="#ffffff"
     bordercolor="#666666"
     borderopacity="1"
     objecttolerance="10"
     gridtolerance="10"
     guidetolerance="10"
     inkscape:pageopacity="0"
     inkscape:pageshadow="2"
     inkscape:window-width="1920"
     inkscape:window-height="1145"
     id="namedview9"
     showgrid="false"
     inkscape:zoom="0.944"
     inkscape:cx="-2.954142"
     inkscape:cy="213.47941"
     inkscape:window-x="-2"
     inkscape:window-y="-3"
     inkscape:window-maximized="1"
     inkscape:current-layer="svg3932" />
  <path
     style="fill:#a91b26;fill-opacity:1;display:inline"
     d="M 12.137499,0 C 5.4350798,0 -1.9800193e-5,5.43508 2.9980709e-7,12.1375 l 0,75.72499 C 2.9980709e-7,94.5649 5.4350798,100.00002 12.137499,100 l 75.725005,0 C 94.564942,100 99.999982,94.5649 100,87.86249 L 100,12.1375 C 100,5.43508 94.565164,0 87.862504,0 L 12.137499,0 z"
     id="path2987"
     inkscape:connector-curvature="0" />
  <path
     style="fill:#ffffff;fill-opacity:1;display:inline"
     d="m 33.430306,27.82584 c -3.318078,0.0641 -6.706018,1.61732 -8.853334,4.20678 -1.006888,1.2142 -2.05803,3.45592 -2.372462,5.06318 -0.350486,1.79146 -0.235636,4.76707 0.237246,6.2552 0.433108,1.36285 0.801128,3.66824 0.925838,5.76913 0.220628,3.71615 -0.706784,5.932 -2.904818,6.90907 -0.619924,0.27558 -1.256633,0.37734 -2.80645,0.46292 -2.417235,0.13349 -3.28658,0.42467 -4.8838,1.64337 -2.036882,1.55416 -2.623873,2.71073 -2.760157,5.41615 -0.088677,1.76054 0.305657,3.70212 0.983704,4.84909 0.860012,1.45475 2.735687,2.94619 4.363016,3.4661 1.265714,0.40441 3.248935,0.41455 4.525037,0.0174 2.713152,-0.84444 4.712362,-3.2245 5.167338,-6.15104 0.233034,-1.49895 0.03163,-2.92019 -0.671234,-4.67548 -0.270288,-0.67504 -0.572196,-1.6637 -0.665446,-2.19308 -0.57863,-3.28503 1.759436,-6.00204 6.197334,-7.20419 1.837254,-0.49766 5.67978,-0.50088 7.499294,-0.006 5.139924,1.39856 7.054966,4.78092 5.057396,8.92277 -0.959076,1.98857 -1.178862,3.75764 -0.700166,5.59554 0.675492,2.59339 2.632854,4.63783 5.32936,5.56082 0.74043,0.25344 1.803654,0.38066 2.875886,0.3877 0.0168,-6e-5 0.03523,1.1e-4 0.05208,0 1.072046,-0.007 2.135604,-0.1343 2.875886,-0.3877 2.696506,-0.92299 4.653868,-2.96743 5.32936,-5.56082 0.478714,-1.8379 0.25891,-3.60697 -0.700166,-5.59554 -1.997572,-4.14185 -0.08253,-7.52421 5.057396,-8.92277 1.819514,-0.49511 5.66204,-0.49189 7.499294,0.006 4.437916,1.20215 6.78177,3.91916 6.20312,7.20419 -0.09323,0.52938 -0.395158,1.51804 -0.665446,2.19308 -0.70286,1.75529 -0.910054,3.17653 -0.67702,4.67548 0.454976,2.92654 2.454204,5.3066 5.167338,6.15104 1.276102,0.39713 3.259342,0.387 4.525038,-0.0174 1.627328,-0.51991 3.50879,-2.01135 4.368802,-3.4661 0.678066,-1.14697 1.066594,-3.08855 0.977916,-4.84909 -0.136282,-2.70542 -0.717506,-3.86199 -2.75437,-5.41615 -1.59722,-1.2187 -2.47235,-1.50988 -4.889586,-1.64337 -1.5498,-0.0856 -2.180722,-0.18734 -2.800662,-0.46292 -2.198016,-0.97707 -3.131234,-3.19292 -2.910606,-6.90907 0.124728,-2.10089 0.49275,-4.40628 0.925838,-5.76913 0.4729,-1.48813 0.587732,-4.46374 0.237246,-6.2552 -0.314434,-1.60726 -1.365576,-3.84898 -2.372462,-5.06318 -2.147316,-2.58946 -5.52947,-4.14267 -8.847548,-4.20678 -0.92906,-0.0179 -1.853436,0.0825 -2.742796,0.30668 -2.766556,0.69747 -5.046368,2.25612 -6.868568,4.71021 -1.356854,1.8274 -3.754332,4.14942 -4.837508,4.68127 -0.76615,0.3762 -1.113034,0.45714 -2.100496,0.46292 -0.01812,-6e-5 -0.0343,1e-4 -0.05208,0 -0.987444,-0.006 -1.334346,-0.0867 -2.100496,-0.46292 -1.083176,-0.53185 -3.480654,-2.85387 -4.837508,-4.68127 -1.82218,-2.45409 -4.096226,-4.01274 -6.86278,-4.71021 -0.889362,-0.22421 -1.813738,-0.32463 -2.742798,-0.30668 z m 16.543582,12.82287 c 0.01684,-1e-5 0.03523,-8e-5 0.05208,0 0.792036,0.004 1.572,0.0979 2.164148,0.27775 4.714834,1.43208 6.982916,6.70454 4.76807,11.07534 -0.572094,1.12898 -2.147706,2.7455 -3.240436,3.32724 -1.120302,0.59642 -2.386896,0.90159 -3.691782,0.90848 -0.01668,10e-6 -0.03541,8e-5 -0.05208,0 -1.304858,-0.007 -2.57148,-0.31206 -3.691782,-0.90848 -1.092712,-0.58174 -2.662554,-2.19826 -3.23465,-3.32724 -2.214846,-4.3708 0.05324,-9.64326 4.76807,-11.07534 0.592352,-0.17993 1.366066,-0.27427 2.158362,-0.27775 z"
     id="path2985"
     inkscape:connector-curvature="0" />
  <path
     style="fill:#000000;fill-opacity:0.78431373;display:inline"
     d="M 12.1375,0 C 5.435084,0 -2.0000166e-5,5.43508 0,12.1375 l 0,75.725 C 0,94.56491 5.435084,100.00002 12.1375,100 l 75.725,0 C 94.56494,100 99.99998,94.56491 100,87.8625 l 0,-75.725 C 100,5.43508 94.56516,0 87.8625,0 L 12.1375,0 z M 18.19375,8 81.8,8 C 87.430236,8 92,12.56372 92,18.19375 L 92,81.8 C 91.999984,87.43002 87.43005,92 81.8,92 L 18.19375,92 C 12.56372,92.00002 8,87.43002 8,81.8 L 8,18.19375 C 7.999984,12.56372 12.56372,8 18.19375,8 z"
     id="path7-8-6-9"
     inkscape:connector-curvature="0" />
</svg>
