<svg xmlns="http://www.w3.org/2000/svg" viewBox="0 0 100 100"><defs><linearGradient y2="61.753" x2="48.725" y1="85.34" x1="84.49" gradientUnits="userSpaceOnUse" id="0"><stop stop-opacity=".374"/><stop offset="1" stop-opacity="0"/></linearGradient></defs><path d="m12.135.007c-6.702 0-12.138 5.435-12.137 12.137v75.72c0 6.702 5.435 12.137 12.137 12.137h75.73c6.702 0 12.137-5.435 12.137-12.137v-75.72c0-6.702-5.435-12.137-12.137-12.137h-75.73" fill="#a91b26"/><path d="m33.428 27.83c-3.318.064-6.706 1.617-8.853 4.207-1.01 1.214-2.058 3.456-2.372 5.063-.35 1.791-.236 4.767.237 6.255.433 1.363.801 3.668.926 5.769.221 3.716-.707 5.932-2.905 6.909-.62.276-1.257.377-2.806.463-2.417.133-3.287.425-4.884 1.643-2.037 1.554-2.624 2.711-2.76 5.416-.089 1.761.306 3.702.984 4.849.86 1.455 2.736 2.946 4.363 3.466 1.266.404 3.249.415 4.525.017 2.713-.844 4.712-3.225 5.167-6.151.233-1.499.032-2.92-.671-4.675-.27-.675-.572-1.664-.665-2.193-.579-3.285 1.759-6 6.197-7.204 1.837-.498 5.68-.501 7.499-.006 5.14 1.399 7.05 4.781 5.057 8.923-.959 1.989-1.179 3.758-.7 5.596.675 2.593 2.633 4.638 5.329 5.561.74.253 1.804.381 2.876.388.017 0 .035 0 .052 0 1.072-.007 2.136-.134 2.876-.388 2.697-.923 4.654-2.967 5.329-5.561.479-1.838.259-3.607-.7-5.596-1.998-4.142-.083-7.524 5.057-8.923 1.82-.495 5.662-.492 7.499.006 4.438 1.202 6.782 3.919 6.203 7.204-.093.529-.395 1.518-.665 2.193-.703 1.755-.91 3.177-.677 4.675.455 2.927 2.454 5.307 5.167 6.151 1.276.397 3.259.387 4.525-.017 1.627-.52 3.509-2.01 4.369-3.466.678-1.147 1.067-3.089.978-4.849-.136-2.705-.718-3.862-2.754-5.416-1.597-1.219-2.472-1.51-4.89-1.643-1.55-.086-2.181-.187-2.801-.463-2.198-.977-3.131-3.193-2.911-6.909.125-2.101.493-4.406.926-5.769.473-1.488.588-4.464.237-6.255-.314-1.607-1.366-3.849-2.372-5.063-2.147-2.589-5.529-4.143-8.848-4.207-.929-.018-1.853.082-2.743.307-2.767.697-5.05 2.256-6.869 4.71-1.357 1.827-3.754 4.149-4.838 4.681-.766.376-1.113.457-2.1.463-.018 0-.034 0-.052 0-.987-.006-1.334-.087-2.1-.463-1.083-.532-3.481-2.854-4.838-4.681-1.822-2.454-4.096-4.01-6.863-4.71-.889-.224-1.814-.325-2.743-.307m16.544 12.823c.017 0 .035 0 .052 0 .792.004 1.572.098 2.164.278 4.715 1.432 6.983 6.705 4.768 11.08-.572 1.129-2.148 2.746-3.24 3.327-1.12.596-2.387.902-3.692.908-.017 0-.035 0-.052 0-1.305-.007-2.571-.312-3.692-.908-1.093-.582-2.663-2.198-3.235-3.327-2.215-4.371.053-9.643 4.768-11.08.592-.18 1.366-.274 2.158-.278" fill="#fff"/><path d="m12.14.003c-6.702 0-12.138 5.435-12.138 12.137v75.73c0 6.702 5.435 12.137 12.138 12.136h75.72c6.702 0 12.137-5.435 12.138-12.136v-75.73c0-6.702-5.435-12.137-12.138-12.137z" fill="url(#0)"/></svg>