<?xml version="1.0" encoding="UTF-8" standalone="no"?>
<!-- Created with Inkscape (http://www.inkscape.org/) -->

<svg
   xmlns:dc="http://purl.org/dc/elements/1.1/"
   xmlns:cc="http://creativecommons.org/ns#"
   xmlns:rdf="http://www.w3.org/1999/02/22-rdf-syntax-ns#"
   xmlns:svg="http://www.w3.org/2000/svg"
   xmlns="http://www.w3.org/2000/svg"
   xmlns:sodipodi="http://sodipodi.sourceforge.net/DTD/sodipodi-0.dtd"
   xmlns:inkscape="http://www.inkscape.org/namespaces/inkscape"
   width="500"
   height="500"
   id="svg3932"
   version="1.1"
   inkscape:version="0.48.4 r9939"
   sodipodi:docname="LinkedIn.svg">
  <defs
     id="defs3934" />
  <sodipodi:namedview
     id="base"
     pagecolor="#ffffff"
     bordercolor="#666666"
     borderopacity="1.0"
     inkscape:pageopacity="0.0"
     inkscape:pageshadow="2"
     inkscape:zoom="0.35355339"
     inkscape:cx="-1347.2801"
     inkscape:cy="92.272054"
     inkscape:document-units="px"
     inkscape:current-layer="layer1"
     showgrid="false"
     inkscape:window-width="1920"
     inkscape:window-height="1145"
     inkscape:window-x="-2"
     inkscape:window-y="-3"
     inkscape:window-maximized="1" />
  <metadata
     id="metadata3937">
    <rdf:RDF>
      <cc:Work
         rdf:about="">
        <dc:format>image/svg+xml</dc:format>
        <dc:type
           rdf:resource="http://purl.org/dc/dcmitype/StillImage" />
        <dc:title></dc:title>
      </cc:Work>
    </rdf:RDF>
  </metadata>
  <g
     inkscape:label="Layer 1"
     inkscape:groupmode="layer"
     id="layer1"
     transform="translate(0,-552.36218)">
    <path
       d="m 439.32025,552.36227 -378.6407,0 c -33.5121,0 -60.6795,27.1675 -60.6795,60.6796 l 0,378.64052 c 0,33.51221 27.1675,60.67971 60.6795,60.67971 l 378.6407,0 c 33.5122,0 60.6797,-27.1675 60.6797,-60.67971 l 0,-378.64052 c 0,-33.5121 -27.1662,-60.6796 -60.6797,-60.6796 z"
       id="linkedin-square-rounded-icon-0-4-7-3-5"
       inkscape:connector-curvature="0"
       sodipodi:nodetypes="sssssssss"
       style="fill:#ffffff;fill-opacity:1;display:inline" />
    <path
       inkscape:connector-curvature="0"
       style="fill:#1a1a1a;display:inline"
       d="m 60.687475,552.36217 c -33.5121,0 -60.68759999986,27.1754 -60.687499999862,60.6875 l 0,378.62499 c 0,33.51204 27.175399999862,60.68764 60.687499999862,60.68754 l 378.625055,0 c 33.5122,0 60.6874,-27.1755 60.6875,-60.68754 l 0,-378.62499 c 0,-33.5121 -27.1742,-60.6875 -60.6875,-60.6875 l -378.625055,0 z m 99.812505,130.25 c 5.0174,-0.0969 10.0095,0.44537 14.8125,1.65625 14.9408,3.76668 27.2218,12.1842 37.0625,25.4375 7.3277,9.86889 20.2753,22.40897 26.125,25.28125 4.1376,2.03165 6.011,2.4688 11.3437,2.5 0.096,5.6e-4 0.1835,-3.2e-4 0.2813,0 5.3328,-0.0312 7.20615,-0.46835 11.34375,-2.5 5.8497,-2.87228 18.7973,-15.41236 26.125,-25.28125 9.8408,-13.2533 22.153,-21.67082 37.0938,-25.4375 4.803,-1.21088 9.7951,-1.75315 14.8125,-1.65625 17.9193,0.34624 36.1846,8.73434 47.7812,22.71875 5.4377,6.55732 11.1144,18.66373 12.8125,27.34375 1.8928,9.6748 1.2727,25.74462 -1.2812,33.78125 -2.3389,7.36012 -4.3264,19.81039 -5,31.15625 -1.1915,20.06909 3.8483,32.03582 15.7187,37.3125 3.348,1.48823 6.7553,2.03783 15.125,2.5 13.0543,0.72087 17.7805,2.29343 26.4063,8.875 11.0001,8.39328 14.139,14.63932 14.875,29.24999 0.4789,9.5078 -1.6194,19.9933 -5.2813,26.1875 -4.6445,7.8564 -14.8053,15.911 -23.5937,18.7188 -6.8354,2.1837 -17.5459,2.2387 -24.4375,0.094 -14.6523,-4.5604 -25.4492,-17.414 -27.9063,-33.2188 -1.2585,-8.0951 -0.1395,-15.7705 3.6563,-25.24999 1.4597,-3.64553 3.0902,-8.98483 3.5937,-11.84375 3.125,-17.74083 -9.533,-32.41403 -33.5,-38.90625 -9.9221,-2.68771 -30.6737,-2.70504 -40.5,-0.0312 -27.7582,7.55291 -38.1004,25.81938 -27.3125,48.1875 5.1795,10.73929 6.3666,20.29319 3.7813,30.21879 -3.648,14.0056 -14.2188,25.0466 -28.7813,30.0312 -3.9979,1.3685 -9.74165,2.0558 -15.53125,2.0938 -0.091,6e-4 -0.1906,-3e-4 -0.2813,0 -5.7906,-0.038 -11.5325,-0.7251 -15.5312,-2.0938 -14.5625,-4.9846 -25.1333,-16.0256 -28.7813,-30.0312 -2.5852,-9.9256 -1.3982,-19.4795 3.7813,-30.21879 10.7879,-22.36812 0.4457,-40.63459 -27.3125,-48.1875 -9.8263,-2.67376 -30.5779,-2.65643 -40.5,0.0312 -23.9669,6.49222 -36.5937,21.16542 -33.4688,38.90625 0.5036,2.85892 2.1341,8.19822 3.5938,11.84375 3.7958,9.47949 4.8835,17.15489 3.625,25.24999 -2.4571,15.8048 -13.2539,28.6584 -27.906305,33.2188 -6.8916,2.145 -17.602,2.09 -24.4375,-0.094 -8.7884,-2.8078 -18.918,-10.8624 -23.5625,-18.7188 -3.6618,-6.1942 -5.7914,-16.6797 -5.3125,-26.1875 0.736,-14.61067 3.9061,-20.85671 14.9063,-29.24999 8.6258,-6.58157 13.3207,-8.15413 26.375,-8.875 8.3698,-0.46217 11.8083,-1.01177 15.1562,-2.5 11.870505,-5.27668 16.879005,-17.24341 15.687505,-37.3125 -0.6735,-11.34586 -2.661,-23.79613 -5,-31.15625 -2.553805,-8.03663 -3.174005,-24.10645 -1.281205,-33.78125 1.698105,-8.68002 7.374805,-20.78643 12.812505,-27.34375 11.5966,-13.98441 29.8932,-22.37251 47.8125,-22.71875 z m 89.3437,69.25 c -4.2788,0.0188 -8.4572,0.52832 -11.6562,1.5 -25.4625,7.734 -37.7113,36.20795 -25.75,59.8125 3.0896,6.09702 11.5675,14.82708 17.4687,17.96875 6.0502,3.22097 12.8906,4.86905 19.9375,4.90625 0.09,4.7e-4 0.1912,5e-5 0.2813,0 7.04705,-0.0372 13.88735,-1.68528 19.93755,-4.90625 5.9013,-3.14167 14.4104,-11.87173 17.5,-17.96875 11.9613,-23.60455 -0.2875,-52.0785 -25.75,-59.8125 -3.1979,-0.97134 -7.41015,-1.4809 -11.68755,-1.5 -0.091,-4e-4 -0.1903,-2e-5 -0.2813,0 z"
       id="linkedin-square-rounded-icon-0-4-3-8" />
  </g>
</svg>
