<svg xmlns="http://www.w3.org/2000/svg" viewBox="0 0 100 100"><defs><linearGradient y2="61.754" x2="48.725" y1="85.34" x1="84.49" gradientUnits="userSpaceOnUse" id="0" gradientTransform="matrix(1 0 0 .99995.002-.002)"><stop stop-opacity=".374"/><stop offset="1" stop-opacity="0"/></linearGradient></defs><path d="m12.139.003c-6.702 0-12.138 5.435-12.138 12.137v75.73c0 6.702 5.435 12.13 12.138 12.13h75.72c6.702 0 12.138-5.429 12.138-12.13v-75.73c0-6.702-5.435-12.137-12.138-12.137h-75.72" fill="#404042"/><g transform="matrix(.45732 0 0 .45732 80.73-41.933)"><g fill="#b4859f"><circle r="15.466" cy="129.03" cx="-139.19"/><circle cx="-139.19" cy="177.03" r="15.466"/><circle r="15.466" cy="225.03" cx="-139.19"/></g><g fill="#79b052"><circle cx="-91.19" cy="177.03" r="15.466"/><circle r="15.466" cy="225.03" cx="-91.19"/><circle cx="-91.19" cy="273.03" r="15.466"/></g><circle cx="-43.19" cy="225.03" r="15.466" fill="#98abd5"/><g fill="#f78c42"><circle r="15.466" cy="177.03" cx="4.805"/><circle cx="4.805" cy="225.03" r="15.466"/></g></g><path d="m12.14-.002c-6.702 0-12.138 5.435-12.138 12.136v75.73c0 6.702 5.435 12.137 12.138 12.137h75.72c6.702 0 12.137-5.435 12.138-12.137v-75.73c0-6.702-5.435-12.136-12.138-12.136z" fill="url(#0)"/></svg>