<?xml version="1.0" encoding="UTF-8" standalone="no"?>
<!-- Created with Inkscape (http://www.inkscape.org/) -->

<svg
   xmlns:dc="http://purl.org/dc/elements/1.1/"
   xmlns:cc="http://creativecommons.org/ns#"
   xmlns:rdf="http://www.w3.org/1999/02/22-rdf-syntax-ns#"
   xmlns:svg="http://www.w3.org/2000/svg"
   xmlns="http://www.w3.org/2000/svg"
   xmlns:xlink="http://www.w3.org/1999/xlink"
   xmlns:sodipodi="http://sodipodi.sourceforge.net/DTD/sodipodi-0.dtd"
   xmlns:inkscape="http://www.inkscape.org/namespaces/inkscape"
   width="100"
   height="100"
   id="svg3932"
   version="1.1"
   inkscape:version="0.48.4 r9939"
   sodipodi:docname="OrcID.svg">
  <metadata
     id="metadata13">
    <rdf:RDF>
      <cc:Work
         rdf:about="">
        <dc:format>image/svg+xml</dc:format>
        <dc:type
           rdf:resource="http://purl.org/dc/dcmitype/StillImage" />
        <dc:title />
      </cc:Work>
    </rdf:RDF>
  </metadata>
  <defs
     id="defs11">
    <linearGradient
       y2="796.64795"
       x2="334.28577"
       y1="1009.505"
       x1="644.28564"
       gradientTransform="matrix(0.14285713,0,0,0.19999998,0,-110.4725)"
       gradientUnits="userSpaceOnUse"
       id="linearGradient3033"
       xlink:href="#linearGradient5322-1"
       inkscape:collect="always" />
    <linearGradient
       id="linearGradient5322-1">
      <stop
         style="stop-color:#000000;stop-opacity:0.37391305;"
         offset="0"
         id="stop5324-6" />
      <stop
         style="stop-color:#000000;stop-opacity:0;"
         offset="1"
         id="stop5326-3" />
    </linearGradient>
    <linearGradient
       y2="796.64795"
       x2="334.28577"
       y1="1009.505"
       x1="644.28564"
       gradientTransform="matrix(0.14285713,0,0,0.19999998,5e-6,-110.4725)"
       gradientUnits="userSpaceOnUse"
       id="linearGradient3012"
       xlink:href="#linearGradient5322-1"
       inkscape:collect="always" />
    <linearGradient
       y2="74.678169"
       x2="-108.53157"
       y1="98.260445"
       x1="-72.770866"
       gradientTransform="translate(311.64488,-23.352018)"
       gradientUnits="userSpaceOnUse"
       id="linearGradient3850"
       xlink:href="#linearGradient5322"
       inkscape:collect="always" />
    <linearGradient
       id="linearGradient5322">
      <stop
         style="stop-color:#000000;stop-opacity:0.37391305;"
         offset="0"
         id="stop5324" />
      <stop
         style="stop-color:#000000;stop-opacity:0;"
         offset="1"
         id="stop5326" />
    </linearGradient>
    <linearGradient
       y2="74.678169"
       x2="-108.53157"
       y1="98.260445"
       x1="-72.770866"
       gradientTransform="translate(311.64488,-23.352018)"
       gradientUnits="userSpaceOnUse"
       id="linearGradient3850-6"
       xlink:href="#linearGradient5322-6"
       inkscape:collect="always" />
    <linearGradient
       id="linearGradient5322-6">
      <stop
         style="stop-color:#000000;stop-opacity:0.37391305;"
         offset="0"
         id="stop5324-3" />
      <stop
         style="stop-color:#000000;stop-opacity:0;"
         offset="1"
         id="stop5326-0" />
    </linearGradient>
    <linearGradient
       y2="74.678169"
       x2="-108.53157"
       y1="98.260445"
       x1="-72.770866"
       gradientTransform="translate(157.25636,-12.923728)"
       gradientUnits="userSpaceOnUse"
       id="linearGradient3102"
       xlink:href="#linearGradient5322-6"
       inkscape:collect="always" />
  </defs>
  <sodipodi:namedview
     pagecolor="#ffffff"
     bordercolor="#666666"
     borderopacity="1"
     objecttolerance="10"
     gridtolerance="10"
     guidetolerance="10"
     inkscape:pageopacity="0"
     inkscape:pageshadow="2"
     inkscape:window-width="1920"
     inkscape:window-height="1145"
     id="namedview9"
     showgrid="false"
     inkscape:zoom="3.776"
     inkscape:cx="155.26352"
     inkscape:cy="42.54434"
     inkscape:window-x="-2"
     inkscape:window-y="-3"
     inkscape:window-maximized="1"
     inkscape:current-layer="svg3932" />
  <path
     style="fill:#ffffff;fill-opacity:1;display:inline"
     d="m 87.86405,2e-5 -75.72814,0 C 5.43349,2e-5 1e-5,5.43352 1e-5,12.13594 l 0,75.7281 c 0,6.70244 5.4335,12.13594 12.1359,12.13594 l 75.72814,0 c 6.70244,0 12.13594,-5.4335 12.13594,-12.13594 l 0,-75.7281 C 99.99999,5.43352 94.56675,2e-5 87.86405,2e-5 z"
     id="path5"
     inkscape:connector-curvature="0" />
  <path
     style="fill:#000000;fill-opacity:0.78431373;display:inline"
     d="M 12.1375,2e-5 C 5.435084,2e-5 -1.999989e-5,5.4351 0,12.13752 l 0,75.725 c 0,6.7024 5.435084,12.13752 12.1375,12.1375 l 75.725,0 c 6.70244,0 12.13748,-5.4351 12.1375,-12.1375 l 0,-75.725 C 100,5.4351 94.56516,2e-5 87.8625,2e-5 l -75.725,0 z m 6.056251,8 63.606249,0 c 5.630236,0 10.2,4.56372 10.2,10.19375 l 0,63.60625 c -1.6e-5,5.63002 -4.56995,10.2 -10.2,10.2 l -63.606249,0 C 12.56372,92.00003 8,87.43004 8,81.80002 L 8,18.19377 C 7.999984,12.56374 12.56372,8.00002 18.193751,8.00002 z"
     id="path7-8-6-9"
     inkscape:connector-curvature="0" />
  <path
     style="fill:#96d631;fill-opacity:1;stroke:none"
     d="M 50,15 C 30.67002,15 15,30.67003 15,50 15,69.32997 30.67002,85 50,85 69.32997,85 85,69.32997 85,50 85,30.67003 69.32997,15 50,15 z M 36.51952,27.73307 c 0.36433,0.009 0.74744,0.10059 1.13932,0.26433 1.13481,0.47415 1.54948,1.2022 1.54948,2.71614 0,0.93716 -0.16818,1.3131 -0.89323,1.92318 -1.00398,0.8448 -2.06976,0.93428 -3.2539,0.29167 -1.56384,-0.84867 -1.86435,-2.72223 -0.66537,-4.14714 0.59879,-0.71162 1.32218,-1.06824 2.1237,-1.04818 z m -2.1237,9.00521 2.04168,0 2.04167,0 0,14.58333 0,14.58334 -1.96875,0.0911 c -1.41146,0.0618 -2.02007,-0.0212 -2.1237,-0.29166 -0.0797,-0.2079 -0.10557,-6.81407 -0.0638,-14.67448 l 0.0729,-14.29167 z m 10.5,0 7.58334,0 c 7.14115,0 7.70052,0.0379 9.51562,0.66537 4.908,1.6966 8.00948,5.08432 9.306,10.15364 0.6881,2.69048 0.72179,4.5704 0.12761,7.09115 -1.27792,5.42138 -5.82977,9.78535 -11.43881,10.97396 -2.63655,0.55871 -14.89336,0.61061 -15.10286,0.0638 -0.0768,-0.20052 -0.10556,-6.79584 -0.0638,-14.65625 l 0.0729,-14.29167 z m 6.99089,3.65495 c -1.13121,0.009 -2.02625,0.0693 -2.29687,0.17318 -0.40878,0.15686 -0.46484,1.35836 -0.46484,10.59114 0,5.7311 0.0845,10.51155 0.1914,10.61849 0.10694,0.10695 2.13738,0.19141 4.5026,0.19141 3.36347,0 4.67009,-0.11615 6.02475,-0.53776 3.19565,-0.9946 5.4007,-3.02733 6.69921,-6.19792 0.79885,-1.95055 0.73006,-6.65806 -0.11849,-8.49479 -1.50353,-3.25453 -4.6866,-5.46093 -8.71354,-6.04297 -1.39613,-0.20179 -3.93887,-0.3165 -5.82422,-0.30078 z"
     id="path3024"
     inkscape:connector-curvature="0" />
  <path
     style="fill:url(#linearGradient3102);fill-opacity:1;display:inline"
     d="M 12.1375,2.4999569e-6 C 5.43509,2.4999569e-6 -1.9999972e-5,5.4350825 0,12.137502 l 0,75.724996 c 0,6.7024 5.43509,12.137522 12.1375,12.137499 l 75.72501,0 c 6.70244,0 12.13748,-5.435099 12.13749,-12.137499 l 0,-75.724996 C 100,5.4350825 94.56517,2.4999569e-6 87.86251,2.4999569e-6 z"
     id="path7-8-6-9-9-7"
     inkscape:connector-curvature="0"
     sodipodi:nodetypes="sssssssss" />
</svg>
