<svg xmlns="http://www.w3.org/2000/svg" viewBox="0 0 100 100"><defs><linearGradient y2="61.754" x2="48.725" y1="85.34" x1="84.49" gradientUnits="userSpaceOnUse" id="0" gradientTransform="matrix(.99995 0 0 .99998-.003.005)"><stop stop-opacity=".374"/><stop offset="1" stop-opacity="0"/></linearGradient></defs><path d="m87.86.001h-75.73c-6.702 0-12.135 5.434-12.135 12.136v75.73c0 6.702 5.434 12.136 12.135 12.136h75.73c6.702 0 12.135-5.433 12.135-12.136v-75.73c0-6.702-5.433-12.136-12.135-12.136" fill="#fff"/><path d="m49.998 10c-22.09 0-39.998 17.908-39.998 39.999 0 22.09 17.908 39.999 39.998 39.999 22.09 0 39.998-17.908 39.998-39.999 0-22.09-17.908-39.999-39.998-39.999m-15.405 14.552c.416.01.854.115 1.302.302 1.297.542 1.77 1.374 1.77 3.104 0 1.071-.192 1.501-1.021 2.198-1.143.966-2.366 1.067-3.719.334-1.787-.97-2.13-3.111-.76-4.739.685-.814 1.511-1.221 2.427-1.198m-2.427 10.297h2.334 2.334v16.666 16.666l-2.25.104c-1.612.071-2.308-.024-2.427-.334-.091-.238-.121-7.787-.073-16.77l.083-16.333m11.999 0h8.666c8.161 0 8.801.043 10.875.76 5.609 1.939 9.154 5.81 10.635 11.604.786 3.074.825 5.223.146 8.104-1.46 6.195-6.663 11.183-13.07 12.541-3.01.639-17.02.698-17.256.073-.088-.23-.121-7.767-.073-16.749l.083-16.333m7.989 4.177c-1.293.01-2.315.079-2.625.198-.467.179-.531 1.552-.531 12.1 0 6.55.096 12.01.218 12.135.122.122 2.442.218 5.146.218 3.843 0 5.337-.133 6.88-.615 3.652-1.137 6.172-3.463 7.656-7.083.913-2.23.834-7.609-.135-9.708-1.719-3.72-5.356-6.241-9.958-6.903-1.595-.231-4.501-.361-6.656-.344" fill="#96d631"/><path d="m12.135.005c-6.702 0-12.137 5.435-12.137 12.137v75.72c0 6.702 5.435 12.138 12.137 12.137h75.73c6.702 0 12.136-5.435 12.136-12.137v-75.72c0-6.702-5.435-12.137-12.136-12.137z" fill="url(#0)"/></svg>