<svg xmlns="http://www.w3.org/2000/svg" viewBox="0 0 100 100"><defs><linearGradient y2="61.754" x2="48.725" y1="85.34" x1="84.49" gradientUnits="userSpaceOnUse" id="0"><stop stop-opacity=".374"/><stop offset="1" stop-opacity="0"/></linearGradient></defs><path d="m87.86 0h-75.73c-6.702 0-12.136 5.434-12.136 12.136v75.73c0 6.702 5.434 12.136 12.136 12.136h75.73c6.702 0 12.136-5.433 12.136-12.136v-75.73c0-6.702-5.433-12.136-12.136-12.136" fill="#fff"/><path d="m12.138 0c-6.702 0-12.138 5.435-12.138 12.138v75.72c0 6.702 5.435 12.138 12.138 12.138h75.72c6.702 0 12.137-5.435 12.138-12.138v-75.72c0-6.702-5.435-12.137-12.138-12.137h-75.72m6.06 8h63.61c5.63 0 10.2 4.564 10.2 10.194v63.61c0 5.63-4.57 10.2-10.2 10.2h-63.61c-5.63 0-10.194-4.57-10.194-10.2v-63.61c0-5.63 4.564-10.194 10.194-10.194" fill-opacity=".784"/><path d="m50 15c-19.33 0-35 15.67-35 35 0 19.33 15.67 35 35 35 19.33 0 35-15.67 35-35 0-19.33-15.67-35-35-35m-13.48 12.733c.364.009.747.101 1.139.264 1.135.474 1.549 1.202 1.549 2.716 0 .937-.168 1.313-.893 1.923-1 .845-2.07.934-3.254.292-1.564-.849-1.864-2.722-.665-4.147.599-.712 1.322-1.068 2.124-1.048m-2.124 9.01h2.042 2.042v14.583 14.583l-1.969.091c-1.411.062-2.02-.021-2.124-.292-.08-.208-.106-6.814-.064-14.674l.073-14.292m10.5 0h7.583c7.141 0 7.701.038 9.516.665 4.908 1.697 8.01 5.084 9.306 10.154.688 2.69.722 4.57.128 7.091-1.278 5.421-5.83 9.785-11.439 10.974-2.637.559-14.893.611-15.1.064-.077-.201-.106-6.796-.064-14.656l.073-14.292m6.991 3.655c-1.131.009-2.026.069-2.297.173-.409.157-.465 1.358-.465 10.591 0 5.731.084 10.512.191 10.618.107.107 2.137.191 4.503.191 3.363 0 4.67-.116 6.02-.538 3.196-.995 5.401-3.03 6.699-6.198.799-1.951.73-6.658-.118-8.495-1.504-3.255-4.687-5.461-8.714-6.04-1.396-.202-3.939-.316-5.824-.301" fill="#96d631"/><path d="m12.138 0c-6.702 0-12.138 5.435-12.138 12.137v75.72c0 6.702 5.435 12.138 12.138 12.137h75.73c6.702 0 12.137-5.435 12.137-12.137v-75.72c0-6.702-5.435-12.137-12.137-12.137z" fill="url(#0)"/></svg>