<svg xmlns="http://www.w3.org/2000/svg" viewBox="0 0 140 100"><defs><linearGradient id="0" gradientUnits="userSpaceOnUse" x1="128.86" y1="91.43" x2="66.857" y2="48.857" gradientTransform="matrix(.99992 0 0 1-.002-.004)"><stop stop-opacity=".374"/><stop offset="1" stop-opacity="0"/></linearGradient></defs><path d="m12.13-.004c-6.697 0-12.13 5.435-12.13 12.138v75.72c0 6.702 5.431 12.138 12.13 12.138h115.74c6.697 0 12.13-5.435 12.13-12.138v-75.72c0-6.702-5.431-12.137-12.13-12.137z" fill="#fff"/><g transform="matrix(.26866 0 0 .26868-26.866 101.21)"><path d="m100-296.55h267.24v103.45h-267.24z" fill="#f00" color="#000"/><text transform="scale(.89596 1.11612)" x="257.89" y="-187.28" text-align="center" word-spacing="0" line-height="125%" font-weight="bold" letter-spacing="0" font-size="88" fill="#fff" font-family="Sans" text-anchor="middle"><tspan x="257.89" y="-187.28">PDF</tspan></text></g><path d="m111.45 8.151c-1.216 0-2.606.545-3.252 1.312-.861 1.023-1.091 1.988-1.298 3.03-.025.125-.033.268-.055.396-8.07 12.634-16.04 28.17-24.393 41.87-2.417 3.96-4.881 7.727-7.371 11.23-3.114.607-6.068 1.529-8.792 2.862-7.07 3.459-12.374 9.915-14.1 19.552-.268 2.668.769 4.03 3.989 3.211 8.346-3.467 15.573-10.971 22.303-20.249 3.735-.513 7.833-.607 12.139-.369 16.961.225 34.03 7.195 49.38 8.995v-5.786c-5.255-.994-10.604-6.394-13.203-10.115-4.197-6.109-7.621-14.345-10.04-22.469-2.414-8.124-3.842-16.17-4.242-21.813-.15-2.11-.105-3.719 0-4.946.468-.721.45-.776 1.407-2.172.957-1.396-.499-4.091-1.353-4.338-.854-.247-.722-.198-1.127-.198m-4.386 15.549c.666 5.699 2.01 12.537 4.106 19.586 2.533 8.523 6.08 17.218 10.814 24.11.812 1.181 1.681 2.295 2.575 3.368-10.458-2.392-22.333-4.977-33.615-5.602-2.769-.153-5.49-.17-8.15-.048 1.563-2.38 3.11-4.806 4.638-7.309 6.824-11.181 13.305-23.384 19.632-34.1m-38.32 50.45c-2.837 3.305-5.696 6.133-8.559 8.327 1.964-3.889 4.854-6.492 8.559-8.327" fill="#f00" color="#000"/><path d="m12.138-.004c-6.702 0-12.138 5.435-12.138 12.138v75.72c0 6.702 5.435 12.138 12.138 12.138h115.73c6.702 0 12.137-5.435 12.137-12.138v-75.72c0-6.702-5.435-12.138-12.137-12.138z" fill="url(#0)"/></svg>