<?xml version="1.0" encoding="UTF-8" standalone="no"?>
<!-- Created with Inkscape (http://www.inkscape.org/) -->

<svg
   xmlns:dc="http://purl.org/dc/elements/1.1/"
   xmlns:cc="http://creativecommons.org/ns#"
   xmlns:rdf="http://www.w3.org/1999/02/22-rdf-syntax-ns#"
   xmlns:svg="http://www.w3.org/2000/svg"
   xmlns="http://www.w3.org/2000/svg"
   xmlns:xlink="http://www.w3.org/1999/xlink"
   xmlns:sodipodi="http://sodipodi.sourceforge.net/DTD/sodipodi-0.dtd"
   xmlns:inkscape="http://www.inkscape.org/namespaces/inkscape"
   width="140"
   height="100"
   id="svg3932"
   version="1.1"
   inkscape:version="0.48.4 r9939"
   sodipodi:docname="PDF.svg"
   inkscape:export-filename="/home/max/owncloud/Ma petite fabrique/Célia/RSS.png"
   inkscape:export-xdpi="90"
   inkscape:export-ydpi="90">
  <metadata
     id="metadata13">
    <rdf:RDF>
      <cc:Work
         rdf:about="">
        <dc:format>image/svg+xml</dc:format>
        <dc:type
           rdf:resource="http://purl.org/dc/dcmitype/StillImage" />
        <dc:title />
      </cc:Work>
    </rdf:RDF>
  </metadata>
  <defs
     id="defs11">
    <linearGradient
       id="linearGradient3475">
      <stop
         style="stop-color:#7c7c7c;stop-opacity:1;"
         offset="0"
         id="stop3477" />
      <stop
         style="stop-color:#e6e3e3;stop-opacity:1;"
         offset="1"
         id="stop3479" />
    </linearGradient>
    <linearGradient
       id="linearGradient3928-8">
      <stop
         style="stop-color:#7c7c7c;stop-opacity:1;"
         offset="0"
         id="stop3930-2" />
      <stop
         style="stop-color:#e6e3e3;stop-opacity:1;"
         offset="1"
         id="stop3932-0" />
    </linearGradient>
    <linearGradient
       inkscape:collect="always"
       xlink:href="#linearGradient3928-8"
       id="linearGradient3939"
       gradientUnits="userSpaceOnUse"
       gradientTransform="matrix(4.5672647,0,0,4.5672647,-1065.8575,-662.79829)"
       x1="326.00507"
       y1="161.5181"
       x2="310.68365"
       y2="177.40695" />
    <linearGradient
       inkscape:collect="always"
       xlink:href="#linearGradient3928-8"
       id="linearGradient3951"
       gradientUnits="userSpaceOnUse"
       gradientTransform="matrix(4.5756699,0,0,4.5382715,-1068.781,-658.647)"
       x1="298.48331"
       y1="238.12505"
       x2="299.90195"
       y2="150.16895" />
    <linearGradient
       inkscape:collect="always"
       xlink:href="#linearGradient3928-8"
       id="linearGradient3962"
       gradientUnits="userSpaceOnUse"
       gradientTransform="matrix(4.5756699,0,0,4.5382715,-1068.781,-658.647)"
       x1="298.48331"
       y1="238.12505"
       x2="299.90195"
       y2="150.16895" />
    <linearGradient
       inkscape:collect="always"
       xlink:href="#linearGradient3928-8"
       id="linearGradient3964"
       gradientUnits="userSpaceOnUse"
       gradientTransform="matrix(4.5672647,0,0,4.5672647,-1065.8575,-662.79829)"
       x1="326.00507"
       y1="161.5181"
       x2="310.68365"
       y2="177.40695" />
    <linearGradient
       inkscape:collect="always"
       xlink:href="#linearGradient3928-8"
       id="linearGradient3967"
       gradientUnits="userSpaceOnUse"
       gradientTransform="matrix(4.5672647,0,0,4.5672647,-827.65839,-669.53977)"
       x1="326.00507"
       y1="161.5181"
       x2="310.68365"
       y2="177.40695" />
    <linearGradient
       inkscape:collect="always"
       xlink:href="#linearGradient3928-8"
       id="linearGradient3970"
       gradientUnits="userSpaceOnUse"
       gradientTransform="matrix(4.5756699,0,0,4.5382715,-830.58189,-665.38848)"
       x1="298.48331"
       y1="238.12505"
       x2="299.90195"
       y2="150.16895" />
    <linearGradient
       inkscape:collect="always"
       xlink:href="#linearGradient3928-8"
       id="linearGradient3976"
       gradientUnits="userSpaceOnUse"
       gradientTransform="matrix(4.5756699,0,0,4.5382715,-830.58189,-665.38848)"
       x1="298.48331"
       y1="238.12505"
       x2="299.90195"
       y2="150.16895" />
    <linearGradient
       inkscape:collect="always"
       xlink:href="#linearGradient3928-8"
       id="linearGradient3978"
       gradientUnits="userSpaceOnUse"
       gradientTransform="matrix(4.5672647,0,0,4.5672647,-827.65839,-669.53977)"
       x1="326.00507"
       y1="161.5181"
       x2="310.68365"
       y2="177.40695" />
    <linearGradient
       inkscape:collect="always"
       xlink:href="#linearGradient3928-8"
       id="linearGradient3981"
       gradientUnits="userSpaceOnUse"
       gradientTransform="matrix(4.7303814,0,0,4.7303814,-1012.8524,-1095.3983)"
       x1="326.00507"
       y1="161.5181"
       x2="310.68365"
       y2="177.40695" />
    <linearGradient
       inkscape:collect="always"
       xlink:href="#linearGradient3928-8"
       id="linearGradient3984"
       gradientUnits="userSpaceOnUse"
       gradientTransform="matrix(0.94781734,0,0,0.94007054,-44.604628,-138.21974)"
       x1="298.48331"
       y1="238.12505"
       x2="299.90195"
       y2="150.16895" />
    <linearGradient
       inkscape:collect="always"
       xlink:href="#linearGradient3928-8-1"
       id="linearGradient3984-2"
       gradientUnits="userSpaceOnUse"
       gradientTransform="matrix(4.7390867,0,0,4.7003527,-1115.8803,-691.09869)"
       x1="298.48331"
       y1="238.12505"
       x2="299.90195"
       y2="150.16895" />
    <linearGradient
       id="linearGradient3928-8-1">
      <stop
         style="stop-color:#7c7c7c;stop-opacity:1;"
         offset="0"
         id="stop3930-2-1" />
      <stop
         style="stop-color:#e6e3e3;stop-opacity:1;"
         offset="1"
         id="stop3932-0-0" />
    </linearGradient>
    <linearGradient
       y2="150.16895"
       x2="299.90195"
       y1="238.12505"
       x1="298.48331"
       gradientTransform="matrix(-4.7390867,0,0,-4.7003527,1973.004,834.12209)"
       gradientUnits="userSpaceOnUse"
       id="linearGradient4023"
       xlink:href="#linearGradient3928-8-1"
       inkscape:collect="always" />
    <linearGradient
       inkscape:collect="always"
       xlink:href="#linearGradient3928-8-2"
       id="linearGradient3984-28"
       gradientUnits="userSpaceOnUse"
       gradientTransform="matrix(4.7390867,0,0,4.7003527,-1115.8803,-691.09869)"
       x1="298.48331"
       y1="238.12505"
       x2="299.90195"
       y2="150.16895" />
    <linearGradient
       id="linearGradient3928-8-2">
      <stop
         style="stop-color:#7c7c7c;stop-opacity:1;"
         offset="0"
         id="stop3930-2-8" />
      <stop
         style="stop-color:#e6e3e3;stop-opacity:1;"
         offset="1"
         id="stop3932-0-2" />
    </linearGradient>
    <linearGradient
       y2="150.16895"
       x2="299.90195"
       y1="238.12505"
       x1="298.48331"
       gradientTransform="matrix(-4.7390867,0,0,-4.7003527,1973.1225,833.95578)"
       gradientUnits="userSpaceOnUse"
       id="linearGradient4023-3"
       xlink:href="#linearGradient3928-8-2"
       inkscape:collect="always" />
    <linearGradient
       gradientTransform="matrix(0.19999998,0,0,0.19999998,-3.6000001e-5,841.88978)"
       gradientUnits="userSpaceOnUse"
       y2="796.64795"
       x2="334.28577"
       y1="1009.505"
       x1="644.28564"
       id="linearGradient5328"
       xlink:href="#linearGradient5322"
       inkscape:collect="always" />
    <linearGradient
       id="linearGradient5322">
      <stop
         id="stop5324"
         offset="0"
         style="stop-color:#000000;stop-opacity:0.37391305;" />
      <stop
         id="stop5326"
         offset="1"
         style="stop-color:#000000;stop-opacity:0;" />
    </linearGradient>
    <linearGradient
       inkscape:collect="always"
       xlink:href="#linearGradient5322"
       id="linearGradient3074"
       gradientUnits="userSpaceOnUse"
       gradientTransform="matrix(0.19999998,0,0,0.19999998,10e-6,-110.47242)"
       x1="644.28564"
       y1="1009.505"
       x2="334.28577"
       y2="796.64795" />
  </defs>
  <sodipodi:namedview
     pagecolor="#ffffff"
     bordercolor="#666666"
     borderopacity="1"
     objecttolerance="10"
     gridtolerance="10"
     guidetolerance="10"
     inkscape:pageopacity="0"
     inkscape:pageshadow="2"
     inkscape:window-width="1920"
     inkscape:window-height="1145"
     id="namedview9"
     showgrid="false"
     inkscape:zoom="3.776"
     inkscape:cx="135.69257"
     inkscape:cy="103.18684"
     inkscape:window-x="-2"
     inkscape:window-y="-3"
     inkscape:window-maximized="1"
     inkscape:current-layer="svg3932" />
  <path
     inkscape:connector-curvature="0"
     style="fill:#ffffff;display:inline"
     d="M 32.137505,0 C 25.435086,-7.0017434e-7 20.000004,5.43508 20.000004,12.13751 l 0,75.72499 c 0,6.7024 5.435082,12.1375 12.137501,12.1375 l 95.725005,0 C 134.56495,100 140,94.5649 140,87.8625 l 0,-75.72499 C 140,5.43508 134.56519,1.0700202e-5 127.86251,1e-5 z"
     id="path3028-2"
     sodipodi:nodetypes="sssssssss" />
  <path
     style="fill:#000000;fill-opacity:0.78431373;display:inline"
     d="M 32.137506,0 C 25.43509,0 20.000007,5.43508 20.000007,12.1375 l 0,75.725 c 0,6.7024 5.435083,12.1375 12.137499,12.1375 l 95.724984,0 c 6.70244,0 12.1375,-5.4351 12.1375,-12.1375 l 0,-75.725 C 139.99999,5.43508 134.56515,0 127.86249,0 z m 6.056249,8 83.606235,0 c 5.63023,0 10.2,4.56372 10.2,10.19375 l 0,63.60625 c 0,5.63 -4.56995,10.2 -10.2,10.2 L 38.193755,92 C 32.563726,92 28.000006,87.43 28.000006,81.8 l 0,-63.60625 C 28.000006,12.56372 32.563726,8 38.193755,8 z"
     id="path7-8-6-9-2"
     inkscape:connector-curvature="0"
     sodipodi:nodetypes="ssssssssssssssssss" />
  <g
     id="g3084"
     transform="matrix(0.26867131,0,0,0.26867131,-26.867131,101.21459)">
    <rect
       ry="0"
       rx="0"
       y="-296.5517"
       x="100"
       height="103.44825"
       width="267.24139"
       id="rect4566"
       style="color:#000000;fill:#ff0000;fill-opacity:1;fill-rule:nonzero;stroke:none;stroke-width:1.99999988;marker:none;visibility:visible;display:inline;overflow:visible;enable-background:accumulate" />
    <text
       transform="scale(0.89596069,1.1161204)"
       xml:space="preserve"
       style="font-size:88.00069427px;font-style:normal;font-variant:normal;font-weight:bold;font-stretch:normal;text-align:center;line-height:125%;letter-spacing:0px;word-spacing:0px;writing-mode:lr-tb;text-anchor:middle;fill:#ffffff;fill-opacity:1;stroke:none;font-family:Sans;-inkscape-font-specification:Sans Bold"
       x="257.89175"
       y="-187.27945"
       id="text4570"
       sodipodi:linespacing="125%"
       inkscape:export-filename="/home/ramsakb/desk/cherryhill/text6715.png"
       inkscape:export-xdpi="75.042641"
       inkscape:export-ydpi="75.042641"><tspan
         sodipodi:role="line"
         x="257.89175"
         y="-187.27945"
         id="tspan4572">PDF</tspan></text>
  </g>
  <path
     style="font-size:medium;font-style:normal;font-variant:normal;font-weight:normal;font-stretch:normal;text-indent:0;text-align:start;text-decoration:none;line-height:normal;letter-spacing:normal;word-spacing:normal;text-transform:none;direction:ltr;block-progression:tb;writing-mode:lr-tb;text-anchor:start;baseline-shift:baseline;color:#000000;fill:#ff0000;fill-opacity:1;stroke:none;stroke-width:26.7111969;marker:none;visibility:visible;display:inline;overflow:visible;enable-background:accumulate;font-family:Sans;-inkscape-font-specification:Sans"
     d="m 111.44744,8.1549395 c -1.21648,2.18e-4 -2.60616,0.544511 -3.25166,1.31159 -0.86066,1.0227715 -1.0914,1.9875345 -1.29792,3.0262205 -0.0248,0.124934 -0.0327,0.267912 -0.0547,0.396209 -8.0735,12.63286 -16.03565,28.173559 -24.394209,41.868409 -2.416867,3.959856 -4.880809,7.726882 -7.370862,11.230488 -3.114425,0.607417 -6.067667,1.528789 -8.791752,2.862272 -7.065545,3.4587 -12.374402,9.914663 -14.099591,19.550887 -0.267663,2.667691 0.769084,4.030975 3.989419,3.210663 8.34604,-3.467403 15.57431,-10.970995 22.30386,-20.247669 3.735036,-0.512786 7.832819,-0.607255 12.139045,-0.368885 16.96231,0.225475 34.02538,7.195164 49.38093,8.994604 l 0,-5.786025 c -5.25452,-0.994119 -10.60389,-6.394124 -13.20289,-10.11492 -4.19668,-6.109057 -7.62098,-14.343702 -10.03503,-22.467808 -2.41406,-8.124105 -3.84164,-16.165221 -4.24218,-21.812013 -0.14963,-2.109504 -0.10547,-3.718884 0,-4.945786 0.46784,-0.720645 0.45021,-0.775828 1.40723,-2.172321 0.95703,-1.396493 -0.49864,-4.0910345 -1.35257,-4.3378115 -0.85395,-0.246776 -0.72166,-0.198177 -1.12715,-0.198104 z m -4.38563,15.5478055 c 0.66633,5.698624 2.01101,12.536207 4.10554,19.585042 2.53268,8.523265 6.08015,17.216561 10.81379,24.107296 0.8116,1.18143 1.68141,2.295186 2.57536,3.367781 -10.4578,-2.391985 -22.33431,-4.977071 -33.61632,-5.601582 -2.76888,-0.15327 -5.489582,-0.170291 -8.149621,-0.04782 1.562627,-2.380317 3.110232,-4.805606 4.638387,-7.309381 C 94.25321,46.623031 100.73412,34.420668 107.06181,23.702742 z M 68.745617,74.151137 c -2.837471,3.304621 -5.695546,6.13275 -8.559491,8.327229 1.963953,-3.889471 4.854391,-6.492129 8.559491,-8.327229 z"
     id="path4607"
     inkscape:connector-curvature="0"
     sodipodi:nodetypes="ssscscscccccccssczzscsscscscccc" />
  <path
     inkscape:connector-curvature="0"
     style="fill:url(#linearGradient3074);fill-opacity:1;display:inline"
     d="M 32.137502,0 C 25.435083,0 20.000001,5.43508 20.000001,12.1375 l 0,75.725 c 0,6.7024 5.435082,12.1375 12.137501,12.1375 l 95.725008,0 C 134.56495,100 140,94.5649 140,87.8625 l 0,-75.725 C 140,5.43508 134.56519,0 127.86251,0 z"
     id="path3028-2-9"
     sodipodi:nodetypes="sssssssss" />
</svg>
