<svg xmlns="http://www.w3.org/2000/svg" viewBox="0 0 140 100"><defs><linearGradient id="0" gradientUnits="userSpaceOnUse" x1="128.86" y1="91.43" x2="66.857" y2="48.857"><stop stop-opacity=".374"/><stop offset="1" stop-opacity="0"/></linearGradient></defs><path d="m32.14 0c-6.702 0-12.138 5.435-12.138 12.138v75.72c0 6.702 5.435 12.138 12.138 12.138h95.73c6.702 0 12.137-5.435 12.137-12.138v-75.72c0-6.702-5.435-12.137-12.137-12.137z" fill="#fff"/><path d="m32.14 0c-6.702 0-12.137 5.435-12.137 12.138v75.72c0 6.702 5.435 12.138 12.137 12.138h95.72c6.702 0 12.137-5.435 12.137-12.138v-75.72c0-6.702-5.435-12.138-12.138-12.138zm6.06 8h83.61c5.63 0 10.2 4.564 10.2 10.194v63.61c0 5.63-4.57 10.2-10.2 10.2h-83.61c-5.63 0-10.194-4.57-10.194-10.2v-63.61c0-5.63 4.564-10.194 10.194-10.194" fill-opacity=".784"/><g transform="matrix(.26867 0 0 .26867-26.867 101.21)"><path fill="#f00" color="#000" d="m100-296.55h267.24v103.45h-267.24z"/><text transform="scale(.89596 1.11612)" x="257.89" y="-187.28" fill="#fff" font-family="Sans" text-anchor="middle" text-align="center" word-spacing="0" line-height="125%" font-weight="bold" letter-spacing="0" font-size="88"><tspan x="257.89" y="-187.28">PDF</tspan></text></g><path d="m111.45 8.155c-1.216 0-2.606.545-3.252 1.312-.861 1.023-1.091 1.988-1.298 3.03-.025.125-.033.268-.055.396-8.07 12.633-16.04 28.17-24.394 41.868-2.417 3.96-4.881 7.727-7.371 11.23-3.114.607-6.068 1.529-8.792 2.862-7.07 3.459-12.374 9.915-14.1 19.551-.268 2.668.769 4.03 3.989 3.211 8.346-3.467 15.574-10.971 22.304-20.248 3.735-.513 7.833-.607 12.139-.369 16.962.225 34.03 7.195 49.38 8.995v-5.786c-5.255-.994-10.604-6.394-13.203-10.115-4.197-6.109-7.621-14.344-10.04-22.468-2.414-8.124-3.842-16.17-4.242-21.812-.15-2.11-.105-3.719 0-4.946.468-.721.45-.776 1.407-2.172.957-1.396-.499-4.091-1.353-4.338-.854-.247-.722-.198-1.127-.198m-4.386 15.548c.666 5.699 2.01 12.536 4.106 19.585 2.533 8.523 6.08 17.217 10.814 24.11.812 1.181 1.681 2.295 2.575 3.368-10.458-2.392-22.334-4.977-33.616-5.602-2.769-.153-5.49-.17-8.15-.048 1.563-2.38 3.11-4.806 4.638-7.309 6.824-11.181 13.305-23.383 19.633-34.1m-38.32 50.45c-2.837 3.305-5.696 6.133-8.559 8.327 1.964-3.889 4.854-6.492 8.559-8.327" color="#000" fill="#f00"/><path d="m32.14 0c-6.702 0-12.138 5.435-12.138 12.138v75.72c0 6.702 5.435 12.138 12.138 12.138h95.73c6.702 0 12.137-5.435 12.137-12.138v-75.72c0-6.702-5.435-12.138-12.137-12.138z" fill="url(#0)"/></svg>