<svg xmlns="http://www.w3.org/2000/svg" xmlns:xlink="http://www.w3.org/1999/xlink" viewBox="0 0 100 100"><defs><clipPath><path d="m0 792h612v-792h-612v792"/></clipPath><linearGradient y2="61.754" x2="48.725" y1="85.34" x1="84.49" gradientUnits="userSpaceOnUse" id="2"><stop stop-opacity=".374"/><stop offset="1" stop-opacity="0"/></linearGradient></defs><path d="m12.138 0c-6.702 0-12.138 5.435-12.138 12.138v75.72c0 6.702 5.435 12.138 12.138 12.138h75.72c6.702 0 12.137-5.435 12.138-12.138v-75.72c0-6.702-5.435-12.138-12.138-12.138z" fill="#fff"/><path d="m12.138 0c-6.702 0-12.138 5.435-12.138 12.138v75.72c0 6.702 5.435 12.138 12.138 12.138h75.72c6.702 0 12.137-5.435 12.138-12.138v-75.72c0-6.702-5.435-12.138-12.138-12.138h-75.72m6.06 8h63.61c5.63 0 10.2 4.564 10.2 10.194v63.61c0 5.63-4.57 10.2-10.2 10.2h-63.61c-5.63 0-10.194-4.57-10.194-10.2v-63.61c0-5.63 4.564-10.194 10.194-10.194" fill-opacity=".784"/><path d="m0 0c0-1.493-1.21-2.702-2.703-2.702-1.492 0-2.701 1.209-2.701 2.702 0 1.493 1.209 2.703 2.701 2.703 1.493 0 2.703-1.21 2.703-2.703" fill="#fff" transform="matrix(2.70783 0 0-2.70783 27.392 49.29)" id="0"/><path d="m0 0c0-1.493-1.21-2.702-2.703-2.702-1.492 0-2.701 1.209-2.701 2.702 0 1.493 1.209 2.703 2.701 2.703 1.493 0 2.703-1.21 2.703-2.703z" fill="none" stroke="#000" stroke-width="1.1" transform="matrix(2.70783 0 0-2.70783 27.392 49.29)" id="1"/><g transform="translate(59.848)"><use xlink:href="#0"/><use xlink:href="#1"/></g><path d="m0 0l-5.404 1.272-1.986-6.278" fill="none" stroke="#000" stroke-linejoin="round" stroke-linecap="round" stroke-width="1.1" transform="matrix(2.70783 0 0-2.70783 70.28 23.608)"/><g transform="matrix(2.70783 0 0-2.70783 82.02 24.791)"><path d="m0 0c0-1.176-.954-2.13-2.129-2.13-1.178 0-2.131.954-2.131 2.13 0 1.177.953 2.13 2.131 2.13 1.175 0 2.129-.953 2.129-2.13" fill="#fff"/><path d="m0 0c0-1.176-.954-2.13-2.129-2.13-1.178 0-2.131.954-2.131 2.13 0 1.177.953 2.13 2.131 2.13 1.175 0 2.129-.953 2.129-2.13z" fill="none" stroke="#000" stroke-width="1.1"/></g><g transform="matrix(2.70783 0 0-2.70783 82.98 59.35)"><path d="m0 0c0-4.411-5.479-7.986-12.239-7.986-6.759 0-12.238 3.575-12.238 7.986 0 4.411 5.479 7.987 12.238 7.987 6.76 0 12.239-3.576 12.239-7.987" fill="#fff"/><path d="m0 0c0-4.411-5.479-7.986-12.239-7.986-6.759 0-12.238 3.575-12.238 7.986 0 4.411 5.479 7.987 12.238 7.987 6.76 0 12.239-3.576 12.239-7.987z" fill="none" stroke="#000" stroke-width="1.1"/></g><g transform="matrix(2.70783 0 0-2.70783 42.21 55.13)"><path d="m0 0c0-.79-.641-1.43-1.43-1.43-.791 0-1.431.64-1.431 1.43 0 .791.64 1.431 1.431 1.431.789 0 1.43-.64 1.43-1.431" fill="#ff4500"/><path d="m0 0c0-.79-.641-1.43-1.43-1.43-.791 0-1.431.64-1.431 1.43 0 .791.64 1.431 1.431 1.431.789 0 1.43-.64 1.43-1.431z" fill="none" stroke="#ff4500" stroke-width="1.1"/></g><g transform="matrix(2.70783 0 0-2.70783 65.56 55.13)"><path d="m0 0c0-.79-.64-1.43-1.43-1.43-.789 0-1.43.64-1.43 1.43 0 .791.641 1.431 1.43 1.431.79 0 1.43-.64 1.43-1.431" fill="#ff4500"/><path d="m0 0c0-.79-.64-1.43-1.43-1.43-.789 0-1.43.64-1.43 1.43 0 .791.641 1.431 1.43 1.431.79 0 1.43-.64 1.43-1.431z" fill="none" stroke="#ff4500" stroke-width="1.1"/></g><g fill="none" stroke="#000" stroke-linecap="round" stroke-width="1.1"><path d="m0 0c1.066-1.066 2.786-1.271 4.212-1.271" transform="matrix(2.70783 0 0-2.70783 38.552 69.31)"/><path d="m0 0c-1.067-1.066-2.785-1.271-4.212-1.271" transform="matrix(2.70783 0 0-2.70783 61.45 69.31)"/></g><path d="m12.138 0c-6.702 0-12.138 5.435-12.138 12.138v75.72c0 6.702 5.435 12.138 12.138 12.138h75.73c6.702 0 12.137-5.435 12.137-12.138v-75.72c0-6.702-5.435-12.138-12.137-12.138z" fill="url(#2)"/></svg>