<?xml version="1.0" encoding="UTF-8" standalone="no"?>
<!-- Created with Inkscape (http://www.inkscape.org/) -->

<svg
   xmlns:dc="http://purl.org/dc/elements/1.1/"
   xmlns:cc="http://creativecommons.org/ns#"
   xmlns:rdf="http://www.w3.org/1999/02/22-rdf-syntax-ns#"
   xmlns:svg="http://www.w3.org/2000/svg"
   xmlns="http://www.w3.org/2000/svg"
   xmlns:sodipodi="http://sodipodi.sourceforge.net/DTD/sodipodi-0.dtd"
   xmlns:inkscape="http://www.inkscape.org/namespaces/inkscape"
   width="500"
   height="500"
   id="svg3932"
   version="1.1"
   inkscape:version="0.48.4 r9939"
   sodipodi:docname="ResearchGate.svg">
  <metadata
     id="metadata13">
    <rdf:RDF>
      <cc:Work
         rdf:about="">
        <dc:format>image/svg+xml</dc:format>
        <dc:type
           rdf:resource="http://purl.org/dc/dcmitype/StillImage" />
      </cc:Work>
    </rdf:RDF>
  </metadata>
  <defs
     id="defs11" />
  <sodipodi:namedview
     pagecolor="#ffffff"
     bordercolor="#666666"
     borderopacity="1"
     objecttolerance="10"
     gridtolerance="10"
     guidetolerance="10"
     inkscape:pageopacity="0"
     inkscape:pageshadow="2"
     inkscape:window-width="1920"
     inkscape:window-height="1145"
     id="namedview9"
     showgrid="false"
     inkscape:zoom="0.944"
     inkscape:cx="157.02057"
     inkscape:cy="170.53227"
     inkscape:window-x="-2"
     inkscape:window-y="-3"
     inkscape:window-maximized="1"
     inkscape:current-layer="svg3932" />
  <path
     inkscape:connector-curvature="0"
     style="fill:#666666;fill-opacity:1;display:inline"
     d="M 60.6875,0 C 27.175396,0 0,27.175375 0,60.68751 L 0,439.31247 C 0,472.8246 27.175396,500 60.6875,500 l 378.625,0 C 472.8247,500 500,472.8246 500,439.31247 L 500,60.68751 C 500,27.175375 472.8259,0 439.3125,0 L 60.6875,0 z"
     id="path3034-3" />
  <g
     id="g2992"
     transform="translate(9.1875,0)">
    <path
       inkscape:connector-curvature="0"
       id="path3032"
       d="m 55.8125,122.59413 0,254.81172 41.482942,0 0,-101.01786 47.537818,0 c 17.9657,0 25.68394,9.09513 25.68394,30.41519 0,2.09705 0.0229,5.59478 -0.25346,10.1384 -0.27261,6.64066 -0.28162,12.91192 -0.28162,16.75651 0,23.76662 1.08499,31.47494 6.3365,43.70776 l 44.52446,0 0,-9.43434 c -6.35709,-4.54362 -8.84294,-9.79656 -8.84294,-20.98085 -1.10558,-75.14446 -2.23207,-78.64516 -27.93692,-92.62552 22.6645,-11.1843 33.9918,-31.80809 33.9918,-62.91439 0,-20.27153 -5.5056,-38.78555 -15.17944,-51.36788 -9.12104,-11.88331 -21.84,-17.48874 -38.9765,-17.48874 l -108.08658,0 z m 41.482942,43.70776 50.016088,0 c 11.885,0 16.85061,1.37549 21.82572,6.61812 4.97511,5.24263 7.46299,13.99777 7.46299,25.88108 0,12.23282 -2.76427,22.0184 -7.46299,27.26102 -4.42232,4.89312 -9.94072,6.64628 -21.82572,6.64628 l -50.016088,0 0,-66.4065 z"
       style="fill:#ffffff;display:inline" />
    <path
       inkscape:connector-curvature="0"
       id="path3030"
       d="m 347.85948,122.59414 c 43.41028,0 73.51334,31.70212 77.95302,81.72675 l -34.7803,0 c -3.20644,-12.67291 -5.91632,-18.35736 -11.09591,-24.36031 -8.13947,-9.67143 -18.99756,-14.67252 -31.8233,-14.67252 -31.3245,0 -50.32593,31.67693 -50.32593,84.03604 0,50.02463 21.467,85.38783 51.31156,85.38783 14.30568,0 27.8723,-8.67258 36.75173,-23.34647 5.42625,-8.67094 7.88443,-17.02342 8.87106,-30.69682 l -40.94786,0 0,-41.68007 72.03895,0 0,131.40489 -22.21995,0 -4.42151,-32.02044 c -13.81238,27.34681 -30.09698,39.03283 -54.26855,39.03283 -48.58986,0 -84.12058,-53.7029 -84.12058,-127.40586 0,-75.70393 35.28127,-127.40585 87.07757,-127.40585 z"
       style="fill:#8ed324;fill-opacity:1;display:inline" />
  </g>
  <path
     style="fill:#000000;fill-opacity:0.78431373;display:inline"
     d="M 60.6875,0 C 27.17542,0 -9.9999724e-5,27.1754 0,60.6875 l 0,378.625 C 0,472.82453 27.17542,500.0001 60.6875,500 l 378.625,0 c 33.5122,0 60.6874,-27.17547 60.6875,-60.6875 l 0,-378.625 C 500,27.1754 472.8258,0 439.3125,0 L 60.6875,0 z M 90.96875,40 409,40 c 28.15118,0 51,22.81859 51,50.968748 L 460,409 c -8e-5,28.15011 -22.84975,51 -51,51 L 90.96875,460 C 62.8186,460.00008 40,437.15011 40,409 L 40,90.968748 C 39.99992,62.81859 62.8186,40 90.96875,40 z"
     id="path7-8-6-9"
     inkscape:connector-curvature="0" />
</svg>
