<?xml version="1.0" encoding="UTF-8" standalone="no"?>
<!-- Created with Inkscape (http://www.inkscape.org/) -->

<svg
   xmlns:dc="http://purl.org/dc/elements/1.1/"
   xmlns:cc="http://creativecommons.org/ns#"
   xmlns:rdf="http://www.w3.org/1999/02/22-rdf-syntax-ns#"
   xmlns:svg="http://www.w3.org/2000/svg"
   xmlns="http://www.w3.org/2000/svg"
   xmlns:sodipodi="http://sodipodi.sourceforge.net/DTD/sodipodi-0.dtd"
   xmlns:inkscape="http://www.inkscape.org/namespaces/inkscape"
   width="500"
   height="500"
   id="svg3932"
   version="1.1"
   inkscape:version="0.48.4 r9939"
   sodipodi:docname="ResearchGate.svg">
  <g
     transform="translate(0,-552.36218)">
    <path
       d="m 439.32025,552.36227 -378.6407,0 c -33.5121,0 -60.6795,27.1675 -60.6795,60.6796 l 0,378.64052 c 0,33.51221 27.1675,60.67971 60.6795,60.67971 l 378.6407,0 c 33.5122,0 60.6797,-27.1675 60.6797,-60.67971 l 0,-378.64052 c 0,-33.5121 -27.1662,-60.6796 -60.6797,-60.6796 z"
       style="fill:#ffffff;fill-opacity:1;display:inline" />
    <path
       style="fill:#1a1a1a;display:inline"
       d="m 60.687495,552.36217 c -33.5121,0 -60.6875000000001,27.17538 -60.6875000000001,60.68751 l 0,378.62499 c 0,33.51213 27.1754000000001,60.68753 60.6875000000001,60.68753 l 378.625005,0 c 33.5122,0 60.6875,-27.1754 60.6875,-60.68753 l 0,-378.62499 c 0,-33.51213 -27.1741,-60.68751 -60.6875,-60.68751 l -378.625005,0 z m -4.875,108.62501 119.937495,0 c 19.0154,0 33.1289,6.22002 43.25,19.40625 10.7345,13.96189 16.8438,34.50584 16.8438,57 0,34.51688 -12.5693,57.40192 -37.7188,69.81249 28.5232,15.51321 29.7732,19.39774 31,102.78125 0,12.41057 2.7584,18.23946 9.8125,23.28125 l 0,10.46875 -49.4062,0 c -5.82729,-13.57406 -7.0313,-22.12754 -7.0313,-48.5 0,-4.26613 0.01,-11.22498 0.3125,-18.59375 0.3067,-5.04179 0.2813,-8.92302 0.2813,-11.25 0,-23.65765 -8.56449,-33.75 -28.5,-33.75 l -52.74999,0 0,112.09375 -46.031305,0 0,-282.74999 z m 301.874995,0 c 48.1699,0 81.57355,35.17803 86.50001,90.6875 l -38.59371,0 c -3.558,-14.0624 -6.565,-20.37011 -12.3125,-27.03125 -9.0319,-10.73183 -21.0805,-16.28125 -35.3125,-16.28125 -34.759,0 -55.8438,35.15008 -55.8438,93.24999 0,55.50947 23.8207,94.75 56.9375,94.75 15.8742,0 30.9283,-9.62347 40.7813,-25.90625 6.0212,-9.62164 8.7489,-18.88991 9.8437,-34.0625 l -45.4375,0 0,-46.25 79.93751,0 0,145.8125 -24.65621,0 -4.9063,-35.53125 c -15.3268,30.34518 -33.3969,43.3125 -60.2187,43.3125 -53.9174,0 -93.3438,-59.59104 -93.3438,-141.375 0,-84.00433 39.1496,-141.37499 96.625,-141.37499 z m -255.8437,48.5 0,73.68749 55.5,0 c 13.1881,0 19.3115,-1.94538 24.2187,-7.375 5.2139,-5.81744 8.2813,-16.67593 8.2813,-30.24999 0,-13.18623 -2.7607,-22.9013 -8.2813,-28.71875 -5.5206,-5.81745 -11.0306,-7.34375 -24.2187,-7.34375 l -55.5,0 z" />
  </g>
</svg>
