<svg xmlns="http://www.w3.org/2000/svg" viewBox="0 0 100 100"><defs><linearGradient y2="61.751" x2="48.727" y1="85.34" x1="84.49" gradientUnits="userSpaceOnUse" id="0" gradientTransform="scale(1 .99995)"><stop stop-opacity=".374"/><stop offset="1" stop-opacity="0"/></linearGradient></defs><path d="m12.14.007c-6.702 0-12.138 5.435-12.138 12.137v75.72c0 6.702 5.435 12.137 12.138 12.137h75.72c6.702 0 12.138-5.435 12.138-12.137v-75.72c0-6.702-5.435-12.137-12.138-12.137h-75.72" fill="#00d0af"/><g fill="#fff"><path d="m-244.44-97.19q1.367 0 2.734.449 1.387.43 2.559 1.25 1.191.82 1.914 2.148.742 1.309.742 2.91 0 2.01-1.641 3.887-1.621 1.855-3.691 2.559 2.52 4.199 6.309 9.18.879 1.152 1.855 1.699.996.527 2.559.645.117.215.059.625-.039.391-.098.508-3.809 0-5.156-.469-1.25-.449-1.914-1.055-.332-.293-.625-.664-.508-.684-2.52-3.652-1.992-2.969-3.691-5.605-.313-.469-1.172-.469h-2.07v7.266q0 2.266.195 2.891.078.273 1.094.449 1.016.176 1.602.176.117.156.117.566.019.41-.117.566-4-.195-4.57-.195-.605 0-4.609.195-.137-.156-.137-.566.019-.41.137-.566.586 0 1.602-.176 1.016-.176 1.094-.449.156-.488.195-2.891l-.019-16.68q0-2.266-.195-2.891-.078-.273-1.094-.449-1.016-.176-1.602-.176-.117-.156-.137-.566 0-.41.137-.566 4 .195 4.609.195.664 0 2.48-.039 1.816-.039 3.066-.039m4.297 7.109q0-2.715-1.465-4.277-1.445-1.582-4.551-1.582-1.777 0-1.953.391-.195.469-.195 2.93l.019 8.164h2.09q2.402 0 4.219-1.563 1.836-1.582 1.836-4.063" transform="matrix(2.12814 0 0 2.12814 557.02 238.73)"/></g><g fill="#fff"><path d="m-241.53-36.12q0 .996.137 2.031.156 1.035.488 2.168.332 1.133.84 2.168.527 1.035 1.309 1.992.801.938 1.797 1.641.996.684 2.363 1.094 1.367.41 2.949.41 1.426 0 2.891-.488 1.465-.508 2.656-1.367 1.211-.879 1.973-2.207.762-1.348.762-2.871h-5.996v-3.32h9.746q0 7.148-2.891 10.371-2.871 3.203-9.08 3.203-2.148 0-4.102-.527-1.934-.527-3.672-1.68-1.719-1.172-2.969-2.871-1.25-1.699-1.992-4.199-.723-2.5-.723-5.527 0-3.223.977-5.898.996-2.695 2.773-4.551 1.777-1.855 4.277-2.871 2.52-1.035 5.488-1.035 2.441 0 4.434.703 1.992.684 3.32 1.914 1.348 1.211 2.207 2.637.859 1.406 1.348 3.086h-3.672q-.664-2.207-2.559-3.613-1.875-1.406-5.156-1.406-3.03 0-5.313 1.445-2.266 1.445-3.438 3.926-1.172 2.48-1.172 5.645" transform="matrix(.8367 0 0 1.08836 265.79 66.999)"/></g><path d="m12.14-.002c-6.702 0-12.138 5.435-12.138 12.137v75.73c0 6.702 5.435 12.137 12.138 12.136h75.72c6.702 0 12.137-5.435 12.138-12.136v-75.73c0-6.702-5.435-12.137-12.138-12.137z" fill="url(#0)"/></svg>