<svg xmlns="http://www.w3.org/2000/svg" viewBox="0 0 100 100"><defs><linearGradient y2="61.751" x2="48.727" y1="85.34" x1="84.49" gradientUnits="userSpaceOnUse" id="0" gradientTransform="matrix(1 0 0 .99995 0 .005)"><stop stop-opacity=".374"/><stop offset="1" stop-opacity="0"/></linearGradient></defs><path d="m12.14.007c-6.702 0-12.138 5.435-12.138 12.137v75.72c0 6.702 5.435 12.137 12.138 12.137h75.72c6.702 0 12.138-5.435 12.138-12.137v-75.72c0-6.702-5.435-12.137-12.138-12.137h-75.72" fill="#666"/><g transform="matrix(.21622 0 0 .2162-2.067-4.047)"><path d="m55.813 122.59v254.81h41.483v-101.02h47.538c17.966 0 25.684 9.1 25.684 30.415 0 2.097.023 5.595-.253 10.138-.273 6.641-.282 12.912-.282 16.757 0 23.767 1.085 31.475 6.337 43.708h44.524v-9.434c-6.357-4.544-8.843-9.797-8.843-20.981-1.106-75.14-2.232-78.65-27.937-92.63 22.665-11.184 33.992-31.808 33.992-62.914 0-20.272-5.506-38.786-15.179-51.37-9.121-11.883-21.84-17.489-38.976-17.489h-108.09m41.483 43.708h50.02c11.885 0 16.851 1.375 21.826 6.618 4.975 5.243 7.463 13.998 7.463 25.881 0 12.233-2.764 22.02-7.463 27.26-4.422 4.893-9.941 6.646-21.826 6.646h-50.02v-66.41" fill="#fff"/><path d="m347.86 122.59c43.41 0 73.51 31.702 77.953 81.73h-34.78c-3.206-12.673-5.916-18.357-11.1-24.36-8.139-9.671-18.998-14.673-31.823-14.673-31.32 0-50.33 31.677-50.33 84.04 0 50.02 21.467 85.39 51.31 85.39 14.306 0 27.872-8.673 36.752-23.346 5.426-8.671 7.884-17.02 8.871-30.697h-40.948v-41.68h72.04v131.4h-22.22l-4.422-32.02c-13.812 27.347-30.1 39.03-54.27 39.03-48.59 0-84.12-53.703-84.12-127.41 0-75.7 35.28-127.41 87.08-127.41" fill="#8ed324"/></g><path d="m12.14.003c-6.702 0-12.138 5.435-12.138 12.137v75.73c0 6.702 5.435 12.137 12.138 12.136h75.72c6.702 0 12.137-5.435 12.138-12.136v-75.73c0-6.702-5.435-12.137-12.138-12.137z" fill="url(#0)"/></svg>