<svg xmlns="http://www.w3.org/2000/svg" viewBox="0 0 100 100"><defs><linearGradient y2="61.751" x2="48.727" y1="85.34" x1="84.49" gradientUnits="userSpaceOnUse" id="0" gradientTransform="matrix(1 0 0 .99995 0 .005)"><stop stop-opacity=".374"/><stop offset="1" stop-opacity="0"/></linearGradient></defs><path d="m12.14.007c-6.702 0-12.138 5.435-12.138 12.137v75.72c0 6.702 5.435 12.137 12.138 12.137h75.72c6.702 0 12.138-5.435 12.138-12.137v-75.72c0-6.702-5.435-12.136-12.138-12.136h-75.72" fill="#f60"/><g transform="matrix(.22858 0 0 .22855-4.04-12.173)" fill="#fff"><path d="m130.63 97.04c17.723-.064 34.85.36 45.541 1.38 54.649 5.215 94.34 15.706 131.91 34.868 35.492 18.1 57.56 39.688 73.61 72.02 21.673 43.647 30.958 100.17 29.623 180.51-.621 37.36-2.037 57.47-4.224 60.05-.853 1.01-4.907 1.295-15.429 1.127-29.702-.474-39.28-.934-40.34-1.972-.666-.653-1-7.603-.805-17.828.178-9.213-.18-27.29-.833-40.19-4.582-90.48-22.584-148.72-55.17-178.59-34.921-32.02-109.2-51.651-204.26-53.936-13.16-.316-25.03-.803-26.376-1.07l-2.442-.451v-25.602-25.63l2.528-.929c5.912-2.203 37.12-3.64 66.66-3.746"/><path d="m104.21 218.28c26.431.02 57.38 3.566 77.71 8.887 34.656 9.07 62.909 25.378 77.8 44.926 13.08 17.17 21.628 41.523 27.28 77.63 3.52 22.482 3.101 91.43-.586 95.79-1.069 1.263-6.43 1.545-32.581 1.531-17.206-.009-31.918-.448-32.693-.93-1.166-.724-1.054-3.146.474-14.191 2.493-18.02 2.52-53.621.055-68.41-2.08-12.488-6.777-27.11-11.521-35.902-2.023-3.751-6.869-9.736-11.883-14.684-11.72-11.563-22.791-16.898-46.19-22.367-8.871-2.073-12.502-2.297-39.33-2.297-21.515-.002-32.17.389-39.14 1.531-5.266.863-10.136 1.4-10.823 1.176-1.852-.605-1.77-67.868.084-69.34 1.712-1.362 26.309-3.348 41.34-3.336"/><path d="m120.66 330.46c15.929-.126 28.905 5.417 41.02 17.473 11.748 11.695 17.233 24.682 17.281 40.852.041 13.721-3.784 24.598-12.742 36.12-8.146 10.479-18.15 16.944-31.445 20.344-11.971 3.062-26.795 2.123-37.543-2.379-15.14-6.342-28.443-20.867-33.387-36.477-3.451-10.896-3.151-27.321.684-37.27 8.918-23.14 28.26-37.23 52.91-38.555 1.089-.059 2.165-.099 3.227-.109"/></g><path d="m12.14.003c-6.702 0-12.138 5.435-12.138 12.137v75.73c0 6.702 5.435 12.137 12.138 12.136h75.72c6.702 0 12.137-5.435 12.138-12.136v-75.73c0-6.702-5.435-12.137-12.138-12.137z" fill="url(#0)"/></svg>