<?xml version="1.0" encoding="UTF-8" standalone="no"?>
<!-- Created with Inkscape (http://www.inkscape.org/) -->

<svg
   xmlns:dc="http://purl.org/dc/elements/1.1/"
   xmlns:cc="http://creativecommons.org/ns#"
   xmlns:rdf="http://www.w3.org/1999/02/22-rdf-syntax-ns#"
   xmlns:svg="http://www.w3.org/2000/svg"
   xmlns="http://www.w3.org/2000/svg"
   xmlns:sodipodi="http://sodipodi.sourceforge.net/DTD/sodipodi-0.dtd"
   xmlns:inkscape="http://www.inkscape.org/namespaces/inkscape"
   width="500"
   height="500"
   id="svg3932"
   version="1.1"
   inkscape:version="0.48.4 r9939"
   sodipodi:docname="ResearchGate.svg">
  <defs
     id="defs3934" />
  <sodipodi:namedview
     id="base"
     pagecolor="#ffffff"
     bordercolor="#666666"
     borderopacity="1.0"
     inkscape:pageopacity="0.0"
     inkscape:pageshadow="2"
     inkscape:zoom="0.35355339"
     inkscape:cx="-1347.2801"
     inkscape:cy="92.272054"
     inkscape:document-units="px"
     inkscape:current-layer="layer1"
     showgrid="false"
     inkscape:window-width="1920"
     inkscape:window-height="1145"
     inkscape:window-x="-2"
     inkscape:window-y="-3"
     inkscape:window-maximized="1" />
  <metadata
     id="metadata3937">
    <rdf:RDF>
      <cc:Work
         rdf:about="">
        <dc:format>image/svg+xml</dc:format>
        <dc:type
           rdf:resource="http://purl.org/dc/dcmitype/StillImage" />
        <dc:title></dc:title>
      </cc:Work>
    </rdf:RDF>
  </metadata>
  <g
     inkscape:label="Layer 1"
     inkscape:groupmode="layer"
     id="layer1"
     transform="translate(0,-552.36218)">
    <path
       d="m 439.32025,552.36227 -378.6407,0 c -33.5121,0 -60.6795,27.1675 -60.6795,60.6796 l 0,378.64052 c 0,33.51221 27.1675,60.67971 60.6795,60.67971 l 378.6407,0 c 33.5122,0 60.6797,-27.1675 60.6797,-60.67971 l 0,-378.64052 c 0,-33.5121 -27.1662,-60.6796 -60.6797,-60.6796 z"
       id="linkedin-square-rounded-icon-0-4-7-3-5"
       inkscape:connector-curvature="0"
       sodipodi:nodetypes="sssssssss"
       style="fill:#ffffff;fill-opacity:1;display:inline" />
    <path
       style="fill:#1a1a1a;display:inline"
       d="M 60.6875,552.36215 C 27.1754,552.36215 0,579.53751 0,613.04965 l 0,378.62496 c 0,33.51219 27.1754,60.68759 60.6875,60.68759 l 378.625,0 c 33.5122,0 60.6875,-27.1754 60.6875,-60.68759 l 0,-378.62496 c 0,-33.51214 -27.1741,-60.6875 -60.6875,-60.6875 l -378.625,0 z m 76.375,55.84375 c 19.2759,-0.071 37.9036,0.39946 49.5312,1.53125 59.4369,5.78593 102.6019,17.4267 143.4688,38.6875 38.602,20.08264 62.6025,44.03502 80.0625,79.90625 23.5717,48.42815 33.6707,111.14753 32.2187,200.28121 -0.6752,41.4547 -2.2159,63.7601 -4.5937,66.625 -0.9277,1.1181 -5.337,1.4365 -16.7813,1.25 -32.3042,-0.5259 -42.7241,-1.0366 -43.875,-2.1875 -0.7247,-0.7247 -1.09,-8.4353 -0.875,-19.7812 0.1939,-10.222 -0.1958,-30.2804 -0.9062,-44.5938 -4.9833,-100.39509 -24.5632,-165.00694 -60,-198.15621 -37.981,-35.52949 -118.7684,-57.30855 -222.1563,-59.84375 -14.3133,-0.35109 -27.2236,-0.89115 -28.6875,-1.1875 l -2.6562,-0.5 0,-28.40625 0,-28.4375 2.75,-1.03125 c 6.4297,-2.44454 40.3736,-4.03853 72.5,-4.15625 z m -26.2813,124.75 c 29.6105,0.0234 64.2859,4.07567 87.0625,10.15625 38.8249,10.36505 70.4764,29.00371 87.1563,51.34375 14.6549,19.62803 24.2298,47.4554 30.5625,88.71875 3.943,25.69336 3.4741,104.49226 -0.6563,109.46876 -1.1979,1.4434 -7.2034,1.7658 -36.5,1.75 -19.276,-0.01 -35.7575,-0.5125 -36.625,-1.0625 -1.306,-0.8278 -1.1812,-3.5955 0.5313,-16.2188 2.7933,-20.5906 2.8231,-61.2816 0.062,-78.1875 -2.3306,-14.27241 -7.5926,-30.9783 -12.9063,-41.03121 -2.2662,-4.28702 -7.6948,-11.12688 -13.3125,-16.78125 -13.1293,-13.21516 -25.5322,-19.31165 -51.75,-25.5625 -9.938,-2.36941 -14.0057,-2.625 -44.0625,-2.625 -24.1031,-0.002 -36.0383,0.4449 -43.8437,1.75 -5.8993,0.98653 -11.3557,1.60043 -12.125,1.34375 -2.075,-0.6915 -1.9832,-77.56371 0.094,-79.25 1.9176,-1.5568 29.4733,-3.8259 46.3125,-3.8125 z m 14.4375,126.75 c 18.204,-0.14381 33.0342,6.19084 46.875,19.96875 13.4267,13.36576 19.695,28.20766 19.75,46.68746 0.047,15.6812 -4.325,28.1119 -14.5625,41.2813 -9.3099,11.976 -20.7462,19.3648 -35.9375,23.25 -13.6811,3.4991 -30.6228,2.4263 -42.9062,-2.7188 -17.3043,-7.2483 -32.5058,-23.848 -38.1563,-41.6875 -3.944,-12.4526 -3.6006,-31.2241 0.7813,-42.5937 10.1918,-26.44431 32.2973,-42.54528 60.4687,-44.06251 1.2443,-0.0679 2.474,-0.1129 3.6875,-0.125 z"
       id="linkedin-square-rounded-icon-0-5"
       inkscape:connector-curvature="0" />
  </g>
</svg>
