<?xml version="1.0" encoding="UTF-8" standalone="no"?>
<!-- Created with Inkscape (http://www.inkscape.org/) -->

<svg
   xmlns:dc="http://purl.org/dc/elements/1.1/"
   xmlns:cc="http://creativecommons.org/ns#"
   xmlns:rdf="http://www.w3.org/1999/02/22-rdf-syntax-ns#"
   xmlns:svg="http://www.w3.org/2000/svg"
   xmlns="http://www.w3.org/2000/svg"
   xmlns:xlink="http://www.w3.org/1999/xlink"
   xmlns:sodipodi="http://sodipodi.sourceforge.net/DTD/sodipodi-0.dtd"
   xmlns:inkscape="http://www.inkscape.org/namespaces/inkscape"
   width="100"
   height="100"
   id="svg3932"
   version="1.1"
   inkscape:version="0.48.4 r9939"
   sodipodi:docname="RSS.svg">
  <metadata
     id="metadata13">
    <rdf:RDF>
      <cc:Work
         rdf:about="">
        <dc:format>image/svg+xml</dc:format>
        <dc:type
           rdf:resource="http://purl.org/dc/dcmitype/StillImage" />
      </cc:Work>
    </rdf:RDF>
  </metadata>
  <defs
     id="defs11">
    <linearGradient
       y2="796.64795"
       x2="334.28577"
       y1="1009.505"
       x1="644.28564"
       gradientTransform="matrix(0.14285713,0,0,0.19999998,0,-110.4725)"
       gradientUnits="userSpaceOnUse"
       id="linearGradient3058"
       xlink:href="#linearGradient5322-1"
       inkscape:collect="always" />
    <linearGradient
       id="linearGradient5322-1">
      <stop
         style="stop-color:#000000;stop-opacity:0.37391305;"
         offset="0"
         id="stop5324-6" />
      <stop
         style="stop-color:#000000;stop-opacity:0;"
         offset="1"
         id="stop5326-3" />
    </linearGradient>
    <linearGradient
       y2="796.64795"
       x2="334.28577"
       y1="1009.505"
       x1="644.28564"
       gradientTransform="matrix(0.14285713,0,0,0.19999998,0,-110.4725)"
       gradientUnits="userSpaceOnUse"
       id="linearGradient3033"
       xlink:href="#linearGradient5322-1"
       inkscape:collect="always" />
  </defs>
  <sodipodi:namedview
     pagecolor="#ffffff"
     bordercolor="#666666"
     borderopacity="1"
     objecttolerance="10"
     gridtolerance="10"
     guidetolerance="10"
     inkscape:pageopacity="0"
     inkscape:pageshadow="2"
     inkscape:window-width="1920"
     inkscape:window-height="1145"
     id="namedview9"
     showgrid="false"
     inkscape:zoom="0.944"
     inkscape:cx="169.9247"
     inkscape:cy="207.91415"
     inkscape:window-x="-2"
     inkscape:window-y="-3"
     inkscape:window-maximized="1"
     inkscape:current-layer="svg3932" />
  <path
     style="fill:#ff6600;fill-opacity:1;display:inline"
     d="M 12.1375,2e-5 C 5.43508,2e-5 0,5.43509 0,12.13752 L 0,87.8625 c 0,6.70244 5.43508,12.13752 12.1375,12.13752 l 75.725,0 C 94.56494,100.00002 100,94.56494 100,87.8625 l 0,-75.72498 C 100,5.43509 94.56518,2e-5 87.8625,2e-5 l -75.725,0 z"
     id="path2989"
     inkscape:connector-curvature="0" />
  <g
     id="g3001"
     transform="matrix(0.2,0,0,0.19999998,2.7118644,-4.40676)">
    <path
       inkscape:connector-curvature="0"
       id="path2987"
       d="m 130.62834,97.040167 c 17.72297,-0.06399 34.84998,0.360027 45.54083,1.380085 54.6485,5.214718 94.336,15.706278 131.91056,34.868128 35.49212,18.10001 57.55908,39.68773 73.61246,72.01762 21.67269,43.64715 30.95809,100.17465 29.62306,180.50874 -0.6208,37.36215 -2.03738,57.46548 -4.22362,60.04754 -0.85296,1.00772 -4.90703,1.29469 -15.42934,1.1266 -29.7017,-0.47398 -39.28214,-0.93426 -40.34032,-1.97154 -0.66632,-0.65315 -1.00219,-7.60254 -0.80451,-17.82833 0.17828,-9.21285 -0.18002,-27.29101 -0.83319,-40.19134 C 345.10244,296.51393 327.09995,238.28079 294.51803,208.40414 259.59688,176.38224 185.31794,156.75329 90.259245,154.46837 77.099062,154.15194 65.228852,153.6652 63.882887,153.3981 l -2.442209,-0.45063 0,-25.60188 0,-25.63005 2.528452,-0.92944 c 5.911707,-2.203203 37.12099,-3.639831 66.65921,-3.745933 z"
       style="fill:#ffffff;display:inline" />
    <path
       inkscape:connector-curvature="0"
       id="path2985"
       d="m 104.21338,218.27561 c 26.43127,0.0205 57.38361,3.56621 77.71472,8.88672 34.65633,9.06942 62.90945,25.37824 77.79845,44.92578 13.08141,17.17452 21.62827,41.52347 27.28104,77.6289 3.51965,22.48169 3.10109,91.43073 -0.58583,95.78517 -1.06929,1.26297 -6.42999,1.54507 -32.58105,1.53125 -17.20636,-0.009 -31.91827,-0.44844 -32.69262,-0.92969 -1.16578,-0.72432 -1.05438,-3.14606 0.47425,-14.19145 2.4934,-18.01677 2.52,-53.6214 0.0554,-68.41406 -2.08036,-12.48836 -6.77739,-27.10601 -11.52056,-35.90231 -2.02289,-3.75114 -6.86862,-9.73602 -11.88316,-14.68359 -11.71963,-11.56327 -22.79084,-16.8977 -46.19367,-22.36719 -8.87097,-2.07323 -12.50192,-2.29688 -39.33157,-2.29688 -21.51518,-0.002 -32.168913,0.38929 -39.136258,1.53125 -5.2659,0.86322 -10.136454,1.40038 -10.823155,1.17579 -1.85221,-0.60507 -1.770266,-67.86825 0.0839,-69.34375 1.71171,-1.3622 26.308791,-3.34767 41.339993,-3.33594 z"
       style="fill:#ffffff;display:inline" />
    <path
       inkscape:connector-curvature="0"
       id="path7"
       d="m 120.66356,330.46207 c 15.9285,-0.12583 28.90493,5.41698 41.01563,17.47266 11.74836,11.69504 17.23313,24.6817 17.28125,40.85152 0.0411,13.72105 -3.78437,24.59792 -12.74219,36.12114 -8.14616,10.479 -18.15293,16.9442 -31.44532,20.34375 -11.97096,3.06171 -26.79495,2.12301 -37.542921,-2.37895 -15.14126,-6.34226 -28.442572,-20.867 -33.38676,-36.47656 -3.451,-10.89603 -3.150525,-27.32109 0.683638,-37.26949 8.917825,-23.13877 28.260137,-37.22712 52.910113,-38.5547 1.08876,-0.0594 2.16475,-0.0988 3.22656,-0.10937 z"
       style="fill:#ffffff;display:inline" />
  </g>
  <path
     style="fill:#000000;fill-opacity:0.78431373;display:inline"
     d="M 12.1375,2e-5 C 5.435084,2e-5 -2.0000166e-5,5.43511 0,12.13752 l 0,75.725 c 0,6.7024 5.435084,12.13752 12.1375,12.1375 l 75.725,0 c 6.70244,0 12.13748,-5.4351 12.1375,-12.1375 l 0,-75.725 C 100,5.43511 94.56516,2e-5 87.8625,2e-5 l -75.725,0 z m 6.05625,8.00001 63.60625,0 c 5.630236,0 10.2,4.56371 10.2,10.19374 l 0,63.60625 c -1.6e-5,5.63002 -4.56995,10.2 -10.2,10.2 l -63.60625,0 C 12.56372,92.00003 8,87.43004 8,81.80002 L 8,18.19377 C 7.999984,12.56374 12.56372,8.00003 18.19375,8.00003 z"
     id="path7-8-6-9"
     inkscape:connector-curvature="0" />
  <path
     inkscape:connector-curvature="0"
     style="fill:url(#linearGradient3033);fill-opacity:1;display:inline"
     d="M 8.66964,0 C 3.8822,0 0,5.435 0,12.1375 l 0,75.725 C 0,94.5649 3.8822,100 8.66964,100 l 82.66072,0 C 96.11781,100 100,94.5649 100,87.8625 l 0,-75.725 C 100,5.435 96.11798,0 91.33036,0 z"
     id="path3028-2-9-8"
     sodipodi:nodetypes="sssssssss" />
</svg>
