<svg xmlns="http://www.w3.org/2000/svg" viewBox="0 0 100 100"><defs><linearGradient y2="61.753" x2="48.72" y1="85.34" x1="84.48" gradientUnits="userSpaceOnUse" id="0"><stop stop-opacity=".374"/><stop offset="1" stop-opacity="0"/></linearGradient></defs><path d="m87.86.004h-75.73c-6.702 0-12.135 5.434-12.135 12.135v75.73c0 6.702 5.434 12.135 12.135 12.135h75.73c6.702 0 12.135-5.433 12.135-12.135v-75.73c0-6.702-5.433-12.135-12.135-12.135" fill="#fff"/><path d="m12.14.007c-6.702 0-12.137 5.435-12.137 12.137v75.72c0 6.702 5.435 12.137 12.137 12.137h75.72c6.702 0 12.136-5.435 12.136-12.137v-75.72c0-6.702-5.435-12.136-12.136-12.136h-75.72" fill="#f60"/><path d="m49.73 12.672c-10.283.321-12.354 25.85-12.354 25.85 0 0-25.771.672-27.29 8.926-1.52 8.258 17.602 14.36 17.602 14.36 0 0-6.076 20.527.704 24.4 6.779 3.873 14.87-5.541 22.636-12.935 6.651 7.876 22.448 19.287 28.28 11.417 5.828-7.87-8.556-23.717-8.556-23.717 0 0 20.403-4.124 19.2-13.903-1.868-8.604-24.393-8.336-24.393-8.336-5.02-11.38-5.537-26.387-15.818-26.06m.736 12.562c7.02-.109 3.396 16.977 9.112 20.844 5.714 3.872 18.17-1.338 21.327 1.866 2.575 8.171-14.87 3.753-17.513 9.2-3.477 7.159 11.06 16.845 5.691 19.668-5.371 2.82-11.957-14.656-18.492-14.703-6.533-.046-12.52 19.15-17.29 15.513-4.766-3.638 8.49-16.355 6.34-19.886-2.151-3.526-18.434-1.836-18.284-7.858.148-6.02 18.467.614 22.487-4.088 4.01-4.703-.405-20.461 6.621-20.568" fill="#fff"/><path d="m12.135.002c-6.702 0-12.137 5.435-12.137 12.137v75.73c0 6.702 5.435 12.137 12.137 12.136h75.73c6.702 0 12.136-5.435 12.136-12.136v-75.73c0-6.702-5.435-12.137-12.136-12.137z" fill="url(#0)"/></svg>