<?xml version="1.0" encoding="UTF-8" standalone="no"?>
<!-- Created with Inkscape (http://www.inkscape.org/) -->

<svg
   xmlns:dc="http://purl.org/dc/elements/1.1/"
   xmlns:cc="http://creativecommons.org/ns#"
   xmlns:rdf="http://www.w3.org/1999/02/22-rdf-syntax-ns#"
   xmlns:svg="http://www.w3.org/2000/svg"
   xmlns="http://www.w3.org/2000/svg"
   xmlns:sodipodi="http://sodipodi.sourceforge.net/DTD/sodipodi-0.dtd"
   xmlns:inkscape="http://www.inkscape.org/namespaces/inkscape"
   width="500"
   height="500"
   id="svg3932"
   version="1.1"
   inkscape:version="0.48.4 r9939"
   sodipodi:docname="Shaarli.svg">
  <g
     transform="translate(0,-552.36218)">
    <path
       d="m 439.32025,552.36227 -378.6407,0 c -33.5121,0 -60.6795,27.1675 -60.6795,60.6796 l 0,378.64052 c 0,33.51221 27.1675,60.67971 60.6795,60.67971 l 378.6407,0 c 33.5122,0 60.6797,-27.1675 60.6797,-60.67971 l 0,-378.64052 c 0,-33.5121 -27.1662,-60.6796 -60.6797,-60.6796 z"
       style="fill:#ffffff;fill-opacity:1;display:inline" />
    <path
       style="fill:#1a1a1a;display:inline"
       d="m 60.68752,552.36215 c -33.5121,0 -60.6875,27.17537 -60.6875,60.6875 l 0,378.62496 c 0,33.51219 27.1754,60.68759 60.6875,60.68759 l 378.625,0 c 33.5121,0 60.68746,-27.1754 60.68746,-60.68759 l 0,-378.62496 c 0,-33.51213 -27.17416,-60.6875 -60.68746,-60.6875 l -378.625,0 z m 200.7812,69.8125 c 6.1204,-0.14357 10.7031,1.25983 18.875,4.875 9.5247,4.21274 17.923,11.23137 23.25,19.28125 8.5142,12.86602 21.5313,56.95419 21.5313,72.96875 0,11.86836 4.724,14.95696 26.8437,17.43746 20.0223,2.2456 55.955,14.0505 69.375,22.8438 18.2229,11.9404 27.6217,41.1479 20.4063,63.25 -3.0914,9.4697 -7.301,13.8993 -18.5938,19.5937 -8.0116,4.0405 -19.7405,7.3166 -26.0937,7.3438 -21.0791,0.091 -22.3405,4.1716 -6.8438,21.75 33.4941,37.9942 38.5513,76.4474 13.25,100.6875 -7.6574,7.3365 -13.1495,9.4072 -26.8125,10.1875 -9.4664,0.5405 -21.0374,-0.2326 -25.625,-1.7188 -16.0179,-5.1922 -51.1669,-29.8245 -68.0312,-47.6562 -9.3486,-9.8847 -19.0696,-17.9375 -21.625,-17.9375 -2.5553,0 -7.8349,6.2437 -11.6563,13.875 -16.0982,32.1496 -40.7964,48.3862 -76.4062,50.375 -19.3907,1.0823 -24.7738,0.1518 -35.5938,-6.2188 -27.6909,-16.2986 -31.8106,-35.1316 -16.8437,-76.4062 11.3287,-31.2424 11.0216,-32.9415 -5.5,-37.125 -34.9544,-8.8498 -51.582,-21.9069 -57.9688,-45.625 -3.836,-14.2465 -0.5132,-34.6569 7.6563,-47.125 10.0811,-15.3858 48.6875,-28.0625 85.4062,-28.0625 22.5562,0 37.1989,-5.3362 38.9688,-14.1875 0.7713,-3.86093 2.2337,-16.42016 3.25,-27.93751 2.2749,-25.78604 14.0536,-52.4744 27.3437,-61.9375 5.4952,-3.91323 17.9136,-8.6372 27.6563,-10.59375 5.8223,-1.16917 10.109,-1.85158 13.7812,-1.9375 z m -8.1562,52.9375 c -16.8493,0 -22.8682,13.75189 -22.875,52.53126 0,16.3414 -1.6091,34.303 -3.5625,39.9062 -4.1628,11.9415 -6.0166,12.4041 -63.0625,15.2813 -21.3854,1.079 -41.5047,3.2965 -44.6875,5 -8.7,4.6562 -10.9738,15.7101 -4.6875,22.6562 4.4685,4.9379 11.7749,6.1758 42.6562,7.1563 24.5695,0.78 38.5387,2.5387 41.3125,5.3125 3.4238,3.4238 0.4582,11.5749 -16.2187,44.0625 -11.2523,21.9205 -20.4501,42.8502 -20.4063,46.5312 0.2187,18.3071 20.0489,19.594 36.8438,2.3438 6.5556,-6.7333 18.9653,-24.5971 27.625,-39.6875 8.6598,-15.0907 18.2898,-28.9797 21.3437,-30.9063 4.6626,-2.9405 12.0019,2.8881 45.9063,36.4063 22.2075,21.9547 43.0233,39.9062 46.3125,39.9062 8.1394,0 17.9687,-9.4354 17.9687,-17.25 0,-3.745 -15.0376,-21.7711 -36.2187,-43.4687 -19.9149,-20.4007 -35.6275,-38.8358 -34.9063,-41 0.9286,-2.7848 13.6559,-4.0314 43.6563,-4.1875 34.8264,-0.1795 44.0855,-1.2751 51.3437,-6.0313 10.2627,-6.725 11.1313,-12.2921 3.0625,-19.5937 -8.5768,-7.7623 -31.3939,-11.9414 -65.5,-12.0313 -43.7976,-0.114 -43.0559,0.6309 -43.0625,-43.4687 0,-46.17112 -5.1098,-59.46876 -22.8437,-59.46876 z" />
  </g>
</svg>
