<?xml version="1.0" encoding="UTF-8" standalone="no"?>
<!-- Created with Inkscape (http://www.inkscape.org/) -->

<svg
   xmlns:dc="http://purl.org/dc/elements/1.1/"
   xmlns:cc="http://creativecommons.org/ns#"
   xmlns:rdf="http://www.w3.org/1999/02/22-rdf-syntax-ns#"
   xmlns:svg="http://www.w3.org/2000/svg"
   xmlns="http://www.w3.org/2000/svg"
   xmlns:xlink="http://www.w3.org/1999/xlink"
   xmlns:sodipodi="http://sodipodi.sourceforge.net/DTD/sodipodi-0.dtd"
   xmlns:inkscape="http://www.inkscape.org/namespaces/inkscape"
   width="500"
   height="500"
   id="svg3932"
   version="1.1"
   inkscape:version="0.48.4 r9939"
   sodipodi:docname="Shaarli.svg">
  <metadata
     id="metadata13">
    <rdf:RDF>
      <cc:Work
         rdf:about="">
        <dc:format>image/svg+xml</dc:format>
        <dc:type
           rdf:resource="http://purl.org/dc/dcmitype/StillImage" />
      </cc:Work>
    </rdf:RDF>
  </metadata>
  <defs
     id="defs11">
    <inkscape:perspective
       id="perspective3028"
       inkscape:persp3d-origin="0.5 : 0.33333333 : 1"
       inkscape:vp_z="1 : 0.5 : 1"
       inkscape:vp_y="0 : 1000 : 0"
       inkscape:vp_x="0 : 0.5 : 1"
       sodipodi:type="inkscape:persp3d" />
    <radialGradient
       gradientUnits="userSpaceOnUse"
       gradientTransform="matrix(0.98646567,0.01691792,-0.01591788,0.92815478,6.1833136,11.893434)"
       r="113.34596"
       fy="114.60418"
       fx="123.71859"
       cy="114.60418"
       cx="123.71859"
       id="radialGradient3764"
       xlink:href="#linearGradient3754"
       inkscape:collect="always" />
    <inkscape:perspective
       id="perspective3028-5"
       inkscape:persp3d-origin="0.5 : 0.33333333 : 1"
       inkscape:vp_z="1 : 0.5 : 1"
       inkscape:vp_y="0 : 1000 : 0"
       inkscape:vp_x="0 : 0.5 : 1"
       sodipodi:type="inkscape:persp3d" />
    <linearGradient
       id="linearGradient3754">
      <stop
         id="stop3756"
         offset="0"
         style="stop-color:#54ff2e;stop-opacity:1;" />
      <stop
         id="stop3758"
         offset="1"
         style="stop-color:#d4ff11;stop-opacity:1;" />
    </linearGradient>
  </defs>
  <sodipodi:namedview
     pagecolor="#ffffff"
     bordercolor="#666666"
     borderopacity="1"
     objecttolerance="10"
     gridtolerance="10"
     guidetolerance="10"
     inkscape:pageopacity="0"
     inkscape:pageshadow="2"
     inkscape:window-width="1920"
     inkscape:window-height="1145"
     id="namedview9"
     showgrid="false"
     inkscape:zoom="1.3350176"
     inkscape:cx="390.18541"
     inkscape:cy="259.22383"
     inkscape:window-x="-2"
     inkscape:window-y="-3"
     inkscape:window-maximized="1"
     inkscape:current-layer="svg3932" />
  <path
     inkscape:connector-curvature="0"
     id="path5"
     style="fill:#ffffff;fill-opacity:1;display:inline"
     d="m 439.32025,9e-5 -378.6407,0 C 27.16745,9e-5 5e-5,27.16759 5e-5,60.67969 l 0,378.64052 c 0,33.51221 27.1675,60.67971 60.6795,60.67971 l 378.6407,0 c 33.5122,0 60.6797,-27.1675 60.6797,-60.67971 l 0,-378.64052 c 0,-33.5121 -27.1662,-60.6796 -60.6797,-60.6796 z" />
  <path
     style="fill:#303030;display:inline;fill-opacity:1"
     d="M 60.68752,-3e-5 C 27.17542,-3e-5 2e-5,27.17534 2e-5,60.68747 l 0,378.62496 c 0,33.51219 27.1754,60.68759 60.6875,60.68759 l 378.625,0 c 33.5121,0 60.68746,-27.1754 60.68746,-60.68759 l 0,-378.62496 c 0,-33.51213 -27.17416,-60.6875 -60.68746,-60.6875 l -378.625,0 z"
     id="path3007" />
  <path
     style="fill:#8ceb00;fill-opacity:1;fill-rule:nonzero;stroke:none"
     d="m 248.8371,86.67021 c -44.98851,1.40676 -54.0553,113.08701 -54.0553,113.08701 0,0 -112.757344,2.94211 -119.405576,39.07438 -6.64825,36.1323 77.016146,62.82464 77.016146,62.82464 0,0 -26.58345,89.80948 3.0789,106.75459 29.66234,16.94512 65.06629,-24.24641 99.03826,-56.60789 29.10129,34.45941 98.21479,84.38453 123.71036,49.95542 25.49555,-34.42911 -37.43385,-103.76944 -37.43385,-103.76944 0,0 89.26261,-18.04656 83.98918,-60.81477 C 416.60159,199.52978 318.05127,200.70628 318.05127,200.70628 296.07539,150.91449 293.82562,85.26343 248.8371,86.67021 z m 3.22153,54.95951 c 30.73562,-0.47375 14.85549,74.27936 39.86331,91.21749 25.00781,16.93814 79.47474,-5.85368 93.31104,8.16338 11.2657,35.74757 -65.03893,16.4201 -76.62428,40.27245 -15.21201,31.31905 48.39799,73.70963 24.90027,86.04843 -23.4977,12.33882 -52.32437,-64.12721 -80.90651,-64.33 -28.58213,-0.20279 -54.77902,83.7876 -75.63528,67.87283 -20.85627,-15.91476 37.14695,-71.55926 27.73801,-86.9845 -9.40893,-15.42527 -80.6479,-8.03045 -79.99714,-34.38153 0.65074,-26.35112 80.81697,2.68683 98.38254,-17.88645 17.56555,-20.57327 -1.76757,-89.51834 28.96804,-89.9921 z"
     id="path7-4"
     inkscape:connector-curvature="0"
     inkscape:transform-center-x="85.418715"
     inkscape:transform-center-y="60.154027"
     sodipodi:nodetypes="zczczczccczzscszzzszzz" />
  <path
     style="fill:#000000;fill-opacity:0.78431373;display:inline"
     d="M 60.6875,0 C 27.17542,0 -9.9999862e-5,27.1754 0,60.687503 L 0,439.3125 C 0,472.82453 27.17542,500.0001 60.6875,500 l 378.625,0 C 472.8247,500 499.9999,472.82453 500,439.3125 L 500,60.687503 C 500,27.1754 472.8258,0 439.3125,0 L 60.6875,0 z M 90.96875,40 409,40 c 28.15118,0 51,22.818592 51,50.968753 L 460,409 c -8e-5,28.15011 -22.84975,51 -51,51 L 90.96875,460 C 62.8186,460.00008 40,437.15011 40,409 L 40,90.968753 C 39.99992,62.818592 62.8186,40 90.96875,40 z"
     id="path7-8-6-9"
     inkscape:connector-curvature="0" />
</svg>
