<svg xmlns="http://www.w3.org/2000/svg" viewBox="0 0 100 100"><defs><linearGradient y2="61.754" x2="48.725" y1="85.34" x1="84.49" gradientUnits="userSpaceOnUse" id="0"><stop stop-opacity=".374"/><stop offset="1" stop-opacity="0"/></linearGradient></defs><path d="m87.86 0h-75.73c-6.702 0-12.136 5.434-12.136 12.136v75.73c0 6.702 5.434 12.136 12.136 12.136h75.73c6.702 0 12.136-5.433 12.136-12.136v-75.73c0-6.702-5.433-12.136-12.136-12.136" fill="#fff"/><path d="m12.138 0c-6.702 0-12.138 5.435-12.138 12.138v75.72c0 6.702 5.435 12.138 12.138 12.138h75.72c6.702 0 12.137-5.435 12.137-12.138v-75.72c0-6.702-5.435-12.137-12.137-12.137h-75.72" fill="#f60"/><path d="m49.73 12.193c-10.414.325-12.512 26.18-12.512 26.18 0 0-26.1.681-27.639 9.04-1.539 8.363 17.827 14.543 17.827 14.543 0 0-6.154 20.789.713 24.711 6.866 3.922 15.06-5.612 22.925-13.1 6.736 7.977 22.735 19.533 28.636 11.563 5.902-7.97-8.665-24.02-8.665-24.02 0 0 20.663-4.177 19.442-14.08-1.892-8.714-24.704-8.442-24.704-8.442-5.087-11.525-5.608-26.724-16.02-26.396m.745 12.722c7.114-.11 3.439 17.194 9.228 21.11 5.787 3.921 18.397-1.355 21.599 1.89 2.608 8.275-15.06 3.801-17.737 9.317-3.521 7.25 11.203 17.06 5.764 19.919-5.44 2.856-12.11-14.843-18.728-14.891-6.616-.047-12.68 19.395-17.511 15.711-4.827-3.684 8.598-16.564 6.421-20.14-2.178-3.571-18.669-1.859-18.517-7.958.15-6.099 18.703.622 22.774-4.14 4.066-4.763-.41-20.722 6.706-20.831" fill="#fff"/><path d="m12.138 0c-6.702 0-12.138 5.435-12.138 12.138v75.73c0 6.702 5.435 12.138 12.138 12.137h75.73c6.702 0 12.137-5.435 12.137-12.137v-75.73c0-6.702-5.435-12.138-12.137-12.138z" fill="url(#0)"/></svg>