<svg xmlns="http://www.w3.org/2000/svg" viewBox="0 0 100 100"><defs><linearGradient y2="61.754" x2="48.725" y1="85.34" x1="84.49" gradientUnits="userSpaceOnUse" id="0"><stop stop-opacity=".374"/><stop offset="1" stop-opacity="0"/></linearGradient></defs><path d="m87.86 0h-75.73c-6.702 0-12.136 5.434-12.136 12.136v75.73c0 6.702 5.434 12.136 12.136 12.136h75.73c6.702 0 12.136-5.433 12.136-12.136v-75.73c0-6.702-5.433-12.136-12.136-12.136" fill="#fff"/><path d="m12.138 0c-6.702 0-12.138 5.435-12.138 12.138v75.72c0 6.702 5.435 12.138 12.138 12.138h75.72c6.702 0 12.137-5.435 12.137-12.138v-75.72c0-6.702-5.435-12.137-12.137-12.137h-75.72" fill="#f60"/><path d="m49.767 17.334c-8.998.281-10.811 22.617-10.811 22.617 0 0-22.551.588-23.881 7.815-1.33 7.226 15.403 12.565 15.403 12.565 0 0-5.317 17.962.616 21.351 5.932 3.389 13.01-4.849 19.808-11.322 5.82 6.892 19.643 16.877 24.742 9.991 5.099-6.886-7.487-20.754-7.487-20.754 0 0 17.853-3.609 16.798-12.163-1.635-7.529-21.345-7.294-21.345-7.294-4.395-9.958-4.845-23.09-13.843-22.807m.644 10.992c6.147-.095 2.971 14.856 7.973 18.243 5 3.388 15.895-1.171 18.662 1.633 2.253 7.15-13.01 3.284-15.325 8.05-3.042 6.264 9.68 14.742 4.98 17.21-4.7 2.468-10.465-12.825-16.181-12.866-5.716-.041-10.956 16.758-15.13 13.575-4.171-3.183 7.429-14.312 5.548-17.397-1.882-3.085-16.13-1.606-15.999-6.876.13-5.27 16.16.537 19.677-3.577 3.513-4.115-.354-17.904 5.794-17.998" fill="#fff"/><path d="m12.138 0c-6.702 0-12.138 5.435-12.138 12.138v75.72c0 6.702 5.435 12.138 12.138 12.138h75.72c6.702 0 12.137-5.435 12.138-12.138v-75.72c0-6.702-5.435-12.137-12.138-12.137h-75.72m6.06 8h63.61c5.63 0 10.2 4.564 10.2 10.194v63.61c0 5.63-4.57 10.2-10.2 10.2h-63.61c-5.63 0-10.194-4.57-10.194-10.2v-63.61c0-5.63 4.564-10.194 10.194-10.194" fill-opacity=".784"/><path d="m12.138 0c-6.702 0-12.138 5.435-12.138 12.138v75.73c0 6.702 5.435 12.138 12.138 12.137h75.73c6.702 0 12.137-5.435 12.137-12.137v-75.73c0-6.702-5.435-12.138-12.137-12.138z" fill="url(#0)"/></svg>