<?xml version="1.0" encoding="UTF-8" standalone="no"?>
<!-- Created with Inkscape (http://www.inkscape.org/) -->

<svg
   xmlns:dc="http://purl.org/dc/elements/1.1/"
   xmlns:cc="http://creativecommons.org/ns#"
   xmlns:rdf="http://www.w3.org/1999/02/22-rdf-syntax-ns#"
   xmlns:svg="http://www.w3.org/2000/svg"
   xmlns="http://www.w3.org/2000/svg"
   xmlns:xlink="http://www.w3.org/1999/xlink"
   xmlns:sodipodi="http://sodipodi.sourceforge.net/DTD/sodipodi-0.dtd"
   xmlns:inkscape="http://www.inkscape.org/namespaces/inkscape"
   width="100"
   height="100"
   id="svg3932"
   version="1.1"
   inkscape:version="0.48.4 r9939"
   sodipodi:docname="Shaarli.svg">
  <metadata
     id="metadata13">
    <rdf:RDF>
      <cc:Work
         rdf:about="">
        <dc:format>image/svg+xml</dc:format>
        <dc:type
           rdf:resource="http://purl.org/dc/dcmitype/StillImage" />
      </cc:Work>
    </rdf:RDF>
  </metadata>
  <defs
     id="defs11">
    <inkscape:perspective
       id="perspective3028"
       inkscape:persp3d-origin="0.5 : 0.33333333 : 1"
       inkscape:vp_z="1 : 0.5 : 1"
       inkscape:vp_y="0 : 1000 : 0"
       inkscape:vp_x="0 : 0.5 : 1"
       sodipodi:type="inkscape:persp3d" />
    <radialGradient
       gradientUnits="userSpaceOnUse"
       gradientTransform="matrix(0.98646567,0.01691792,-0.01591788,0.92815478,6.1833136,11.893434)"
       r="113.34596"
       fy="114.60418"
       fx="123.71859"
       cy="114.60418"
       cx="123.71859"
       id="radialGradient3764"
       xlink:href="#linearGradient3754"
       inkscape:collect="always" />
    <inkscape:perspective
       id="perspective3028-5"
       inkscape:persp3d-origin="0.5 : 0.33333333 : 1"
       inkscape:vp_z="1 : 0.5 : 1"
       inkscape:vp_y="0 : 1000 : 0"
       inkscape:vp_x="0 : 0.5 : 1"
       sodipodi:type="inkscape:persp3d" />
    <linearGradient
       id="linearGradient3754">
      <stop
         id="stop3756"
         offset="0"
         style="stop-color:#54ff2e;stop-opacity:1;" />
      <stop
         id="stop3758"
         offset="1"
         style="stop-color:#d4ff11;stop-opacity:1;" />
    </linearGradient>
  </defs>
  <sodipodi:namedview
     pagecolor="#ffffff"
     bordercolor="#666666"
     borderopacity="1"
     objecttolerance="10"
     gridtolerance="10"
     guidetolerance="10"
     inkscape:pageopacity="0"
     inkscape:pageshadow="2"
     inkscape:window-width="1920"
     inkscape:window-height="1145"
     id="namedview9"
     showgrid="false"
     inkscape:zoom="1.3350176"
     inkscape:cx="390.18541"
     inkscape:cy="259.22383"
     inkscape:window-x="-2"
     inkscape:window-y="-3"
     inkscape:window-maximized="1"
     inkscape:current-layer="svg3932" />
  <path
     inkscape:connector-curvature="0"
     id="path5"
     style="fill:#ffffff;fill-opacity:1;display:inline"
     d="m 87.86405,4e-5 -75.72814,0 C 5.43349,4e-5 9.9997792e-6,5.43354 9.9997792e-6,12.13596 l 0,75.7281 C 9.9997792e-6,94.5665 5.43351,100 12.13591,100 l 75.72814,0 c 6.70244,0 12.13594,-5.4335 12.13594,-12.13594 l 0,-75.7281 C 99.99999,5.43354 94.56675,4e-5 87.86405,4e-5 z" />
  <path
     style="fill:#ff6600;fill-opacity:1;display:inline"
     d="M 12.137504,2e-5 C 5.435084,2e-5 3.9997792e-6,5.43509 3.9997792e-6,12.13752 l 0,75.72498 c 0,6.70244 5.4350800002208,12.13752 12.1375000002208,12.13752 l 75.725,0 c 6.70242,0 12.137492,-5.43508 12.137492,-12.13752 l 0,-75.72498 C 99.999996,5.43509 94.565164,2e-5 87.862504,2e-5 l -75.725,0 z"
     id="path3007"
     inkscape:connector-curvature="0" />
  <path
     style="fill:#ffffff;fill-opacity:1;fill-rule:nonzero;stroke:none"
     d="m 49.76742,17.33407 c -8.997702,0.28135 -10.81106,22.6174 -10.81106,22.6174 0,0 -22.551469,0.58842 -23.881115,7.81487 -1.32965,7.22646 15.403229,12.56493 15.403229,12.56493 0,0 -5.31669,17.96189 0.61578,21.35091 5.932468,3.38903 13.013258,-4.84928 19.807652,-11.32157 5.820258,6.89188 19.642958,16.8769 24.742072,9.99108 5.09911,-6.88582 -7.48677,-20.75389 -7.48677,-20.75389 0,0 17.852522,-3.60931 16.797836,-12.16295 C 83.320318,39.90598 63.610254,40.14128 63.610254,40.14128 59.215078,30.18292 58.765124,17.05271 49.76742,17.33407 z m 0.644306,10.9919 c 6.147124,-0.0947 2.971098,14.85587 7.972662,18.24349 5.001562,3.38763 15.894948,-1.17073 18.662208,1.63268 2.25314,7.14951 -13.007786,3.28402 -15.324856,8.05449 -3.042402,6.26381 9.679598,14.74192 4.980054,17.20968 -4.69954,2.46777 -10.464874,-12.82544 -16.181302,-12.866 -5.716426,-0.0405 -10.955804,16.75752 -15.127056,13.57457 -4.171254,-3.18295 7.42939,-14.31185 5.547602,-17.3969 -1.881786,-3.08505 -16.12958,-1.60609 -15.999428,-6.8763 0.130148,-5.27023 16.163394,0.53736 19.676508,-3.57729 3.51311,-4.11466 -0.353514,-17.90367 5.793608,-17.99842 z"
     id="path7-4"
     inkscape:connector-curvature="0"
     inkscape:transform-center-x="17.083743"
     inkscape:transform-center-y="12.030806"
     sodipodi:nodetypes="zczczczccczzscszzzszzz" />
  <path
     style="fill:#000000;fill-opacity:0.78431373;display:inline"
     d="M 12.1375,3e-5 C 5.435084,3e-5 -2.0000193e-5,5.43511 0,12.13753 l 0,75.72499 c 0,6.7024 5.435084,12.13752 12.1375,12.1375 l 75.725,0 c 6.70244,0 12.13748,-5.4351 12.1375,-12.1375 l 0,-75.72499 C 100,5.43511 94.56516,3e-5 87.8625,3e-5 l -75.725,0 z m 6.05625,8 63.60625,0 c 5.630236,0 10.2,4.56371 10.2,10.19374 l 0,63.60625 c -1.6e-5,5.63002 -4.56995,10.2 -10.2,10.2 l -63.60625,0 C 12.56372,92.00003 8,87.43004 8,81.80002 L 8,18.19377 C 7.999984,12.56374 12.56372,8.00003 18.19375,8.00003 z"
     id="path7-8-6-9"
     inkscape:connector-curvature="0" />
</svg>
