<?xml version="1.0" encoding="UTF-8" standalone="no"?>
<svg
   xmlns:dc="http://purl.org/dc/elements/1.1/"
   xmlns:cc="http://creativecommons.org/ns#"
   xmlns:rdf="http://www.w3.org/1999/02/22-rdf-syntax-ns#"
   xmlns:svg="http://www.w3.org/2000/svg"
   xmlns="http://www.w3.org/2000/svg"
   xmlns:xlink="http://www.w3.org/1999/xlink"
   xmlns:sodipodi="http://sodipodi.sourceforge.net/DTD/sodipodi-0.dtd"
   xmlns:inkscape="http://www.inkscape.org/namespaces/inkscape"
   viewBox="0 0 100 100"
   id="svg2"
   version="1.1"
   inkscape:version="0.48.4 r9939"
   width="100%"
   height="100%"
   sodipodi:docname="SlideShare.svg">
  <metadata
     id="metadata100">
    <rdf:RDF>
      <cc:Work
         rdf:about="">
        <dc:format>image/svg+xml</dc:format>
        <dc:type
           rdf:resource="http://purl.org/dc/dcmitype/StillImage" />
      </cc:Work>
    </rdf:RDF>
  </metadata>
  <sodipodi:namedview
     pagecolor="#ffffff"
     bordercolor="#666666"
     borderopacity="1"
     objecttolerance="10"
     gridtolerance="10"
     guidetolerance="10"
     inkscape:pageopacity="0"
     inkscape:pageshadow="2"
     inkscape:window-width="640"
     inkscape:window-height="480"
     id="namedview98"
     showgrid="false"
     inkscape:zoom="2.36"
     inkscape:cx="50"
     inkscape:cy="50"
     inkscape:window-x="0"
     inkscape:window-y="0"
     inkscape:window-maximized="0"
     inkscape:current-layer="svg2" />
  <defs
     id="defs4">
    <clipPath
       id="clipPath6">
      <path
         d="m1652.97 3546.04c-4.93 0-10.19-.26-15.71-.77-171.11-17.31-194.04-168.77-181.85-238.9 0 0 39.71 185.59 183.25 185.59 88.82 0 86.33 54.08 14.36 54.08-.02 0-.03 0-.05 0"
         id="path8" />
    </clipPath>
    <clipPath
       id="clipPath10">
      <path
         d="m0 5952.76h8418.9v-5952.76h-8418.9v5952.76"
         id="path12" />
    </clipPath>
    <clipPath
       id="clipPath14">
      <path
         d="m1429.69 3357.78c0-114.05 98.64-206.14 220.18-206.14 121.57 0 220.2 92.09 220.2 206.14 0 113.63-98.63 206.21-220.2 206.21-121.54 0-220.18-92.58-220.18-206.21m207.57 187.49c5.52.51 10.78.77 15.71.77 72.03.03 74.54-54.08-14.31-54.08-143.54 0-183.25-185.59-183.25-185.59-12.19 70.13 10.74 221.59 181.85 238.9"
         id="path16" />
    </clipPath>
    <clipPath
       id="clipPath18">
      <path
         d="m929.9 2870.66c-8.109-21.28-15.238-41.86-21.5-61.9-41.546-156.06-27.519-309.7 38.35-421.05-32.691 45.02-54.35 92.84-67.871 141.54 27.769-177.23 157.89-260.65 274.74-260.65 106.68 0 202.27 69.49 198.94 200.43v-.15c-.06 0-1.79 211.7-2.88 346.26-.5 62.77-.9 108.83-.9 108.83-.24 18.87-31.33 33.77-76.56 42.04-25.46 4.67-55.39 7.26-86.85 7.26-104.77 0-226.39-28.45-255.47-102.61"
         id="path20" />
    </clipPath>
    <clipPath
       id="clipPath22">
      <path
         d="m913.55 3355.46c0-113.15 98.18-204.78 218.79-204.78 120.63 0 218.79 91.63 218.79 204.78 0 113.12-98.16 204.75-218.79 204.75-120.61 0-218.79-91.63-218.79-204.75m204.77 189.81c5.57.51 10.85.77 15.77.77 72.4.03 74.53-54.08-13.9-54.08-143.99 0-183.73-185.59-183.73-185.59-12.16 70.13 10.75 221.59 181.86 238.9"
         id="path24" />
    </clipPath>
    <clipPath
       id="clipPath26">
      <path
         d="m1440.56 2948.37c35.71-20 69.85-30.64 102.43-30.64 46.28 0 89.4 21.52 129.49 68.28-9.73.41-19.47.61-29.18.61-85.9 0-168.88-15.77-202.74-38.25m20.42-205.82c-15.22 0-28.18.82-37.93 1.74-1-127.28-2.21-274.44-2.25-274.44v.16c-3.34-131.57 88.82-202.52 195.05-202.52 19.05 0 38.58 2.33 58.09 6.94 62.65 14.87 125.08 54.04 171.65 119.37 72.26 101.42 106.31 266.03 43.67 501.15-15.47 39.26-60.41 64.01-116.58 77.72-53.21-201.96-221.94-230.12-311.7-230.12"
         id="path28" />
    </clipPath>
    <clipPath
       id="clipPath30">
      <path
         d="m1134.09 3546.04c-4.92 0-10.2-.26-15.77-.77-171.11-17.31-194.02-168.77-181.86-238.9 0 0 39.738 185.59 183.73 185.59 88.4 0 86.29 54.08 13.95 54.08-.02 0-.03 0-.05 0"
         id="path32" />
    </clipPath>
    <clipPath
       id="clipPath34">
      <path
         d="m878.88 2529.25c13.519-48.7 35.18-96.52 67.871-141.54-65.871 111.35-79.898 264.99-38.35 421.05-34.546-110.9-41.38-203.79-29.519-279.51"
         id="path36" />
    </clipPath>
    <clipPath
       id="0">
      <path
         d="m0 1862.52v-1862.52h7424.77v1862.52h-7424.77"
         id="path39" />
    </clipPath>
    <clipPath
       id="clipPath41">
      <path
         d="m1178.69 722.76c-85.91 0-168.89-15.774-202.75-38.25 35.719-20 69.859-30.641 102.43-30.641 46.29 0 89.41 21.52 129.49 68.28-9.72.411-19.47.614-29.17.614m129.37-13.953c-53.21-201.95-221.93-230.12-311.7-230.12-15.215 0-28.17.821-37.922 1.739-1-127.28-2.218-274.43-2.25-274.43 0 0 0 .059 0 .148-3.343-131.56 88.82-202.52 195.05-202.52 19.05 0 38.58 2.332 58.08 6.941 62.65 14.879 125.08 54.04 171.65 119.37 72.27 101.43 106.32 266.04 43.67 501.15-15.47 39.26-60.4 64.01-116.58 77.72"
         id="path43" />
    </clipPath>
    <clipPath
       id="clipPath45">
      <path
         d="m1188.35 1282.19c-4.92 0-10.18-.26-15.7-.78-171.11-17.3-194.04-168.77-181.86-238.89 0 0 39.717 185.59 183.25 185.59 88.85 0 86.35 54.11 14.31 54.08"
         id="path47" />
    </clipPath>
    <clipPath
       id="clipPath49">
      <path
         d="m443.79 544.9c-34.543-110.9-41.39-203.79-29.523-279.51 13.515-48.692 35.19-96.52 67.871-141.54-65.863 111.35-79.891 265-38.35 421.05"
         id="path51" />
    </clipPath>
    <clipPath
       id="clipPath53">
      <path
         d="m720.76 709.41c-104.77 0-226.4-28.449-255.47-102.61-8.109-21.27-15.238-41.86-21.504-61.903-41.543-156.05-27.515-309.7 38.35-421.05-32.684 45.02-54.36 92.85-67.871 141.54 27.773-177.23 157.89-260.64 274.74-260.64 106.68 0 202.28 69.49 198.94 200.43 0-.102 0-.16 0-.16-.058 0-1.785 211.7-2.871 346.26-.508 62.77-.902 108.84-.902 108.84-.246 18.859-31.34 33.77-76.57 42.04-25.457 4.66-55.39 7.25-86.84 7.25"
         id="path55" />
    </clipPath>
    <clipPath
       id="clipPath57">
      <path
         d="m667.72 1296.36c-120.61 0-218.78-91.64-218.78-204.76 0-113.15 98.17-204.77 218.78-204.77 120.64 0 218.8 91.62 218.8 204.77 0 113.12-98.16 204.76-218.8 204.76m-195.88-253.84c-12.152 70.12 10.754 221.59 181.87 238.89 5.574.52 10.844.78 15.766.78 72.4.03 74.53-54.08-13.903-54.08-143.98 0-183.73-185.59-183.73-185.59"
         id="path59" />
    </clipPath>
    <clipPath
       id="clipPath61">
      <path
         d="m669.47 1282.19c-4.922 0-10.192-.26-15.766-.78-171.11-17.3-194.02-168.77-181.87-238.89 0 0 39.746 185.59 183.73 185.59 88.43 0 86.3 54.11 13.903 54.08"
         id="path63" />
    </clipPath>
    <clipPath
       id="clipPath65">
      <path
         d="m1185.26 1300.13c-121.54 0-220.19-92.58-220.19-206.2 0-114.06 98.65-206.15 220.19-206.15 121.57 0 220.2 92.1 220.2 206.15 0 113.62-98.63 206.2-220.2 206.2m-194.47-257.61c-12.184 70.12 10.747 221.59 181.86 238.89 5.52.52 10.78.78 15.7.78 72.04.03 74.54-54.08-14.31-54.08-143.53 0-183.25-185.59-183.25-185.59"
         id="path67" />
    </clipPath>
    <linearGradient
       y2="1014.12"
       x2="48.725"
       y1="1037.7"
       x1="84.49"
       gradientUnits="userSpaceOnUse"
       id="1">
      <stop
         stop-opacity=".374"
         id="stop70" />
      <stop
         offset="1"
         stop-opacity="0"
         id="stop72" />
    </linearGradient>
    <linearGradient
       inkscape:collect="always"
       xlink:href="#1"
       id="linearGradient3078"
       gradientUnits="userSpaceOnUse"
       x1="84.49"
       y1="1037.7"
       x2="48.725"
       y2="1014.12"
       gradientTransform="translate(0,-952.36)" />
  </defs>
  <path
     style="fill:#ffffff"
     inkscape:connector-curvature="0"
     id="path76"
     d="M 12.138,0 C 5.436,0 0,5.435 0,12.138 v 75.73 c 0,6.702 5.435,12.138 12.138,12.138 h 75.72 c 6.702,0 12.138,-5.435 12.138,-12.138 V 12.138 C 99.996,5.436 94.561,0 87.858,0 h -75.72" />
  <path
     style="fill:#cccccc"
     inkscape:connector-curvature="0"
     id="path80"
     d="M 12.13,0 C 5.428,0 0,5.423 0.01,12.13 v 30.469 c 2.724,1.862 5.395,3.399 8,4.656 v -29.06 c 0,-5.63 4.557,-10.188 10.188,-10.188 h 63.63 c 5.63,0 10.188,4.557 10.188,10.188 v 29.06 c 2.605,-1.257 5.276,-2.794 8,-4.656 V 12.13 c 0,-6.702 -5.422,-12.12 -12.12,-12.12 z" />
  <path
     style="fill:#418dd3"
     inkscape:connector-curvature="0"
     id="path82"
     d="m 100,42.02 c -17.536,11.942 -32.983,10.187 -40.938,9.938 -5.644,-0.283 -7.469,2.34 -7.469,6.281 0,0 0.063,30.684 0.063,30.06 -0.199,6.627 3.661,10.6 8.75,11.719 h 6.281 C 77.312,97.914 88.475,85.357 81.312,60.958 89.448,57.618 95.635,53.659 100,49.898 v -7.875" />
  <path
     style="fill:#2f6fb0"
     inkscape:connector-curvature="0"
     id="path84"
     d="m 51.586,71.11 c 0,0 18.18,3.32 22.488,-14.07 C 74.67,53.694 72.997,54.093 71.635,56.049 70.274,58.003 57.654,66.228 51.7,66.598 l -0.114,4.508" />
  <path
     style="fill:#f58614"
     inkscape:connector-curvature="0"
     id="path86"
     d="m 0,41.86 v 7.812 c 4.379,3.831 10.614,7.909 18.906,11.313 -7.16,24.391 4,36.923 14.625,39.03 h 6.313 c 5.078,-1.128 8.918,-5.102 8.719,-11.719 0,0.44 0.046,-12.302 0.063,-21.25 4.934,1.167 7.02,2.215 13.844,0.656 6.551,-1.53 9.764,-6.183 11.125,-9.5 2.27,-5.529 -1.653,-7.07 -4.688,-2.875 -5.9,8.11 -12.903,6.593 -21.16,-1.063 -0.084,-0.079 -0.168,-0.145 -0.25,-0.219 -1.095,-1.466 -3.093,-2.257 -6.344,-2.094 -7.988,0.251 -23.529,2.01 -41.16,-10.09" />
  <g
     id="g88"
     transform="matrix(0.48528,0,0,0.48528,-230.68,-298.47)">
    <path
       style="fill:#f58614"
       inkscape:connector-curvature="0"
       id="path90"
       d="m 574.04,691.49 c 0,14.495 -12.562,26.24 -28.05,26.24 -15.486,0 -28.05,-11.745 -28.05,-26.24 0,-14.492 12.564,-26.24 28.05,-26.24 15.487,0 28.05,11.746 28.05,26.24" />
    <g
       id="g92"
       clip-path="url(#0)"
       transform="matrix(0.125,0,0,-0.125,462.82,828.17)">
      <path
         style="fill:#418dd3"
         inkscape:connector-curvature="0"
         id="path94"
         d="m 963.19,1093.47 c 0,-115.96 100.53,-209.91 224.42,-209.91 123.88,0 224.41,93.96 224.41,209.91 0,115.94 -100.53,209.91 -224.41,209.91 -123.89,0 -224.42,-93.97 -224.42,-209.91" />
    </g>
  </g>
  <path
     inkscape:connector-curvature="0"
     style="fill:url(#linearGradient3078)"
     id="path96"
     d="M 12.138,0 C 5.436,0 0,5.435 0,12.137 v 75.73 c 0,6.702 5.435,12.138 12.138,12.138 h 75.73 c 6.702,0 12.137,-5.435 12.137,-12.138 v -75.73 c 0,-6.702 -5.435,-12.138 -12.137,-12.138 z" />
</svg>
