<?xml version="1.0" encoding="UTF-8" standalone="no"?>
<!-- Created with Inkscape (http://www.inkscape.org/) -->

<svg
   xmlns:dc="http://purl.org/dc/elements/1.1/"
   xmlns:cc="http://creativecommons.org/ns#"
   xmlns:rdf="http://www.w3.org/1999/02/22-rdf-syntax-ns#"
   xmlns:svg="http://www.w3.org/2000/svg"
   xmlns="http://www.w3.org/2000/svg"
   xmlns:xlink="http://www.w3.org/1999/xlink"
   xmlns:sodipodi="http://sodipodi.sourceforge.net/DTD/sodipodi-0.dtd"
   xmlns:inkscape="http://www.inkscape.org/namespaces/inkscape"
   width="100"
   height="100"
   id="svg2"
   version="1.1"
   inkscape:version="0.48.4 r9939"
   sodipodi:docname="SlideShare.svg">
  <defs
     id="defs4">
    <clipPath
       id="clipPath3580"
       clipPathUnits="userSpaceOnUse">
      <path
         id="path3582"
         d="M 443.785,544.898 C 409.242,434 402.398,341.109 414.262,265.391 c 13.515,-48.692 35.187,-96.52 67.871,-141.539 -65.863,111.347 -79.891,265 -38.348,421.046"
         inkscape:connector-curvature="0" />
    </clipPath>
    <clipPath
       id="clipPath3570"
       clipPathUnits="userSpaceOnUse">
      <path
         id="path3572"
         d="M 0,1862.52 0,0 l 7424.77,0 0,1862.52 -7424.77,0 z"
         inkscape:connector-curvature="0" />
    </clipPath>
    <clipPath
       id="clipPath3496"
       clipPathUnits="userSpaceOnUse">
      <path
         id="path3498"
         d="m 720.762,709.41 c -104.77,0 -226.403,-28.449 -255.473,-102.609 -8.109,-21.27 -15.238,-41.86 -21.504,-61.903 C 402.242,388.852 416.27,235.199 482.133,123.852 449.449,168.871 427.777,216.699 414.262,265.391 442.035,88.1602 572.156,4.75 689.004,4.75 c 106.68,0 202.281,69.4883 198.941,200.43 0,-0.102 0,-0.16 0,-0.16 -0.058,0 -1.785,211.699 -2.871,346.261 -0.508,62.77 -0.902,108.84 -0.902,108.84 -0.246,18.859 -31.336,33.77 -76.567,42.039 -25.457,4.66 -55.386,7.25 -86.843,7.25"
         inkscape:connector-curvature="0" />
    </clipPath>
    <clipPath
       id="clipPath3478"
       clipPathUnits="userSpaceOnUse">
      <path
         id="path3480"
         d="M 0,1862.52 0,0 l 7424.77,0 0,1862.52 -7424.77,0 z"
         inkscape:connector-curvature="0" />
    </clipPath>
    <clipPath
       id="clipPath3442"
       clipPathUnits="userSpaceOnUse">
      <path
         id="path3444"
         d="m 1188.35,1282.19 c -4.92,0 -10.18,-0.26 -15.7,-0.78 -171.11,-17.3 -194.041,-168.77 -181.857,-238.89 0,0 39.717,185.59 183.247,185.59 88.85,0 86.35,54.11 14.31,54.08"
         inkscape:connector-curvature="0" />
    </clipPath>
    <clipPath
       id="clipPath3304"
       clipPathUnits="userSpaceOnUse">
      <path
         id="path3306"
         d="m 1185.26,1300.13 c -121.54,0 -220.194,-92.58 -220.194,-206.2 0,-114.055 98.654,-206.153 220.194,-206.153 121.57,0 220.2,92.098 220.2,206.153 0,113.62 -98.63,206.2 -220.2,206.2 M 990.793,1042.52 c -12.184,70.12 10.747,221.59 181.857,238.89 5.52,0.52 10.78,0.78 15.7,0.78 72.04,0.03 74.54,-54.08 -14.31,-54.08 -143.53,0 -183.247,-185.59 -183.247,-185.59"
         inkscape:connector-curvature="0" />
    </clipPath>
    <clipPath
       id="clipPath3294"
       clipPathUnits="userSpaceOnUse">
      <path
         id="path3296"
         d="M 0,1862.52 0,0 l 7424.77,0 0,1862.52 -7424.77,0 z"
         inkscape:connector-curvature="0" />
    </clipPath>
    <clipPath
       id="clipPath3270"
       clipPathUnits="userSpaceOnUse">
      <path
         id="path3272"
         d="m 669.473,1282.19 c -4.922,0 -10.192,-0.26 -15.766,-0.78 -171.113,-17.3 -194.019,-168.77 -181.867,-238.89 0,0 39.746,185.59 183.73,185.59 88.434,0 86.301,54.11 13.903,54.08"
         inkscape:connector-curvature="0" />
    </clipPath>
    <clipPath
       id="clipPath3196"
       clipPathUnits="userSpaceOnUse">
      <path
         id="path3198"
         d="m 667.719,1296.36 c -120.606,0 -218.778,-91.64 -218.778,-204.76 0,-113.147 98.172,-204.768 218.778,-204.768 120.636,0 218.797,91.621 218.797,204.768 0,113.12 -98.161,204.76 -218.797,204.76 M 471.84,1042.52 c -12.152,70.12 10.754,221.59 181.867,238.89 5.574,0.52 10.844,0.78 15.766,0.78 72.398,0.03 74.531,-54.08 -13.903,-54.08 -143.984,0 -183.73,-185.59 -183.73,-185.59"
         inkscape:connector-curvature="0" />
    </clipPath>
    <clipPath
       id="clipPath3186"
       clipPathUnits="userSpaceOnUse">
      <path
         id="path3188"
         d="M 0,1862.52 0,0 l 7424.77,0 0,1862.52 -7424.77,0 z"
         inkscape:connector-curvature="0" />
    </clipPath>
    <clipPath
       id="clipPath3048"
       clipPathUnits="userSpaceOnUse">
      <path
         id="path3050"
         d="m 1178.69,722.762 c -85.91,0 -168.89,-15.774 -202.749,-38.25 35.719,-20 69.859,-30.641 102.429,-30.641 46.29,0 89.41,21.52 129.49,68.277 -9.72,0.411 -19.47,0.614 -29.17,0.614 m 129.37,-13.953 c -53.21,-201.95 -221.93,-230.118 -311.697,-230.118 -15.215,0 -28.175,0.821 -37.922,1.739 C 957.438,353.148 956.223,206 956.191,206 c 0,0 0,0.059 0,0.148 C 952.848,74.5898 1045.01,3.62891 1151.24,3.62891 c 19.05,0 38.58,2.33203 58.08,6.94139 62.65,14.8789 125.08,54.0391 171.65,119.3707 72.27,101.43 106.32,266.039 43.67,501.149 -15.47,39.262 -60.4,64.012 -116.58,77.719"
         inkscape:connector-curvature="0" />
    </clipPath>
    <clipPath
       id="clipPath3012"
       clipPathUnits="userSpaceOnUse">
      <path
         id="path3014"
         d="M 0,1862.52 0,0 l 7424.77,0 0,1862.52 -7424.77,0 z"
         inkscape:connector-curvature="0" />
    </clipPath>
    <clipPath
       id="clipPath4496"
       clipPathUnits="userSpaceOnUse">
      <path
         id="path4498"
         d="m 0,5952.76 8418.9,0 L 8418.9,0 0,0 0,5952.76 z"
         inkscape:connector-curvature="0" />
    </clipPath>
    <clipPath
       id="clipPath4476"
       clipPathUnits="userSpaceOnUse">
      <path
         id="path4478"
         d="m 878.879,2529.25 c 13.519,-48.7 35.18,-96.52 67.871,-141.54 l 0,0 c -65.871,111.35 -79.898,264.99 -38.352,421.05 l 0,0 c -34.546,-110.9 -41.378,-203.79 -29.519,-279.51"
         inkscape:connector-curvature="0" />
    </clipPath>
    <clipPath
       id="clipPath4466"
       clipPathUnits="userSpaceOnUse">
      <path
         id="path4468"
         d="m 0,5952.76 8418.9,0 L 8418.9,0 0,0 0,5952.76 z"
         inkscape:connector-curvature="0" />
    </clipPath>
    <clipPath
       id="clipPath4392"
       clipPathUnits="userSpaceOnUse">
      <path
         id="path4394"
         d="m 929.898,2870.66 c -8.109,-21.28 -15.238,-41.86 -21.5,-61.9 l 0,0 c -41.546,-156.06 -27.519,-309.7 38.352,-421.05 l 0,0 c -32.691,45.02 -54.352,92.84 -67.871,141.54 l 0,0 C 906.648,2352.02 1036.77,2268.6 1153.62,2268.6 l 0,0 c 106.68,0 202.27,69.49 198.94,200.43 l 0,0 0,-0.15 c -0.06,0 -1.79,211.7 -2.88,346.26 l 0,0 c -0.5,62.77 -0.9,108.83 -0.9,108.83 l 0,0 c -0.24,18.87 -31.33,33.77 -76.56,42.04 l 0,0 c -25.46,4.67 -55.39,7.26 -86.85,7.26 l 0,0 c -104.77,0 -226.39,-28.45 -255.472,-102.61"
         inkscape:connector-curvature="0" />
    </clipPath>
    <clipPath
       id="clipPath4374"
       clipPathUnits="userSpaceOnUse">
      <path
         id="path4376"
         d="m 0,5952.76 8418.9,0 L 8418.9,0 0,0 0,5952.76 z"
         inkscape:connector-curvature="0" />
    </clipPath>
    <clipPath
       id="clipPath4338"
       clipPathUnits="userSpaceOnUse">
      <path
         id="path4340"
         d="m 1652.97,3546.04 c -4.93,0 -10.19,-0.26 -15.71,-0.77 l 0,0 c -171.11,-17.31 -194.04,-168.77 -181.85,-238.9 l 0,0 c 0,0 39.71,185.59 183.25,185.59 l 0,0 c 88.82,0 86.33,54.08 14.36,54.08 l 0,0 c -0.02,0 -0.03,0 -0.05,0"
         inkscape:connector-curvature="0" />
    </clipPath>
    <clipPath
       id="clipPath4200"
       clipPathUnits="userSpaceOnUse">
      <path
         id="path4202"
         d="m 1429.69,3357.78 c 0,-114.05 98.64,-206.14 220.18,-206.14 l 0,0 c 121.57,0 220.2,92.09 220.2,206.14 l 0,0 c 0,113.63 -98.63,206.21 -220.2,206.21 l 0,0 c -121.54,0 -220.18,-92.58 -220.18,-206.21 m 207.57,187.49 c 5.52,0.51 10.78,0.77 15.71,0.77 l 0,0 c 72.03,0.03 74.54,-54.08 -14.31,-54.08 l 0,0 c -143.54,0 -183.25,-185.59 -183.25,-185.59 l 0,0 c -12.19,70.13 10.74,221.59 181.85,238.9"
         inkscape:connector-curvature="0" />
    </clipPath>
    <clipPath
       id="clipPath4190"
       clipPathUnits="userSpaceOnUse">
      <path
         id="path4192"
         d="m 0,5952.76 8418.9,0 L 8418.9,0 0,0 0,5952.76 z"
         inkscape:connector-curvature="0" />
    </clipPath>
    <clipPath
       id="clipPath4166"
       clipPathUnits="userSpaceOnUse">
      <path
         id="path4168"
         d="m 1134.09,3546.04 c -4.92,0 -10.2,-0.26 -15.77,-0.77 l 0,0 C 947.211,3527.96 924.301,3376.5 936.461,3306.37 l 0,0 c 0,0 39.738,185.59 183.729,185.59 l 0,0 c 88.4,0 86.29,54.08 13.95,54.08 l 0,0 c -0.02,0 -0.03,0 -0.05,0"
         inkscape:connector-curvature="0" />
    </clipPath>
    <clipPath
       id="clipPath4092"
       clipPathUnits="userSpaceOnUse">
      <path
         id="path4094"
         d="m 913.551,3355.46 c 0,-113.15 98.179,-204.78 218.789,-204.78 l 0,0 c 120.63,0 218.79,91.63 218.79,204.78 l 0,0 c 0,113.12 -98.16,204.75 -218.79,204.75 l 0,0 c -120.61,0 -218.789,-91.63 -218.789,-204.75 m 204.769,189.81 c 5.57,0.51 10.85,0.77 15.77,0.77 l 0,0 c 72.4,0.03 74.53,-54.08 -13.9,-54.08 l 0,0 c -143.991,0 -183.729,-185.59 -183.729,-185.59 l 0,0 c -12.16,70.13 10.75,221.59 181.859,238.9"
         inkscape:connector-curvature="0" />
    </clipPath>
    <clipPath
       id="clipPath4082"
       clipPathUnits="userSpaceOnUse">
      <path
         id="path4084"
         d="m 0,5952.76 8418.9,0 L 8418.9,0 0,0 0,5952.76 z"
         inkscape:connector-curvature="0" />
    </clipPath>
    <clipPath
       id="clipPath3944"
       clipPathUnits="userSpaceOnUse">
      <path
         id="path3946"
         d="m 1440.56,2948.37 c 35.71,-20 69.85,-30.64 102.43,-30.64 l 0,0 c 46.28,0 89.4,21.52 129.49,68.28 l 0,0 c -9.73,0.41 -19.47,0.61 -29.18,0.61 l 0,0 c -85.9,0 -168.88,-15.77 -202.74,-38.25 m 20.42,-205.82 c -15.22,0 -28.18,0.82 -37.93,1.74 l 0,0 c -1,-127.28 -2.21,-274.44 -2.25,-274.44 l 0,0 0,0.16 c -3.34,-131.57 88.82,-202.52 195.05,-202.52 l 0,0 c 19.05,0 38.58,2.33 58.09,6.94 l 0,0 c 62.65,14.87 125.08,54.04 171.65,119.37 l 0,0 c 72.26,101.42 106.31,266.03 43.67,501.15 l 0,0 c -15.47,39.26 -60.41,64.01 -116.58,77.72 l 0,0 c -53.21,-201.96 -221.94,-230.12 -311.7,-230.12"
         inkscape:connector-curvature="0" />
    </clipPath>
    <clipPath
       id="clipPath3908"
       clipPathUnits="userSpaceOnUse">
      <path
         id="path3910"
         d="m 0,5952.76 8418.9,0 L 8418.9,0 0,0 0,5952.76 z"
         inkscape:connector-curvature="0" />
    </clipPath>
    <linearGradient
       y2="796.64795"
       x2="334.28577"
       y1="1009.505"
       x1="644.28564"
       gradientTransform="matrix(0.14285713,0,0,0.19999998,0,-110.4725)"
       gradientUnits="userSpaceOnUse"
       id="linearGradient3033"
       xlink:href="#linearGradient5322-1"
       inkscape:collect="always" />
    <linearGradient
       id="linearGradient5322-1">
      <stop
         style="stop-color:#000000;stop-opacity:0.37391305;"
         offset="0"
         id="stop5324-6" />
      <stop
         style="stop-color:#000000;stop-opacity:0;"
         offset="1"
         id="stop5326-3" />
    </linearGradient>
    <linearGradient
       y2="796.64795"
       x2="334.28577"
       y1="1009.505"
       x1="644.28564"
       gradientTransform="matrix(0.14285713,0,0,0.19999998,0,841.88966)"
       gradientUnits="userSpaceOnUse"
       id="linearGradient3012"
       xlink:href="#linearGradient5322-1"
       inkscape:collect="always" />
    <linearGradient
       inkscape:collect="always"
       xlink:href="#linearGradient5322"
       id="linearGradient3799"
       x1="-72.770866"
       y1="98.260445"
       x2="-108.53157"
       y2="74.678169"
       gradientUnits="userSpaceOnUse"
       gradientTransform="translate(157.25636,-12.92373)" />
    <linearGradient
       id="linearGradient5322">
      <stop
         style="stop-color:#000000;stop-opacity:0.37391305;"
         offset="0"
         id="stop5324" />
      <stop
         style="stop-color:#000000;stop-opacity:0;"
         offset="1"
         id="stop5326" />
    </linearGradient>
    <linearGradient
       y2="74.678169"
       x2="-108.53157"
       y1="98.260445"
       x1="-72.770866"
       gradientTransform="translate(157.25636,939.43847)"
       gradientUnits="userSpaceOnUse"
       id="linearGradient3850"
       xlink:href="#linearGradient5322"
       inkscape:collect="always" />
  </defs>
  <sodipodi:namedview
     id="base"
     pagecolor="#ffffff"
     bordercolor="#666666"
     borderopacity="1.0"
     inkscape:pageopacity="0.0"
     inkscape:pageshadow="2"
     inkscape:zoom="5.6568542"
     inkscape:cx="73.305648"
     inkscape:cy="50.157088"
     inkscape:document-units="px"
     inkscape:current-layer="layer1"
     showgrid="false"
     inkscape:window-width="1920"
     inkscape:window-height="1145"
     inkscape:window-x="-2"
     inkscape:window-y="-3"
     inkscape:window-maximized="1" />
  <metadata
     id="metadata7">
    <rdf:RDF>
      <cc:Work
         rdf:about="">
        <dc:format>image/svg+xml</dc:format>
        <dc:type
           rdf:resource="http://purl.org/dc/dcmitype/StillImage" />
        <dc:title />
      </cc:Work>
    </rdf:RDF>
  </metadata>
  <g
     inkscape:label="Layer 1"
     inkscape:groupmode="layer"
     id="layer1"
     transform="translate(0,-952.36218)">
    <path
       inkscape:connector-curvature="0"
       style="fill:#ffffff;fill-opacity:1;display:inline"
       d="M 12.1375,952.36218 C 5.43508,952.36218 0,957.79725 0,964.49968 l 0,75.72502 c 0,6.7024 5.43508,12.1375 12.1375,12.1375 l 75.725,0 c 6.70242,0 12.1375,-5.4351 12.1375,-12.1375 l 0,-75.72502 c 0,-6.70243 -5.43482,-12.1375 -12.1375,-12.1375 l -75.725,0 z"
       id="path3003-0" />
    <path
       style="fill:#000000;fill-opacity:0.78431373;display:inline"
       d="M 9.6875 0.25 C 8.8974416 0.41170615 8.132284 0.66161789 7.40625 0.96875 C 8.1316981 0.66220391 8.8977833 0.41136434 9.6875 0.25 z M 90.3125 0.25 C 91.102233 0.41136434 91.868297 0.66220391 92.59375 0.96875 C 91.867711 0.6616175 91.102574 0.41170641 90.3125 0.25 z M 6.34375 1.46875 C 5.6558334 1.84249 5.0057215 2.2865043 4.40625 2.78125 C 5.0049525 2.2872736 5.6565047 1.8418185 6.34375 1.46875 z M 93.65625 1.46875 C 94.343496 1.8418185 94.995054 2.2872736 95.59375 2.78125 C 94.994285 2.2865039 94.344167 1.8424904 93.65625 1.46875 z M 10.96875 11 C 10.73836 11.23039 10.520047 11.467218 10.3125 11.71875 C 10.520239 11.467026 10.769414 11.230585 11 11 C 10.994551 11.005425 10.974187 10.994563 10.96875 11 z M 89 11 C 89.461555 11.461171 89.883271 11.95769 90.25 12.5 C 89.879685 11.951662 89.46726 11.465166 89 11 z M 0 42.59375 L 0 87.875 C 0 94.5774 5.4225808 100 12.125 100 L 87.875 100 C 94.57744 100 99.99998 94.5774 100 87.875 L 100 42.59375 C 97.276135 44.45609 94.604533 45.99286 92 47.25 L 92 81.8125 C 91.99998 87.4425 87.44255 92 81.8125 92 L 18.1875 92 C 12.55747 92 8 87.4425 8 81.8125 L 8 47.25 C 5.3954668 45.99286 2.7238664 44.45609 0 42.59375 z "
       transform="translate(0,952.36218)"
       id="path7-8-6-9" />
    <path
       style="fill:#cccccc;fill-opacity:1;display:inline"
       d="m 12.125,952.36218 c -6.70242,0 -12.125019999972,5.42258 -12.125,12.125 l 0,30.46875 c 2.723866,1.86234 5.395466,3.39911 8,4.65625 l 0,-29.0625 c -2e-5,-5.63003 4.55747,-10.1875 10.1875,-10.1875 l 63.625,0 c 5.63023,0 10.1875,4.55747 10.1875,10.1875 l 0,29.0625 c 2.604533,-1.25714 5.276135,-2.79391 8,-4.65625 l 0,-30.46875 c 0,-6.70242 -5.42234,-12.125 -12.125,-12.125 z"
       id="path7-8-6-9-6-8-4"
       inkscape:connector-curvature="0"
       sodipodi:nodetypes="ssccssssccsss" />
    <path
       style="fill:#418dd3;fill-opacity:1;fill-rule:nonzero;stroke:none"
       d="m 100,994.375 c -17.535825,11.9421 -32.983029,10.1869 -40.9375,9.9375 -5.643532,-0.2826 -7.46875,2.3401 -7.46875,6.2813 0,-10e-5 0.0625,30.6841 0.0625,30.0624 -0.199195,6.6268 3.660654,10.5995 8.75,11.7188 l 6.28125,0 c 10.624803,-2.1038 21.788268,-14.6607 14.625,-39.0625 8.136451,-3.3398 14.322661,-7.2988 18.6875,-11.0625 l 0,-7.875 z"
       id="path3042-3"
       inkscape:connector-curvature="0" />
    <path
       id="path3482"
       style="fill:#2f6fb0;fill-opacity:1;fill-rule:nonzero;stroke:none"
       d="m 51.585994,1023.4738 c 0,0 18.178429,3.3204 22.487691,-14.0657 0.596284,-3.3455 -1.076709,-2.9475 -2.438518,-0.9912 -1.361203,1.9544 -13.980839,10.1792 -19.935433,10.5486 l -0.11374,4.5083"
       inkscape:connector-curvature="0" />
    <path
       style="fill:#f58614;fill-opacity:1;fill-rule:nonzero;stroke:none"
       d="m 0,994.21875 0,7.81245 c 4.3793443,3.8309 10.614301,7.9089 18.90625,11.3126 -7.160234,24.3914 4.004689,36.9231 14.625,39.0312 l 6.3125,0 c 5.077897,-1.1278 8.91765,-5.1018 8.71875,-11.7188 0,0.4399 0.04585,-12.3023 0.0625,-21.25 4.934081,1.1671 7.020611,2.2151 13.84375,0.6563 6.550661,-1.5297 9.763797,-6.1832 11.125,-9.5 2.269884,-5.5291 -1.653304,-7.0726 -4.6875,-2.875 -5.899758,8.1101 -12.903445,6.5934 -21.15625,-1.0625 -0.08447,-0.079 -0.168294,-0.1453 -0.25,-0.2188 -1.095388,-1.466 -3.0928,-2.2566 -6.34375,-2.0937 C 33.168362,1004.563 17.627107,1006.3271 0,994.21875 z"
       id="path3042"
       inkscape:connector-curvature="0" />
    <g
       id="g7596"
       transform="matrix(0.48527727,0,0,0.48527727,-230.68236,653.89418)">
      <path
         inkscape:connector-curvature="0"
         d="m 574.03916,691.49095 c 0,14.49475 -12.562,26.23937 -28.04924,26.23937 -15.48588,0 -28.04988,-11.74462 -28.04988,-26.23937 0,-14.4925 12.564,-26.23875 28.04988,-26.23875 15.48724,0 28.04924,11.74625 28.04924,26.23875"
         style="fill:#f58614;fill-opacity:1;fill-rule:nonzero;stroke:none"
         id="path3190" />
      <g
         transform="matrix(0.125,0,0,-0.125,462.81554,828.1747)"
         clip-path="url(#clipPath3294)"
         id="g3292">
        <path
           id="path3298"
           style="fill:#418dd3;fill-opacity:1;fill-rule:nonzero;stroke:none"
           d="m 963.188,1093.47 c 0,-115.958 100.532,-209.915 224.422,-209.915 123.88,0 224.41,93.957 224.41,209.915 0,115.94 -100.53,209.91 -224.41,209.91 -123.89,0 -224.422,-93.97 -224.422,-209.91"
           inkscape:connector-curvature="0" />
      </g>
    </g>
    <path
       style="fill:url(#linearGradient3850);fill-opacity:1;display:inline"
       d="M 12.1375,952.3622 C 5.43509,952.3622 -1.9999945e-5,957.79728 0,964.4997 l 0,75.725 c 0,6.7024 5.43509,12.1375 12.1375,12.1375 l 75.725002,0 c 6.70244,0 12.13748,-5.4351 12.137496,-12.1375 l 0,-75.725 c 0,-6.70242 -5.434836,-12.1375 -12.137496,-12.1375 z"
       id="path7-8-6-9-9"
       inkscape:connector-curvature="0"
       sodipodi:nodetypes="sssssssss" />
  </g>
</svg>
