<svg xmlns="http://www.w3.org/2000/svg" viewBox="0 0 100 100" enable-background="new 0 0 256 256"><defs><linearGradient y2="61.754" x2="48.725" y1="85.34" x1="84.49" gradientUnits="userSpaceOnUse" id="0"><stop stop-opacity=".374"/><stop offset="1" stop-opacity="0"/></linearGradient></defs><path d="m12.138 0c-6.702 0-12.138 5.435-12.138 12.138v75.72c0 6.702 5.435 12.138 12.138 12.138h75.72c6.702 0 12.137-5.435 12.137-12.138v-75.72c0-6.702-5.435-12.137-12.138-12.137h-75.72" fill="#fc5427"/><path d="m10.68 62.709c-.026.186-.16.315-.324.315-.169 0-.303-.13-.325-.316l-.593-4.428.593-4.506c.022-.187.156-.317.325-.317.163 0 .298.13.324.316l.704 4.507-.704 4.43m4.793 2.695c-.028.193-.167.328-.336.328-.173 0-.315-.138-.338-.329l-.798-7.124c0 0 .798-7.284.798-7.286.024-.19.166-.327.338-.327.171 0 .31.133.338.327l.906 7.286-.908 7.126m4.759 1.469c-.022.267-.227.467-.476.467-.251 0-.457-.2-.477-.467l-.715-8.592.715-8.881c.02-.268.225-.469.477-.469.249 0 .454.201.476.467l.813 8.883-.813 8.592m4.66.071c-.021.305-.255.536-.544.536-.293 0-.526-.231-.545-.537l-.674-8.663.674-8.238c.019-.306.252-.538.545-.538.29 0 .524.23.544.534l.767 8.242-.767 8.665m4.662.003v-.003c-.019.339-.289.607-.615.607-.327 0-.597-.267-.613-.605l-.636-8.663.636-13.403c.016-.34.286-.608.613-.608.326 0 .595.268.615.608l.718 13.403-.718 8.664m4.661-.056c-.017.38-.318.677-.683.677-.368 0-.668-.298-.683-.674l-.594-8.608c0 0 .593-16.469.593-16.471.016-.379.316-.676.684-.676.365 0 .665.297.683.676l.671 16.471-.671 8.605m4.757-.139v.001c-.015.456-.375.815-.821.815-.447 0-.808-.359-.821-.812l-.512-8.467.511-18.446c.012-.459.374-.817.822-.817.446 0 .808.36.821.817l.575 18.446-.575 8.463m4.76-.126v-.007c-.012.538-.433.956-.96.956-.529 0-.951-.42-.962-.95l-.429-8.333.429-17.319c.01-.537.434-.957.962-.957.527 0 .947.42.96.955l.481 17.321-.481 8.333m4.862-.171v-.01c-.008.605-.501 1.096-1.098 1.096-.599 0-1.091-.491-1.099-1.087l-.451-8.158.45-22.478c.009-.605.501-1.096 1.1-1.096.598 0 1.09.492 1.098 1.094l.49 22.48-.49 8.159m31.989 1.16c-.178 0-27.633-.014-27.658-.017-.596-.06-1.07-.569-1.077-1.179v-31.669c.007-.582.208-.882.961-1.174 1.937-.749 4.132-1.192 6.383-1.192 9.199 0 16.74 7.06 17.534 16.05 1.188-.498 2.492-.775 3.86-.775 5.51 0 9.977 4.468 9.977 9.98-.002 5.512-4.469 9.979-9.979 9.979" fill="#fff"/><path d="m12.138 0c-6.702 0-12.138 5.435-12.137 12.138v75.73c0 6.702 5.435 12.138 12.137 12.137h75.72c6.702 0 12.137-5.435 12.138-12.137v-75.73c0-6.702-5.435-12.137-12.138-12.137z" fill="url(#0)"/></svg>