<?xml version="1.0" encoding="UTF-8" standalone="no"?>
<!-- Generator: Adobe Illustrator 15.0.1, SVG Export Plug-In . SVG Version: 6.00 Build 0)  -->

<svg
   xmlns:dc="http://purl.org/dc/elements/1.1/"
   xmlns:cc="http://creativecommons.org/ns#"
   xmlns:rdf="http://www.w3.org/1999/02/22-rdf-syntax-ns#"
   xmlns:svg="http://www.w3.org/2000/svg"
   xmlns="http://www.w3.org/2000/svg"
   xmlns:xlink="http://www.w3.org/1999/xlink"
   xmlns:sodipodi="http://sodipodi.sourceforge.net/DTD/sodipodi-0.dtd"
   xmlns:inkscape="http://www.inkscape.org/namespaces/inkscape"
   version="1.1"
   id="svg2"
   inkscape:version="0.48.4 r9939"
   sodipodi:version="0.32"
   inkscape:output_extension="org.inkscape.output.svg.inkscape"
   sodipodi:docname="Soundcloud.svg"
   x="0px"
   y="0px"
   width="100"
   height="100"
   viewBox="0 0 100 100"
   enable-background="new 0 0 256 256"
   xml:space="preserve"><metadata
     id="metadata36"><rdf:RDF><cc:Work
         rdf:about=""><dc:format>image/svg+xml</dc:format><dc:type
           rdf:resource="http://purl.org/dc/dcmitype/StillImage" /></cc:Work></rdf:RDF></metadata><defs
     id="defs34"><linearGradient
       inkscape:collect="always"
       xlink:href="#SVGID_1_"
       id="linearGradient3039"
       gradientUnits="userSpaceOnUse"
       gradientTransform="translate(133.5,-1775.5)"
       x1="-5.5005002"
       y1="1630.667"
       x2="-5.5005002"
       y2="1758.2955" /><linearGradient
       inkscape:collect="always"
       xlink:href="#SVGID_1_"
       id="linearGradient3048"
       gradientUnits="userSpaceOnUse"
       gradientTransform="matrix(0.41839779,0,0,0.41839779,52.301397,-681.14951)"
       x1="-5.5005002"
       y1="1630.667"
       x2="-5.5005002"
       y2="1758.2955" /><linearGradient
       y2="74.678169"
       x2="-108.53157"
       y1="98.260445"
       x1="-72.770866"
       gradientTransform="translate(157.25636,-12.92373)"
       gradientUnits="userSpaceOnUse"
       id="linearGradient3850"
       xlink:href="#linearGradient5322"
       inkscape:collect="always" /><linearGradient
       id="linearGradient5322"><stop
         style="stop-color:#000000;stop-opacity:0.37391305;"
         offset="0"
         id="stop5324" /><stop
         style="stop-color:#000000;stop-opacity:0;"
         offset="1"
         id="stop5326" /></linearGradient></defs><sodipodi:namedview
     pagecolor="#ffffff"
     bordercolor="#666666"
     borderopacity="1"
     objecttolerance="10"
     gridtolerance="10"
     guidetolerance="10"
     inkscape:pageopacity="0"
     inkscape:pageshadow="2"
     inkscape:window-width="1920"
     inkscape:window-height="1145"
     id="namedview32"
     showgrid="false"
     inkscape:zoom="5.2149125"
     inkscape:cx="88.93466"
     inkscape:cy="51.775518"
     inkscape:window-x="-2"
     inkscape:window-y="-3"
     inkscape:window-maximized="1"
     inkscape:current-layer="svg2" /><linearGradient
     id="SVGID_1_"
     gradientUnits="userSpaceOnUse"
     x1="-5.5005002"
     y1="1630.667"
     x2="-5.5005002"
     y2="1758.2955"
     gradientTransform="translate(133.5,-1775.5)"><stop
       offset="0"
       style="stop-color:#FFFFFF;stop-opacity:0.85"
       id="stop5" /><stop
       offset="0.66"
       style="stop-color:#FFFFFF;stop-opacity:0"
       id="stop7" /></linearGradient><path
     inkscape:connector-curvature="0"
     style="fill:#fc5427;fill-opacity:1;display:inline"
     d="M 12.137504,0 C 5.4350835,0 3.5e-6,5.43507 3.5e-6,12.1375 l 0,75.72499 C 3.5e-6,94.56492 5.4350835,100 12.137504,100 l 75.724993,0 c 6.702419,0 12.137499,-5.43508 12.137499,-12.13751 l 0,-75.72499 C 99.999996,5.43507 94.565176,0 87.862496,0 L 12.137503,0 z"
     id="path3003-0" /><path
     style="fill:#000000;fill-opacity:0.78431373;display:inline"
     d="M 12.137499,9.9997241e-7 C 5.435079,9.9997241e-7 -2.0999972e-5,5.435081 -9.999724e-7,12.137501 l 0,75.724998 c 0,6.7024 5.4350799999724,12.137521 12.1374999999724,12.1375 l 75.725002,0 c 6.70244,0 12.13748,-5.4351 12.137499,-12.1375 l 0,-75.724998 C 100,5.435081 94.565161,9.9997241e-7 87.862501,9.9997241e-7 l -75.725002,0 z M 18.193747,8.000001 l 63.606254,0 c 5.63023,0 10.2,4.56372 10.2,10.19375 l 0,63.606248 c -2e-5,5.63002 -4.56995,10.2 -10.2,10.2 l -63.606254,0 c -5.630028,1e-5 -10.193748,-4.56998 -10.193748,-10.2 l 0,-63.606248 c -2e-5,-5.63003 4.56372,-10.19375 10.193748,-10.19375 z"
     id="path7-8-6-9"
     inkscape:connector-curvature="0" /><path
     style="fill:#ffffff"
     inkscape:connector-curvature="0"
     id="path3019"
     d="m 10.680111,62.709394 c -0.02603,0.1857 -0.159671,0.31468 -0.323616,0.31468 -0.169383,0 -0.303414,-0.129757 -0.32517,-0.316234 L 9.4380949,58.279394 10.031325,53.773638 c 0.02176,-0.187254 0.155787,-0.3174 0.32517,-0.3174 0.163168,0 0.298364,0.130146 0.323616,0.316235 l 0.703563,4.506921 -0.703563,4.43 z m 4.792853,2.695373 c -0.02759,0.192693 -0.166664,0.327501 -0.336436,0.327501 -0.17288,0 -0.315458,-0.137916 -0.337601,-0.329443 l -0.797579,-7.124208 c 0,0 0.797579,-7.283878 0.797579,-7.28582 0.0237,-0.189585 0.166275,-0.327113 0.337601,-0.327113 0.170937,0 0.30963,0.133254 0.33799,0.327113 l 0.906357,7.28582 -0.907911,7.12615 z m 4.759055,1.469285 c -0.02215,0.266895 -0.226882,0.46697 -0.475907,0.46697 -0.250967,0 -0.457257,-0.200463 -0.476682,-0.46697 l -0.715217,-8.592327 0.715217,-8.880589 c 0.02021,-0.268061 0.224939,-0.468913 0.476682,-0.468913 0.248637,0 0.453762,0.200852 0.475907,0.466582 l 0.813117,8.88292 -0.813117,8.592327 z m 4.659987,0.07149 c -0.02097,0.304969 -0.25524,0.535734 -0.543892,0.535734 -0.292924,0 -0.52602,-0.230765 -0.545445,-0.537287 l -0.674037,-8.663033 0.674037,-8.238409 c 0.01864,-0.306134 0.252132,-0.537676 0.545445,-0.537676 0.289817,0 0.524079,0.2296 0.543892,0.533791 l 0.7665,8.242294 -0.7665,8.664586 z m 4.66232,0.0027 v -0.0027 c -0.01942,0.338767 -0.288651,0.606829 -0.614598,0.606829 -0.327112,0 -0.596727,-0.266896 -0.613432,-0.605274 l -0.635577,-8.662645 0.635577,-13.403438 c 0.01592,-0.340322 0.285931,-0.608382 0.613432,-0.608382 0.325558,0 0.595173,0.268061 0.614598,0.608382 l 0.717937,13.403438 -0.717937,8.66381 z m 4.661154,-0.05594 c -0.01709,0.379559 -0.318177,0.677145 -0.682974,0.677145 -0.367903,0 -0.667821,-0.297975 -0.682583,-0.673649 l -0.594009,-8.608269 c 0,0 0.592842,-16.469435 0.592842,-16.470601 0.01632,-0.37917 0.316235,-0.676368 0.684139,-0.676368 0.364796,0 0.665102,0.296809 0.682973,0.676368 l 0.670541,16.470601 -0.670929,8.604759 z m 4.757112,-0.139469 v 0.0012 c -0.01476,0.456092 -0.374509,0.814672 -0.821277,0.814672 -0.447157,0 -0.808069,-0.35858 -0.8205,-0.812341 l -0.512036,-8.466862 0.51087,-18.446094 c 0.01204,-0.458812 0.373732,-0.817392 0.821666,-0.817392 0.44599,0 0.807679,0.359745 0.821277,0.817392 l 0.575359,18.446483 -0.575359,8.462958 z m 4.75983,-0.125873 v -0.0066 c -0.01243,0.537676 -0.432782,0.956473 -0.959968,0.956473 -0.528741,0 -0.951034,-0.420351 -0.961524,-0.950257 L 41.382033,58.293369 41.81093,40.974297 c 0.01049,-0.537287 0.43356,-0.956862 0.961524,-0.956862 0.526798,0 0.947148,0.419962 0.959968,0.955307 l 0.481345,17.321016 -0.481345,8.3332 z m 4.861617,-0.170937 v -0.0097 c -0.0085,0.605274 -0.500768,1.096331 -1.098273,1.096331 -0.599058,0 -1.091281,-0.491445 -1.09905,-1.087396 L 45.945675,58.29688 46.395939,35.818992 c 0.0089,-0.604885 0.501158,-1.096331 1.100215,-1.096331 0.597893,0 1.090115,0.491834 1.098274,1.094389 l 0.489503,22.47983 -0.489892,8.159155 z m 31.988615,1.159642 c -0.177931,0 -27.633206,-0.01359 -27.658458,-0.01709 -0.59595,-0.05983 -1.069525,-0.568755 -1.077295,-1.17908 V 34.750242 c 0.0074,-0.581964 0.207845,-0.882271 0.961135,-1.173642 1.937033,-0.749016 4.131637,-1.192289 6.38296,-1.192289 9.198767,0 16.740217,7.055057 17.53391,16.047143 1.187627,-0.498049 2.492191,-0.774656 3.860079,-0.774656 5.510014,0 9.97692,4.46846 9.97692,9.979639 -0.0016,5.511955 -4.469238,9.979252 -9.979251,9.979252 z" /><path
     style="fill:url(#linearGradient3850);fill-opacity:1;display:inline"
     d="M 12.137505,0 C 5.435095,0 -1.4999972e-5,5.43508 5.0000276e-6,12.1375 l 0,75.725001 C 5.0000276e-6,94.564901 5.435095,100.00002 12.137505,100 l 75.72499,0 c 6.70244,0 12.13748,-5.435099 12.1375,-12.137499 l 0,-75.725001 C 99.999995,5.43508 94.565155,0 87.862495,0 z"
     id="path7-8-6-9-9"
     inkscape:connector-curvature="0"
     sodipodi:nodetypes="sssssssss" /></svg>