<svg xmlns="http://www.w3.org/2000/svg" viewBox="0 0 100 100" enable-background="new 0 0 256 256"><defs><linearGradient y2="61.754" x2="48.725" y1="85.34" x1="84.49" gradientUnits="userSpaceOnUse" id="0" gradientTransform="matrix(1.0001 0 0 .99995.002.003)"><stop stop-opacity=".374"/><stop offset="1" stop-opacity="0"/></linearGradient></defs><path d="m12.141.007c-6.702 0-12.139 5.435-12.139 12.137v75.72c0 6.702 5.435 12.137 12.139 12.137h75.72c6.702 0 12.138-5.435 12.138-12.137v-75.72c0-6.702-5.435-12.136-12.139-12.136h-75.72" fill="#fc5427"/><path d="m11.225 62.53c-.026.183-.158.311-.32.311-.167 0-.299-.128-.321-.312l-.585-4.366.585-4.443c.022-.184.154-.313.321-.313.161 0 .294.128.32.312l.694 4.444-.694 4.368m4.727 2.657c-.028.19-.165.323-.331.323-.171 0-.311-.136-.333-.324l-.787-7.02c0 0 .787-7.183.787-7.185.024-.187.164-.322.333-.322.169 0 .306.131.333.322l.893 7.185-.895 7.03m4.693 1.449c-.022.263-.224.461-.469.461-.248 0-.451-.197-.47-.461l-.705-8.472.705-8.757c.02-.264.222-.462.47-.462.246 0 .448.198.469.461l.802 8.759-.802 8.472m4.596.07c-.021.301-.251.529-.536.529-.289 0-.519-.228-.537-.53l-.665-8.542.665-8.123c.019-.302.249-.531.537-.531.286 0 .517.227.536.527l.756 8.127-.756 8.544m4.598.003v-.003c-.019.334-.285.599-.607.599-.322 0-.589-.263-.605-.597l-.627-8.542.627-13.216c.016-.335.282-.6.605-.6.321 0 .587.264.607.6l.708 13.216-.708 8.543m4.597-.055c-.017.375-.314.668-.674.668-.363 0-.659-.294-.674-.665l-.586-8.488c0 0 .585-16.24.585-16.242.016-.374.312-.667.675-.667.36 0 .656.293.674.667l.662 16.242-.662 8.485m4.691-.137c-.015.451-.37.805-.81.805-.441 0-.797-.354-.81-.801l-.505-8.349.504-18.19c.012-.453.369-.806.811-.806.44 0 .797.355.81.806l.567 18.19-.567 8.345m4.694-.124v-.007c-.012.531-.427.943-.947.943-.522 0-.938-.414-.949-.937l-.423-8.217.423-17.08c.01-.53.428-.944.949-.944.52 0 .934.414.947.942l.474 17.08-.474 8.217m4.795-.169v-.01c-.008.597-.494 1.081-1.083 1.081-.591 0-1.076-.484-1.084-1.072l-.445-8.04.444-22.17c.009-.597.494-1.081 1.085-1.081.59 0 1.075.485 1.083 1.079l.483 22.17-.483 8.05m31.547 1.144c-.176 0-27.25-.014-27.28-.017-.588-.059-1.055-.561-1.062-1.163v-31.23c.007-.574.205-.87.948-1.158 1.91-.739 4.075-1.175 6.295-1.175 9.07 0 16.509 6.962 17.292 15.827 1.172-.491 2.458-.764 3.807-.764 5.434 0 9.839 4.406 9.839 9.841-.002 5.435-4.407 9.84-9.841 9.84" fill="#fff"/><path d="m12.14.003c-6.702 0-12.139 5.435-12.138 12.137v75.73c0 6.702 5.435 12.137 12.138 12.136h75.72c6.702 0 12.138-5.435 12.139-12.136v-75.73c0-6.702-5.435-12.136-12.139-12.136z" fill="url(#0)"/></svg>