<svg xmlns="http://www.w3.org/2000/svg" viewBox="0 0 100 100"><defs><linearGradient y2="61.751" x2="48.727" y1="85.34" x1="84.49" gradientUnits="userSpaceOnUse" id="0"><stop stop-opacity=".374"/><stop offset="1" stop-opacity="0"/></linearGradient><linearGradient id="1" y1=".001" x2="0" y2="100" gradientUnits="userSpaceOnUse"><stop stop-color="#006598"/><stop offset="1" stop-color="#004568"/></linearGradient></defs><path d="m100 12.138c0-6.702-5.435-12.137-12.138-12.137h-75.72c-6.702 0-12.138 5.435-12.138 12.137v75.72c0 6.702 5.435 12.138 12.138 12.138h75.72c6.702 0 12.137-5.435 12.137-12.138v-75.72" fill="url(#1)"/><path d="m66.42 26.834c-2.376 0-5.79 1.783-5.79 4.159v9.165h-5.79c-2.136 0-2.136 6.409 0 6.409h5.79v21.837l6.947-4.159v-17.678h13.05c2.136 0 2.136-6.409 0-6.409h-13.05v-6.996h13.05c2.109 0 2.109-6.328 0-6.328zm-43.22 13.13c-2.307 0-4.974 2.504-4.974 4.811v10.372c0 2.307 2.667 4.811 4.974 4.811h14.824c2.24 0 2.24 6.719 0 6.719h-18.608c-2.164 0-2.164 6.491 0 6.491h22.16c2.237 0 4.729-2.525 4.729-4.762v-10.144c0-2.249-2.481-4.811-4.729-4.811h-15.412c-2.332 0-2.332-6.996 0-6.996h19.635c2.164 0 2.164-6.491 0-6.491z" fill="#fff"/><path d="m12.14-.003c-6.702 0-12.138 5.435-12.138 12.138v75.73c0 6.702 5.435 12.138 12.138 12.137h75.72c6.702 0 12.137-5.435 12.138-12.137v-75.73c0-6.702-5.435-12.138-12.138-12.138z" fill="url(#0)"/></svg>