<svg xmlns="http://www.w3.org/2000/svg" viewBox="0 0 100 100"><defs><linearGradient y2="61.751" x2="48.727" y1="85.34" x1="84.49" gradientUnits="userSpaceOnUse" id="0" gradientTransform="matrix(1 0 0 .99995 0 .005)"><stop stop-opacity=".374"/><stop offset="1" stop-opacity="0"/></linearGradient><linearGradient id="1" y1=".001" x2="0" y2="100" gradientUnits="userSpaceOnUse" gradientTransform="matrix(1 0 0 .99995-.002.007)"><stop stop-color="#006598"/><stop offset="1" stop-color="#004568"/></linearGradient></defs><path d="m100 12.144c0-6.702-5.435-12.136-12.138-12.136h-75.72c-6.702 0-12.138 5.435-12.138 12.136v75.72c0 6.702 5.435 12.137 12.138 12.137h75.72c6.702 0 12.137-5.435 12.137-12.137v-75.72" fill="url(#1)"/><path d="m70.38 21.241c-2.95 0-7.189 2.214-7.189 5.163v11.378h-7.189c-2.652 0-2.652 7.957 0 7.957h7.189v27.11l8.625-5.163v-21.947h16.203c2.652 0 2.652-7.957 0-7.957h-16.203v-8.685h16.203c2.619 0 2.619-7.856 0-7.856zm-53.662 16.301c-2.864 0-6.176 3.109-6.176 5.973v12.877c0 2.864 3.311 5.973 6.176 5.973h18.405c2.781 0 2.781 8.342 0 8.342h-23.1c-2.687 0-2.687 8.06 0 8.06h27.514c2.777 0 5.871-3.135 5.871-5.912v-12.594c0-2.792-3.08-5.973-5.871-5.973h-19.14c-2.895 0-2.895-8.685 0-8.685h24.379c2.687 0 2.687-8.06 0-8.06z" fill="#fff"/><path d="m12.14.003c-6.702 0-12.138 5.435-12.138 12.137v75.73c0 6.702 5.435 12.137 12.138 12.136h75.72c6.702 0 12.137-5.435 12.138-12.136v-75.73c0-6.702-5.435-12.137-12.138-12.137z" fill="url(#0)"/></svg>