<svg xmlns="http://www.w3.org/2000/svg" viewBox="0 0 100 100"><defs><linearGradient y2="61.751" x2="48.727" y1="85.34" x1="84.49" gradientUnits="userSpaceOnUse" id="0" gradientTransform="matrix(1 0 0 .99995 0 .005)"><stop stop-opacity=".374"/><stop offset="1" stop-opacity="0"/></linearGradient></defs><path d="m100 12.144c0-6.702-5.435-12.136-12.138-12.136h-75.72c-6.702 0-12.138 5.435-12.138 12.136v75.72c0 6.702 5.435 12.137 12.138 12.137h75.72c6.702 0 12.137-5.435 12.137-12.137v-75.72" fill="#fff"/><path d="m61.79 68.62c1.97-.177 3.658-.942 5.04-2.278 1.045-1.014 1.786-2.246 2.183-3.626.11-.381.178-.745.315-1.672.071-.474.142-.675.274-.767.208-.144 3.344-2.498 4.72-3.542 1.829-1.389 2.805-2.119 4.04-3.02l.892-.653.286-.022c2.486-.19 4.726-1.04 6.482-2.461.58-.469 1.381-1.315 1.889-1.993 1.452-1.941 2.217-4.48 2.08-6.896-.123-2.174-.799-4.125-2.02-5.837-.367-.513-.694-.894-1.198-1.393-.955-.946-1.902-1.586-3.201-2.162-1.098-.488-1.933-.726-3.098-.885-.576-.078-1.936-.078-2.525 0-1.328.176-2.379.492-3.475 1.044-1.073.54-1.864 1.067-2.572 1.712-1.322 1.206-2.416 2.923-3.03 4.752-.216.649-.263.871-.336 1.627-.075.768-.167 1.298-.262 1.513-.086.195-1.531 2.245-3.156 4.479-.553.759-3.354 4.592-3.893 5.324l-.16.218-.406.022c-1.163.062-2.406.42-3.695 1.065l-.28.14-2.529-1.065c-3.333-1.403-7.164-3.03-13.967-5.926-6.735-2.868-13.353-5.679-13.698-5.817-.061-.024-.185-.308-.485-1.118-.372-1-.523-1.311-.872-1.783-.067-.091-.232-.314-.366-.496-.307-.415-.908-1.036-1.339-1.382-1.213-.973-2.649-1.575-4.249-1.781-.501-.064-1.453-.048-2.05.034-2.516.347-4.509 1.633-5.928 3.826-.55.85-.958 1.959-1.136 3.087-.076.481-.085 1.964-.016 2.429.199 1.328.598 2.377 1.314 3.454.596.896 1.37 1.676 2.288 2.306 1.395.957 3.444 1.501 5.158 1.37.479-.037.69-.072 1.609-.271.433-.094.79-.237 1.554-.627.346-.176.717-.35.827-.387l.198-.066 1.054.444c3.592 1.508 8.113 3.425 16.07 6.811 5.88 2.504 8.929 3.799 11.223 4.767.828.349 1.515.645 1.528.657.014.013.083.227.156.476.205.701.413 1.249.693 1.826.558 1.152 1.084 1.83 2.035 2.623.623.519 1.054.807 1.687 1.115 1.315.645 2.887.936 4.347.806m-1.468-1.753c-1.246-.172-2.398-.66-3.33-1.413-.322-.259-.877-.84-1.046-1.093-.15-.225-.189-.399-.138-.623.046-.206.155-.387.345-.57l.153-.149h.306c.287 0 .322.007.557.124.201.099.351.217.754.595.735.688.806.732 1.736 1.052 1.545.533 3.479.089 4.712-1.084.942-.895 1.464-2.505 1.275-3.931-.069-.519-.183-.907-.389-1.318-.6-1.199-1.536-2.028-2.723-2.407-.555-.178-.694-.193-1.817-.199-1.01-.005-1.028-.006-1.147-.081-.269-.168-.449-.47-.481-.808-.032-.338.19-.666.568-.839.322-.147.536-.183 1.166-.202.728-.021 1.184.023 1.78.172 2.441.613 4.338 2.585 4.86 5.05.105.497.144 1.449.081 1.962-.25 2.025-1.437 3.871-3.138 4.874-.601.354-1.45.682-2.138.823-.38.078-1.553.115-1.945.061m18.01-17.269c-1.555-.25-3-.891-4.02-1.78-.28-.246-.76-.77-1.08-1.179-1.054-1.354-1.633-3.259-1.499-4.947.149-1.876.955-3.578 2.312-4.878 1.146-1.099 2.496-1.774 4.052-2.031.489-.08 1.664-.081 2.161 0 1.441.233 2.732.833 3.822 1.774.398.344 1.03 1.065 1.343 1.532.456.678.794 1.448.99 2.251.296 1.211.284 2.568-.034 3.797-.433 1.675-1.555 3.205-3.109 4.238-.887.59-1.843.979-2.888 1.176-.488.092-1.613.117-2.054.045m1.901-2.067c.684-.124 1.359-.388 1.909-.745 1.239-.807 2.066-1.996 2.409-3.469.086-.368.093-.448.094-1.107 0-.628-.007-.751-.076-1.054-.296-1.324-.898-2.352-1.837-3.134-1.144-.953-2.506-1.414-3.912-1.323-.675.043-1.394.251-2.108.607-.952.476-1.671 1.147-2.244 2.095-1.014 1.677-.972 4.03.103 5.705.924 1.44 2.275 2.274 4.04 2.495.375.046 1.182.015 1.62-.065m-62.708 1.123c-2.208-.269-4.103-1.571-5.083-3.493-.493-.968-.713-1.879-.714-2.968 0-.659.057-1.134.214-1.75.337-1.324 1.22-2.611 2.394-3.487 1.536-1.148 3.325-1.553 5.193-1.176.592.119 1.092.295 1.667.584.709.356 1.035.6 1.706 1.266.479.477.582.597.676.79.123.254.162.535.1.723-.057.173-.259.388-.447.476-.417.194-.653.076-1.439-.716-.598-.602-.878-.82-1.373-1.065-1.102-.55-2.496-.649-3.801-.271-.388.113-.602.214-.944.448-1.469 1.01-2.293 2.497-2.292 4.147 0 .563.056.932.214 1.429.337 1.054 1.027 1.997 1.898 2.587.301.203.844.476 1.15.576.364.119.785.179 1.643.235 1.123.073 1.1.07 1.27.218.179.158.258.346.259.618 0 .41-.255.732-.636.8-.258.046-1.358.066-1.652.031" fill="#010101"/><path d="m12.14.003c-6.702 0-12.138 5.435-12.138 12.137v75.73c0 6.702 5.435 12.137 12.138 12.136h75.72c6.702 0 12.137-5.435 12.138-12.136v-75.73c0-6.702-5.435-12.137-12.138-12.137z" fill="url(#0)"/></svg>