<svg xmlns="http://www.w3.org/2000/svg" viewBox="0 0 100 100"><defs><linearGradient y2="61.751" x2="48.727" y1="85.34" x1="84.49" gradientUnits="userSpaceOnUse" id="0"><stop stop-opacity=".374"/><stop offset="1" stop-opacity="0"/></linearGradient></defs><path d="m100 12.138c0-6.702-5.435-12.137-12.138-12.137h-75.72c-6.702 0-12.138 5.435-12.138 12.137v75.72c0 6.702 5.435 12.138 12.138 12.138h75.72c6.702 0 12.137-5.435 12.137-12.138v-75.72" fill="#fff"/><path d="m12.138 0c-6.702 0-12.138 5.435-12.138 12.138v75.72c0 6.702 5.435 12.138 12.138 12.138h75.72c6.702 0 12.137-5.435 12.138-12.138v-75.72c0-6.702-5.435-12.138-12.138-12.138h-75.72m6.06 8h63.61c5.63 0 10.2 4.564 10.2 10.194v63.61c0 5.63-4.57 10.2-10.2 10.2h-63.61c-5.63 0-10.194-4.57-10.194-10.2v-63.61c0-5.63 4.564-10.194 10.194-10.194" fill-opacity=".784"/><path d="m61.18 67.66c1.868-.168 3.469-.893 4.777-2.161.991-.962 1.694-2.13 2.07-3.439.104-.361.169-.707.299-1.586.067-.45.135-.64.26-.727.197-.137 3.171-2.369 4.476-3.359 1.735-1.317 2.66-2.01 3.832-2.865l.846-.619.271-.021c2.358-.18 4.482-.986 6.147-2.334.55-.445 1.31-1.247 1.791-1.89 1.377-1.841 2.103-4.249 1.973-6.541-.117-2.062-.758-3.912-1.917-5.536-.348-.487-.658-.848-1.136-1.321-.906-.897-1.804-1.504-3.036-2.051-1.041-.463-1.833-.689-2.938-.839-.546-.074-1.836-.074-2.395 0-1.259.167-2.256.467-3.296.99-1.018.512-1.768 1.012-2.439 1.624-1.254 1.144-2.291 2.772-2.87 4.507-.205.616-.249.826-.319 1.543-.071.728-.158 1.231-.248 1.435-.082.185-1.452 2.129-2.993 4.248-.524.72-3.181 4.355-3.692 5.05l-.152.207-.385.021c-1.103.059-2.282.398-3.504 1.01l-.266.133-2.398-1.01c-3.161-1.331-6.794-2.873-13.246-5.621-6.387-2.72-12.664-5.386-12.991-5.517-.058-.023-.175-.292-.46-1.06-.353-.95-.496-1.243-.827-1.691-.064-.086-.22-.298-.347-.47-.291-.394-.861-.983-1.27-1.311-1.15-.923-2.512-1.494-4.03-1.689-.475-.061-1.378-.046-1.944.032-2.386.329-4.276 1.549-5.622 3.629-.522.806-.909 1.858-1.077 2.928-.072.456-.081 1.863-.015 2.304.189 1.26.567 2.254 1.246 3.276.565.85 1.299 1.59 2.17 2.187 1.323.908 3.266 1.424 4.892 1.299.454-.035.654-.068 1.526-.257.411-.089.749-.225 1.474-.595.328-.167.68-.332.784-.367l.188-.063 1 .421c3.407 1.43 7.694 3.248 15.237 6.46 5.576 2.375 8.468 3.603 10.644 4.521.785.331 1.437.612 1.449.623.013.012.079.215.148.451.194.665.392 1.185.657 1.732.529 1.093 1.028 1.736 1.93 2.488.591.492 1 .765 1.6 1.058 1.247.612 2.738.888 4.123.764m-1.392-1.663c-1.182-.163-2.274-.626-3.158-1.34-.305-.246-.832-.797-.992-1.037-.142-.213-.179-.378-.131-.591.044-.195.147-.367.327-.541l.145-.141h.29c.272 0 .305.007.528.118.191.094.333.206.715.564.697.653.764.694 1.646.998 1.465.506 3.299.084 4.469-1.028.893-.849 1.388-2.376 1.209-3.728-.065-.492-.174-.86-.369-1.25-.569-1.137-1.457-1.923-2.582-2.283-.526-.169-.658-.183-1.723-.189-.955-.005-.975-.006-1.088-.077-.255-.159-.426-.446-.456-.766-.03-.321.18-.632.539-.796.305-.139.508-.174 1.106-.192.69-.02 1.123.022 1.688.163 2.315.581 4.114 2.452 4.609 4.792.1.471.137 1.374.077 1.861-.237 1.921-1.363 3.671-2.976 4.623-.57.336-1.375.647-2.028.781-.36.074-1.473.109-1.845.058m17.08-16.379c-1.475-.237-2.847-.845-3.81-1.688-.266-.233-.721-.73-1.024-1.118-1-1.284-1.549-3.091-1.422-4.692.141-1.779.906-3.394 2.193-4.627 1.087-1.042 2.367-1.683 3.843-1.926.464-.076 1.578-.077 2.049 0 1.367.221 2.591.79 3.625 1.683.377.326.977 1.01 1.274 1.453.432.643.753 1.373.939 2.135.281 1.149.269 2.436-.032 3.601-.411 1.589-1.475 3.04-2.948 4.02-.841.56-1.748.929-2.739 1.115-.463.087-1.53.111-1.948.043m1.803-1.96c.649-.118 1.289-.368 1.81-.707 1.175-.765 1.959-1.893 2.285-3.29.082-.349.088-.425.089-1.05 0-.596-.007-.712-.072-1-.281-1.256-.852-2.231-1.742-2.972-1.085-.904-2.377-1.341-3.71-1.255-.64.041-1.322.238-1.999.576-.903.451-1.585 1.088-2.128 1.987-.962 1.591-.922 3.822.098 5.411.876 1.366 2.158 2.157 3.833 2.366.356.044 1.121.014 1.536-.062m-59.47 1.065c-2.094-.255-3.891-1.49-4.821-3.313-.468-.918-.676-1.782-.677-2.815 0-.625.054-1.076.203-1.66.32-1.256 1.157-2.476 2.27-3.307 1.457-1.089 3.153-1.473 4.925-1.115.561.113 1.036.28 1.581.554.672.338.982.569 1.618 1.201.454.452.552.566.641.749.117.241.154.507.095.686-.054.164-.246.368-.424.451-.395.184-.619.072-1.365-.679-.567-.571-.833-.778-1.302-1.01-1.045-.522-2.367-.616-3.605-.257-.368.107-.571.203-.895.425-1.393.954-2.175 2.368-2.174 3.933 0 .534.053.884.203 1.355.32 1 .974 1.894 1.8 2.454.285.193.8.451 1.091.546.345.113.744.17 1.558.223 1.065.069 1.043.066 1.204.207.17.15.245.328.246.586 0 .389-.242.694-.603.759-.245.044-1.288.063-1.567.029" fill="#010101"/><path d="m12.14-.003c-6.702 0-12.138 5.435-12.138 12.138v75.73c0 6.702 5.435 12.138 12.138 12.137h75.72c6.702 0 12.137-5.435 12.138-12.137v-75.73c0-6.702-5.435-12.138-12.138-12.138z" fill="url(#0)"/></svg>