<svg xmlns="http://www.w3.org/2000/svg" viewBox="0 0 100 100"><defs><linearGradient y2="61.754" x2="48.725" y1="85.34" x1="84.49" gradientUnits="userSpaceOnUse" id="0" gradientTransform="matrix(1 0 0 .99995.002.003)"><stop stop-opacity=".374"/><stop offset="1" stop-opacity="0"/></linearGradient></defs><path d="m12.14.007c-6.702 0-12.137 5.435-12.137 12.137v75.72c0 6.702 5.435 12.137 12.137 12.137h75.72c6.702 0 12.138-5.435 12.138-12.137v-75.72c0-6.702-5.435-12.136-12.138-12.136h-75.72" fill="#00aced"/><path d="m65.755 17.267c1.601.009 3.191.186 4.48.541 1.157.346 3.351 1.502 4.912 2.543l2.832 1.905 3.122-.978c1.734-.52 4.045-1.392 5.086-1.97.983-.52 1.848-.805 1.848-.631 0 .983-2.135 4.33-3.927 6.179-2.428 2.601-1.734 2.834 3.18 1.101 2.948-.983 3-.983 2.426.115-.346.578-2.142 2.599-4.049 4.448-3.237 3.179-3.406 3.527-3.406 6.186 0 4.104-1.968 12.662-3.934 17.341-3.641 8.786-11.441 17.86-19.248 22.427-10.983 6.416-25.612 8.03-37.922 4.274-4.104-1.272-11.156-4.507-11.156-5.086 0-.174 2.143-.406 4.744-.464 5.433-.115 10.865-1.615 15.489-4.274l3.122-1.848-3.585-1.217c-5.087-1.734-9.653-5.726-10.809-9.482-.346-1.214-.231-1.269 3.01-1.269l3.354-.058-2.832-1.333c-3.352-1.677-6.415-4.506-7.918-7.396-1.098-2.081-2.484-7.339-2.079-7.744.115-.174 1.329.168 2.717.631 3.989 1.445 4.508 1.102 2.196-1.326-4.335-4.393-5.667-10.925-3.585-17.11l.985-2.775 3.81 3.759c7.804 7.572 16.994 12.08 27.51 13.409l2.89.347-.167-2.832c-.52-7.34 4.04-14.05 11.266-16.646 1.496-.52 3.58-.785 5.639-.773" fill="#fff"/><path d="m12.14.003c-6.702 0-12.138 5.435-12.138 12.137v75.73c0 6.702 5.435 12.137 12.138 12.136h75.72c6.702 0 12.137-5.435 12.138-12.136v-75.73c0-6.702-5.435-12.137-12.138-12.137z" fill="url(#0)"/></svg>