<?xml version="1.0" encoding="UTF-8" standalone="no"?>
<!-- Created with Inkscape (http://www.inkscape.org/) -->

<svg
   xmlns:dc="http://purl.org/dc/elements/1.1/"
   xmlns:cc="http://creativecommons.org/ns#"
   xmlns:rdf="http://www.w3.org/1999/02/22-rdf-syntax-ns#"
   xmlns:svg="http://www.w3.org/2000/svg"
   xmlns="http://www.w3.org/2000/svg"
   xmlns:sodipodi="http://sodipodi.sourceforge.net/DTD/sodipodi-0.dtd"
   xmlns:inkscape="http://www.inkscape.org/namespaces/inkscape"
   width="100"
   height="100"
   id="svg3932"
   version="1.1"
   inkscape:version="0.48.4 r9939"
   sodipodi:docname="Twitter.svg">
  <metadata
     id="metadata13">
    <rdf:RDF>
      <cc:Work
         rdf:about="">
        <dc:format>image/svg+xml</dc:format>
        <dc:type
           rdf:resource="http://purl.org/dc/dcmitype/StillImage" />
      </cc:Work>
    </rdf:RDF>
  </metadata>
  <defs
     id="defs11" />
  <sodipodi:namedview
     pagecolor="#ffffff"
     bordercolor="#666666"
     borderopacity="1"
     objecttolerance="10"
     gridtolerance="10"
     guidetolerance="10"
     inkscape:pageopacity="0"
     inkscape:pageshadow="2"
     inkscape:window-width="1920"
     inkscape:window-height="1145"
     id="namedview9"
     showgrid="false"
     inkscape:zoom="0.472"
     inkscape:cx="1015.631"
     inkscape:cy="135.00111"
     inkscape:window-x="-2"
     inkscape:window-y="-3"
     inkscape:window-maximized="1"
     inkscape:current-layer="svg3932" />
  <path
     inkscape:connector-curvature="0"
     style="fill:#00aced;fill-opacity:1;display:inline"
     d="m 12.1375,1e-5 C 5.4350802,10e-6 1.9977921e-7,5.43508 1.9977921e-7,12.13751 l 0,75.72499 C 1.9977921e-7,94.56493 5.4350802,100.00001 12.1375,100.00001 l 75.725,0 C 94.56492,100.00001 100,94.56493 100,87.8625 l 0,-75.72499 C 100,5.43508 94.56518,10e-6 87.8625,10e-6 l -75.725,0 z"
     id="path3003-0" />
  <path
     style="fill:#ffffff;fill-opacity:1;display:inline"
     d="m 63.783686,21.35287 c 1.401366,0.008 2.791772,0.16335 3.920268,0.47313 1.011538,0.30346 2.932072,1.31449 4.29764,2.22487 l 2.478332,1.66724 2.731804,-0.85615 c 1.517296,-0.45519 3.539344,-1.2178 4.44973,-1.72357 0.85979,-0.45519 1.616538,-0.70372 1.616538,-0.55199 0,0.8598 -1.867994,3.78881 -3.435868,5.40727 -2.124208,2.27595 -1.516522,2.48047 2.78249,0.96317 2.57941,-0.85981 2.629246,-0.85957 2.123486,0.10138 -0.303456,0.50577 -1.873852,2.27365 -3.542894,3.89211 -2.83229,2.78171 -2.97962,3.08637 -2.97962,5.4129 0,3.59094 -1.72189,11.07742 -3.441508,15.17413 -3.186322,7.68766 -10.013518,15.62832 -16.84138,19.62387 -9.60956,5.61401 -22.40863,7.02751 -33.181454,3.74003 C 21.170304,75.78857 15,72.95729 15,72.45153 c 0,-0.15173 1.875258,-0.35497 4.151212,-0.40555 4.754194,-0.10115 9.50583,-1.4135 13.55196,-3.74002 l 2.731788,-1.61655 -3.137332,-1.06455 c -4.450758,-1.5173 -8.445556,-5.0093 -9.457092,-8.29678 -0.303456,-1.06211 -0.201872,-1.10961 2.630418,-1.10961 l 2.93456,-0.0507 -2.47833,-1.16594 c -2.933442,-1.46672 -5.613068,-3.94299 -6.92806,-6.47182 -0.960943,-1.82076 -2.17336,-6.42194 -1.819311,-6.77598 0.101152,-0.15173 1.163103,0.14738 2.376944,0.55199 3.489777,1.26442 3.943771,0.96391 1.920697,-1.16031 -3.793251,-3.84382 -4.958102,-9.55966 -3.137332,-14.97136 l 0.861774,-2.42764 3.33448,3.28942 c 6.827864,6.62554 14.868648,10.56938 24.0736,11.73264 l 2.529032,0.30416 -0.146448,-2.47833 c -0.4552,-6.42324 3.53491,-12.28987 9.856996,-14.56582 1.308666,-0.45519 3.132376,-0.6868 4.93413,-0.67591 z"
     id="path7"
     inkscape:connector-curvature="0" />
  <path
     style="fill:#000000;fill-opacity:0.78431373;display:inline"
     d="m 12.1375,1e-5 C 5.435084,10e-6 -2.0000166e-5,5.43509 0,12.13751 l 0,75.725 c 0,6.7024 5.435084,12.13752 12.1375,12.1375 l 75.725,0 c 6.70244,0 12.13748,-5.4351 12.1375,-12.1375 l 0,-75.725 C 100,5.43509 94.56516,9.9999999e-6 87.8625,9.9999999e-6 l -75.725,0 z m 6.05625,8 63.60625,0 c 5.630236,0 10.2,4.56372 10.2,10.19375 l 0,63.60625 c -1.6e-5,5.63002 -4.56995,10.2 -10.2,10.2 l -63.60625,0 C 12.56372,92.00002 8,87.43003 8,81.80001 L 8,18.19376 C 7.999984,12.56373 12.56372,8.00001 18.19375,8.00001 z"
     id="path7-8-6-9"
     inkscape:connector-curvature="0" />
</svg>
