<svg xmlns="http://www.w3.org/2000/svg" viewBox="0 0 100 100"><defs><linearGradient y2="61.754" x2="48.725" y1="85.34" x1="84.49" gradientUnits="userSpaceOnUse" id="0"><stop stop-opacity=".374"/><stop offset="1" stop-opacity="0"/></linearGradient></defs><path d="m12.138 0c-6.702 0-12.137 5.435-12.137 12.138v75.72c0 6.702 5.435 12.138 12.137 12.138h75.72c6.702 0 12.138-5.435 12.138-12.138v-75.72c0-6.702-5.435-12.137-12.138-12.137h-75.72" fill="#00aced"/><path d="m63.784 21.353c1.401.008 2.792.163 3.92.473 1.012.303 2.932 1.314 4.298 2.225l2.478 1.667 2.732-.856c1.517-.455 3.539-1.218 4.45-1.724.86-.455 1.617-.704 1.617-.552 0 .86-1.868 3.789-3.436 5.407-2.124 2.276-1.517 2.48 2.782.963 2.579-.86 2.629-.86 2.123.101-.303.506-1.874 2.274-3.543 3.892-2.832 2.782-2.98 3.086-2.98 5.413 0 3.591-1.722 11.08-3.442 15.174-3.186 7.688-10.01 15.628-16.841 19.624-9.61 5.614-22.409 7.03-33.18 3.74-3.591-1.113-9.761-3.944-9.761-4.45 0-.152 1.875-.355 4.151-.406 4.754-.101 9.506-1.413 13.552-3.74l2.732-1.617-3.137-1.065c-4.451-1.517-8.446-5.01-9.457-8.297-.303-1.062-.202-1.11 2.63-1.11l2.935-.051-2.478-1.166c-2.933-1.467-5.613-3.943-6.928-6.472-.961-1.821-2.173-6.422-1.819-6.776.101-.152 1.163.147 2.377.552 3.49 1.264 3.944.964 1.921-1.16-3.793-3.844-4.958-9.56-3.137-14.971l.862-2.428 3.334 3.289c6.828 6.626 14.869 10.569 24.07 11.733l2.529.304-.146-2.478c-.455-6.423 3.535-12.29 9.857-14.566 1.309-.455 3.132-.687 4.934-.676" fill="#fff"/><path d="m12.138 0c-6.702 0-12.138 5.435-12.138 12.138v75.73c0 6.702 5.435 12.138 12.138 12.137h75.72c6.702 0 12.137-5.435 12.138-12.137v-75.73c0-6.702-5.435-12.138-12.138-12.138z" fill="url(#0)"/></svg>