<?xml version="1.0" encoding="UTF-8" standalone="no"?>
<!-- Created with Inkscape (http://www.inkscape.org/) -->

<svg
   xmlns:dc="http://purl.org/dc/elements/1.1/"
   xmlns:cc="http://creativecommons.org/ns#"
   xmlns:rdf="http://www.w3.org/1999/02/22-rdf-syntax-ns#"
   xmlns:svg="http://www.w3.org/2000/svg"
   xmlns="http://www.w3.org/2000/svg"
   xmlns:sodipodi="http://sodipodi.sourceforge.net/DTD/sodipodi-0.dtd"
   xmlns:inkscape="http://www.inkscape.org/namespaces/inkscape"
   width="500"
   height="500"
   id="svg3932"
   version="1.1"
   inkscape:version="0.48.4 r9939"
   sodipodi:docname="Twitter.svg">
  <g
     transform="translate(0,-552.36218)">
    <path
       d="m 439.32025,552.36227 -378.6407,0 c -33.5121,0 -60.6795,27.1675 -60.6795,60.6796 l 0,378.64052 c 0,33.51221 27.1675,60.67971 60.6795,60.67971 l 378.6407,0 c 33.5122,0 60.6797,-27.1675 60.6797,-60.67971 l 0,-378.64052 c 0,-33.5121 -27.1662,-60.6796 -60.6797,-60.6796 z"
       style="fill:#ffffff;fill-opacity:1;display:inline" />
    <path
       style="fill:#1a1a1a;display:inline"
       d="M 60.6875,552.36217 C 27.1754,552.36217 0,579.53753 0,613.04967 l 0,378.625 c 0,33.51213 27.1754,60.68753 60.6875,60.68753 l 378.625,0 c 33.5121,0 60.6875,-27.1754 60.6875,-60.68753 l 0,-378.625 c 0,-33.51214 -27.1741,-60.6875 -60.6875,-60.6875 l -378.625,0 z m 265.7813,91.0625 c 7.7749,0.047 15.489,0.9063 21.75,2.625 5.6121,1.68362 16.2674,7.29288 23.8437,12.34375 l 13.75,9.25 15.1563,-4.75 c 8.4181,-2.52544 19.6366,-6.75646 24.6875,-9.5625 4.7702,-2.52543 8.9687,-3.90431 8.9687,-3.0625 0,4.77027 -10.3638,21.02067 -19.0625,30 -11.7853,12.62717 -8.4138,13.76187 15.4375,5.34375 14.3108,-4.77026 14.5873,-4.76897 11.7813,0.5625 -1.6836,2.80604 -10.3963,12.61443 -19.6563,21.59375 -15.7138,15.43322 -16.5312,17.12347 -16.5312,30.03125 0,19.92288 -9.5532,61.45859 -19.0938,84.1875 -17.678,42.6518 -55.5559,86.70729 -93.4375,108.875 -53.3147,31.14703 -124.3251,38.98925 -184.0937,20.75 -19.9229,-6.17329 -54.1563,-21.88147 -54.1563,-24.6875 0,-0.84182 10.4041,-1.96939 23.0313,-2.25 26.3767,-0.5612 52.7392,-7.84222 75.1875,-20.75 l 15.1562,-8.96875 -17.4062,-5.90625 c -24.6932,-8.41812 -46.8567,-27.792 -52.4688,-46.03125 -1.6836,-5.89269 -1.12,-6.15625 14.5938,-6.15625 l 16.2812,-0.28125 -13.75,-6.46875 C 100.1625,821.97465 85.2957,808.23611 78,794.20592 72.6686,784.10418 65.942,758.5764 67.9063,756.61217 c 0.5612,-0.84181 6.453,0.81766 13.1875,3.0625 19.3616,7.01509 21.8804,5.34786 10.6562,-6.4375 -21.0453,-21.3259 -27.508,-53.03788 -17.4062,-83.0625 l 4.7812,-13.46875 18.5,18.25 c 37.8816,36.75912 82.4926,58.63986 133.5625,65.09375 l 14.0313,1.6875 -0.8125,-13.75 c -2.5255,-35.63669 19.612,-68.18533 54.6875,-80.8125 7.2606,-2.52543 17.3787,-3.81042 27.375,-3.75 z" />
  </g>
</svg>
