<?xml version="1.0" encoding="UTF-8" standalone="no"?>
<!-- Created with Inkscape (http://www.inkscape.org/) -->

<svg
   xmlns:dc="http://purl.org/dc/elements/1.1/"
   xmlns:cc="http://creativecommons.org/ns#"
   xmlns:rdf="http://www.w3.org/1999/02/22-rdf-syntax-ns#"
   xmlns:svg="http://www.w3.org/2000/svg"
   xmlns="http://www.w3.org/2000/svg"
   xmlns:sodipodi="http://sodipodi.sourceforge.net/DTD/sodipodi-0.dtd"
   xmlns:inkscape="http://www.inkscape.org/namespaces/inkscape"
   width="500"
   height="500"
   id="svg3932"
   version="1.1"
   inkscape:version="0.48.4 r9939"
   sodipodi:docname="Twitter.svg">
  <metadata
     id="metadata13">
    <rdf:RDF>
      <cc:Work
         rdf:about="">
        <dc:format>image/svg+xml</dc:format>
        <dc:type
           rdf:resource="http://purl.org/dc/dcmitype/StillImage" />
      </cc:Work>
    </rdf:RDF>
  </metadata>
  <defs
     id="defs11" />
  <sodipodi:namedview
     pagecolor="#ffffff"
     bordercolor="#666666"
     borderopacity="1"
     objecttolerance="10"
     gridtolerance="10"
     guidetolerance="10"
     inkscape:pageopacity="0"
     inkscape:pageshadow="2"
     inkscape:window-width="1920"
     inkscape:window-height="1145"
     id="namedview9"
     showgrid="false"
     inkscape:zoom="0.6675088"
     inkscape:cx="40.314387"
     inkscape:cy="-8.3026078"
     inkscape:window-x="-2"
     inkscape:window-y="-3"
     inkscape:window-maximized="1"
     inkscape:current-layer="svg3932" />
  <path
     inkscape:connector-curvature="0"
     style="fill:#00aced;fill-opacity:1;display:inline"
     d="m 60.687501,-1.45e-5 c -33.5121,0 -60.6875,27.1753595 -60.6875,60.6874995 l 0,378.624995 c 0,33.51213 27.1754,60.68753 60.6875,60.68753 l 378.624999,0 c 33.5121,0 60.6875,-27.1754 60.6875,-60.68753 L 500,60.687486 C 500,27.175346 472.8259,-1.45e-5 439.3125,-1.45e-5 l -378.624999,0 z"
     id="path3003-0" />
  <path
     style="fill:#ffffff;fill-opacity:1;display:inline"
     d="m 318.91843,106.76428 c 7.00683,0.0424 13.95886,0.81677 19.60134,2.36568 5.05769,1.5173 14.66036,6.57242 21.4882,11.12432 l 12.39166,8.3362 13.65902,-4.28075 c 7.58648,-2.27595 17.69672,-6.089 22.24865,-8.61783 4.29895,-2.27594 8.08269,-3.51861 8.08269,-2.75996 0,4.29902 -9.33997,18.94406 -17.17934,27.03633 -10.62104,11.37975 -7.58261,12.40235 13.91245,4.81585 12.89705,-4.29901 13.14623,-4.29785 10.61743,0.50693 -1.51728,2.52883 -9.36926,11.36826 -17.71447,19.46052 -14.16145,13.90859 -14.8981,15.43186 -14.8981,27.0645 0,17.95471 -8.60945,55.38715 -17.20754,75.8707 -15.93161,38.43827 -50.06759,78.14156 -84.2069,98.11934 -48.0478,28.07005 -112.04315,35.13754 -165.90727,18.70013 -17.95473,-5.56344 -48.806249,-19.71982 -48.806249,-22.24865 0,-0.75865 9.376289,-1.77483 20.756061,-2.02772 23.770968,-0.50576 47.529148,-7.0675 67.759798,-18.70013 l 13.65894,-8.08273 -15.68666,-5.32278 c -22.25379,-7.5865 -42.22778,-25.04646 -47.28546,-41.48387 -1.51728,-5.31056 -1.00936,-5.54808 13.15209,-5.54808 l 14.6728,-0.25347 -12.39165,-5.8297 c -14.66721,-7.33363 -28.06534,-19.71495 -34.6403,-32.35911 -4.804717,-9.1038 -10.866802,-32.10972 -9.096554,-33.8799 0.50576,-0.75865 5.815515,0.73688 11.88472,2.75996 17.448884,6.32207 19.718854,4.81955 9.603484,-5.80155 C 88.421015,186.50938 82.596759,157.93019 91.700612,130.87167 l 4.30887,-12.13818 16.672398,16.4471 c 34.13932,33.12772 74.34324,52.84688 120.368,58.6632 l 12.64516,1.52079 -0.73224,-12.39165 c -2.276,-32.11617 17.67455,-61.44936 49.28498,-72.82911 6.54333,-2.27594 15.66188,-3.43399 24.67065,-3.37954 z"
     id="path7"
     inkscape:connector-curvature="0" />
  <path
     style="fill:#000000;fill-opacity:0.78431373;display:inline"
     d="M 60.6875,-5.000276e-6 C 27.17542,-5.000276e-6 -9.9999724e-5,27.175397 0,60.687495 L 0,439.3125 C 0,472.82453 27.17542,500.0001 60.6875,500 l 378.625,0 C 472.8247,500 499.9999,472.82453 500,439.3125 L 500,60.687495 C 500,27.175397 472.8258,-5.000276e-6 439.3125,-5.000276e-6 l -378.625,0 z M 90.96875,39.999995 l 318.03125,0 c 28.15118,0 51,22.818589 51,50.96875 L 460,409 c -8e-5,28.15011 -22.84975,51 -51,51 L 90.96875,460 C 62.8186,460.00008 40,437.15011 40,409 L 40,90.968745 c -8e-5,-28.150161 22.8186,-50.96875 50.96875,-50.96875 z"
     id="path7-8-6-9"
     inkscape:connector-curvature="0" />
</svg>
