<svg xmlns="http://www.w3.org/2000/svg" viewBox="0 0 100 100"><defs><clipPath><path d="m0 841.89h595.28v-841.89h-595.28v841.89"/></clipPath><linearGradient y2="61.753" x2="48.72" y1="85.34" x1="84.48" gradientUnits="userSpaceOnUse" id="0"><stop stop-opacity=".374"/><stop offset="1" stop-opacity="0"/></linearGradient></defs><g transform="matrix(.99995 0 0 .99995.005.004)" fill="#fff"><path d="m87.86 0h-75.73c-6.702 0-12.136 5.434-12.136 12.136v75.73c0 6.702 5.433 12.136 12.136 12.136h75.73c6.702 0 12.136-5.433 12.136-12.136v-75.73c0-6.702-5.433-12.136-12.136-12.136"/><path d="m12.138 0c-6.702 0-12.138 5.435-12.138 12.138v75.72c0 6.702 5.435 12.138 12.138 12.138h75.72c6.702 0 12.138-5.435 12.138-12.138v-75.72c0-6.702-5.435-12.138-12.138-12.138h-75.72"/><path d="m0 0c-.369 0-.723-.207-.894-.531-2.853-5.309-8.478-8.746-14.58-8.746h-.107c-4.438.035-8.578 1.781-11.691 4.931-3.087 3.131-4.77 7.244-4.78 11.628v.081l-.027.036h.037c.053 9.07 7.496 16.461 16.56 16.452h.108c6.07-.036 11.645-3.483 14.48-8.749l.37-.684c-1.225-1.539-1.945-3.293-1.945-5.156l.009-.099c.019-1.998.856-3.879 2.269-5.499l.188-.081h.004l.188.081c1.414 1.62 2.25 3.501 2.269 5.499l.009.099c0 1.863-.72 3.617-1.945 5.156l.37.684c2.835 5.266 8.415 8.713 14.48 8.749h.108c9.06.009 16.507-7.381 16.56-16.452h.037l-.027-.036v-.081c-.01-4.384-1.693-8.497-4.779-11.628-3.114-3.15-7.254-4.896-11.692-4.931h-.107c-6.102 0-11.727 3.437-14.58 8.746-.171.324-.525.531-.894.531h.002" transform="matrix(.97651 0 0-.97651 50 58.947)"/></g><path transform="matrix(1.11224 0 0-1.11224 68.23 37.23)" d="m0 0c-.1-.008-.207-.008-.307-.018.1.01.207.01.307.01v.008" fill="#949494"/><path transform="matrix(1.11224 0 0-1.11224 31.775 37.23)" d="m0 0v-.01c.107 0 .207 0 .314-.008-.107.008-.207.008-.314.018" fill="#adadad"/><path transform="matrix(1.11224 0 0-1.11224 32.12 37.25)" d="m0 0c-.104.008-.209.01-.314.014.029-.559.552-1.092 1.052-1.547.61-.576 1.01-1.129 1-2.067v-.007c-.005-1.392-1.194-2.39-2.503-2.396h-.007c-1.325.01-2.405 1.162-2.413 2.427l-.002.043c-.003.955.507 1.517.965 1.957.501.494.989.881 1.02 1.588-5.842-.252-10.485-5.077-10.445-10.974.041-6.04 4.966-10.893 10.998-10.852 6.04.041 10.89 4.965 10.851 11-.039 5.761-4.541 10.444-10.203 10.813" fill="#00a6f0" fill-rule="evenodd"/><path transform="matrix(1.11224 0 0-1.11224 50.01 60.19)" d="m0 0c-.369 0-.723-.207-.894-.531-2.853-5.309-8.478-8.746-14.58-8.746h-.107c-4.438.035-8.578 1.781-11.691 4.931-3.087 3.131-4.77 7.244-4.78 11.628v.081l-.027.036h.037c.053 9.07 7.496 16.461 16.56 16.452h.108c6.07-.036 11.645-3.483 14.48-8.749l.37-.684c-1.225-1.539-1.945-3.293-1.945-5.156l.009-.099c.019-1.998.856-3.879 2.269-5.499l.188-.081h.004l.188.081c1.414 1.62 2.25 3.501 2.269 5.499l.009.099c0 1.863-.72 3.617-1.945 5.156l.37.684c2.835 5.266 8.415 8.713 14.48 8.749h.108c9.06.009 16.507-7.381 16.56-16.452h.037l-.027-.036v-.081c-.01-4.384-1.693-8.497-4.779-11.628-3.114-3.15-7.254-4.896-11.692-4.931h-.107c-6.102 0-11.727 3.437-14.58 8.746-.171.324-.525.531-.894.531h.002m-.001-23.516h.466c.449.004.895.024 1.342.043v-1.681c0-.854.671-1.526 1.524-1.526.855 0 1.525.672 1.525 1.526v1.951c17.05 2.224 31.841 16.469 31.07 34.463v-.002 17.9c0 .383-.147.767-.44 1.06-.293.293-.678.439-1.06.439-.385 0-.768-.146-1.061-.439l-2.521-2.521c-6.406 10.412-18.1 17.392-30.851 17.306-12.752.086-24.445-6.894-30.851-17.306l-2.521 2.521c-.293.293-.676.439-1.061.439-.382 0-.767-.146-1.06-.439-.293-.293-.44-.677-.44-1.06v-17.9.002c-.766-17.994 14.02-32.24 31.07-34.463v-1.951c0-.854.67-1.526 1.525-1.526.854 0 1.524.672 1.524 1.526v1.681c.447-.019.893-.039 1.342-.043h.466"/><path transform="matrix(1.11224 0 0-1.11224 32.943 38.954)" d="m0 0c.609-.576 1.01-1.129 1-2.066v-.008c-.005-1.392-1.194-2.39-2.503-2.396h-.007c-1.325.01-2.405 1.162-2.413 2.427l-.002.043c-.004.955.507 1.518.965 1.957.501.494.988.881 1.02 1.588-3.92-.248-7.01-3.514-6.986-7.491.027-4.123 3.392-7.442 7.515-7.414 4.123.029 7.441 3.394 7.415 7.515-.026 3.859-2.982 7.02-6.743 7.378-.105.008-.209.01-.315.014.03-.559.553-1.092 1.053-1.547" fill="#00608b"/><path transform="matrix(1.11224 0 0-1.11224 68.23 37.23)" d="m0 0v-.01c-.107 0-.207 0-.314-.008.107.008.207.008.314.018" fill="#adadad"/><path transform="matrix(1.11224 0 0-1.11224 67.887 37.25)" d="m0 0c.104.008.209.01.314.014-.029-.559-.552-1.092-1.052-1.547-.61-.576-1.01-1.129-1-2.067v-.007c.005-1.392 1.194-2.39 2.503-2.396h.007c1.325.01 2.405 1.162 2.413 2.427l.002.043c.003.955-.507 1.517-.965 1.957-.501.494-.989.881-1.02 1.588 5.842-.252 10.485-5.077 10.445-10.974-.041-6.04-4.966-10.893-10.998-10.852-6.04.041-10.89 4.965-10.851 11 .039 5.761 4.541 10.444 10.203 10.813" fill="#f00" fill-rule="evenodd"/><path transform="matrix(1.11224 0 0-1.11224 67.06 38.954)" d="m0 0c-.609-.576-1.01-1.129-1-2.066v-.008c.005-1.392 1.194-2.39 2.503-2.396h.007c1.325.01 2.405 1.162 2.413 2.427l.002.043c.004.955-.507 1.518-.965 1.957-.501.494-.988.881-1.02 1.588 3.92-.248 7.01-3.514 6.986-7.491-.027-4.123-3.392-7.442-7.515-7.414-4.123.029-7.441 3.394-7.415 7.515.026 3.859 2.982 7.02 6.743 7.378.105.008.209.01.315.014-.03-.559-.553-1.092-1.053-1.547" fill="#ad0000"/><path d="m12.135.002c-6.702 0-12.137 5.435-12.137 12.137v75.73c0 6.702 5.435 12.137 12.137 12.136h75.73c6.702 0 12.136-5.435 12.136-12.136v-75.73c0-6.702-5.435-12.137-12.136-12.137z" fill="url(#0)"/></svg>