<?xml version="1.0" encoding="UTF-8" standalone="no"?>
<!-- Created with Inkscape (http://www.inkscape.org/) -->

<svg
   xmlns:dc="http://purl.org/dc/elements/1.1/"
   xmlns:cc="http://creativecommons.org/ns#"
   xmlns:rdf="http://www.w3.org/1999/02/22-rdf-syntax-ns#"
   xmlns:svg="http://www.w3.org/2000/svg"
   xmlns="http://www.w3.org/2000/svg"
   xmlns:sodipodi="http://sodipodi.sourceforge.net/DTD/sodipodi-0.dtd"
   xmlns:inkscape="http://www.inkscape.org/namespaces/inkscape"
   width="500"
   height="500"
   id="svg3932"
   version="1.1"
   inkscape:version="0.48.4 r9939"
   sodipodi:docname="Viadeo.svg">
  <g
     transform="translate(0,-552.36218)">
    <path
       d="m 439.32025,552.36227 -378.6407,0 c -33.5121,0 -60.6795,27.1675 -60.6795,60.6796 l 0,378.64052 c 0,33.51221 27.1675,60.67971 60.6795,60.67971 l 378.6407,0 c 33.5122,0 60.6797,-27.1675 60.6797,-60.67971 l 0,-378.64052 c 0,-33.5121 -27.1662,-60.6796 -60.6797,-60.6796 z"
       style="fill:#ffffff;fill-opacity:1;display:inline" />
    <path
       style="fill:#1a1a1a;display:inline"
       d="M 60.6875,552.36217 C 27.1753,552.36217 0,579.53756 0,613.04966 l 0,378.625 c 0,33.51214 27.1753,60.68754 60.6875,60.68754 l 378.625,0 c 33.5121,0 60.6875,-27.1754 60.6875,-60.68754 l 0,-378.625 c 0,-33.5121 -27.1742,-60.68749 -60.6875,-60.68749 l -378.625,0 z m 177,55.84374 c 0.649,-0.0819 2.4106,1.18945 5.3437,3.875 16.0914,14.73306 31.2152,40.8828 39.1875,67.71875 3.4645,11.66169 8.1027,37.5625 6.7188,37.5625 -0.2081,0 -0.6458,-0.48966 -0.9688,-1.09375 -0.3229,-0.6041 -2.1291,-5.18214 -4.0312,-10.1875 -9.5039,-25.00965 -22.8185,-53.64491 -37.6563,-80.96875 -3.0929,-5.69576 -6.1464,-11.0958 -6.7812,-12 -0.6348,-0.90421 -1.4361,-2.40443 -1.7813,-3.3125 -0.3906,-1.02741 -0.4206,-1.54462 -0.031,-1.59375 z m 160.3437,8.125 c 1.6565,0 7.7792,11.70679 11.875,22.71875 5.7638,15.49664 8.1853,30.8376 7.7188,48.8125 -0.7263,27.98017 -8.4141,48.99395 -24.6875,67.53125 -11.7676,13.40457 -28.0033,20.13099 -44.5313,18.4375 -8.9776,-0.91986 -18.3727,-4.80067 -26.9375,-11.125 -6.5385,-4.82811 -9.1958,-7.36376 -8.7812,-8.40625 0.1846,-0.46404 2.2428,-1.93304 4.5625,-3.28125 35.2819,-20.50499 64.6054,-46.65579 72.5937,-64.71875 1.5759,-3.56345 2.0321,-5.9806 1.125,-5.96875 -0.2589,0.003 -2.2299,2.7627 -4.375,6.125 -12.5088,19.60708 -32.2115,36.85197 -54.4375,47.625 -8.6083,4.17249 -21.9086,8.86565 -26.7187,9.4375 l -2.8438,0.34375 -2.2812,-4.9375 c -4.4426,-9.66417 -6.1563,-17.00459 -6.1563,-26.40625 0,-8.38445 1.3935,-14.44252 5.0313,-21.84375 3.701,-7.52983 8.6118,-13.68415 14.3125,-17.9375 5.9764,-4.45915 17.5531,-10.036 27.25,-13.125 20.6068,-6.56449 22.5646,-7.40295 31.1875,-13.40625 8.4878,-5.90927 19.2809,-18.21434 23.8437,-27.21875 0.7435,-1.46709 1.7558,-2.65625 2.25,-2.65625 z M 218.75,714.64341 c 11.912,-0.0423 24.2562,1.14176 34,3.40625 7.8604,1.82676 15.0625,4.33417 15.0625,5.25 0,0.44084 -0.9538,2.8862 -2.125,5.4375 -2.8569,6.22328 -5.9162,15.95345 -6.8125,21.71875 -0.424,2.72722 -1.0849,4.84796 -1.5625,5.03125 -0.4536,0.17405 -3.5752,-0.59597 -6.9375,-1.6875 -17.3452,-5.63093 -40.1727,-6.01204 -57.5625,-0.96875 -20.1626,5.84743 -37.6494,17.8291 -51.8125,35.53125 -14.0122,17.5134 -21.2468,36.0858 -23.2813,59.78125 -1.7295,20.14453 2.1403,39.9994 11.4063,58.65625 8.2708,16.6531 18.7545,28.9801 33.0937,38.90625 10.0106,6.92967 25.402,13.5014 35.7813,15.28125 l 4.5312,0.78125 5.7813,-2.78125 c 10.8357,-5.25358 19.7065,-11.72336 28.5,-20.78125 4.9099,-5.05756 11.4405,-13.23634 14.75,-18.4375 0.8785,-1.38079 2.3334,-3.70408 3.25,-5.15625 12.8494,-20.35746 24.5751,-55.69699 29.9687,-90.4375 3.815,-24.57172 5.2591,-45.05323 5.2813,-74.34375 0.013,-16.337 0.2453,-24.87956 0.6562,-24.75 1.9073,0.60123 10.3667,30.85166 12.8438,45.90625 3.7009,22.49285 3.5553,47.44486 -0.375,67.8125 -8.8629,45.92995 -34.671,87.69717 -73.1563,118.34375 -4.6943,3.73824 -6.4371,5.44358 -5.8437,5.78125 1.0095,0.5745 10.5509,-0.40835 17.5625,-1.8125 17.4087,-3.48631 36.0328,-13.31784 48.875,-25.84375 14.4924,-14.13555 25.3248,-34.32909 29.9062,-55.65625 1.9156,-8.91682 2.4424,-29.17652 1,-39 -1.123,-7.64861 -2.7584,-14.36935 -5.1875,-21.4375 -0.8676,-2.52477 -1.4421,-4.95567 -1.2812,-5.375 0.1609,-0.41933 2.3697,-1.26624 4.9062,-1.875 5.9647,-1.43154 14.5833,-4.83184 21.1563,-8.375 2.8682,-1.54611 5.5777,-2.67403 6.0312,-2.5 0.4535,0.17403 1.9763,3.81413 3.375,8.09375 8.7736,26.84483 9.7971,56.71823 2.9063,84.0625 -4.7751,18.94877 -14.2919,37.54017 -27.7188,54.1875 -5.5938,6.93542 -17.2525,18.54464 -23.0937,23 -16.5094,12.59252 -34.9399,20.59553 -56.1875,24.40625 -10.0793,1.8077 -36.6743,2.32319 -46.7188,0.90625 -15.6054,-2.20142 -27.4046,-5.66623 -40.1875,-11.84375 -14.663,-7.08613 -28.2102,-17.27426 -39.3125,-29.5625 C 99.8226,931.72481 88.0518,907.25745 83.5,878.01841 c -1.5771,-10.13089 -1.5576,-33.09993 0.031,-43.59375 3.7784,-24.95122 12.6935,-45.9825 28.1875,-66.5 5.6506,-7.48272 21.0444,-22.67947 28.7812,-28.375 16.9898,-12.50709 36.1679,-20.27933 57.9063,-23.5 6.2017,-0.91882 13.1965,-1.38088 20.3437,-1.40625 z" />
  </g>
</svg>
