<svg xmlns="http://www.w3.org/2000/svg" viewBox="0 0 100 100"><defs><linearGradient y2="61.752" x2="48.727" y1="85.34" x1="84.49" gradientUnits="userSpaceOnUse" id="0" gradientTransform="matrix(.99998 0 0 .99995 0 .005)"><stop stop-opacity=".374"/><stop offset="1" stop-opacity="0"/></linearGradient></defs><g transform="matrix(.99998 0 0 .99995.005.004)" fill="#fff"><path d="m87.86 0h-75.73c-6.702 0-12.136 5.434-12.136 12.136v75.73c0 6.702 5.433 12.136 12.136 12.136h75.73c6.702 0 12.136-5.433 12.136-12.136v-75.73c0-6.702-5.433-12.136-12.136-12.136"/><path d="m12.138 0c-6.702 0-12.138 5.435-12.138 12.138v75.72c0 6.702 5.435 12.138 12.138 12.138h75.72c6.702 0 12.138-5.435 12.138-12.138v-75.72c0-6.702-5.435-12.137-12.138-12.137h-75.72"/></g><g transform="matrix(.20602 0 0 .20601 109.79-16.995)"><g fill="#f09933"><path d="m-302.57 131.06c.649-.082 2.411 1.189 5.344 3.875 16.09 14.733 31.22 40.883 39.19 67.72 3.464 11.662 8.103 37.563 6.719 37.563-.208 0-.646-.49-.969-1.094-.323-.604-2.129-5.182-4.03-10.188-9.504-25.01-22.818-53.645-37.656-80.969-3.093-5.696-6.146-11.1-6.781-12-.635-.904-1.436-2.404-1.781-3.313-.391-1.027-.421-1.545-.031-1.594"/><path d="m-142.22 139.18c1.656 0 7.779 11.707 11.875 22.719 5.764 15.497 8.185 30.838 7.719 48.813-.726 27.98-8.414 48.994-24.687 67.53-11.768 13.405-28 20.13-44.531 18.438-8.978-.92-18.373-4.801-26.938-11.125-6.538-4.828-9.196-7.364-8.781-8.406.185-.464 2.243-1.933 4.563-3.281 35.28-20.505 64.61-46.656 72.59-64.719 1.576-3.563 2.032-5.981 1.125-5.969-.259.003-2.23 2.763-4.375 6.125-12.509 19.607-32.21 36.852-54.44 47.625-8.608 4.172-21.909 8.866-26.719 9.438l-2.844.344-2.281-4.938c-4.443-9.664-6.156-17-6.156-26.406 0-8.384 1.393-14.443 5.03-21.844 3.701-7.53 8.612-13.684 14.313-17.938 5.976-4.459 17.553-10.04 27.25-13.12 20.607-6.564 22.565-7.403 31.19-13.406 8.488-5.909 19.281-18.214 23.844-27.22.744-1.467 1.756-2.656 2.25-2.656"/><path d="m-249.53 247.94c-.411-.13-.643 8.413-.656 24.75-.022 29.29-1.466 49.772-5.281 74.34-5.394 34.741-17.12 70.08-29.969 90.44-.917 1.452-2.372 3.775-3.25 5.156-3.31 5.201-9.84 13.38-14.75 18.438-8.793 9.06-17.664 15.528-28.5 20.781l-5.781 2.781-4.531-.781c-5.728-.982-12.997-3.438-20.03-6.594 12.28 5.917 26.05 9.25 40.594 9.25 5.03 0 9.994-.423 14.813-1.188-4.596.58-8.557.828-9.188.469-.593-.338 1.149-2.043 5.844-5.781 38.485-30.647 64.29-72.41 73.16-118.34 3.93-20.368 4.076-45.32.375-67.813-2.477-15.05-10.936-45.31-12.844-45.906"/></g><path d="m-321.5 237.49c-7.147.025-14.14.487-20.344 1.406-21.738 3.221-40.916 10.993-57.906 23.5-7.737 5.696-23.13 20.892-28.781 28.375-15.494 20.517-24.409 41.549-28.19 66.5-1.589 10.494-1.608 33.463-.031 43.594 4.552 29.24 16.323 53.706 36.719 76.28 11.1 12.288 24.649 22.476 39.31 29.563 12.783 6.178 24.582 9.642 40.19 11.844 10.04 1.417 36.639.901 46.719-.906 21.248-3.811 39.678-11.814 56.19-24.406 5.841-4.455 17.5-16.06 23.09-23 13.427-16.647 22.944-35.24 27.719-54.19 6.891-27.344 5.867-57.22-2.906-84.06-1.399-4.28-2.922-7.92-3.375-8.094-.453-.174-3.163.954-6.03 2.5-6.573 3.543-15.192 6.943-21.16 8.375-2.536.609-4.745 1.456-4.906 1.875-.161.419.414 2.85 1.281 5.375 2.429 7.07 4.065 13.789 5.188 21.438 1.442 9.823.916 30.08-1 39-4.581 21.327-15.414 41.521-29.906 55.656-12.842 12.526-31.466 22.357-48.875 25.844-2.493.499-5.302.94-7.938 1.281-.144.019-.295.044-.438.063-4.819.765-9.779 1.188-14.813 1.188-14.544 0-28.314-3.333-40.594-9.25-.126-.061-.249-.126-.375-.188-.03-.014-.064-.018-.094-.031-5.538-2.515-10.925-5.453-15.281-8.469-14.339-9.926-24.823-22.253-33.09-38.906-9.266-18.657-13.14-38.512-11.406-58.656 2.034-23.695 9.269-42.27 23.281-59.781 14.163-17.702 31.65-29.684 51.813-35.531 17.39-5.04 40.22-4.662 57.56.969 3.362 1.092 6.484 1.862 6.938 1.688.478-.183 1.139-2.304 1.563-5.03.896-5.765 3.956-15.495 6.813-21.719 1.171-2.551 2.125-4.997 2.125-5.438 0-.916-7.202-3.423-15.06-5.25-9.744-2.264-22.09-3.449-34-3.406"/></g><path d="m12.14.003c-6.702 0-12.138 5.435-12.138 12.137v75.73c0 6.702 5.435 12.137 12.138 12.136h75.72c6.702 0 12.137-5.435 12.138-12.136v-75.73c0-6.702-5.435-12.137-12.138-12.137z" fill="url(#0)"/></svg>