<?xml version="1.0" encoding="UTF-8" standalone="no"?>
<!-- Created with Inkscape (http://www.inkscape.org/) -->

<svg
   xmlns:dc="http://purl.org/dc/elements/1.1/"
   xmlns:cc="http://creativecommons.org/ns#"
   xmlns:rdf="http://www.w3.org/1999/02/22-rdf-syntax-ns#"
   xmlns:svg="http://www.w3.org/2000/svg"
   xmlns="http://www.w3.org/2000/svg"
   xmlns:xlink="http://www.w3.org/1999/xlink"
   xmlns:sodipodi="http://sodipodi.sourceforge.net/DTD/sodipodi-0.dtd"
   xmlns:inkscape="http://www.inkscape.org/namespaces/inkscape"
   width="100"
   height="100"
   id="svg3932"
   version="1.1"
   inkscape:version="0.48.4 r9939"
   sodipodi:docname="Viadeo.svg">
  <metadata
     id="metadata13">
    <rdf:RDF>
      <cc:Work
         rdf:about="">
        <dc:format>image/svg+xml</dc:format>
        <dc:type
           rdf:resource="http://purl.org/dc/dcmitype/StillImage" />
      </cc:Work>
    </rdf:RDF>
  </metadata>
  <defs
     id="defs11">
    <linearGradient
       y2="796.64795"
       x2="334.28577"
       y1="1009.505"
       x1="644.28564"
       gradientTransform="matrix(0.14285713,0,0,0.19999998,0,-110.4725)"
       gradientUnits="userSpaceOnUse"
       id="linearGradient3033"
       xlink:href="#linearGradient5322-1"
       inkscape:collect="always" />
    <linearGradient
       id="linearGradient5322-1">
      <stop
         style="stop-color:#000000;stop-opacity:0.37391305;"
         offset="0"
         id="stop5324-6" />
      <stop
         style="stop-color:#000000;stop-opacity:0;"
         offset="1"
         id="stop5326-3" />
    </linearGradient>
    <linearGradient
       y2="796.64795"
       x2="334.28577"
       y1="1009.505"
       x1="644.28564"
       gradientTransform="matrix(0.14285713,0,0,0.19999998,0,-110.4725)"
       gradientUnits="userSpaceOnUse"
       id="linearGradient3012"
       xlink:href="#linearGradient5322-1"
       inkscape:collect="always" />
  </defs>
  <sodipodi:namedview
     pagecolor="#ffffff"
     bordercolor="#666666"
     borderopacity="1"
     objecttolerance="10"
     gridtolerance="10"
     guidetolerance="10"
     inkscape:pageopacity="0"
     inkscape:pageshadow="2"
     inkscape:window-width="1920"
     inkscape:window-height="1145"
     id="namedview9"
     showgrid="false"
     inkscape:zoom="0.944"
     inkscape:cx="348.64211"
     inkscape:cy="133.24154"
     inkscape:window-x="-2"
     inkscape:window-y="-3"
     inkscape:window-maximized="1"
     inkscape:current-layer="svg3932" />
  <path
     style="fill:#ffffff;fill-opacity:1;display:inline"
     d="m 87.86405,4e-5 -75.72814,0 C 5.43349,4e-5 1.0000055e-5,5.43354 1.0000055e-5,12.13596 l 0,75.7281 C 1.0000055e-5,94.5665 5.43351,100 12.13591,100 l 75.72814,0 c 6.70244,0 12.13594,-5.4335 12.13594,-12.13594 l 0,-75.7281 C 99.99999,5.43354 94.56675,4e-5 87.86405,4e-5 z"
     id="path5"
     inkscape:connector-curvature="0" />
  <path
     style="fill:#ffffff;display:inline"
     d="M 12.1375,2e-5 C 5.43506,2e-5 0,5.4351 0,12.13752 l 0,75.72499 c 0,6.70243 5.43506,12.13751 12.1375,12.13751 l 75.725,0 c 6.70242,0 12.1375,-5.43508 12.1375,-12.13751 l 0,-75.72499 C 100,5.4351 94.56516,2e-5 87.8625,2e-5 l -75.725,0 z"
     id="path3009"
     inkscape:connector-curvature="0" />
  <g
     id="g3057"
     transform="matrix(0.18026474,0,0,0.18026473,102.32174,-8.62401)">
    <path
       inkscape:connector-curvature="0"
       id="path3007"
       d="m -302.56674,131.05559 c 0.649,-0.0819 2.4106,1.18945 5.3437,3.875 16.0914,14.73306 31.2152,40.8828 39.1875,67.71875 3.4645,11.66169 8.1027,37.5625 6.7188,37.5625 -0.2081,0 -0.6458,-0.48966 -0.9688,-1.09375 -0.3229,-0.6041 -2.1291,-5.18214 -4.0312,-10.1875 -9.5039,-25.00965 -22.8185,-53.64491 -37.6563,-80.96875 -3.0929,-5.69576 -6.1464,-11.0958 -6.7812,-12 -0.6348,-0.90421 -1.4361,-2.40443 -1.7813,-3.3125 -0.3906,-1.02741 -0.4206,-1.54462 -0.031,-1.59375 z"
       style="fill:#f09933;fill-opacity:1;display:inline" />
    <path
       inkscape:connector-curvature="0"
       id="path3005"
       d="m -142.22304,139.18059 c 1.6565,0 7.7792,11.70679 11.875,22.71875 5.7638,15.49664 8.1853,30.8376 7.7188,48.8125 -0.7263,27.98017 -8.4141,48.99395 -24.6875,67.53125 -11.7676,13.40457 -28.0033,20.13099 -44.5313,18.4375 -8.9776,-0.91986 -18.3727,-4.80067 -26.9375,-11.125 -6.5385,-4.82811 -9.1958,-7.36376 -8.7812,-8.40625 0.1846,-0.46404 2.2428,-1.93304 4.5625,-3.28125 35.2819,-20.50499 64.6054,-46.65579 72.5937,-64.71875 1.5759,-3.56345 2.0321,-5.9806 1.125,-5.96875 -0.2589,0.003 -2.2299,2.7627 -4.375,6.125 -12.5088,19.60708 -32.2115,36.85197 -54.4375,47.625 -8.6083,4.17249 -21.9086,8.86565 -26.7187,9.4375 l -2.8438,0.34375 -2.2812,-4.9375 c -4.4426,-9.66417 -6.1563,-17.00459 -6.1563,-26.40625 0,-8.38445 1.3935,-14.44252 5.0313,-21.84375 3.701,-7.52983 8.6118,-13.68415 14.3125,-17.9375 5.9764,-4.45915 17.5531,-10.036 27.25,-13.125 20.6068,-6.56449 22.5646,-7.40295 31.1875,-13.40625 8.4878,-5.90927 19.2809,-18.21434 23.8437,-27.21875 0.7435,-1.46709 1.7558,-2.65625 2.25,-2.65625 z"
       style="fill:#f09933;fill-opacity:1;display:inline" />
    <path
       id="path7"
       d="m -249.53125,247.9375 c -0.4109,-0.12956 -0.64325,8.413 -0.65625,24.75 -0.0222,29.29052 -1.46625,49.77203 -5.28125,74.34375 -5.3936,34.74051 -17.11935,70.08004 -29.96875,90.4375 -0.9166,1.45217 -2.3715,3.77546 -3.25,5.15625 -3.3095,5.20116 -9.8401,13.37994 -14.75,18.4375 -8.7935,9.05789 -17.6643,15.52767 -28.5,20.78125 l -5.78125,2.78125 -4.53125,-0.78125 c -5.72803,-0.98225 -12.99706,-3.43792 -20.03125,-6.59375 12.28006,5.91714 26.04993,9.25 40.59375,9.25 5.03398,0 9.99373,-0.42262 14.8125,-1.1875 -4.59587,0.58026 -8.55656,0.82781 -9.1875,0.46875 -0.5934,-0.33767 1.14945,-2.04301 5.84375,-5.78125 38.4853,-30.64658 64.29335,-72.4138 73.15625,-118.34375 3.9303,-20.36764 4.0759,-45.31965 0.375,-67.8125 -2.4771,-15.05459 -10.93645,-45.30502 -12.84375,-45.90625 z"
       style="fill:#f09933;fill-opacity:1;display:inline"
       inkscape:connector-curvature="0" />
    <path
       sodipodi:nodetypes="sssscssssssssssssscscssscscccsssssscsssss"
       inkscape:connector-curvature="0"
       id="path7-2"
       d="m -321.50437,237.49309 c -7.1472,0.0254 -14.14205,0.48743 -20.34375,1.40625 -21.7384,3.22067 -40.91645,10.99291 -57.90625,23.5 -7.7368,5.69553 -23.13065,20.89228 -28.78125,28.375 -15.494,20.5175 -24.4091,41.54878 -28.1875,66.5 -1.5886,10.49382 -1.60835,33.46286 -0.0312,43.59375 4.5518,29.23904 16.32265,53.7064 36.71875,76.28125 11.1023,12.28824 24.6495,22.47637 39.3125,29.5625 12.7829,6.17752 24.5821,9.64233 40.1875,11.84375 10.0445,1.41694 36.63945,0.90145 46.71875,-0.90625 21.2476,-3.81072 39.6781,-11.81373 56.1875,-24.40625 5.8412,-4.45536 17.49995,-16.06458 23.09375,-23 13.4269,-16.64733 22.94365,-35.23873 27.71875,-54.1875 6.8908,-27.34427 5.86735,-57.21767 -2.90625,-84.0625 -1.3987,-4.27962 -2.9215,-7.91972 -3.375,-8.09375 -0.4535,-0.17403 -3.16305,0.95389 -6.03125,2.5 -6.573,3.54316 -15.19155,6.94346 -21.15625,8.375 -2.5365,0.60876 -4.74535,1.45567 -4.90625,1.875 -0.1609,0.41933 0.41365,2.85023 1.28125,5.375 2.4291,7.06815 4.0645,13.78889 5.1875,21.4375 1.4424,9.82348 0.9156,30.08318 -1,39 -4.5814,21.32716 -15.41385,41.5207 -29.90625,55.65625 -12.8422,12.52591 -31.4663,22.35744 -48.875,25.84375 -2.49304,0.49926 -5.30204,0.93958 -7.9375,1.28125 -0.14409,0.0187 -0.29455,0.0444 -0.4375,0.0625 -4.81877,0.76488 -9.77852,1.1875 -14.8125,1.1875 -14.54382,0 -28.31369,-3.33286 -40.59375,-9.25 -0.12633,-0.0609 -0.24898,-0.12608 -0.375,-0.1875 -0.0299,-0.0135 -0.0639,-0.0177 -0.0937,-0.0312 -5.53755,-2.51455 -10.92512,-5.45329 -15.28125,-8.46875 -14.3392,-9.92615 -24.82295,-22.25315 -33.09375,-38.90625 -9.266,-18.65685 -13.13575,-38.51172 -11.40625,-58.65625 2.0345,-23.69545 9.26905,-42.26785 23.28125,-59.78125 14.1631,-17.70215 31.6499,-29.68382 51.8125,-35.53125 17.3898,-5.04329 40.2173,-4.66218 57.5625,0.96875 3.3623,1.09153 6.4839,1.86155 6.9375,1.6875 0.4776,-0.18329 1.1385,-2.30403 1.5625,-5.03125 0.8963,-5.7653 3.9556,-15.49547 6.8125,-21.71875 1.1712,-2.5513 2.125,-4.99666 2.125,-5.4375 0,-0.91583 -7.2021,-3.42324 -15.0625,-5.25 -9.7438,-2.26449 -22.088,-3.44855 -34,-3.40625 z"
       style="fill:#000000;fill-opacity:1;display:inline" />
  </g>
  <path
     style="fill:#000000;fill-opacity:0.78431373;display:inline"
     d="M 12.1375,2e-5 C 5.435084,2e-5 -1.999989e-5,5.4351 0,12.13752 l 0,75.725 c 0,6.7024 5.435084,12.13752 12.1375,12.1375 l 75.725,0 c 6.70244,0 12.13748,-5.4351 12.1375,-12.1375 l 0,-75.725 C 100,5.4351 94.56516,2e-5 87.8625,2e-5 l -75.725,0 z m 6.056251,8 63.606249,0 c 5.630236,0 10.2,4.56372 10.2,10.19375 l 0,63.60625 c -1.6e-5,5.63002 -4.56995,10.2 -10.2,10.2 l -63.606249,0 C 12.56372,92.00003 8,87.43004 8,81.80002 L 8,18.19377 C 7.999984,12.56374 12.56372,8.00002 18.193751,8.00002 z"
     id="path7-8-6-9"
     inkscape:connector-curvature="0" />
  <path
     inkscape:connector-curvature="0"
     style="fill:url(#linearGradient3012);fill-opacity:1;display:inline"
     d="M 8.66964,0 C 3.8822,0 0,5.435 0,12.1375 l 0,75.725 C 0,94.5649 3.8822,100 8.66964,100 l 82.66071,0 c 4.78745,0 8.66964,-5.4351 8.66964,-12.1375 l 0,-75.725 C 99.99999,5.435 96.11798,0 91.33035,0 z"
     id="path3028-2-9-8"
     sodipodi:nodetypes="sssssssss" />
</svg>
